<svg width="3000" height="3000" viewBox="0 0 3000 3000" fill="none" xmlns="http://www.w3.org/2000/svg">
<g clip-path="url(#clip0_2628_2)">
<path d="M2326.34 2296.89C2766.57 1856.65 2766.57 1142.9 2326.34 702.663C1886.1 262.43 1172.35 262.43 732.112 702.663C291.879 1142.9 291.879 1856.65 732.112 2296.89C1172.35 2737.12 1886.1 2737.12 2326.34 2296.89Z" fill="#2653B9"/>
<path d="M1529.3 2629.08C1250.25 2628.72 981.283 2524.72 774.571 2337.26C567.859 2149.8 438.14 1892.25 410.575 1614.56C383.01 1336.88 459.566 1058.85 625.391 834.412C791.216 609.975 1034.49 455.127 1308.02 399.907C1581.56 344.686 1865.85 393.028 2105.76 535.556C2345.67 678.084 2524.09 904.638 2606.41 1171.27C2688.73 1437.9 2669.09 1725.61 2551.29 1978.58C2433.49 2231.55 2225.93 2431.75 1968.88 2540.34C1829.82 2599.19 1680.31 2629.38 1529.3 2629.08ZM1529.3 374.51C908.825 374.51 404.021 879.299 404.021 1499.78C404.021 2120.25 908.75 2625.13 1529.3 2625.13C2149.86 2625.13 2654.59 2120.35 2654.59 1499.85C2654.59 879.359 2149.71 374.51 1529.3 374.51Z" fill="black"/>
<path d="M814.525 1403.77C776.017 1392.05 727.411 1398.86 698.474 1424.51C687.261 1434.47 688.648 1449.23 681.564 1459.84C677.766 1465.53 637.465 1469.6 629.341 1473.67C553.758 1511.46 502.062 1579.29 558.671 1656.49C571.169 1673.2 586.828 1687.29 604.76 1697.97C711.225 1761.84 871.525 1769.75 979.603 1707.18C1017.9 1685.01 1064.49 1651.61 1071.78 1604.25C1079.51 1553.96 1040.36 1516.84 994.915 1504.39C988.495 1502.64 951.494 1497.43 948.827 1492.11C919.995 1434.2 866.159 1419.49 814.525 1403.77Z" fill="#36B173"/>
<path d="M805.059 1752.22C800.577 1752.22 796.086 1752.15 791.585 1752.01C723.055 1749.81 656.363 1731.23 603.794 1699.68C585.609 1688.89 569.732 1674.62 557.072 1657.68C535.58 1628.37 528.241 1598.8 535.249 1569.8C544.292 1532.12 577.449 1497.46 628.466 1471.83C632.098 1470.03 640.81 1468.38 650.908 1466.47C661.759 1464.42 678.172 1461.31 679.92 1458.69C682.648 1454.61 684.05 1449.83 685.542 1444.77C687.787 1437.14 690.063 1429.24 697.162 1422.97C725.315 1397.95 773.8 1389.26 815.066 1401.87L820.025 1403.38C870.303 1418.63 922.285 1434.4 950.709 1491.23C952.624 1494.38 976.572 1498.77 985.585 1500.48C990.182 1501.34 993.814 1501.99 995.517 1502.49C1038.97 1514.34 1081.98 1551.34 1073.8 1604.58C1066.16 1654.21 1016.98 1687.91 980.642 1708.95C932.157 1737.02 870.228 1752.22 805.059 1752.22ZM775.865 1400.15C746.973 1400.15 718.684 1409.29 699.875 1426.02C693.68 1431.52 691.631 1438.51 689.445 1445.93C687.938 1451.05 686.431 1456.37 683.326 1461C680.809 1464.77 669.762 1467.03 651.676 1470.51C642.633 1472.2 633.425 1473.94 630.29 1475.51C580.358 1500.48 547.999 1534.29 539.183 1570.79C532.476 1598.58 539.589 1627.02 560.358 1655.34C572.679 1671.85 588.136 1685.76 605.844 1696.28C714.675 1761.57 874.945 1765.53 978.652 1705.49C1014.27 1684.87 1062.48 1651.91 1069.85 1604C1077.67 1553.17 1036.27 1517.77 994.492 1506.38C992.985 1505.96 989.202 1505.26 984.892 1504.46C961.471 1500.12 949.187 1497.15 947.213 1493.05C919.572 1437.76 868.419 1422.22 818.955 1407.24L814.011 1405.73C801.639 1402.01 788.785 1400.13 775.865 1400.15Z" fill="black"/>
<path d="M1300.22 1088.26C1247.63 1081.5 1199.71 1104.84 1164.98 1145.54C1135.95 1179.57 1154.28 1217.88 1154.28 1217.88C1154.28 1217.88 1080.43 1216.25 1068.58 1263.41C1063.17 1285.05 1063.75 1309.95 1073.93 1330.36C1076.19 1334.88 1084.65 1341.06 1084.65 1341.06C1084.65 1341.06 1060.02 1343.47 1052.52 1349.09C1011.51 1379.85 1004.74 1422.81 1049.83 1458.89C1125.72 1519.6 1437.25 1513.33 1467.59 1391.94C1478.62 1347.86 1462.46 1320.86 1430.98 1297.74C1424.95 1293.33 1390.12 1280.03 1389.94 1279.48C1384.86 1264.24 1407.54 1239.15 1397.97 1215.2C1387.16 1188.19 1333.69 1177.71 1333.69 1177.71C1333.69 1177.71 1347.42 1157.32 1349.76 1145.58C1355.15 1118.72 1337.53 1093.06 1300.22 1088.26Z" fill="#36B173"/>
<path d="M1219.39 1498.44C1209.27 1498.44 1199.15 1498.16 1189.04 1497.62C1125.13 1494.2 1073.95 1480.62 1048.63 1460.35C1027.53 1443.47 1016.53 1424.06 1016.83 1404.21C1017.15 1383.73 1029.08 1364.09 1051.36 1347.37C1057.18 1343.02 1071.96 1340.56 1079.68 1339.52C1076.69 1337.19 1074.14 1334.36 1072.14 1331.14C1062.57 1312 1060.57 1287.1 1066.63 1262.81C1077.43 1219.63 1136.92 1216.01 1151.3 1215.77C1147.71 1206.05 1138.53 1173.39 1163.46 1144.17C1200.9 1100.28 1249.55 1079.72 1300.47 1086.28C1319.68 1088.75 1335.14 1097.01 1344.18 1109.55C1347.89 1114.75 1350.47 1120.66 1351.77 1126.91C1353.07 1133.17 1353.05 1139.62 1351.72 1145.87C1349.79 1155.53 1340.72 1170.39 1336.96 1176.25C1348.49 1178.91 1390.09 1190.03 1399.83 1214.35C1405.54 1228.64 1400.44 1242.99 1395.95 1255.63C1392.8 1264.47 1390.09 1272.14 1391.61 1277.99C1392.98 1278.6 1396.42 1280.02 1400.04 1281.5C1411.14 1286.02 1427.93 1292.92 1432.15 1296.01C1468.54 1322.75 1479.72 1351.55 1469.53 1392.33C1460.49 1428.37 1426.26 1457.38 1370.47 1476.22C1327.83 1490.63 1274.05 1498.44 1219.39 1498.44ZM1153.66 1219.78C1146.62 1219.78 1081.32 1220.97 1070.57 1263.79C1064.74 1287.15 1066.64 1311.05 1075.79 1329.35C1077.46 1332.69 1083.64 1337.7 1085.89 1339.34C1086.22 1339.58 1086.47 1339.92 1086.6 1340.3C1086.73 1340.68 1086.75 1341.1 1086.64 1341.49C1086.53 1341.89 1086.31 1342.24 1086 1342.5C1085.68 1342.76 1085.3 1342.92 1084.89 1342.96C1078.2 1343.62 1059.56 1346.26 1053.77 1350.6C1032.53 1366.53 1021.15 1385.08 1020.85 1404.27C1020.57 1422.82 1031.04 1441.13 1051.15 1457.22C1075.46 1476.67 1127.09 1490.27 1189.26 1493.6C1253.51 1497.05 1319.12 1489.32 1369.23 1472.41C1407.2 1459.58 1454.75 1435.12 1465.69 1391.35C1475.42 1352.41 1464.69 1324.87 1429.83 1299.25C1426.02 1296.46 1408.84 1289.42 1398.56 1285.22C1388.28 1281.01 1388.43 1281.06 1388.01 1280C1385.6 1272.76 1388.78 1263.79 1392.15 1254.29C1396.4 1242.24 1401.2 1228.67 1396.09 1215.85C1385.81 1190.22 1333.81 1179.67 1333.3 1179.58C1332.97 1179.52 1332.67 1179.38 1332.41 1179.17C1332.15 1178.96 1331.95 1178.69 1331.82 1178.38C1331.69 1178.07 1331.64 1177.73 1331.68 1177.4C1331.71 1177.07 1331.83 1176.75 1332.02 1176.48C1332.15 1176.28 1345.58 1156.3 1347.77 1145.08C1348.99 1139.38 1349.01 1133.49 1347.83 1127.78C1346.65 1122.08 1344.29 1116.68 1340.91 1111.93C1332.58 1100.31 1318.02 1092.62 1299.95 1090.3C1250.42 1083.92 1203.02 1103.98 1166.5 1146.8C1138.7 1179.42 1155.95 1216.57 1156.07 1216.95C1156.22 1217.25 1156.29 1217.59 1156.27 1217.93C1156.25 1218.27 1156.14 1218.6 1155.95 1218.89C1155.77 1219.18 1155.51 1219.41 1155.21 1219.58C1154.9 1219.74 1154.56 1219.82 1154.22 1219.82L1153.66 1219.78Z" fill="black"/>
<path d="M798.775 657.989C765.949 653.573 744.518 667.559 726.04 690.468C706.116 715.26 721.127 746.232 721.127 746.232C721.127 746.232 681.459 743.399 676.545 744.378C652.853 749.111 632.522 748.674 607.518 772.381C589.839 789.156 580.389 818.937 584.715 844.724C586.719 856.706 604.926 875.033 604.926 875.033C604.926 875.033 546.313 881.74 497.692 930.33C460.013 968.009 403.269 1055.3 496.306 1127.66C614.707 1219.75 803.297 1212.74 935.85 1163.02C980.763 1146.18 1050.83 1095.29 1062.16 1044.3C1074.81 987.421 1062.38 913.345 1004.73 888.643C985.858 880.549 928.284 867.543 928.284 867.543C928.284 867.543 951.057 794.325 925.752 763.956C903.296 737.008 857.539 753.858 857.539 753.858C857.539 753.858 864.984 718.727 860.071 700.807C853.952 678.471 831.616 662.42 798.775 657.989Z" fill="#36B173"/>
<path d="M735.035 1201.14C726.897 1201.14 718.803 1200.96 710.755 1200.59C624.652 1196.7 550.093 1172.06 495.142 1129.31C463.176 1104.45 445.964 1075.67 443.975 1043.76C440.584 989.201 483.161 942.102 496.333 928.975C525.016 900.699 561.379 881.479 600.899 873.708C595.654 867.996 584.426 854.823 582.813 845.072C578.412 818.652 588.043 788.147 606.219 770.905C627.561 750.694 645.661 747.65 664.817 744.44C668.525 743.807 672.353 743.159 676.241 742.39C680.597 741.516 708.148 743.309 718.14 743.988C714.9 735.291 707.801 710.001 724.546 689.158C746.233 662.18 769.248 651.931 799.134 656C832.186 660.446 855.713 676.995 862.103 700.265C866.233 715.337 862.013 741.501 860.264 750.86C871.462 747.469 907.604 738.924 927.393 762.661C950.98 790.965 934.506 853.588 930.904 866.037C941.575 868.508 988.598 879.601 1005.61 886.85C1032.56 898.395 1051.99 921.515 1061.82 953.873C1070.12 981.168 1070.99 1014.31 1064.21 1044.78C1052.77 1096.28 982.826 1147.68 936.647 1164.96C872.097 1188.8 803.845 1201.04 735.035 1201.14ZM680.778 746.203C679.534 746.169 678.29 746.229 677.055 746.384C673.122 747.168 669.263 747.816 665.511 748.449C646.973 751.554 629.46 754.477 609.023 773.874C591.751 790.257 582.617 819.27 586.822 844.454C588.691 855.667 606.295 873.497 606.415 873.678C606.68 873.947 606.864 874.286 606.946 874.655C607.028 875.024 607.005 875.408 606.879 875.764C606.754 876.121 606.531 876.435 606.235 876.671C605.94 876.907 605.585 877.055 605.21 877.099C604.637 877.099 546.702 884.318 499.167 931.824C486.326 944.649 444.698 990.602 447.924 1043.52C449.823 1074.22 466.522 1102.01 497.539 1126.13C616.89 1218.97 803.324 1210.65 935.155 1161.2C980.369 1144.23 1049.06 1094.02 1060.25 1043.91C1072.88 987.076 1060.65 914.838 1003.99 890.558C985.493 882.63 928.448 869.608 927.875 869.458C927.606 869.391 927.353 869.271 927.13 869.105C926.908 868.94 926.72 868.732 926.579 868.493C926.438 868.255 926.35 867.989 926.318 867.714C926.287 867.438 926.314 867.16 926.398 866.896C926.624 866.172 948.553 794.372 924.243 765.208C902.962 739.677 858.727 755.532 858.29 755.698C857.952 755.826 857.586 755.86 857.23 755.797C856.874 755.734 856.542 755.576 856.269 755.34C855.996 755.104 855.791 754.798 855.677 754.455C855.564 754.112 855.545 753.745 855.622 753.392C855.622 753.046 862.902 718.532 858.169 701.29C852.231 679.647 829.941 664.184 798.562 659.964C770.212 656.151 748.343 665.993 727.726 691.705C708.811 715.231 722.918 745.058 723.053 745.359C723.211 745.675 723.281 746.028 723.257 746.38C723.233 746.732 723.116 747.072 722.918 747.364C722.715 747.65 722.442 747.881 722.126 748.034C721.81 748.186 721.46 748.257 721.109 748.238C707.982 747.333 688.947 746.203 680.657 746.203H680.778Z" fill="black"/>
<path d="M754.63 1992.21C754.097 1992.2 753.587 1991.99 753.211 1991.61C752.836 1991.23 752.625 1990.72 752.625 1990.19V1102.31C752.669 1101.81 752.9 1101.34 753.272 1101C753.645 1100.66 754.132 1100.47 754.637 1100.47C755.143 1100.47 755.63 1100.66 756.002 1101C756.375 1101.34 756.606 1101.81 756.649 1102.31V1990.19C756.649 1990.72 756.436 1991.24 756.058 1991.62C755.679 1992 755.165 1992.21 754.63 1992.21Z" fill="black"/>
<path d="M1241.27 2034.17C1241.01 2034.17 1240.75 2034.11 1240.5 2034.01C1240.26 2033.91 1240.04 2033.76 1239.85 2033.57C1239.66 2033.39 1239.52 2033.16 1239.42 2032.92C1239.32 2032.67 1239.27 2032.41 1239.27 2032.15V1428.05C1239.31 1427.55 1239.54 1427.08 1239.92 1426.74C1240.29 1426.4 1240.78 1426.21 1241.28 1426.21C1241.79 1426.21 1242.27 1426.4 1242.65 1426.74C1243.02 1427.08 1243.25 1427.55 1243.29 1428.05V2032.15C1243.29 2032.68 1243.08 2033.2 1242.7 2033.57C1242.32 2033.95 1241.81 2034.17 1241.27 2034.17Z" fill="black"/>
<path d="M2171.35 1246.24C2095.69 1235.14 2032.69 1292.27 2049.09 1358.77C2055.12 1383.31 2075.1 1411.02 2075.1 1411.02C2075.1 1411.02 2014.82 1407.72 1991.98 1419.05C1945.68 1442.08 1913.78 1459.45 1890.4 1517.02C1867.03 1574.59 1887.72 1617.62 1898.48 1649.18C1904.95 1668.1 1927.88 1701.43 1927.88 1701.43C1927.88 1701.43 1915.42 1693.24 1908.29 1691.64C1891.02 1687.81 1870.49 1686.17 1852.75 1688.38C1814.89 1693.11 1778.36 1716.29 1761.3 1750.45C1720.08 1832.86 1753.48 1929.45 1833.16 1969.3C1914.55 2009.99 2018.3 2005.23 2107.46 2005.23C2280.36 2005.23 2467.53 2033.22 2528.85 1828.89C2545.83 1772.29 2525.61 1679.05 2463.53 1655.77C2451.26 1651.25 2397.84 1652.15 2391.65 1645.97C2388.64 1642.96 2406.16 1625.53 2407.99 1623.11C2419.17 1608.2 2447.07 1521.12 2370.1 1434.61C2322.4 1381.01 2246.07 1383.85 2247.93 1381.38C2269.95 1351.94 2251.85 1258.15 2171.35 1246.24Z" fill="#36B173"/>
<path d="M2218.95 2008.47C2200.48 2008.47 2181.94 2008.15 2163.56 2007.82C2145.17 2007.49 2126.06 2007.17 2107.48 2007.17C2099.14 2007.17 2090.67 2007.17 2082.11 2007.26C1999.75 2007.65 1906.38 2008.12 1832.2 1971.09C1812.91 1961.54 1795.7 1948.26 1781.58 1932.02C1767.46 1915.78 1756.7 1896.9 1749.92 1876.47C1743.03 1855.74 1740.32 1833.84 1741.96 1812.05C1743.59 1790.26 1749.53 1769.02 1759.43 1749.54C1776.13 1716.14 1812.63 1691.35 1852.45 1686.38C1869.27 1684.28 1889.77 1685.47 1908.67 1689.68C1913.05 1690.95 1917.25 1692.77 1921.18 1695.09C1914 1684.1 1901.18 1663.44 1896.52 1649.87C1895.39 1646.57 1894.17 1643.15 1892.89 1639.59C1882.07 1609.6 1867.27 1568.52 1888.49 1516.31C1911.71 1459.13 1942.58 1441.45 1990.97 1417.35C2010.76 1407.51 2056.94 1408.41 2071.03 1408.94C2065.53 1400.76 2051.91 1379.23 2047.02 1359.35C2043.48 1345.2 2043.53 1330.39 2047.17 1316.26C2050.81 1302.13 2057.92 1289.13 2067.85 1278.45C2092.63 1251.2 2131.4 1238.47 2171.53 1244.36C2220.38 1251.53 2241.64 1286.56 2249.9 1306.71C2260.95 1333.51 2261.3 1363.73 2251.06 1380.2C2252.12 1380.33 2253.43 1380.47 2254.77 1380.62C2273.96 1382.78 2332.37 1389.29 2371.5 1433.27C2412.93 1479.81 2422.92 1525.49 2424.02 1555.62C2425.26 1589.89 2415.78 1615.9 2409.51 1624.3C2409.09 1624.85 2408.18 1625.8 2406.49 1627.69C2397.96 1636.97 2393.5 1642.76 2393.23 1644.75C2396.88 1647.49 2416.19 1648.82 2430.37 1649.78C2444.55 1650.75 2458.39 1651.71 2464.13 1653.87C2492.96 1664.69 2515.52 1691.44 2527.65 1729.22C2538.37 1762.59 2539.5 1800.06 2530.67 1829.48C2517.42 1873.62 2498.2 1908.24 2471.89 1935.28C2448.44 1959.4 2419.86 1976.89 2384.57 1988.72C2335.03 2005.26 2277.36 2008.47 2218.95 2008.47ZM2107.42 2003.15C2126.03 2003.15 2145.1 2003.48 2163.57 2003.8C2239.82 2005.12 2318.66 2006.48 2383.36 1984.79C2456.58 1960.25 2502.18 1910.49 2526.87 1828.2C2535.34 1799.97 2534.2 1762.47 2523.86 1730.32C2512.12 1693.76 2490.41 1667.9 2462.76 1657.53C2457.54 1655.58 2443.6 1654.62 2430.13 1653.7C2407.73 1652.19 2393.86 1650.96 2390.17 1647.28C2386.98 1644.09 2391.95 1637.5 2403.56 1624.85C2404.87 1623.44 2406 1622.2 2406.31 1621.84C2411.33 1615.15 2421.28 1590.19 2420.03 1555.72C2418.96 1526.26 2409.16 1481.54 2368.53 1435.89C2330.43 1393.07 2273.17 1386.68 2254.35 1384.64C2247.66 1383.89 2246.63 1383.77 2246 1382.31C2245.86 1381.96 2245.81 1381.58 2245.86 1381.21C2245.9 1380.84 2246.04 1380.49 2246.25 1380.18C2257.32 1365.43 2257.3 1335.18 2246.25 1308.26C2238.27 1288.85 2217.85 1255.24 2170.9 1248.35C2132.07 1242.66 2094.64 1254.92 2070.78 1281.16C2061.29 1291.36 2054.5 1303.77 2051.02 1317.26C2047.54 1330.75 2047.49 1344.89 2050.87 1358.41C2056.73 1382.26 2076.37 1409.65 2076.49 1409.96C2076.71 1410.27 2076.84 1410.64 2076.87 1411.01C2076.89 1411.39 2076.81 1411.77 2076.63 1412.1C2076.45 1412.44 2076.17 1412.71 2075.84 1412.89C2075.51 1413.08 2075.14 1413.17 2074.76 1413.14C2074.15 1413.14 2014.68 1409.99 1992.63 1420.97C1945.04 1444.66 1914.73 1462.01 1892.03 1517.85C1871.4 1568.62 1885.31 1607.22 1896.55 1638.25C1897.83 1641.82 1899.08 1645.28 1900.21 1648.59C1906.5 1667.02 1929.14 1700.03 1929.36 1700.36C1929.63 1700.75 1929.76 1701.21 1929.72 1701.68C1929.69 1702.15 1929.49 1702.59 1929.16 1702.92C1928.83 1703.26 1928.39 1703.47 1927.93 1703.51C1927.46 1703.56 1926.99 1703.44 1926.6 1703.18C1926.47 1703.18 1914.35 1695.15 1907.67 1693.67C1889.21 1689.56 1869.21 1688.38 1852.83 1690.43C1814.32 1695.24 1778.98 1719.17 1762.91 1751.39C1753.25 1770.4 1747.46 1791.13 1745.86 1812.39C1744.26 1833.65 1746.9 1855.02 1753.61 1875.25C1760.23 1895.18 1770.73 1913.59 1784.5 1929.44C1798.28 1945.28 1815.06 1958.23 1833.87 1967.55C1907.19 2004.22 2000.05 2003.72 2081.98 2003.36C2090.66 2003.19 2099.14 2003.15 2107.48 2003.15H2107.42Z" fill="black"/>
<path d="M2124.04 1096.1C2123.96 1096.52 2123.73 1096.89 2123.4 1097.16C2123.07 1097.42 2122.66 1097.57 2122.24 1097.57C2121.82 1097.57 2121.41 1097.42 2121.08 1097.16C2120.75 1096.89 2120.52 1096.52 2120.44 1096.1L2101.81 996.209C2101.75 995.83 2101.57 995.48 2101.3 995.209C2101.03 994.939 2100.68 994.761 2100.3 994.701L2000.42 976.073C2000.01 975.996 1999.63 975.774 1999.35 975.446C1999.08 975.119 1998.93 974.706 1998.93 974.28C1998.93 973.853 1999.08 973.44 1999.35 973.113C1999.63 972.785 2000.01 972.563 2000.42 972.486L2100.3 953.858C2100.68 953.798 2101.03 953.621 2101.3 953.35C2101.57 953.079 2101.75 952.729 2101.81 952.35L2120.44 852.457C2120.52 852.042 2120.75 851.669 2121.08 851.402C2121.41 851.134 2121.82 850.988 2122.24 850.988C2122.66 850.988 2123.07 851.134 2123.4 851.402C2123.73 851.669 2123.96 852.042 2124.04 852.457L2142.71 952.441C2142.78 952.817 2142.96 953.163 2143.23 953.433C2143.5 953.703 2143.85 953.882 2144.22 953.948L2244.1 972.576C2244.52 972.654 2244.9 972.875 2245.17 973.203C2245.44 973.531 2245.59 973.944 2245.59 974.37C2245.59 974.796 2245.44 975.209 2245.17 975.537C2244.9 975.865 2244.52 976.086 2244.1 976.163L2144.22 994.792C2143.85 994.857 2143.5 995.037 2143.23 995.307C2142.96 995.577 2142.78 995.923 2142.71 996.299L2124.04 1096.1Z" fill="#FFC210"/>
<path d="M2122.23 1099.61C2121.33 1099.62 2120.46 1099.31 2119.77 1098.73C2119.08 1098.15 2118.62 1097.35 2118.46 1096.46L2099.86 996.705L2000.09 978.107C1999.22 977.932 1998.44 977.461 1997.88 976.774C1997.31 976.087 1997.01 975.227 1997.01 974.339C1997.01 973.451 1997.31 972.591 1997.88 971.904C1998.44 971.217 1999.22 970.746 2000.09 970.571L2099.86 951.973L2118.46 852.215C2118.64 851.344 2119.11 850.561 2119.8 849.999C2120.48 849.436 2121.34 849.129 2122.23 849.129C2123.12 849.129 2123.98 849.436 2124.67 849.999C2125.35 850.561 2125.82 851.344 2126 852.215L2144.6 951.973L2244.37 970.571C2245.24 970.746 2246.02 971.217 2246.59 971.904C2247.15 972.591 2247.46 973.451 2247.46 974.339C2247.46 975.227 2247.15 976.087 2246.59 976.774C2246.02 977.461 2245.24 977.932 2244.37 978.107L2144.6 996.705L2126 1096.46C2125.84 1097.35 2125.38 1098.15 2124.69 1098.73C2124 1099.3 2123.13 1099.62 2122.23 1099.61ZM2001.78 974.324L2100.72 992.771C2101.47 992.926 2102.15 993.293 2102.68 993.829C2103.22 994.364 2103.58 995.044 2103.74 995.786L2122.17 1094.72L2140.68 995.906C2140.83 995.163 2141.2 994.481 2141.73 993.945C2142.27 993.409 2142.95 993.043 2143.69 992.892L2242.64 974.445L2143.69 955.997C2142.95 955.852 2142.26 955.487 2141.73 954.95C2141.19 954.413 2140.82 953.728 2140.68 952.983L2122.23 854.054L2103.8 952.983C2103.65 953.728 2103.29 954.413 2102.75 954.95C2102.22 955.487 2101.53 955.852 2100.78 955.997L2001.78 974.324Z" fill="black"/>
<path d="M1201.47 929.893C1201.38 930.308 1201.16 930.68 1200.83 930.948C1200.5 931.215 1200.09 931.362 1199.67 931.362C1199.25 931.362 1198.84 931.215 1198.51 930.948C1198.18 930.68 1197.95 930.308 1197.87 929.893L1188.82 881.544C1188.77 881.165 1188.59 880.816 1188.32 880.545C1188.05 880.274 1187.7 880.096 1187.32 880.037L1138.95 870.994C1138.53 870.917 1138.16 870.695 1137.88 870.367C1137.61 870.04 1137.46 869.627 1137.46 869.2C1137.46 868.774 1137.61 868.361 1137.88 868.033C1138.16 867.706 1138.53 867.484 1138.95 867.407L1187.32 858.364C1187.69 858.298 1188.04 858.118 1188.31 857.849C1188.58 857.579 1188.76 857.233 1188.82 856.857L1197.87 808.507C1197.95 808.093 1198.18 807.72 1198.51 807.453C1198.84 807.185 1199.25 807.039 1199.67 807.039C1200.09 807.039 1200.5 807.185 1200.83 807.453C1201.16 807.72 1201.38 808.093 1201.47 808.507L1210.51 856.857C1210.58 857.233 1210.76 857.579 1211.03 857.849C1211.3 858.118 1211.64 858.298 1212.02 858.364L1260.37 867.407C1260.79 867.484 1261.17 867.706 1261.44 868.033C1261.71 868.361 1261.86 868.774 1261.86 869.2C1261.86 869.627 1261.71 870.04 1261.44 870.367C1261.17 870.695 1260.79 870.917 1260.37 870.994L1212.02 880.037C1211.64 880.096 1211.29 880.274 1211.02 880.545C1210.75 880.816 1210.57 881.165 1210.51 881.544L1201.47 929.893Z" fill="#FFC210"/>
<path d="M1199.66 933.405C1198.76 933.411 1197.89 933.097 1197.2 932.52C1196.51 931.944 1196.05 931.141 1195.89 930.255L1186.85 882.026L1138.62 872.983C1137.75 872.808 1136.97 872.337 1136.41 871.65C1135.84 870.963 1135.54 870.103 1135.54 869.215C1135.54 868.327 1135.84 867.467 1136.41 866.78C1136.97 866.093 1137.75 865.622 1138.62 865.447L1186.85 856.404L1195.89 808.176C1196.04 807.288 1196.51 806.483 1197.2 805.906C1197.89 805.329 1198.76 805.016 1199.66 805.026C1200.56 805.019 1201.44 805.332 1202.13 805.908C1202.82 806.485 1203.29 807.288 1203.44 808.176L1212.49 856.404L1260.72 865.447C1261.59 865.622 1262.37 866.093 1262.93 866.78C1263.49 867.467 1263.8 868.327 1263.8 869.215C1263.8 870.103 1263.49 870.963 1262.93 871.65C1262.37 872.337 1261.59 872.808 1260.72 872.983L1212.49 882.026L1203.44 930.255C1203.29 931.142 1202.82 931.945 1202.13 932.522C1201.44 933.098 1200.56 933.411 1199.66 933.405ZM1140.37 869.306L1187.75 878.137C1188.5 878.288 1189.18 878.654 1189.72 879.19C1190.25 879.727 1190.62 880.409 1190.77 881.152L1199.6 928.552L1208.45 881.152C1208.6 880.409 1208.96 879.727 1209.5 879.19C1210.04 878.654 1210.72 878.288 1211.46 878.137L1258.97 869.306L1211.58 860.474C1210.84 860.323 1210.16 859.957 1209.62 859.421C1209.08 858.884 1208.72 858.202 1208.57 857.459L1199.72 810.06L1190.89 857.459C1190.74 858.202 1190.37 858.884 1189.84 859.421C1189.3 859.957 1188.62 860.323 1187.87 860.474L1140.37 869.306Z" fill="black"/>
<path d="M1975 1209.92C1974.91 1210.34 1974.69 1210.71 1974.36 1210.98C1974.03 1211.24 1973.62 1211.39 1973.2 1211.39C1972.77 1211.39 1972.36 1211.24 1972.03 1210.98C1971.71 1210.71 1971.48 1210.34 1971.4 1209.92L1959.49 1146.09C1959.43 1145.71 1959.25 1145.36 1958.98 1145.09C1958.71 1144.82 1958.36 1144.65 1957.98 1144.59L1894.15 1132.69C1893.74 1132.61 1893.37 1132.38 1893.1 1132.06C1892.83 1131.73 1892.69 1131.32 1892.69 1130.89C1892.69 1130.47 1892.83 1130.06 1893.1 1129.73C1893.37 1129.4 1893.74 1129.18 1894.15 1129.09L1957.98 1117.19C1958.36 1117.13 1958.71 1116.95 1958.98 1116.68C1959.25 1116.41 1959.43 1116.06 1959.49 1115.68L1971.4 1051.85C1971.48 1051.44 1971.71 1051.06 1972.03 1050.8C1972.36 1050.53 1972.77 1050.38 1973.2 1050.38C1973.62 1050.38 1974.03 1050.53 1974.36 1050.8C1974.69 1051.06 1974.91 1051.44 1975 1051.85L1986.89 1115.68C1986.95 1116.06 1987.13 1116.41 1987.4 1116.68C1987.67 1116.95 1988.02 1117.12 1988.4 1117.19L2052.22 1129.09C2052.65 1129.16 2053.04 1129.38 2053.32 1129.71C2053.61 1130.04 2053.76 1130.46 2053.76 1130.89C2053.76 1131.33 2053.61 1131.75 2053.32 1132.08C2053.04 1132.41 2052.65 1132.63 2052.22 1132.69L1988.4 1144.59C1988.02 1144.65 1987.67 1144.83 1987.4 1145.1C1987.13 1145.37 1986.95 1145.72 1986.89 1146.09L1975 1209.92Z" fill="#FFC210"/>
<path d="M1973.19 1213.39C1972.29 1213.4 1971.42 1213.09 1970.73 1212.51C1970.04 1211.94 1969.58 1211.14 1969.42 1210.25L1957.55 1146.62L1893.84 1134.75C1892.97 1134.57 1892.18 1134.1 1891.62 1133.41C1891.06 1132.73 1890.75 1131.87 1890.75 1130.98C1890.75 1130.09 1891.06 1129.23 1891.62 1128.54C1892.18 1127.86 1892.97 1127.39 1893.84 1127.21L1957.55 1115.33L1969.42 1051.63C1969.6 1050.76 1970.07 1049.97 1970.75 1049.41C1971.44 1048.85 1972.3 1048.54 1973.19 1048.54C1974.08 1048.54 1974.94 1048.85 1975.62 1049.41C1976.31 1049.97 1976.78 1050.76 1976.96 1051.63L1988.83 1115.33L2052.54 1127.21C2053.41 1127.39 2054.19 1127.86 2054.76 1128.54C2055.32 1129.23 2055.63 1130.09 2055.63 1130.98C2055.63 1131.87 2055.32 1132.73 2054.76 1133.41C2054.19 1134.1 2053.41 1134.57 2052.54 1134.75L1988.85 1146.62L1976.93 1210.25C1976.77 1211.13 1976.31 1211.93 1975.62 1212.5C1974.94 1213.07 1974.08 1213.39 1973.19 1213.39ZM1895.54 1130.89L1958.42 1142.61C1959.16 1142.76 1959.85 1143.12 1960.39 1143.66C1960.92 1144.2 1961.29 1144.88 1961.43 1145.63L1973.14 1208.49L1984.87 1145.63C1985.02 1144.88 1985.39 1144.2 1985.92 1143.67C1986.46 1143.13 1987.14 1142.76 1987.88 1142.61L2050.75 1130.89L1987.88 1119.18C1987.14 1119.03 1986.45 1118.67 1985.92 1118.13C1985.38 1117.59 1985.01 1116.91 1984.87 1116.16L1973.19 1053.18L1961.48 1116.06C1961.33 1116.8 1960.96 1117.48 1960.43 1118.02C1959.89 1118.55 1959.21 1118.92 1958.46 1119.07L1895.54 1130.89Z" fill="black"/>
<path d="M534.208 1848.79C447.622 1665.73 298.369 1193.46 298.369 1193.46C298.369 1193.46 538.85 1432.24 711.584 1600.03C796.497 1682.5 895.547 1730.39 939.435 1752.25C1015.74 1790.32 1340.34 1789.93 1394.07 1880.75C1436.46 1952.52 1357.43 2021.07 1319.36 2048.57C1223.82 2117.63 1108.81 2156.06 998.786 2159.74C752.036 2167.97 649.58 2092.67 534.208 1848.79Z" fill="#F3A8AD"/>
<path d="M963.778 2162.44C854.314 2162.44 778.971 2143.37 716.093 2100.54C648.814 2054.71 593.878 1979.7 532.402 1849.72C446.735 1668.56 297.965 1198.8 296.458 1194.07C296.325 1193.64 296.34 1193.18 296.5 1192.76C296.659 1192.34 296.954 1191.98 297.338 1191.75C297.722 1191.51 298.173 1191.41 298.62 1191.47C299.066 1191.52 299.483 1191.72 299.803 1192.03C302.2 1194.43 542.243 1432.72 713.003 1598.59C794.781 1678.01 889.912 1725.37 935.639 1748.13L940.342 1750.48C967.772 1764.16 1027.33 1772.78 1096.29 1782.74C1155.35 1791.29 1222.3 1800.98 1277.69 1815.62C1341.68 1832.53 1380.31 1853.5 1395.82 1879.74C1439.19 1953.17 1357.63 2023.44 1320.55 2050.23C1226.25 2118.37 1112.01 2157.98 998.864 2161.76C986.757 2162.16 975.061 2162.39 963.778 2162.44ZM536.094 1847.93C653.577 2096.29 757.359 2165.77 998.789 2157.74C1111.15 2153.99 1224.59 2114.65 1318.3 2046.96C1354.48 2020.81 1434.16 1952.37 1392.46 1881.79C1358.65 1824.84 1212.8 1803.74 1095.7 1786.74C1026.37 1776.7 966.536 1768.05 938.533 1754.08L933.831 1751.73C887.923 1728.88 792.4 1681.33 710.185 1601.48C554.271 1450.03 340.587 1238.26 302.773 1200.67C322.637 1263 456.592 1679.97 536.094 1847.93Z" fill="black"/>
<path d="M1059.37 1934.47C1059.04 1934.47 1058.7 1934.38 1058.41 1934.21C862.872 1825.91 681.818 1674.64 520.358 1484.55C467.607 1422.52 412.4 1354.28 364.82 1292.39C357.209 1282.48 346.357 1266.21 334.873 1249C321.791 1229.51 308.332 1209.35 299.47 1198.27C299.237 1198.09 299.049 1197.85 298.918 1197.58C298.787 1197.32 298.717 1197.02 298.714 1196.73C298.711 1196.43 298.773 1196.13 298.898 1195.86C299.022 1195.59 299.205 1195.35 299.434 1195.16C299.662 1194.97 299.93 1194.84 300.218 1194.76C300.506 1194.69 300.807 1194.68 301.099 1194.73C301.391 1194.79 301.667 1194.91 301.906 1195.09C302.146 1195.26 302.343 1195.49 302.484 1195.75C311.527 1206.97 325.091 1227.19 338.098 1246.77C349.537 1263.92 360.359 1280.12 367.894 1289.94C415.43 1351.73 470.622 1419.97 523.296 1481.96C684.561 1671.65 865.178 1822.58 1060.29 1930.68C1060.68 1930.9 1060.99 1931.24 1061.17 1931.65C1061.34 1932.06 1061.38 1932.52 1061.26 1932.95C1061.15 1933.39 1060.9 1933.77 1060.55 1934.04C1060.19 1934.32 1059.76 1934.47 1059.31 1934.47H1059.37Z" fill="black"/>
<path d="M897.221 2086.19C896.762 2086.19 896.317 2086.04 895.955 2085.76C780.296 1992.67 693.544 1870.85 607.577 1743.72C601.247 1734.38 594.912 1725.05 588.572 1715.74C547.2 1654.88 504.427 1591.94 468.165 1524.72C430.487 1454.79 393.441 1385.85 349.493 1303.85C337.179 1280.86 308.95 1221.86 298.898 1199.3C298.791 1199.05 298.733 1198.79 298.726 1198.53C298.72 1198.27 298.766 1198 298.861 1197.76C298.956 1197.51 299.099 1197.29 299.281 1197.1C299.463 1196.9 299.681 1196.75 299.922 1196.64C300.164 1196.54 300.424 1196.48 300.688 1196.47C300.952 1196.47 301.215 1196.51 301.461 1196.61C301.707 1196.7 301.933 1196.84 302.124 1197.03C302.315 1197.21 302.468 1197.43 302.575 1197.67C312.598 1220.17 340.766 1279.05 353.034 1301.95C396.998 1383.95 433.998 1452.89 471.707 1522.81C507.879 1589.86 550.592 1652.69 591.902 1713.46C598.253 1722.79 604.588 1732.13 610.908 1741.46C696.71 1868.33 783.265 1989.89 898.487 2082.56C898.813 2082.82 899.05 2083.18 899.164 2083.58C899.279 2083.98 899.266 2084.4 899.127 2084.8C898.987 2085.19 898.729 2085.53 898.387 2085.77C898.045 2086.01 897.638 2086.14 897.221 2086.13V2086.19Z" fill="black"/>
<path d="M905.344 1772.24C887.589 1790.45 848.675 1749.03 845.344 1733.27C836.437 1691.06 864.726 1628.14 915.803 1604.66C994.642 1568.4 1065.64 1623.95 1125.82 1643.85C1213.24 1672.74 1282.1 1617.02 1369.98 1653.67C1403.14 1667.48 1441.18 1694.73 1443.2 1734.08C1445.49 1778.98 1379.49 1793.29 1347.68 1802.93C1299.87 1817.41 1245.99 1809.45 1197.81 1801.42C1137.75 1791.41 1075.58 1786.12 1014.96 1780.79C1010.44 1780.39 906.112 1771.4 905.344 1772.24Z" fill="#FFC210"/>
<path d="M1287.8 1812.99C1258.63 1812.99 1228.31 1808.56 1197.37 1803.41C1139.62 1793.79 1079.51 1788.5 1021.39 1783.39L1014.67 1782.79C996.903 1781.28 914.432 1774.23 906.158 1774.18C901.395 1778.71 894.915 1779.91 887.364 1777.73C868.283 1772.18 845.947 1746.21 843.31 1733.69C834.387 1691.49 861.591 1627.34 914.884 1602.84C975.351 1575.03 1031.31 1600.49 1080.67 1622.96C1096.69 1630.24 1111.81 1637.11 1126.37 1641.93C1167.78 1655.62 1205.69 1650.01 1242.42 1644.6C1282.73 1638.57 1324.42 1632.54 1370.77 1651.8C1387.62 1658.83 1442.75 1685.49 1445.22 1733.97C1447.37 1776.28 1391.4 1792.39 1357.96 1802.02C1354.49 1803.02 1351.23 1803.95 1348.28 1804.85C1328.85 1810.73 1308.61 1812.99 1287.8 1812.99ZM906.851 1770.27C911.373 1770.27 923.641 1771.15 958.968 1774.05C985.585 1776.23 1012.91 1778.57 1015.17 1778.78L1021.89 1779.38C1080.08 1784.51 1140.25 1789.8 1198.23 1799.44C1250.63 1808.17 1301.45 1814.86 1347.19 1800.95C1350.21 1800.06 1353.43 1799.11 1356.92 1798.12C1391.31 1788.22 1443.28 1773.25 1441.32 1734.14C1438.97 1688.01 1385.55 1662.26 1369.35 1655.48C1324.01 1636.58 1282.9 1642.66 1243.13 1648.53C1206.01 1654.02 1167.62 1659.69 1125.31 1645.7C1110.53 1640.82 1095.32 1633.9 1079.21 1626.57C1030.62 1604.46 975.532 1579.4 916.753 1606.45C893.332 1617.21 873.166 1637.23 859.979 1662.81C847.65 1686.71 843.084 1712.23 847.424 1732.8C849.775 1743.89 871.463 1768.82 888.675 1773.82C895.08 1775.68 900.25 1774.65 904.018 1770.81C904.168 1770.58 904.41 1770.27 906.851 1770.27Z" fill="black"/>
<path d="M1106.73 1852.93C1141.18 1856.4 1158.12 1762.23 1158.12 1762.23C1085.7 1786.35 1048.6 1714.48 1046.28 1713.72C1029.22 1708.05 990.981 1813.52 991.418 1826.27C991.749 1836.13 1085.21 1850.76 1106.73 1852.93Z" fill="#FBA888"/>
<path d="M1108.58 1854.98C1107.9 1854.98 1107.22 1854.95 1106.53 1854.88C1095.56 1853.76 1066.6 1849.51 1040.73 1844.33C989.685 1834.23 989.49 1828.82 989.399 1826.24C988.962 1813.4 1019.74 1728.13 1039 1713.7C1041.85 1711.58 1044.5 1710.9 1046.91 1711.7C1047.83 1712.01 1048.28 1712.65 1050.39 1715.72C1080.31 1758.99 1116.35 1773.96 1157.49 1760.23C1157.82 1760.11 1158.18 1760.09 1158.52 1760.16C1158.87 1760.22 1159.19 1760.38 1159.45 1760.61C1159.72 1760.83 1159.92 1761.13 1160.03 1761.46C1160.15 1761.79 1160.18 1762.14 1160.11 1762.49C1159.42 1766.44 1143.07 1854.98 1108.58 1854.98ZM1106.94 1850.87C1135.58 1853.75 1152.16 1781.54 1155.5 1765.13C1129.17 1773.01 1104.52 1769.39 1082.12 1754.36C1063.6 1741.92 1051.98 1725.2 1047.09 1718.06C1046.38 1717.03 1045.59 1715.98 1045.27 1715.48C1043.84 1715.47 1042.46 1716.01 1041.41 1716.99C1023.66 1730.27 993.046 1815.21 993.423 1826.17C993.604 1826.63 996.603 1831.67 1042.86 1840.74C1068.22 1845.7 1096.38 1849.78 1106.94 1850.88V1850.87Z" fill="black"/>
<path d="M602.198 1642.71C540.149 1651.5 486.148 1720.3 483.947 1800.38C481.611 1883.18 531.091 1910.7 541.897 1913.41C559.335 1917.78 654.3 1901.64 667.804 1891.51C684.865 1878.72 753.712 1755.98 753.712 1723.72C753.651 1703.5 696.289 1629.38 602.198 1642.71Z" fill="black"/>
<path d="M550.924 1916.16C547.734 1916.25 544.544 1915.98 541.414 1915.36C528.257 1912.07 479.621 1882.91 481.927 1800.33C482.942 1761.77 495.914 1724.47 519.048 1693.6C541.655 1663.86 571.075 1645.08 601.941 1640.72C623.582 1637.49 645.668 1639 666.667 1645.15C687.667 1651.3 707.077 1661.94 723.553 1676.34C744.427 1694.42 755.685 1714.27 755.685 1723.71C755.685 1755.95 687.231 1879.47 669.039 1893.11C656.952 1902.15 581.308 1916.16 550.924 1916.16ZM602.408 1644.7C572.642 1648.92 544.142 1667.15 522.183 1695.95C499.563 1726.15 486.881 1762.64 485.891 1800.36C484.67 1843.68 498.069 1870.64 509.538 1885.64C523.102 1903.35 538.174 1910.32 542.334 1911.38C559.726 1915.72 653.742 1899.41 666.538 1889.81C683.116 1877.32 751.571 1754.68 751.571 1723.63C751.571 1716.31 742.031 1697.73 720.825 1679.31C704.783 1665.29 685.882 1654.92 665.434 1648.94C644.986 1642.95 623.48 1641.49 602.408 1644.64V1644.7Z" fill="black"/>
<path d="M639.183 1681.09C633.711 1682.14 628.336 1683.66 623.116 1685.61C622.398 1703.22 618.561 1720.57 611.783 1736.85C605.151 1753.02 594.616 1774.74 594.616 1774.74C605.995 1800.08 631.285 1837.02 623.252 1849.98C623.252 1849.98 584.368 1846.96 597.224 1868.68C608.934 1888.46 650.079 1905.61 673.184 1903.86C674.872 1908.26 678.384 1912.34 684.397 1915.92C709.31 1930.87 865.421 1928.29 878.668 1906.22C884.486 1896.52 900.522 1864.52 900.522 1855.24C900.522 1838.55 868.872 1843.89 854.328 1835.78C838.367 1826.92 804.019 1810.16 798.564 1806.63C804.336 1780.54 791.555 1746.99 769.385 1728.52C735.308 1700.14 687.065 1671.65 639.183 1681.09Z" fill="#FBA888"/>
<path d="M764.276 1927.32C730.063 1927.32 694.811 1924.52 683.312 1917.62C677.72 1914.27 673.952 1910.41 671.842 1905.91C648.044 1906.89 607.472 1889.98 595.445 1869.74C592.159 1864.19 591.677 1859.49 593.938 1855.75C599.107 1847.43 616.635 1847.64 621.971 1847.91C625.799 1838.87 614.435 1817.35 604.246 1798.33C599.921 1790.23 595.852 1782.58 592.717 1775.6C592.591 1775.33 592.525 1775.04 592.525 1774.75C592.525 1774.45 592.591 1774.16 592.717 1773.9C592.822 1773.69 603.267 1752.06 609.838 1736.11C616.485 1720.09 620.265 1703.02 621.006 1685.68C621.005 1685.28 621.129 1684.88 621.361 1684.55C621.592 1684.21 621.921 1683.96 622.302 1683.81C627.628 1681.81 633.113 1680.26 638.7 1679.17C688.436 1669.38 737.87 1699.79 770.56 1727.04C793.062 1745.79 805.843 1779.35 800.703 1805.73C804.562 1807.99 814.147 1812.86 824.215 1817.98C835.066 1823.5 847.365 1829.75 855.157 1834.09C860.296 1836.94 867.997 1838.07 875.443 1839.16C888.676 1841.1 902.376 1843.12 902.376 1855.3C902.376 1865.23 885.933 1897.84 880.236 1907.32C870.906 1922.86 805.617 1926.33 785.828 1927.02C778.925 1927.2 771.63 1927.32 764.276 1927.32ZM673.138 1901.79C673.546 1901.79 673.945 1901.92 674.281 1902.15C674.618 1902.38 674.876 1902.71 675.022 1903.09C676.65 1907.34 680.041 1910.96 685.376 1914.17C696.574 1920.89 738.805 1924.57 785.783 1922.92C835.714 1921.18 871.464 1914.21 876.89 1905.17C883.114 1894.82 898.457 1863.65 898.457 1855.22C898.457 1847.1 889.58 1845.21 874.961 1843.07C867.154 1841.93 859.09 1840.74 853.303 1837.53C845.586 1833.23 833.318 1826.98 822.497 1821.49C810.605 1815.46 800.327 1810.2 797.433 1808.3C797.097 1808.08 796.836 1807.76 796.686 1807.38C796.535 1807 796.502 1806.59 796.589 1806.19C802.165 1780.97 789.897 1748.24 768.089 1730.05C736.062 1703.36 687.773 1673.55 639.574 1683.05C634.653 1684 629.811 1685.33 625.09 1687.02C624.173 1704.4 620.305 1721.5 613.651 1737.57C607.803 1751.82 598.851 1770.54 596.831 1774.73C599.846 1781.36 603.749 1788.65 607.849 1796.37C619.906 1819.11 631.405 1840.59 624.909 1850.99C624.715 1851.3 624.44 1851.55 624.113 1851.72C623.787 1851.88 623.422 1851.96 623.056 1851.94C617.208 1851.48 601.232 1851.67 597.434 1857.8C595.927 1860.17 596.485 1863.47 598.941 1867.61C610.35 1886.87 650.983 1903.5 673.018 1901.81L673.138 1901.79Z" fill="black"/>
<path d="M669.943 1742.76C669.943 1743.53 679.544 1760.98 689.928 1769.89C700.312 1778.79 711.993 1774.74 716.122 1769.06C722.347 1760.54 711.601 1745.06 702.046 1743.71C697.66 1743.07 688.572 1748.32 683.96 1746.44C682.634 1745.91 669.989 1742.22 669.943 1742.76Z" fill="#CE6E3E"/>
<path d="M728.738 1710.9C722.167 1719.53 733.365 1739.41 745.799 1725.68C753.878 1716.76 735.355 1702.2 728.738 1710.9Z" fill="#CE6E3E"/>
<path d="M654.434 1829.36C654.434 1827.1 676.212 1791.79 686.792 1808.77C696.694 1824.61 654.403 1856.32 654.434 1829.36Z" fill="#CE6E3E"/>
<path d="M767.772 1856.97C767.4 1856.97 767.036 1856.87 766.719 1856.68C766.403 1856.48 766.146 1856.2 765.978 1855.87C765.225 1854.36 766.415 1853.44 767.29 1852.75C784.245 1839.31 794.705 1822.22 796.709 1804.63C796.769 1804.1 797.037 1803.61 797.454 1803.28C797.871 1802.95 798.403 1802.8 798.932 1802.86C799.462 1802.92 799.946 1803.19 800.278 1803.6C800.61 1804.02 800.763 1804.55 800.703 1805.08C798.578 1823.75 787.591 1841.79 769.776 1855.9L769.264 1856.32C769.099 1856.5 768.906 1856.65 768.691 1856.76C768.406 1856.9 768.091 1856.98 767.772 1856.97Z" fill="black"/>
<path d="M860.614 1832.84C826.99 1854.68 809.19 1875.69 796.093 1877.32C764.337 1881.3 634.708 1867.07 595.341 1895.25C535.296 1938.25 559.667 2082.86 559.667 2082.86C559.667 2082.86 634.828 2094.56 691.663 2107.67C829.823 2139.56 991.585 2113.87 1128.63 2083.41C1164.98 2075.33 1597.22 2152.33 1597.22 2096.46C1597.22 2086.57 1603.52 1939.8 1550.71 1891.37C1515.47 1859.05 1254.21 1941.49 1111.46 1860.83C1095.61 1851.88 1024.05 1803.72 957.177 1805.46C916.62 1806.53 887.05 1815.66 860.614 1832.84Z" fill="#F3E2CE"/>
<path d="M832.776 2124.38C784.547 2124.38 736.695 2120.13 691.21 2109.64C635.098 2096.68 560.088 2084.97 559.349 2084.85C558.934 2084.79 558.55 2084.59 558.25 2084.3C557.95 2084 557.75 2083.62 557.676 2083.21C553.806 2057.36 552.233 2031.23 552.974 2005.11C554.873 1949.34 568.724 1911.83 594.164 1893.58C622.8 1873.04 695.987 1874.53 749.401 1875.63C769.521 1876.04 786.914 1876.4 795.821 1875.28C802.709 1874.42 811.525 1867.34 823.748 1857.56C835.193 1848.12 847.126 1839.29 859.498 1831.11C887.395 1813.02 917.508 1804.45 957.116 1803.41H960.718C1019.98 1803.41 1081.95 1840.77 1105.57 1855.01C1108.48 1856.76 1110.77 1858.15 1112.43 1859.08C1200.25 1908.71 1333.54 1896.19 1430.87 1887.02C1493.04 1881.19 1537.97 1876.96 1552.05 1889.87C1595.94 1930.13 1600.47 2034.71 1599.27 2093.46C1599.27 2094.87 1599.27 2095.88 1599.27 2096.47C1599.25 2098.35 1598.81 2100.2 1597.99 2101.9C1597.18 2103.59 1596 2105.08 1594.53 2106.27C1564.83 2132.69 1387.3 2111.86 1257.67 2096.64C1194.75 2089.25 1140.4 2082.88 1129.11 2085.38C1041.26 2104.88 936.091 2124.38 832.776 2124.38ZM561.489 2081.11C572.235 2082.8 640.238 2093.73 692.174 2105.71C834.268 2138.51 999.859 2109.96 1128.25 2081.45C1140.2 2078.78 1192.26 2084.9 1258.15 2092.63C1379.75 2106.9 1563.52 2128.47 1591.88 2103.18C1592.91 2102.37 1593.75 2101.34 1594.34 2100.17C1594.92 2098.99 1595.23 2097.71 1595.26 2096.4C1595.26 2095.81 1595.26 2094.77 1595.26 2093.38C1596.21 2046.66 1593.66 1933.5 1549.33 1892.86C1536.58 1881.14 1490.1 1885.52 1431.26 1891.05C1333.41 1900.24 1199.37 1912.86 1110.47 1862.61C1108.75 1861.63 1106.44 1860.24 1103.52 1858.48C1079.69 1844.11 1016.39 1806.01 957.236 1807.49C918.412 1808.5 888.948 1816.85 861.698 1834.62C849.445 1842.73 837.623 1851.48 826.28 1860.83C813.545 1871.03 804.351 1878.4 796.348 1879.41C787.14 1880.56 770.456 1880.23 749.325 1879.79C699.454 1878.76 624.096 1877.23 596.5 1896.99C541.309 1936.37 559.138 2065.98 561.429 2081.05L561.489 2081.11Z" fill="black"/>
<path d="M593.229 2076.1C579.529 2085.29 540.117 2083.25 524.186 2085.54C448.452 2096.43 358.551 2092.72 285.198 2074.27C262.802 2068.63 228.891 2057.69 212.041 2030.25C194.92 2002.46 192.599 1956.83 214.256 1929.59C267.293 1862.88 491.572 1869 572.717 1882.62C582.754 1884.3 612.882 1888.18 615.64 1900.71C628.933 1961.17 622.347 2056.56 593.229 2076.1Z" fill="#FBA888"/>
<path d="M435.188 2093.67C383.086 2093.67 330.487 2087.73 284.715 2076.22C260.977 2070.19 227.443 2059.09 210.322 2031.3C193.638 2004.17 189.795 1957.14 212.688 1928.33C242.213 1891.18 321.489 1878.27 382.785 1873.97C455.731 1868.85 532.55 1873.84 573.047 1880.63L575.534 1881.04C588.27 1883.07 614.72 1887.32 617.599 1900.24C630.093 1957.06 625.843 2056.64 594.343 2077.77C584.321 2084.5 561.834 2085.45 543.779 2086.24C535.941 2086.57 529.174 2086.86 524.472 2087.53C494.893 2091.69 465.057 2093.73 435.188 2093.67ZM446.085 1875.95C354.255 1875.95 249.478 1888.53 215.838 1930.84C194.03 1958.27 197.752 2003.25 213.758 2029.19C230.096 2055.73 262.635 2066.51 285.694 2072.31C357.721 2090.4 446.763 2094.65 523.899 2083.55C528.813 2082.85 535.67 2082.55 543.613 2082.21C561.171 2081.46 583.025 2080.53 592.113 2074.42C619.633 2055.96 627.094 1962.12 613.665 1901.1C611.419 1890.85 584.878 1886.59 574.901 1884.99L572.384 1884.58C543.779 1879.8 496.906 1875.95 446.085 1875.95Z" fill="black"/>
<path d="M288.92 1933.76C288.517 1933.76 288.124 1933.64 287.791 1933.41C287.457 1933.18 287.2 1932.86 287.051 1932.49C286.901 1932.11 286.868 1931.7 286.954 1931.31C287.04 1930.92 287.242 1930.56 287.533 1930.28C308.227 1910.78 363.117 1902.58 389.492 1898.63C392.672 1898.16 395.521 1897.74 397.781 1897.36C444.503 1889.83 504.668 1891.33 557.72 1892.53C577.192 1892.99 595.595 1893.43 612.52 1893.43C612.799 1893.41 613.08 1893.44 613.345 1893.53C613.61 1893.62 613.853 1893.76 614.059 1893.95C614.266 1894.14 614.43 1894.37 614.543 1894.63C614.656 1894.88 614.714 1895.16 614.714 1895.44C614.714 1895.72 614.656 1896 614.543 1896.25C614.43 1896.51 614.266 1896.74 614.059 1896.93C613.853 1897.12 613.61 1897.26 613.345 1897.35C613.08 1897.44 612.799 1897.48 612.52 1897.45C595.534 1897.45 577.117 1897.02 557.615 1896.55C504.744 1895.28 444.819 1893.87 398.414 1901.34C396.093 1901.72 393.275 1902.13 390.095 1902.61C364.112 1906.5 310.08 1914.57 290.292 1933.22C289.918 1933.56 289.429 1933.76 288.92 1933.76Z" fill="black"/>
<path d="M738.052 1935.4C735.43 1926.72 710.351 1918.37 701.233 1910.76C684.232 1896.56 692.747 1873.84 667.277 1871.89C665.995 1871.8 664.654 1871.18 663.433 1871.61C646.614 1877.45 657.164 1908.35 655.898 1907.78C642.605 1902.55 633.622 1878.54 615.973 1873.25C600.902 1868.73 531.422 1880.38 528.92 1886.81C526.599 1892.72 525.469 1910.93 528.423 1916.7C529.207 1918.21 537.149 1927.88 535.959 1929.36C535.296 1930.16 521.882 1920.86 519.938 1920.65C512.779 1919.86 510.202 1927.67 512.764 1932.7C528.333 1963.36 653.742 2015.93 684.051 2008.79C703.041 2004.26 708.964 1988.74 720.404 1975.06C730.381 1963.09 742.122 1948.88 738.052 1935.4Z" fill="#FBA888"/>
<path d="M677.526 2011.47C638.204 2011.47 526.163 1963.69 510.91 1933.66C510.024 1931.88 509.619 1929.91 509.735 1927.93C509.852 1925.95 510.486 1924.04 511.573 1922.38C512.507 1921.03 513.799 1919.97 515.303 1919.32C516.808 1918.66 518.465 1918.44 520.089 1918.67C521.279 1918.81 523.103 1919.85 528.906 1923.38L531.92 1925.22C530.805 1923.54 529.508 1921.78 528.74 1920.69C527.975 1919.73 527.266 1918.72 526.615 1917.68C523.344 1911.21 524.52 1892.53 527.037 1886.14C529.162 1880.74 555.974 1875.89 567.413 1874.08C585.62 1871.06 608.106 1868.92 616.546 1871.46C626.81 1874.47 634.285 1883.51 640.872 1891.52C645.092 1896.61 649.116 1901.46 653.396 1904.31C651.708 1895.51 648.226 1874.83 662.77 1869.77C663.952 1869.43 665.206 1869.43 666.388 1869.77C666.73 1869.85 667.078 1869.9 667.428 1869.93C683.81 1871.18 687.322 1880.48 691.03 1890.49C693.471 1897.05 696.018 1903.83 702.529 1909.27C705.875 1912.07 711.572 1915.03 717.601 1918.15C728.151 1923.59 738.083 1928.7 739.936 1934.88C744.352 1949.5 731.873 1964.43 721.851 1976.43C719.093 1979.74 716.606 1983.23 714.225 1986.59C706.689 1997.24 699.47 2007.3 684.428 2010.84C682.159 2011.31 679.843 2011.52 677.526 2011.47ZM518.868 1922.62C518.084 1922.6 517.307 1922.78 516.61 1923.14C515.912 1923.5 515.315 1924.02 514.874 1924.67C514.207 1925.74 513.822 1926.95 513.756 1928.2C513.691 1929.46 513.946 1930.71 514.497 1931.83C529.945 1962.25 654.963 2013.6 683.539 2006.89C697.103 2003.68 703.524 1994.67 710.969 1984.28C713.411 1980.86 715.928 1977.32 718.791 1973.88C728.211 1962.62 739.891 1948.61 736.138 1936.07C734.767 1931.55 724.699 1926.35 715.807 1921.75C709.552 1918.52 703.644 1915.46 699.952 1912.39C692.612 1906.26 689.764 1898.64 687.262 1891.92C683.735 1882.49 680.947 1875.03 667.126 1873.99C666.619 1873.93 666.116 1873.84 665.619 1873.73C665.131 1873.59 664.619 1873.53 664.112 1873.58C652.371 1877.67 656.109 1897.09 657.511 1904.4C658.144 1907.69 658.324 1908.58 657.254 1909.47C656.966 1909.7 656.623 1909.85 656.258 1909.91C655.894 1909.97 655.52 1909.93 655.174 1909.8C648.679 1907.25 643.389 1900.86 637.797 1894.09C631.256 1886.21 624.504 1878.06 615.401 1875.33C600.962 1871 534.738 1882.31 530.729 1887.76C528.649 1893.13 527.549 1910.64 530.217 1915.9C530.383 1916.2 531.287 1917.41 532.01 1918.43C537.225 1925.58 539.184 1928.68 537.451 1930.76C535.944 1932.51 534.437 1931.53 526.826 1926.89C524.486 1925.36 522.055 1923.97 519.546 1922.73C519.323 1922.68 519.096 1922.64 518.868 1922.62Z" fill="black"/>
<path d="M1613.95 1851.29C1680.35 1880.39 1618.05 1993.62 1593.16 2023.21C1573.34 2046.78 1460.72 2003.38 1382.4 2000.17C1329.52 1997.98 1285.74 2024.07 1214.19 1986.03C1183.64 1969.78 1160.39 2068.64 1022.47 2091.77C884.547 2114.91 702.529 2028.14 702.529 2028.14C698.064 2010.72 698.445 1992.41 703.629 1975.19C713.561 1941.55 741.579 1932.8 741.579 1932.8C741.579 1932.8 949.43 1996.43 973.68 1977.62C998.397 1958.49 1064.73 1871 1098.1 1814.02C1115.91 1783.57 1150.12 1753.46 1182.68 1743.5C1299.66 1707.7 1381.05 1749.18 1613.95 1851.29Z" fill="#EE564B"/>
<path d="M972.76 2097.63C914.69 2097.63 854.645 2083.84 810.199 2070.5C773.143 2059.46 736.887 2045.9 701.685 2029.9C701.433 2029.78 701.208 2029.61 701.027 2029.4C700.845 2029.19 700.709 2028.95 700.629 2028.68C700.313 2027.69 693.094 2003.93 701.715 1974.56C711.843 1940.29 739.815 1931.18 740.991 1930.85C741.379 1930.73 741.794 1930.73 742.182 1930.85C799.725 1948.47 953.182 1990.93 972.504 1976.07C996.829 1957.23 1062.84 1870.37 1096.42 1813.02C1115.4 1780.62 1150.68 1751.23 1182.15 1741.6C1236.77 1724.89 1283.61 1724.58 1343.81 1740.54C1402.58 1756.13 1474.37 1787.72 1573.8 1831.47L1614.78 1849.48C1630.25 1856.26 1640.04 1867.96 1643.83 1884.24C1655.11 1932.56 1611.14 2005 1594.73 2024.54C1582.27 2039.35 1538.12 2029.93 1487.01 2019.04C1452.94 2011.76 1414.32 2003.51 1382.34 2002.2C1366.49 2001.55 1351.72 2003.44 1336.07 2005.43C1300.49 2009.95 1263.73 2014.65 1213.27 1987.84C1202.72 1982.23 1192.77 1992.46 1176.24 2009.4C1149.02 2037.33 1107.86 2079.52 1022.81 2093.8C1006.26 2096.46 989.521 2097.74 972.76 2097.63ZM704.217 2026.68C717.675 2032.93 891.103 2111.74 1022.13 2089.75C1105.89 2075.7 1146.49 2034.08 1173.35 2006.53C1190.57 1988.88 1201.98 1977.21 1215.14 1984.22C1264.44 2010.43 1300.6 2005.83 1335.56 2001.37C1350.63 1999.44 1366.29 1997.45 1382.49 1998.12C1414.81 1999.44 1453.62 2007.73 1487.84 2015.03C1535.6 2025.23 1580.73 2034.85 1591.63 2021.88C1610.1 1999.91 1650.24 1929.34 1639.85 1885.09C1636.36 1870.11 1627.36 1859.35 1613.1 1853.1C1598.84 1846.84 1585.24 1840.86 1572.11 1835.01C1368.54 1745.44 1292.35 1711.94 1183.26 1745.31C1152.65 1754.68 1118.34 1783.3 1099.83 1814.92C1066.07 1872.59 999.527 1960.05 974.9 1979.11C964.35 1987.31 921.623 1982.26 848.014 1964.04C796.771 1951.42 747.698 1936.59 741.579 1934.74C737.66 1936.25 714.239 1946.04 705.513 1975.6C700.606 1992.23 700.159 2009.85 704.217 2026.71V2026.68Z" fill="black"/>
<path d="M1523.49 1811.38C1523.49 1811.38 1455.06 1876.19 1422.95 2025.23C1411.61 2077.84 1482.54 2094.23 1522.99 2101.25C1654.76 2124.14 1714.76 2081.66 1821.2 2023.18C1836.61 2014.69 1861.62 1866.44 1861.62 1866.44C1861.62 1866.44 1758.23 1868.33 1683.16 1855.3C1663.85 1851.97 1523.49 1811.38 1523.49 1811.38Z" fill="#FBA888"/>
<path d="M1590.89 2109.69C1568 2109.53 1545.18 2107.4 1522.66 2103.31C1490.21 2097.68 1445.03 2087.13 1427.23 2060.72C1420.2 2050.31 1418.18 2038.25 1420.99 2024.88C1452.86 1877 1521.41 1810.64 1522.1 1809.99C1522.35 1809.75 1522.67 1809.58 1523.01 1809.49C1523.35 1809.41 1523.71 1809.41 1524.05 1809.51C1525.45 1809.92 1664.53 1850.2 1683.5 1853.44C1757.52 1866.3 1860.55 1864.58 1861.59 1864.57C1861.87 1864.56 1862.16 1864.62 1862.42 1864.74C1862.68 1864.86 1862.91 1865.04 1863.09 1865.26C1863.29 1865.49 1863.43 1865.75 1863.51 1866.04C1863.59 1866.32 1863.61 1866.62 1863.56 1866.92C1860.98 1882.18 1837.94 2016.32 1822.11 2025.02C1813.07 2030.01 1804.31 2034.87 1795.84 2039.59C1723.29 2080.01 1670.22 2109.69 1590.89 2109.69ZM1524.06 1813.71C1516.3 1821.61 1454.64 1887.85 1424.92 2025.74C1422.28 2037.99 1424.18 2049.01 1430.56 2058.48C1447.51 2083.6 1491.63 2093.83 1523.34 2099.35C1545.56 2103.38 1568.09 2105.48 1590.68 2105.63C1669.24 2105.63 1721.8 2076.28 1793.93 2036.08C1802.4 2031.37 1811.16 2026.5 1820.21 2021.49C1830.76 2015.69 1849.15 1927.81 1859.23 1868.62C1843.17 1868.8 1750.86 1869.24 1682.81 1857.41C1664.32 1854.12 1538.35 1817.77 1524.06 1813.64V1813.71Z" fill="black"/>
<path d="M1577.65 1826.35C1665.6 1793.97 1829.35 1809.15 1947.27 1842.8C1983.44 1853.16 2153.16 1861.93 2153.16 1861.93C2153.16 1861.93 1979.13 2025.76 1944.27 2041.11C1837.26 2088.24 1463.2 2132.76 1463.2 2132.76C1463.2 2132.76 1472.03 2072.24 1489.09 2003.53C1506.37 1933.97 1577.65 1826.35 1577.65 1826.35Z" fill="#EE564B"/>
<path d="M1463.2 2134.81C1462.92 2134.82 1462.64 2134.77 1462.38 2134.67C1462.12 2134.56 1461.89 2134.4 1461.7 2134.2C1461.48 2133.98 1461.32 2133.71 1461.22 2133.42C1461.12 2133.12 1461.09 2132.81 1461.14 2132.51C1461.23 2131.91 1470.18 2071.09 1487.06 2003.06C1504.21 1933.94 1575.18 1826.35 1575.98 1825.22C1576.22 1824.86 1576.56 1824.59 1576.96 1824.45C1666.8 1791.38 1831.53 1807.67 1947.81 1840.86C1983.44 1851.02 2151.58 1859.8 2153.27 1859.9C2153.66 1859.92 2154.04 1860.05 2154.36 1860.29C2154.67 1860.52 2154.92 1860.84 2155.05 1861.21C2155.19 1861.58 2155.21 1861.99 2155.12 1862.37C2155.03 1862.76 2154.83 1863.1 2154.55 1863.38C2147.43 1870.07 1979.85 2027.66 1945.05 2042.94C1839.03 2089.66 1467.15 2134.3 1463.41 2134.75L1463.2 2134.81ZM1579.04 1828.03C1573.53 1836.46 1507.48 1938.13 1491.12 2004.04C1476.25 2063.9 1467.56 2118.16 1465.66 2130.47C1499.25 2126.39 1842.73 2083.75 1943.53 2039.31C1975 2025.46 2123.82 1886.77 2148.5 1863.71C2120.32 1862.2 1979.96 1854.21 1946.86 1844.76C1831.32 1811.83 1668.14 1795.57 1579.04 1828.03Z" fill="black"/>
<path d="M752.189 2116.7C752.189 2116.7 938.865 2073.23 973.635 2067.37C1079.48 2049.52 1531.4 1950.28 1651.51 1921.93C1782.27 1891.08 1906.97 1826.53 2034.23 1780.26C2271.49 1694.11 2783.86 1252.17 2783.86 1252.17C2783.86 1252.17 2527.93 1858.6 2311.17 2010.22C2132.17 2135.48 1704.87 2238.79 1461.48 2283.92C1383.43 2298.38 948.631 2202.47 752.189 2116.7Z" fill="#F3A8AD"/>
<path d="M1441.05 2287.35C1389.35 2287.35 1280.96 2269.79 1150.78 2239.86C989.957 2202.88 840.659 2157.53 751.39 2118.55C751.003 2118.38 750.679 2118.09 750.464 2117.73C750.249 2117.36 750.155 2116.94 750.193 2116.52C750.231 2116.1 750.401 2115.7 750.678 2115.38C750.955 2115.06 751.325 2114.84 751.737 2114.74C753.606 2114.3 938.864 2071.2 973.288 2065.38C1079.32 2047.5 1532.09 1948.05 1651.02 1919.97C1736.01 1899.92 1819.82 1865.05 1900.8 1831.32C1944.21 1813.23 1989.08 1794.57 2033.52 1778.43C2155.84 1734.03 2352.95 1592.95 2496.76 1482.4C2652.66 1362.57 2781.23 1251.8 2782.51 1250.73C2782.86 1250.44 2783.29 1250.28 2783.74 1250.26C2784.19 1250.24 2784.63 1250.37 2785 1250.64C2785.36 1250.9 2785.63 1251.28 2785.76 1251.71C2785.88 1252.14 2785.86 1252.61 2785.69 1253.03C2785.05 1254.53 2720.63 1406.65 2630.55 1575.33C2577.63 1674.42 2526.34 1759.76 2478.1 1829C2417.72 1915.64 2361.94 1977.18 2312.31 2011.92C2145.41 2128.71 1749.86 2232.49 1461.86 2285.89C1454.98 2286.98 1448.01 2287.47 1441.05 2287.35ZM758.594 2117.22C954.237 2200.89 1383.19 2296.32 1461.12 2281.87C1748.73 2228.56 2143.62 2124.97 2310.01 2008.56C2421.66 1930.44 2544.02 1728.8 2627.01 1573.4C2705.29 1426.8 2764.16 1292.74 2778.6 1259.34C2750.44 1283.38 2635.22 1381 2499.23 1485.52C2355.19 1596.23 2157.71 1737.57 2034.91 1782.16C1990.55 1798.27 1945.73 1816.93 1902.37 1834.91C1821.19 1868.68 1737.26 1903.63 1651.97 1923.83C1533 1951.91 1080.05 2051.41 973.966 2069.28C943.16 2074.54 790.802 2109.81 758.594 2117.22Z" fill="black"/>
<path d="M1680.11 563.792C1646.32 563.798 1613.39 574.521 1586.08 594.417C1586.53 594.417 1586.97 594.327 1587.41 594.327C1620.45 594.328 1652.83 603.697 1680.77 621.347C1708.71 638.997 1731.08 664.205 1745.27 694.049C1759.47 723.894 1764.92 757.151 1760.99 789.965C1757.05 822.779 1743.9 853.807 1723.05 879.449C1760.52 869.057 1792.95 845.437 1814.34 812.964C1835.72 780.491 1844.62 741.367 1839.37 702.84C1834.12 664.313 1815.08 628.994 1785.78 603.428C1756.49 577.861 1718.92 563.78 1680.03 563.792H1680.11Z" fill="#FFC210"/>
<path d="M1723.12 881.47C1722.75 881.457 1722.38 881.341 1722.07 881.133C1721.76 880.925 1721.51 880.634 1721.35 880.293C1721.2 879.952 1721.14 879.574 1721.19 879.201C1721.23 878.829 1721.38 878.476 1721.62 878.184C1742.21 852.828 1755.2 822.155 1759.08 789.72C1762.96 757.285 1757.56 724.414 1743.53 694.918C1729.49 665.422 1707.38 640.508 1679.76 623.062C1652.14 605.616 1620.15 596.354 1587.48 596.347H1587.01H1586.15C1585.73 596.352 1585.31 596.22 1584.97 595.972C1584.62 595.724 1584.36 595.372 1584.23 594.967C1584.1 594.562 1584.1 594.126 1584.23 593.721C1584.36 593.316 1584.62 592.963 1584.96 592.715C1609.24 575.114 1637.92 564.573 1667.82 562.258C1697.72 559.942 1727.67 565.943 1754.37 579.597C1781.07 593.25 1803.47 614.023 1819.1 639.618C1834.73 665.213 1842.97 694.632 1842.91 724.621C1842.83 760.162 1831.14 794.704 1809.63 822.996C1788.11 851.287 1757.95 871.782 1723.73 881.364C1723.53 881.427 1723.33 881.462 1723.12 881.47ZM1592.6 592.383C1625.05 593.316 1656.62 603.161 1683.84 620.838C1711.06 638.516 1732.9 663.345 1746.95 692.605C1761 721.866 1766.73 754.429 1763.51 786.729C1760.29 819.029 1748.24 849.819 1728.69 875.727C1764.74 864.179 1795.48 840.124 1815.36 807.904C1835.23 775.684 1842.94 737.42 1837.09 700.017C1831.23 662.614 1812.2 628.534 1783.43 603.928C1754.66 579.322 1718.04 565.809 1680.19 565.827C1649 565.8 1618.52 575.044 1592.6 592.383Z" fill="black"/>
<path d="M874.962 1734.12C876.002 1769.1 898.247 1795.55 917.267 1811.98C946.777 1837.45 988.344 1847.73 1020.49 1829.22C1035.85 1820.39 1050.82 1801.07 1054.75 1778.85C1057.99 1760.5 1056.11 1736.55 1046.48 1727.52C1046.48 1727.52 1067.58 1710.78 1065.19 1695.87C1062.57 1679.44 1042.09 1662.83 1023.79 1667.63C1008.4 1671.65 999.362 1688.73 990.108 1691.52C967.29 1698.28 944.456 1669.66 925.3 1672.95C925.315 1672.98 873.801 1695.42 874.962 1734.12Z" fill="#FBA888"/>
<path d="M984.048 1840.59C961.048 1840.59 936.512 1831.26 915.955 1813.46C896.919 1797.02 874.011 1769.92 872.941 1734.14C871.75 1694.53 922.36 1672.03 924.5 1671.09C924.647 1671.02 924.805 1670.98 924.967 1670.96C934.417 1669.33 944.199 1674.64 954.538 1680.26C966.052 1686.53 977.959 1692.99 989.534 1689.57C993.045 1688.53 996.768 1684.9 1001.06 1680.7C1007.09 1674.79 1014.01 1668.1 1023.28 1665.62C1031.75 1663.41 1041.18 1665.28 1049.8 1670.91C1059.06 1676.94 1065.72 1686.38 1067.17 1695.5C1069.32 1708.92 1054.52 1723.14 1049.4 1727.6C1058.33 1738.15 1059.95 1761.01 1056.72 1779.13C1052.44 1803.33 1035.95 1822.56 1021.5 1830.88C1010.08 1837.35 997.167 1840.7 984.048 1840.59ZM925.902 1674.92C922.27 1676.57 875.895 1698.45 876.965 1734.06C877.99 1768.38 900.16 1794.55 918.577 1810.46C949.79 1837.41 990.348 1844.25 1019.56 1827.48C1033.21 1819.62 1048.78 1801.45 1052.83 1778.51C1055.95 1760.91 1054.34 1737.56 1045.16 1729C1044.96 1728.8 1044.8 1728.57 1044.69 1728.31C1044.58 1728.05 1044.53 1727.77 1044.53 1727.49C1044.54 1727.2 1044.61 1726.91 1044.75 1726.65C1044.88 1726.39 1045.07 1726.16 1045.3 1725.98C1045.49 1725.82 1065.43 1709.78 1063.28 1696.25C1062 1688.22 1056.01 1679.84 1047.68 1674.4C1040.02 1669.41 1031.73 1667.7 1024.36 1669.63C1016.13 1671.79 1009.65 1678.09 1003.96 1683.66C999.27 1688.19 995.216 1692.18 990.754 1693.51C977.582 1697.41 964.937 1690.49 952.699 1683.88C943.023 1678.65 933.98 1673.67 925.902 1674.92Z" fill="black"/>
<path d="M906.852 1793.1C911.599 1790.42 919.919 1792.69 925.073 1794.03C935.623 1796.81 929.594 1800.21 923.475 1802.05C919.661 1803.19 915.577 1803.05 911.855 1801.63C907.153 1799.66 903.144 1795.16 906.852 1793.1Z" fill="#CE6E3E"/>
<path d="M937.809 1767.76C937.975 1775.39 936.935 1782.23 944.892 1785.85C950.092 1788.23 959.271 1788.3 963.822 1780.9C976.256 1760.71 921.125 1733.7 932.67 1755.66L937.809 1767.76Z" fill="#CE6E3E"/>
<path d="M951.522 1788.67C946.835 1788.67 940.776 1787.33 937.611 1782.64C935.094 1778.89 934.718 1774.12 934.356 1769.51C934.245 1766.33 933.739 1763.18 932.849 1760.12C930 1751.91 922.706 1748.28 913.256 1750.4C912.75 1750.48 912.234 1750.36 911.812 1750.07C911.39 1749.78 911.094 1749.34 910.983 1748.84C910.872 1748.34 910.954 1747.82 911.214 1747.38C911.474 1746.94 911.891 1746.61 912.382 1746.47C925.946 1743.45 933.798 1750.82 936.496 1758.8C937.51 1762.17 938.088 1765.67 938.214 1769.19C938.546 1773.48 938.862 1777.51 940.791 1780.39C944.107 1785.32 952.592 1784.91 955.139 1784.27C955.638 1784.18 956.152 1784.28 956.58 1784.55C957.007 1784.82 957.317 1785.24 957.448 1785.73C957.579 1786.22 957.521 1786.74 957.286 1787.19C957.051 1787.64 956.656 1787.98 956.179 1788.15C954.654 1788.51 953.09 1788.69 951.522 1788.67Z" fill="black"/>
<path d="M1043.17 1695.07C1042.88 1695.07 1042.6 1695 1042.34 1694.87C1042.08 1694.74 1041.85 1694.56 1041.67 1694.34C1038 1689.81 1031.61 1686.98 1026.78 1687.61C1025.23 1687.81 1023.77 1688.43 1022.55 1689.39C1021.33 1690.35 1020.4 1691.63 1019.84 1693.08C1019.73 1693.32 1019.58 1693.54 1019.39 1693.72C1019.19 1693.9 1018.97 1694.04 1018.72 1694.14C1018.47 1694.23 1018.21 1694.27 1017.95 1694.26C1017.68 1694.26 1017.42 1694.2 1017.18 1694.09C1016.94 1693.98 1016.73 1693.82 1016.55 1693.63C1016.36 1693.44 1016.22 1693.21 1016.13 1692.96C1016.04 1692.72 1015.99 1692.45 1016 1692.19C1016.01 1691.93 1016.07 1691.67 1016.18 1691.43C1017.01 1689.34 1018.38 1687.52 1020.15 1686.15C1021.92 1684.77 1024.03 1683.9 1026.25 1683.62C1033.26 1682.7 1040.88 1687.03 1044.77 1691.79C1044.94 1691.99 1045.07 1692.23 1045.15 1692.48C1045.22 1692.73 1045.25 1693 1045.23 1693.26C1045.2 1693.52 1045.12 1693.78 1045 1694.01C1044.87 1694.25 1044.7 1694.45 1044.5 1694.62C1044.12 1694.92 1043.66 1695.08 1043.17 1695.07Z" fill="black"/>
<path d="M852.397 1717.05C844.636 1743.69 867.183 1779.08 879.285 1763.77C890.589 1749.43 889.669 1730.75 889.669 1730.75C889.669 1730.75 891.794 1738.57 894.582 1739.88C900.219 1742.55 905.133 1742.89 910.182 1733.85C915.713 1723.8 915.637 1701.94 915.637 1701.94C915.637 1701.94 916.979 1708.74 919.978 1709.75C925.6 1711.65 933.241 1708.64 936.391 1703.72C946.187 1688.44 949.277 1668.14 943.007 1650.9L852.397 1717.05Z" fill="#FFC210"/>
<path d="M872.491 1769.47C870.626 1769.43 868.795 1768.95 867.156 1768.06C855.008 1761.81 844.714 1736.28 850.456 1716.49C850.625 1716 850.976 1715.59 851.437 1715.35C851.898 1715.11 852.434 1715.06 852.933 1715.2C853.432 1715.35 853.855 1715.68 854.115 1716.13C854.376 1716.58 854.452 1717.11 854.33 1717.62C848.829 1736.49 859.273 1759.49 868.994 1764.49C872.416 1766.25 875.264 1765.59 877.706 1762.49C888.421 1748.92 887.683 1730.99 887.668 1730.84C887.629 1730.33 887.781 1729.83 888.094 1729.44C888.407 1729.04 888.858 1728.78 889.357 1728.7C889.855 1728.62 890.365 1728.74 890.783 1729.02C891.202 1729.3 891.5 1729.73 891.617 1730.22C892.506 1733.5 894.299 1737.53 895.445 1738.06C899.966 1740.21 903.855 1741.21 908.421 1732.9C913.636 1723.42 913.621 1702.19 913.621 1701.96C913.609 1701.45 913.788 1700.96 914.123 1700.58C914.459 1700.2 914.925 1699.97 915.428 1699.92C915.932 1699.87 916.436 1700.01 916.839 1700.32C917.241 1700.62 917.513 1701.07 917.6 1701.57C918.142 1704.24 919.544 1707.49 920.614 1707.87C925.241 1709.38 931.948 1706.96 934.691 1702.68C944.533 1687.36 946.989 1667.79 941.111 1651.64C940.929 1651.13 940.954 1650.58 941.18 1650.1C941.407 1649.61 941.815 1649.24 942.317 1649.06C942.819 1648.88 943.372 1648.9 943.855 1649.13C944.339 1649.35 944.712 1649.76 944.894 1650.26C951.194 1667.57 948.587 1688.49 938.082 1704.85C934.389 1710.61 925.618 1713.81 919.333 1711.67C918.591 1711.37 917.93 1710.9 917.404 1710.29C916.876 1717.74 915.535 1728.38 912.023 1734.74C906.085 1745.56 899.469 1744.3 893.802 1741.61C892.763 1741.05 891.886 1740.23 891.255 1739.23C890.134 1748.53 886.578 1757.37 880.946 1764.85C880.004 1766.24 878.746 1767.38 877.275 1768.18C875.805 1768.98 874.165 1769.42 872.491 1769.47Z" fill="black"/>
<path d="M976.438 1749.8C976.438 1738.89 982.662 1702.53 1000.64 1712.63C1017.63 1722.19 976.498 1772.19 976.438 1749.8Z" fill="#CE6E3E"/>
<path d="M958.652 1741.07C956.337 1741.05 954.094 1740.27 952.261 1738.86C951.87 1738.52 951.62 1738.06 951.561 1737.55C951.502 1737.04 951.639 1736.53 951.944 1736.11C952.248 1735.7 952.698 1735.42 953.202 1735.33C953.706 1735.24 954.226 1735.34 954.658 1735.62C955.566 1736.36 956.661 1736.83 957.824 1736.99C958.986 1737.15 960.169 1736.99 961.244 1736.52C969.367 1733.26 976.722 1717.39 977.822 1711.29C977.918 1710.76 978.217 1710.3 978.654 1709.99C979.091 1709.68 979.631 1709.56 980.159 1709.65C980.418 1709.69 980.666 1709.79 980.888 1709.93C981.11 1710.07 981.302 1710.25 981.453 1710.47C981.604 1710.69 981.711 1710.93 981.769 1711.19C981.826 1711.44 981.832 1711.71 981.786 1711.97C980.626 1718.61 972.743 1736.26 962.796 1740.26C961.479 1740.79 960.072 1741.07 958.652 1741.07Z" fill="black"/>
<path d="M963.688 1808.26C961.876 1808.26 960.073 1808.02 958.322 1807.55C957.846 1807.38 957.451 1807.04 957.216 1806.59C956.981 1806.14 956.923 1805.62 957.054 1805.13C957.185 1804.64 957.495 1804.22 957.922 1803.95C958.35 1803.67 958.864 1803.57 959.362 1803.66C968.074 1806 975.639 1800.65 979.377 1797.23C987.109 1790.16 992.007 1779.52 990.801 1772.47C990.757 1772.2 990.764 1771.94 990.822 1771.68C990.881 1771.42 990.989 1771.18 991.142 1770.96C991.295 1770.75 991.488 1770.57 991.712 1770.42C991.935 1770.28 992.184 1770.19 992.444 1770.14C992.704 1770.1 992.971 1770.11 993.228 1770.17C993.486 1770.22 993.729 1770.33 993.945 1770.48C994.16 1770.64 994.344 1770.83 994.485 1771.05C994.625 1771.28 994.721 1771.53 994.765 1771.79C996.272 1780.21 990.892 1792.16 982.09 1800.2C976.288 1805.43 969.912 1808.26 963.688 1808.26Z" fill="black"/>
<path d="M905.767 1787.04C903.449 1787.02 901.204 1786.23 899.376 1784.81C898.949 1784.49 898.665 1784.02 898.587 1783.49C898.509 1782.96 898.644 1782.43 898.962 1782C899.28 1781.57 899.754 1781.29 900.281 1781.21C900.809 1781.13 901.345 1781.27 901.773 1781.58C902.685 1782.32 903.783 1782.8 904.947 1782.96C906.111 1783.12 907.296 1782.96 908.374 1782.49C916.482 1779.23 923.837 1763.36 924.953 1757.24C925.045 1756.72 925.342 1756.25 925.778 1755.94C926.215 1755.64 926.756 1755.52 927.281 1755.61C927.807 1755.7 928.274 1756 928.581 1756.43C928.888 1756.87 929.008 1757.41 928.916 1757.94C927.756 1764.58 919.874 1782.22 909.911 1786.23C908.595 1786.76 907.188 1787.04 905.767 1787.04Z" fill="black"/>
<path d="M1757.09 1380.43C1757.01 1380.84 1756.78 1381.21 1756.46 1381.48C1756.13 1381.75 1755.72 1381.89 1755.29 1381.89C1754.87 1381.89 1754.46 1381.75 1754.13 1381.48C1753.8 1381.21 1753.58 1380.84 1753.49 1380.43L1741.62 1316.7C1741.55 1316.33 1741.37 1315.98 1741.1 1315.71C1740.83 1315.44 1740.48 1315.26 1740.11 1315.2L1676.39 1303.32C1675.96 1303.25 1675.57 1303.03 1675.29 1302.7C1675 1302.37 1674.85 1301.95 1674.85 1301.52C1674.85 1301.09 1675 1300.67 1675.29 1300.34C1675.57 1300.01 1675.96 1299.79 1676.39 1299.72L1740.11 1287.84C1740.49 1287.78 1740.84 1287.6 1741.11 1287.33C1741.38 1287.06 1741.55 1286.71 1741.62 1286.34L1753.49 1222.61C1753.58 1222.2 1753.8 1221.83 1754.13 1221.56C1754.46 1221.29 1754.87 1221.14 1755.29 1221.14C1755.72 1221.14 1756.13 1221.29 1756.46 1221.56C1756.78 1221.83 1757.01 1222.2 1757.09 1222.61L1768.97 1286.34C1769.03 1286.71 1769.21 1287.06 1769.48 1287.33C1769.75 1287.6 1770.1 1287.78 1770.48 1287.84L1834.2 1299.72C1834.62 1299.8 1834.99 1300.03 1835.26 1300.36C1835.52 1300.69 1835.67 1301.1 1835.67 1301.52C1835.67 1301.94 1835.52 1302.35 1835.26 1302.68C1834.99 1303.01 1834.62 1303.24 1834.2 1303.32L1770.48 1315.2C1770.1 1315.26 1769.76 1315.44 1769.49 1315.71C1769.22 1315.98 1769.04 1316.33 1768.97 1316.7L1757.09 1380.43Z" fill="#FFC210"/>
<path d="M1755.29 1383.92C1754.39 1383.93 1753.52 1383.62 1752.83 1383.05C1752.13 1382.47 1751.67 1381.67 1751.52 1380.79L1739.66 1317.19L1676.05 1305.34C1675.18 1305.17 1674.4 1304.69 1673.84 1304.01C1673.28 1303.32 1672.97 1302.46 1672.97 1301.57C1672.97 1300.68 1673.28 1299.82 1673.84 1299.14C1674.4 1298.45 1675.18 1297.98 1676.05 1297.8L1739.66 1285.96L1751.52 1222.36C1751.69 1221.49 1752.16 1220.7 1752.85 1220.14C1753.54 1219.58 1754.4 1219.27 1755.29 1219.27C1756.17 1219.27 1757.03 1219.58 1757.72 1220.14C1758.41 1220.7 1758.88 1221.49 1759.05 1222.36L1770.91 1285.96L1834.52 1297.8C1835.39 1297.98 1836.17 1298.45 1836.73 1299.14C1837.29 1299.82 1837.6 1300.68 1837.6 1301.57C1837.6 1302.46 1837.29 1303.32 1836.73 1304.01C1836.17 1304.69 1835.39 1305.17 1834.52 1305.34L1770.91 1317.19L1759.05 1380.79C1758.9 1381.67 1758.43 1382.47 1757.74 1383.04C1757.05 1383.62 1756.18 1383.93 1755.29 1383.92ZM1677.74 1301.56L1740.52 1313.25C1741.26 1313.4 1741.94 1313.77 1742.48 1314.31C1743.01 1314.84 1743.38 1315.52 1743.53 1316.27L1755.23 1379.04L1766.94 1316.27C1767.09 1315.52 1767.45 1314.84 1767.99 1314.31C1768.52 1313.77 1769.21 1313.4 1769.95 1313.25L1832.72 1301.56L1769.95 1289.85C1769.21 1289.7 1768.52 1289.33 1767.99 1288.79C1767.45 1288.26 1767.09 1287.58 1766.94 1286.83L1755.23 1224.06L1743.53 1286.83C1743.38 1287.58 1743.01 1288.26 1742.48 1288.79C1741.94 1289.33 1741.26 1289.7 1740.52 1289.85L1677.74 1301.56Z" fill="black"/>
<path d="M718.457 1767.28C717.924 1767.28 717.414 1767.06 717.039 1766.68C716.663 1766.31 716.453 1765.79 716.453 1765.26C716.453 1764.66 716.287 1750.31 703.491 1746.6C700.733 1745.8 698.382 1746.39 695.413 1747.13C691.21 1748.4 686.782 1748.73 682.436 1748.11C670.5 1746.26 659.091 1737.89 660.522 1723.35C660.529 1723.07 660.593 1722.8 660.71 1722.54C660.827 1722.29 660.994 1722.07 661.202 1721.88C661.41 1721.7 661.654 1721.56 661.918 1721.47C662.182 1721.39 662.461 1721.36 662.738 1721.38C663.014 1721.41 663.282 1721.5 663.525 1721.63C663.767 1721.77 663.98 1721.95 664.148 1722.17C664.316 1722.39 664.437 1722.65 664.503 1722.91C664.569 1723.18 664.579 1723.47 664.531 1723.74C663.265 1736.47 673.725 1742.68 683.054 1744.13C686.868 1744.67 690.753 1744.36 694.433 1743.23C697.719 1742.41 700.808 1741.72 704.606 1742.74C720.341 1747.27 720.477 1765.1 720.477 1765.35C720.453 1765.87 720.23 1766.36 719.854 1766.72C719.478 1767.08 718.977 1767.28 718.457 1767.28Z" fill="black"/>
<path d="M648.904 1806.83C648.435 1806.82 647.984 1806.65 647.628 1806.35C647.271 1806.04 647.031 1805.62 646.949 1805.16C646.867 1804.7 646.948 1804.23 647.178 1803.82C647.408 1803.41 647.773 1803.09 648.211 1802.92C658.67 1799.11 669.416 1784.27 670.818 1774.8C671.104 1772.99 671.134 1770.6 669.733 1769.53C669.348 1769.19 669.106 1768.72 669.056 1768.21C669.007 1767.7 669.153 1767.19 669.465 1766.78C669.778 1766.37 670.233 1766.1 670.739 1766.02C671.245 1765.93 671.763 1766.05 672.189 1766.33C673.832 1767.6 675.611 1770.19 674.797 1775.37C673.169 1785.92 661.549 1802.29 649.552 1806.68C649.345 1806.76 649.126 1806.81 648.904 1806.83Z" fill="black"/>
<path d="M690.454 1737.57C689.995 1737.57 689.551 1737.41 689.195 1737.12C688.84 1736.83 688.594 1736.42 688.5 1735.97C688.405 1735.52 688.466 1735.05 688.673 1734.64C688.881 1734.23 689.222 1733.91 689.641 1733.72C701.336 1728.56 709.324 1716.47 710.273 1707.78C710.484 1705.94 710.5 1702.62 708.405 1701.07C708.192 1700.91 708.012 1700.72 707.875 1700.49C707.738 1700.27 707.648 1700.02 707.608 1699.75C707.568 1699.49 707.58 1699.23 707.643 1698.97C707.706 1698.71 707.819 1698.47 707.975 1698.26C708.131 1698.05 708.328 1697.87 708.554 1697.73C708.78 1697.59 709.03 1697.5 709.291 1697.46C709.552 1697.42 709.819 1697.44 710.075 1697.5C710.332 1697.56 710.573 1697.67 710.786 1697.83C713.544 1699.87 714.795 1703.54 714.282 1708.22C713.212 1717.91 704.787 1731.44 691.268 1737.41C691.01 1737.51 690.734 1737.57 690.454 1737.57Z" fill="black"/>
<path d="M721.881 1811.11C721.387 1811.12 720.905 1810.95 720.527 1810.63C720.15 1810.32 719.904 1809.87 719.837 1809.38C719.77 1808.89 719.886 1808.39 720.163 1807.98C720.44 1807.57 720.859 1807.28 721.338 1807.16C729.251 1804.96 738.761 1794.7 742.695 1786.48C745.817 1779.6 746.435 1771.84 744.443 1764.55C744.36 1764.3 744.328 1764.04 744.348 1763.78C744.368 1763.51 744.439 1763.26 744.558 1763.02C744.677 1762.79 744.842 1762.58 745.042 1762.41C745.242 1762.23 745.474 1762.1 745.724 1762.02C745.973 1761.94 746.237 1761.9 746.5 1761.92C746.762 1761.94 747.019 1762.01 747.254 1762.13C747.49 1762.24 747.7 1762.41 747.872 1762.61C748.044 1762.81 748.174 1763.04 748.256 1763.29C750.615 1771.56 749.931 1780.4 746.327 1788.22C742.031 1797.26 731.677 1808.46 722.423 1811.03C722.248 1811.09 722.065 1811.11 721.881 1811.11Z" fill="black"/>
<path d="M622.515 1679.96C623.568 1691.63 623.061 1703.39 621.008 1714.92C614.12 1750.93 597.014 1773.84 575.989 1802.1L622.515 1679.96Z" fill="black"/>
<path d="M575.987 1804.1C575.554 1804.1 575.133 1803.96 574.781 1803.71C574.355 1803.39 574.073 1802.91 573.996 1802.38C573.92 1801.85 574.056 1801.32 574.374 1800.89L574.555 1800.65C595.655 1772.34 612.234 1749.99 619.031 1714.54C621.083 1703.19 621.59 1691.6 620.538 1680.11C620.501 1679.58 620.674 1679.05 621.021 1678.65C621.369 1678.24 621.861 1677.99 622.392 1677.95C622.657 1677.93 622.924 1677.96 623.177 1678.04C623.429 1678.12 623.663 1678.26 623.864 1678.43C624.065 1678.6 624.229 1678.82 624.346 1679.06C624.464 1679.3 624.532 1679.55 624.547 1679.82C625.627 1691.67 625.12 1703.6 623.04 1715.31C616.092 1751.65 599.212 1774.33 577.825 1803.04L577.645 1803.29C577.453 1803.54 577.202 1803.75 576.914 1803.89C576.626 1804.04 576.308 1804.11 575.987 1804.1Z" fill="black"/>
</g>
<defs>
<clipPath id="clip0_2628_2">
<rect width="3000" height="3000" fill="white"/>
</clipPath>
</defs>
</svg>
