<?xml version="1.0" encoding="iso-8859-1"?>
<!-- Generator: Adobe Illustrator 23.0.1, SVG Export Plug-In . SVG Version: 6.00 Build 0)  -->
<svg version="1.1" id="Layer_1" xmlns="http://www.w3.org/2000/svg" xmlns:xlink="http://www.w3.org/1999/xlink" x="0px" y="0px"
	 viewBox="0 0 1500 1500" style="enable-background:new 0 0 1500 1500;" xml:space="preserve">
<g>
	<path d="M1120.481,562.123c-3.362,0.636-6.714,1.311-10.058,2.018c-0.36,1.9-0.464,3.872-0.298,5.809
		c0.789-0.17,1.574-0.354,2.364-0.52c4.368-0.919,8.737-1.693,13.108-2.399C1123.959,565.282,1122.199,563.644,1120.481,562.123z"/>
	<path d="M1066.68,574.99c0.705,1.207,1.656,2.378,2.935,3.503c0.422,0.371,0.983,0.766,1.628,1.165
		c6.403-1.784,12.824-3.497,19.268-5.118c-0.049-1.804-0.281-3.741-0.614-5.66C1082.134,570.811,1074.397,572.858,1066.68,574.99z"
		/>
	<path d="M1396.707,516.499c-18.61,10.972-38.39,19.427-59.435,24.412c-21.191,5.02-42.906,6.576-64.572,8.087
		c-43.724,3.047-87.738,3.842-131.226,9.693c-1.488,0.2-2.966,0.439-4.448,0.657c1.489,1.744,2.918,3.606,4.195,5.552
		c23.548-2.631,47.145-2.868,70.851-2.788c0.327-0.148,0.651-0.3,0.981-0.433c9.249-3.728,20.49-4.688,29.349,0.528
		c2.751-0.006,5.503-0.018,8.258-0.044c41.945-0.387,85.548-6.273,123.454-25.235c9.22-4.612,17.528-10.141,25.472-16.695
		C1401.698,518.489,1398.985,515.155,1396.707,516.499z"/>
	<path d="M993.462,595.432c-1.308,3.205-4.641,5.533-9.073,4.538c-1.575-0.354-3.185-0.729-4.803-1.138
		c-20.737,4.845-42.006,8.579-63.195,8.586c-16.942,0.005-34.107,1.637-51.157,3.503c-3.891,6.809-12.656,10.187-20.749,11.023
		c-9.999,1.033-21.282-0.172-30.195-5.295c-17.221,2.207-34.363,4.975-51.295,8.908c-25.289,5.875-49.603,14.832-73.681,24.429
		c-49.386,19.686-97.829,42.052-146.647,63.108c-25.862,11.156-51.834,22.037-77.81,32.922
		c-11.758,4.927-23.952,8.413-35.669,13.358c-1.668,0.704-3.334,1.417-4.997,2.137c7.764-11.546,12.981-25.617,17.135-37.699
		c7.313-21.272,8.994-44.351,11.968-66.532c3.049-22.749,5.628-45.574,10.404-68.05c5.294-24.91,13.811-48.645,24.454-71.757
		c13.195-28.652,27.497-56.726,39.895-85.746c0.252-0.59-0.556-1.113-0.887-0.518c-13.441,24.112-25.928,48.755-37.932,73.614
		c-10.817,22.398-20.735,45.19-27.124,69.288c-5.805,21.894-9.46,44.278-13.556,66.533c-2.043,11.102-3.962,22.26-6.442,33.275
		c-0.498,2.213-1.061,4.406-1.651,6.592c-4.924-5.507-11.927-10.197-16.026-15.248c-4.579-5.642-6.218-12.871-8.099-19.743
		c-2.018-7.375-4.288-14.671-6.835-21.88c-4.634-13.114-9.971-25.978-15.709-38.646c-5.564-12.282-11.206-24.705-18.53-36.055
		c-2.253-1.071-4.096-2.736-5.031-5.036c-0.631,0.255-1.074,0.873-0.803,1.74c1.162,3.722,2.509,7.373,3.964,10.982
		c1.207,0.242,2.232,1.165,2.198,2.655c-0.016,0.691-0.102,1.384-0.227,2.075c3.604,8.348,7.678,16.511,11.417,24.791
		c6.525,14.449,12.537,29.132,17.322,44.256c2.171,6.864,4.269,13.824,5.736,20.876c1.364,6.556,2.289,12.945,5.717,18.824
		c2.909,4.987,6.919,8.871,11.166,12.716c3.264,2.954,6.563,6.712,10.302,9.38c-1.43,4.596-2.897,9.182-4.246,13.802
		c-3.4,11.643-6.928,23.341-11.789,34.473c-4.259,9.754-10.027,19.068-14.018,28.953c-4.15,2.044-8.254,4.182-12.289,6.449
		c-39.215,22.031-71.51,55-97.751,91.144c-50.709,69.846-89.527,150.33-164.491,198.27c-8.963,5.732-18.233,10.846-27.946,15.195
		c-10.04,4.495-2.909,21.023,7.473,17.724c72.706-23.104,118.598-85.784,159.57-147.442c8.156-1.868,15.516-5.91,23.002-9.924
		c9.206-4.936,18.503-9.364,28.377-12.81c20.361-7.105,41.535-11.794,62.574-16.404c20.041-4.392,40.214-8.468,59.766-14.769
		c18.157-5.852,35.87-13.088,53.148-21.158c17.879-8.352,35.329-17.582,52.669-27.027c0.397-3.093,2.293-6.024,5.538-6.786
		c3.647-0.856,7.519-1.881,11.424-2.512c11.147-6.13,22.29-12.261,33.516-18.215c34.655-18.38,71.094-32.583,108.54-44.243
		c13.152-4.095,26.367-8.044,39.599-11.924c2.023-2.603,3.268-5.382,3.212-8.268c-1.225,0.205-2.449,0.409-3.674,0.613
		c1.074-1.237,2.095-2.509,3.079-3.791c-0.133-0.365-0.285-0.731-0.465-1.098c-0.988-2.008-2.277-3.769-3.791-5.301
		c-4.551,3.61-9.11,7.78-12.572,12.502c-6.201,1.064-12.393,2.179-18.56,3.453c-38.431,7.936-71.764,27.185-106.221,45.003
		c-34.976,18.087-69.089,37.709-104.963,54.033c-35.815,16.298-74.988,31.207-114.797,31.931
		c-25.203,0.459-49.592,0.503-73.599,9.286c-6.036,2.208-12.781,4.708-19.512,7.687c23.406-34.971,48.352-70.632,79.887-98.636
		c17.936-15.927,38.307-28.255,59.655-39.053c5.674-2.87,10.974-6.324,16.571-9.321c5.786-3.098,12.036-5.496,18.039-8.16
		c12.457-5.528,24.915-11.056,37.373-16.584c50.317-22.328,100.879-44.433,151.8-65.347c24.447-10.04,48.977-19.357,74.651-25.772
		c25.159-6.288,50.79-9.689,76.484-12.869c25.689-3.179,51.482-5.368,77.153-8.702c12.851-1.669,24.958-4.351,37.502-7.387
		c12.488-3.023,25.211-4.991,37.671-8.241c30.798-8.031,61.092-18.059,91.655-27.031c-0.912-1.655-1.658-3.483-2.237-5.396
		C1033.864,584.278,1013.761,590.262,993.462,595.432z"/>
	<path d="M834.76,730.303c-9.001,5.463-18.311,10.229-28.125,14.063c-9.795,3.826-19.325,5.799-29.556,7.927
		c-2.559,0.533-5.124,1.037-7.691,1.523c0.242,1.854,0.225,3.67-0.004,5.447c1.87-0.539,3.74-1.084,5.61-1.621
		c10.785-3.101,21.606-7.702,32.002-11.967c9.826-4.031,19.299-8.853,28.023-14.929C835.287,730.56,835.047,730.129,834.76,730.303z
		"/>
	<path d="M769.269,729.094c-3.222,2.525-6.261,5.234-9.293,7.95c1.038,0.951,2.005,1.98,2.92,3.062
		c2.727-3.187,5.465-6.366,7.987-9.767C771.639,729.319,770.1,728.443,769.269,729.094z"/>
	<path d="M801.561,564.471c-1.515-12.5-14.054-19.672-25.203-22.599c-11.125-2.921-30.5-6.461-39.632,2.514
		c-8.739,8.588-5.362,22.161,1.676,30.702c7.512,9.118,22.795,18.435,34.998,17.292c2.512-0.235,4.193-3.922,1.426-5.265
		c-8.945-4.342-17.681-6.549-24.613-14.327c-2.601-2.919-5.34-6.462-6.104-10.404c-0.936-4.832,1.344-5.541,5.695-5.843
		c7.771-0.539,16.419,0.04,23.99,1.897c3.609,0.885,7.231,2.121,10.649,3.558c3.822,1.606,6.944,4.31,10.643,6.19
		C797.664,569.497,801.984,567.961,801.561,564.471z"/>
	<path d="M838.213,583.411c-3.624,1.13-3.888,5.567-0.998,7.63c3.846,2.744,18.321,4.92,16.264,12.017
		c-1.398,4.822-12.239,3.665-15.663,3.383c-6.575-0.541-15.038-1.875-19.702-7.032c-4.451-4.921-4.322-10.096-4.343-16.173
		c-0.012-3.416-3.826-5.629-6.79-3.896c-10.814,6.324-7.619,22.799-0.772,30.712c2.328,2.691,5.07,4.865,8.081,6.596
		c8.912,5.123,20.196,6.328,30.195,5.295c8.093-0.836,16.857-4.214,20.749-11.023c1.414-2.475,2.202-5.39,2.054-8.819
		C866.716,588.792,850.3,579.641,838.213,583.411z"/>
	<path d="M929.589,537.714c-6.77-4.784-15.403-5.432-23.426-5.799c-9.635-0.441-20.065-0.909-28.609,4.154
		c-2.051,1.216-2.377,4.75,0,5.878c12.414,5.888,26.551,1.77,39.34,5.904c14.508,4.689,3.391,20.947-5.01,25.644
		c-11.894,6.648-26.305,3.827-38.744,0.362c-7.073-1.969-13.98-4.497-21.112-6.244c-6.566-1.608-13.885-3.934-20.606-2.495
		c-2.807,0.601-3.266,4.115-1.586,6.011c5.935,6.698,17.677,10.076,25.956,12.961c9.527,3.32,19.172,6.636,29.188,8.107
		c16.204,2.38,34.037-0.967,45.323-13.766C940.283,567.11,943.511,547.551,929.589,537.714z"/>
	<path d="M757.499,525.824c2.446,2.057,6.075,0.128,5.368-3.124c-2.741-12.604-11.194-23.489-8.251-37.13
		c2.764-12.813,12.91-19.126,25.449-15.436c11.236,3.306,20.141,12.149,25.069,22.589c6.343,13.441,4.747,26.595,5.617,40.849
		c0.225,3.684,4.763,4.904,6.822,1.848c6.877-10.21,7.958-24.188,5.295-36.854c3.016-7.295,7.446-13.871,14.063-18.733
		c8.125-5.969,26.321-12.457,34.221-2.359c7.48,9.565-4.203,28.971-8.654,37.654c-6.779,13.225-14.978,24.917-25.9,35.07
		c-2.909,2.704,0.89,7.746,4.28,5.547c15.696-10.18,30.12-23.828,38.753-40.604c8.067-15.675,17.541-39.985-0.654-52.493
		c-14.402-9.9-35.245-3.67-47.759,6.429c-5.159,4.164-9.793,9.503-13.112,15.481c-0.376-0.77-0.754-1.539-1.159-2.274
		c-7.953-14.43-22.576-25.903-39.098-28.219c-16.735-2.346-30.803,8.343-35.047,24.381
		C738.685,494.015,745.057,515.356,757.499,525.824z"/>
	<path d="M1071.402,548.27c-11.221-11.208-24.16-20.346-35.946-31.008c-2.632-2.381-5.769-5.167-6.524-8.808
		c-0.847-4.081,2.052-5.779,5.659-4.184c6.626,2.931,8.983,10.86,16.388,12.682c2.424,0.596,4.199-1.916,3.119-4.056
		c-4.13-8.18-11.8-18.672-21.571-19.962c-9.586-1.266-16.846,7.35-16.861,16.46c-0.021,11.545,10.883,20.413,19.073,26.98
		c10.294,8.255,20.246,14.691,32.978,18.231C1071.364,555.617,1074.077,550.941,1071.402,548.27z"/>
	<path d="M1060.603,516.28c5.249,5.997,10.225,12.984,17.797,16.038c1.271,0.513,2.997-0.81,2.846-2.167
		c-1.11-9.957-8.839-18.624-14.189-26.759c-4.682-7.12-12.131-16.425-8.471-25.464c4.132-10.207,13.681-5.538,17.221,2.487
		c4.402,9.977,0.335,21.731,4.419,31.745c0.674,1.654,3.354,2.114,3.84,0c3.025-13.155,5.925-30.269-1.373-42.528
		c-6.511-10.938-20.529-15.528-30.845-6.747c-10.484,8.925-10.095,23.65-4.552,35.145
		C1050.594,504.871,1055.639,510.608,1060.603,516.28z"/>
	<path d="M1095.219,534.2c1.927-12.507,5.593-37.354,22.018-38.783c6.654-0.578,13.748,4.741,11.392,11.835
		c-2.73,8.219-12.525,11.142-18.807,15.875c-1.981,1.492-1.492,4.871,1.329,4.906c11.438,0.142,24.226-5.704,28.493-16.963
		c4.199-11.082-2.236-22.274-12.936-26.341c-10.994-4.178-22.516,0.836-29.69,9.551c-9.516,11.561-9.136,24.902-8.485,39.014
		C1088.7,536.906,1094.605,538.182,1095.219,534.2z"/>
	<path d="M1137.025,559.347c-1.318-1.544-2.68-2.997-4.015-4.336c-9.594-9.622-22.15-17.629-35.944-12.581
		c-2.498,0.914-3.481,3.366-3.039,5.456c-3.931-5.325-9.026-9.469-15.018-9.1c-2.136,0.131-3.668,2.369-2.496,4.349
		c3.446,5.82,8.653,9.119,10.918,15.945c0.771,2.323,1.81,6.013,2.468,9.801c0.333,1.918,0.564,3.855,0.614,5.66
		c0.061,2.288-0.168,4.357-0.876,5.864c-2.653,5.645-13.404,2.336-18.392-0.746c-0.645-0.399-1.206-0.794-1.628-1.165
		c-1.28-1.125-2.23-2.296-2.935-3.503c-2.839-4.861-1.53-10.351-0.036-16.185c0.875-3.416-2.968-6.7-6.131-4.714
		c-7.982,5.01-9.145,15.675-6.489,24.455c0.579,1.913,1.325,3.741,2.237,5.396c0.326,0.59,0.668,1.163,1.031,1.707
		c7.341,11.015,23.729,14.826,35.791,10.192c5.831-2.24,8.926-6.691,10.245-11.939c1.633,3.101,3.961,5.925,6.963,8.227
		c9.57,7.337,25.876,8.126,33.121-2.995c5.296-8.129,2.691-16.801-2.189-24.235C1139.943,562.953,1138.514,561.091,1137.025,559.347
		z M1117.684,582.543c-4.746-2.569-7.116-7.454-7.559-12.594c-0.166-1.937-0.062-3.909,0.298-5.809
		c0.094-0.504,0.205-1.004,0.335-1.496c1.014-3.823-4.117-5.794-6.221-2.622c-0.969,1.459-1.737,2.979-2.345,4.53
		c-0.166-0.561-0.337-1.115-0.517-1.654c-1.181-3.531-3.158-8.103-5.814-12.318c0.644,0.402,1.441,0.656,2.399,0.679
		c7.401,0.179,14.625,4.282,20.11,9.022c0.687,0.593,1.395,1.209,2.111,1.842c1.718,1.521,3.479,3.159,5.115,4.907
		c2.613,2.792,4.9,5.864,6.138,9.205C1134.979,584.988,1123.072,585.459,1117.684,582.543z"/>
	<path d="M1349.67,511.598c-2.114-1.461-5.415-2.482-8.597-3.657c2.756,0.055,5.576-1.729,6.349-4.565
		c0.68-2.496,4.853-16.03,10.27-11.462c3.073,2.591-0.431,9.1-1.351,11.821c-1.403,4.145,3.93,6.328,6.762,3.937
		c7.621-6.439,8.359-21.398-0.874-26.778c-10.43-6.078-18.262,1.437-23.012,10.163c-3.302-2.354-7.059-3.928-11.372-4.141
		c-7.883-0.388-14.224,4.908-14.585,13.05c-0.796,17.995,16.236,22.768,30.378,25.943
		C1352.488,527.895,1356.957,516.635,1349.67,511.598z M1333.104,497.863c-0.294,0.888-0.589,1.776-0.884,2.663
		c-0.014-0.131-0.024-0.258-0.046-0.397C1332.395,499.343,1332.705,498.587,1333.104,497.863z M1332.788,502.771
		c-0.099-0.161-0.154-0.31-0.216-0.461c1.228,1.277,3.826,3.147,4.434,3.816l0.216,0.205
		C1335.312,505.387,1333.701,504.261,1332.788,502.771z"/>
	<path d="M1380.51,556.114c-14.849-14.935-36.948,1.956-43.098,17.503c-1.305,3.298,2.528,6.517,5.608,5.609
		c8.57-2.527,14.22-10.881,22.704-13.036c2.554-0.648,9.408-1.282,8.625,3.107c-0.649,3.641-7.61,4.564-10.37,3.823
		c-6.686-1.796-10.665,7.582-4.7,11.151c3.493,2.09,7.587,5.238,7.58,9.75c-0.002,2.121-3.957,7.206-5.188,3.187
		c-2.06-6.726-12.657-5.69-12.523,1.695c0.184,10.179-12.571,7.801-17.001,2.365c-5.839-7.165-4.531-17.131-5.095-25.783
		c-0.141-2.168-3.478-3.635-4.547-1.232c-5.985,13.445-3.73,31.29,9.651,39.627c8.615,5.368,18.932,3.26,24.888-3.35
		c6.291,3.098,14.728,1.718,19.419-4.891c5.716-8.054,3.855-16.946-1.417-23.767c3.309-1.108,6.318-2.776,8.493-6.141
		C1387.811,569.117,1385.763,561.398,1380.51,556.114z"/>
	<path d="M1251.693,595.51c1.719,9.805,13.837,13.038,22.325,13.276c8.897,0.25,23.478-0.958,28.014-10.053
		c9.232-18.516-20.457-33.005-34.972-27.67c-2.502,0.919-2.86,4.675,0,5.45c5.934,1.607,11.825,1.784,17.111,5.393
		c1.108,0.756,6.739,4.828,6.13,6.729c-0.331,1.034-4.377,1.441-5.358,1.651c-4.928,1.05-9.898,2.034-14.965,1.728
		c-4.809-0.29-9.364-1.85-14.136-1.949C1252.829,590,1251.227,592.85,1251.693,595.51z"/>
	<path d="M1207.968,626.172c0.85-1.656,0.422-3.661-1.221-4.657c-7.372-4.467-17.405,0.25-25.339,0.694
		c-11.236,0.629-5.975-11.265-0.158-15.396c7.766-5.516,18.872-4.542,27.86-4.009c7.757,0.461,18.703,2.073,25.125-3.058
		c1.581-1.264,1.17-3.764,0-5.086c-2.22-2.507-5.631-3.84-9.208-4.668c0.38-0.218,0.763-0.434,1.125-0.69
		c2.384-1.684,3.008-5.664,0-7.209c-2.559-1.314-9.322-1.225-10.964-3.373c-1.154-1.507-0.14-1.625,1.895-2.415
		c1.74-0.676,3.935-1.001,5.766-1.209c8.437-0.957,14.81,0.879,17.401,9.426c0.987,3.256,5.76,5.165,8.225,2.172
		c6.437-7.817,2.78-18.843-5.267-24.014c-0.265-0.17-0.54-0.316-0.809-0.474c-8.859-5.216-20.1-4.256-29.349-0.528
		c-0.33,0.133-0.655,0.286-0.981,0.433c-7.92,3.581-14.569,11.36-10.501,20.409c0.837,1.863,2.082,3.474,3.575,4.831
		c-4.003-0.287-8.015-0.359-11.948-0.033c-12.831,1.064-25.655,6.962-31.401,19.137c-5.037,10.672-2.225,25.609,10.211,29.504
		c6.11,1.914,12.764,0.518,18.849-0.755C1196.922,633.934,1204.912,632.127,1207.968,626.172z"/>
	<path d="M1288.289,612.676c-2.234-0.854-4.733,1.755-3.95,3.95c2.731,7.66,9.504,13.418,10.484,21.898
		c0.974,8.432-4.159,14.396-12.602,13.837c-8.605-0.569-15.798-6.115-20.446-13.074c-4.87-7.291-5.639-15.672-9.328-23.368
		c-1.192-2.488-5.07-2.284-6.322,0c-4.53,8.268-2.938,19.129,1.251,28.026c-1.027,4.199-2.686,8.186-5.579,11.645
		c-3.75,4.483-13.154,11.108-19.258,7.035c-6.177-4.121-1.533-18.182-0.282-23.885c2.208-10.075,5.15-19.168,10.522-28.056
		c2.092-3.462-2.692-7.073-5.547-4.28c-10.735,10.497-19.143,23.305-22.017,38.188c-2.545,13.177-2.178,30.059,13.67,34.064
		c14.602,3.691,30.649-8.682,36.39-23.283c8.449,8.548,21.054,13.846,33.045,11.911
		C1316.898,662.675,1311.094,621.398,1288.289,612.676z"/>
	<path d="M606.132,751.915c7.46,3.243,14.983,9.923,20.503,15.808c5.901,6.291,8.614,13.369,12.613,20.762
		c1.485,2.746,5.977,2.86,7.431,0c6.201-12.203-1.995-26.022-10.33-34.935c-8.389-8.97-22.762-22.298-35.943-16.794
		c-23.386,9.766-9.419,50.029,7.282,59.255c2.463,1.361,5.286-1.379,3.866-3.866c-4.579-8.019-10.184-14.265-11.885-23.75
		C598.85,763.826,597.894,748.334,606.132,751.915z"/>
	<path d="M665.855,824.977c-2.88-0.881-6.236,2.132-5.134,5.135c1.719,4.687,12.087,14.387,7.08,19.325
		c-4.381,4.32-14.489-4.95-17.585-7.828c-4.393-4.084-9.385-9.24-9.843-15.562c-0.481-6.632,2.647-10.119,5.861-15.258
		c1.98-3.165-0.706-6.315-3.85-6.71c-11.742-1.475-18.525,14.25-17.857,23.653c0.982,13.82,11.447,24.263,22.557,31.252
		c9.919,6.239,25.754,9.944,32.742-2.506C686.315,844.915,678.009,828.695,665.855,824.977z"/>
	<path d="M751.009,820.719c-7.913-5.95-15.9-11.691-25.96-12.578c-2.601-0.229-4.206,3.053-2.94,5.122
		c7.224,11.802,21.578,16.278,29.484,27.349c8.861,12.407-10.976,18.906-20.151,17.716c-12.934-1.676-22.788-11.65-30.855-21.115
		c-4.695-5.509-8.919-11.407-13.688-16.851c-4.68-5.345-9.637-11.557-16.302-14.31c-2-0.827-4.834,1.303-4.552,3.468
		c1.28,9.812,9.232,19.355,15.042,27.093c5.334,7.103,10.658,14.323,17.017,20.558c12.06,11.826,28.394,19.373,45.488,16.016
		c15.519-3.048,30.097-18.432,23.47-34.903C763.991,830.647,757.394,825.521,751.009,820.719z"/>
	<path d="M765.38,743.405c-0.754-1.169-1.6-2.254-2.484-3.299c-0.915-1.082-1.882-2.11-2.92-3.062
		c-13.706-12.553-37.542-13.778-54.699-5.162c2.173-16.625-2.715-34.535-14.759-46.497c-12.307-12.223-30.056-12.101-43.268-1.366
		c-12.845,10.436-19.76,32.173-15.26,48.216c0.925,3.296,5.071,2.782,6.193,0c5.03-12.47,4.068-27.065,15.542-36.404
		c10.385-8.452,21.924-6.118,29.496,4.451c7.243,10.11,8.705,23.013,5.951,34.907c-3.03,13.087-11.123,22.24-17.776,33.436
		c-1.508,2.537,1.056,6.591,4.133,5.378c11.618-4.579,20.818-15.736,25.833-27.727c6.106-3.993,12.872-6.8,20.409-7.384
		c8.931-0.693,19.716,1.627,26.271,8.255c1.514,1.532,2.803,3.293,3.791,5.301c0.181,0.367,0.332,0.733,0.465,1.098
		c0.392,1.072,0.575,2.131,0.595,3.178c0.057,2.886-1.188,5.666-3.212,8.268c-5.658,7.279-17.297,13.187-22.92,16.25
		c-13.878,7.559-27.841,13.168-43.547,15.538c-4.048,0.611-2.899,6.849,0.938,6.938c21.094,0.492,42.231-3.887,60.359-14.93
		c11.071-6.745,23.272-17.137,24.872-29.527c0.229-1.777,0.246-3.593,0.004-5.447C768.95,750.455,767.686,746.975,765.38,743.405z"
		/>
	<path d="M375.355,561.354c0.125-0.691,0.211-1.384,0.227-2.075c0.034-1.491-0.991-2.414-2.198-2.655
		c-0.89-0.178-1.877,0.004-2.626,0.657c-3.406,2.975-5.384,6.889-9.636,8.988c-1.153,0.569-2.52,0.749-3.766,1.088
		c0.19-0.746,0.38-1.492,0.606-2.228c1.114-3.864,2.323-7.261,4.293-10.759c1.621-2.878,4.477-5.82,5.11-9.116
		c0.395-2.054-0.314-3.662-1.978-4.859c-7.262-5.225-16.433,3.676-19.785,9.494c-3.823,6.635-8.246,17.406-3.168,24.304
		C351.887,587.034,372.995,574.468,375.355,561.354z"/>
	<path d="M389.336,510.333c1.027-2.082,1.893-4.032,2.563-5.67c3.9-9.528,3.857-20.719-2.753-29.076
		c-6.319-7.988-18.673-10.759-26.161-2.664c-5.03,5.438-10.407,20.148-5.928,27.402c-2.098-2.977-4.533-5.716-7.373-8.103
		c-8.981-7.549-22.017-14.128-31.376-3.294c-7.166,8.295-5.219,22.897,1.706,32.396c-7.834,3.01-14.736,9.044-17.906,16.814
		c-9.208,22.565,22.496,36.373,38.069,21.829c1.661-1.551,0.97-4.943-1.417-5.367c-5.751-1.021-12.373,1.096-17.865-1.323
		c-5.974-2.631-6.707-7.681-2.773-12.516c3.442-4.23,8.837-6.18,14.126-6.666c5.966-0.548,11.833,1.801,17.656,1.128
		c2.831-0.327,4.461-2.837,3.161-5.508c-3.358-6.9-12.012-10.016-20.117-10.395c-1.322-1.37-2.5-2.865-3.398-4.584
		c-1.638-3.141-4.125-13.174,0.944-15.087c4.142-1.563,11.862,6.435,14.75,8.733c5.567,4.43,10.374,9.073,14.354,15.022
		c1.646,2.461,5.077,1.936,6.212-0.195c-0.117,1.561,0.018,3.147,0.484,4.766c0.579,2.011,2.483,2.832,4.424,2.512
		c1.974-0.326,3.886-1.265,5.711-2.613l0.071,0.173c0.837,1.622,3.006,2.396,4.714,1.918c1.703-0.477,2.764-1.203,3.973-2.481
		c0.113-0.119,0.521-0.529,1.006-1.019c-0.144,0.692-0.279,1.368-0.469,1.822c-0.85,2.04-2.154,5.33-4.188,6.507
		c-2.308,1.335-4.812,0.858-7.234,1.089c-2.51,0.24-4.818,1.983-4.752,4.753c0.028,1.208,0.276,2.289,0.674,3.267
		c0.936,2.299,2.779,3.965,5.031,5.036c3.848,1.829,8.866,1.924,12.54,0.411c8.585-3.537,12.722-12.292,13.89-21.028
		C402.784,520.098,399.057,510.126,389.336,510.333z M366.122,521.09c-0.021-0.136-0.032-0.268-0.069-0.409
		c-1.785-6.905-4.474-13.675-8.446-19.561c0.277,0.351,0.557,0.701,0.893,1.004c0.877,0.794,2.131,1.264,3.312,0.875
		c5.948-1.96,7.237-8.386,9.118-13.753c1.008-2.875,1.79-7.74,5.509-4.857c1.946,1.508,2.611,4.794,2.702,7.042
		C379.567,502.001,368.267,511.108,366.122,521.09z"/>
	<path d="M566.593,502.819c2.572-9.828-2.63-17.177-10.131-21.511c3.337-2.716,5.979-5.93,6.21-11.058
		c0.345-7.642-4.956-12.987-11.664-15.564c-18.332-7.042-32.362,16.267-32.445,32.013c-0.023,4.334,4.836,5.509,7.784,3.224
		c6.959-5.394,9.089-15.25,16.255-20.145c1.831-1.251,5.57-3.219,7.708-1.813c4.63,3.044-3.499,8.737-6.515,9.12
		c-6.105,0.775-9.088,10.699-1.622,11.984c4.231,0.729,9.719,2.07,11.244,6.708c1.007,3.06-1.448,7.583-4.319,3.926
		c-3.839-4.89-13.052,0.429-10.656,6.203c4.091,9.856-8.444,12.751-15.165,8.743c-7.871-4.694-10.252-14.552-13.855-22.375
		c-1.086-2.358-4.432-0.974-4.548,1.232c-0.774,14.663,8.349,30.691,23.853,33.171c9.496,1.519,18.528-4.081,21.694-12.261
		C557.324,515.066,564.471,510.928,566.593,502.819z"/>
	<path d="M513.773,434.269c-2.113-1.461-5.415-2.482-8.597-3.657c2.756,0.055,5.575-1.729,6.348-4.565
		c0.68-2.496,4.853-16.03,10.27-11.462c3.074,2.592-0.431,9.101-1.351,11.821c-1.403,4.145,3.931,6.328,6.762,3.936
		c7.621-6.438,8.359-21.398-0.874-26.778c-10.43-6.078-18.262,1.438-23.012,10.163c-3.302-2.354-7.059-3.928-11.371-4.141
		c-7.883-0.388-14.225,4.908-14.585,13.05c-0.795,17.995,16.237,22.769,30.378,25.943
		C516.591,450.566,521.061,439.306,513.773,434.269z M497.207,420.534c-0.295,0.888-0.589,1.776-0.884,2.663
		c-0.014-0.131-0.024-0.258-0.046-0.397C496.499,422.013,496.808,421.258,497.207,420.534z M496.891,425.442
		c-0.098-0.16-0.154-0.309-0.217-0.461c1.229,1.277,3.827,3.147,4.434,3.816l0.217,0.205
		C499.416,428.057,497.804,426.932,496.891,425.442z"/>
	<path d="M385.4,612.798c-2.585,1.362-4.775,3.003-6.933,4.82c0.72-2.151,0.368-4.652-1.455-6.337
		c-2.596-2.401-9.822-8.528-6.977-13.034c3.132-4.962,8.921,2.724,11.153,5.031c2.913,3.013,7.633-0.123,6.762-3.936
		c-2.364-10.344-16.136-17.945-25.223-10.917c-8.861,6.854-5.995,16.492-0.696,24.272c-3.21,1.606-6.078,3.801-8.059,6.88
		c-4.285,6.663-3.955,14.379,2.741,19.373c15.055,11.227,28.938-2.931,38.174-13.856C400.537,618.413,393.556,608.498,385.4,612.798
		z M366.655,623.023l0.055,0.139C366.273,622.887,366.059,622.652,366.655,623.023z M369.612,623.793
		c-0.34,0.026-0.632,0.002-0.924-0.033c0.143-0.118,0.291-0.258,0.445-0.427c1.363-0.124,2.976-0.925,4.401-1.412
		C372.322,622.877,370.991,623.685,369.612,623.793z"/>
	<path d="M1002.979,554.955c-10.43-6.078-18.262,1.437-23.012,10.163c-3.302-2.354-7.059-3.928-11.372-4.141
		c-7.883-0.388-14.224,4.908-14.585,13.05c-0.707,15.991,12.664,21.539,25.574,24.805c1.618,0.409,3.229,0.785,4.803,1.138
		c4.433,0.995,7.765-1.333,9.073-4.538c1.304-3.194,0.597-7.258-3.041-9.772c-2.113-1.461-5.414-2.482-8.596-3.657
		c2.756,0.055,5.575-1.729,6.348-4.565c0.68-2.496,4.853-16.03,10.27-11.462c3.073,2.591-0.431,9.101-1.351,11.821
		c-1.403,4.145,3.931,6.328,6.762,3.936C1011.475,575.294,1012.213,560.335,1002.979,554.955z M973.855,571.925
		c-0.294,0.888-0.588,1.776-0.884,2.663c-0.014-0.131-0.023-0.258-0.045-0.397C973.147,573.404,973.457,572.649,973.855,571.925z
		 M973.539,576.833c-0.098-0.161-0.153-0.31-0.216-0.461c1.228,1.277,3.826,3.147,4.434,3.816l0.218,0.206
		C976.063,579.448,974.453,578.323,973.539,576.833z"/>
	<path d="M582.795,840.073c-4.707-1.668-9.765-1.507-14.769-0.698c-3.906,0.631-7.778,1.656-11.424,2.512
		c-3.245,0.762-5.141,3.693-5.538,6.786c-0.481,3.749,1.247,7.737,5.538,8.397c3.218,0.495,6.116,0.617,9.24,0.504
		c-1.817,1.628-2.799,4.46-2.391,6.773c0.595,3.37,2.224,14.396-3.894,13.977c-4.294-0.294-4.06-7.403-4.4-10.397
		c-0.396-3.483-5.674-6.129-7.539-2.042c-4.225,9.256,0.549,23.159,11.635,24.438c6.268,0.723,11.597-2.971,14.633-8.217
		c1.923-3.323,2.539-6.921,2.558-10.586c2.834,0.493,5.73,0.516,8.671-0.213c7.471-1.854,12.831-7.718,11.449-15.748
		C595.349,848.503,589.462,842.436,582.795,840.073z M576.049,858.474c-1.319-0.324-2.598-0.82-3.855-1.343
		c1.809-0.052,3.608,0.143,4.861,1.135c0.146,0.116,0.321,0.331,0.503,0.566C577.054,858.713,576.551,858.594,576.049,858.474z"/>
</g>
<g>
</g>
<g>
</g>
<g>
</g>
<g>
</g>
<g>
</g>
<g>
</g>
</svg>
