<?xml version="1.0" encoding="iso-8859-1"?>
<!-- Generator: Adobe Illustrator 23.0.1, SVG Export Plug-In . SVG Version: 6.00 Build 0)  -->
<svg version="1.1" id="Layer_1" xmlns="http://www.w3.org/2000/svg" xmlns:xlink="http://www.w3.org/1999/xlink" x="0px" y="0px"
	 viewBox="0 0 1500 1500" style="enable-background:new 0 0 1500 1500;" xml:space="preserve">
<g>
	<path d="M1094.365,575.367c-3.125,0.591-6.24,1.218-9.349,1.875c-0.335,1.766-0.432,3.599-0.277,5.399
		c0.733-0.158,1.463-0.329,2.197-0.483c4.06-0.854,8.121-1.573,12.184-2.23C1097.598,578.303,1095.962,576.781,1094.365,575.367z"/>
	<path d="M1044.356,587.326c0.655,1.122,1.539,2.21,2.729,3.256c0.393,0.345,0.914,0.712,1.514,1.083
		c5.951-1.658,11.92-3.25,17.91-4.757c-0.046-1.677-0.261-3.478-0.57-5.261C1058.721,583.443,1051.53,585.345,1044.356,587.326z"/>
	<path d="M1351.119,532.959c-17.298,10.199-35.684,18.057-55.245,22.691c-19.697,4.667-39.882,6.113-60.021,7.517
		c-40.642,2.832-81.553,3.571-121.976,9.009c-1.383,0.186-2.757,0.408-4.135,0.61c1.384,1.621,2.712,3.352,3.899,5.161
		c21.888-2.445,43.821-2.666,65.856-2.592c0.304-0.137,0.605-0.279,0.912-0.403c8.597-3.465,19.046-4.358,27.28,0.491
		c2.557-0.005,5.115-0.017,7.676-0.041c38.988-0.36,79.518-5.831,114.752-23.457c8.57-4.287,16.292-9.426,23.677-15.518
		C1355.759,534.809,1353.237,531.71,1351.119,532.959z"/>
	<path d="M976.3,606.328c-1.216,2.979-4.313,5.143-8.434,4.218c-1.464-0.329-2.961-0.678-4.465-1.058
		c-19.275,4.503-39.045,7.975-58.74,7.98c-15.748,0.004-31.703,1.521-47.551,3.256c-3.617,6.329-11.764,9.469-19.286,10.246
		c-9.294,0.96-19.782-0.16-28.066-4.922c-16.007,2.051-31.94,4.624-47.679,8.28c-23.506,5.461-46.106,13.786-68.487,22.707
		c-45.904,18.298-90.933,39.087-136.31,58.66c-24.039,10.369-48.18,20.483-72.325,30.602c-10.929,4.58-22.264,7.82-33.155,12.416
		c-1.551,0.654-3.099,1.317-4.645,1.986c7.216-10.732,12.066-23.811,15.927-35.042c6.798-19.772,8.36-41.225,11.124-61.842
		c2.834-21.146,5.231-42.362,9.671-63.253c4.921-23.154,12.838-45.216,22.73-66.698c12.265-26.632,25.559-52.728,37.083-79.702
		c0.234-0.548-0.517-1.035-0.824-0.482c-12.494,22.412-24.1,45.318-35.258,68.425c-10.054,20.819-19.273,42.005-25.212,64.403
		c-5.396,20.351-8.793,41.157-12.601,61.843c-1.899,10.319-3.683,20.691-5.988,30.929c-0.463,2.057-0.986,4.096-1.534,6.127
		c-4.577-5.119-11.086-9.479-14.896-14.173c-4.256-5.245-5.78-11.964-7.528-18.352c-1.876-6.855-3.986-13.637-6.354-20.338
		c-4.308-12.19-9.268-24.147-14.602-35.921c-5.171-11.417-10.416-22.963-17.224-33.513c-2.094-0.995-3.807-2.543-4.677-4.681
		c-0.586,0.237-0.999,0.811-0.747,1.618c1.08,3.459,2.333,6.853,3.685,10.208c1.122,0.225,2.075,1.083,2.043,2.468
		c-0.015,0.642-0.095,1.286-0.211,1.929c3.35,7.759,7.137,15.347,10.612,23.043c6.065,13.43,11.653,27.078,16.101,41.136
		c2.018,6.38,3.968,12.85,5.332,19.405c1.268,6.094,2.127,12.033,5.314,17.497c2.704,4.635,6.432,8.246,10.379,11.819
		c3.034,2.746,6.1,6.239,9.576,8.719c-1.33,4.272-2.692,8.535-3.947,12.829c-3.161,10.822-6.44,21.696-10.958,32.042
		c-3.959,9.066-9.32,17.724-13.03,26.912c-3.857,1.9-7.672,3.887-11.423,5.994c-36.451,20.478-66.469,51.123-90.86,84.719
		c-47.134,64.923-83.216,139.733-152.896,184.293c-8.332,5.328-16.947,10.081-25.976,14.124c-9.333,4.178-2.704,19.541,6.946,16.475
		c67.581-21.476,110.238-79.737,148.321-137.049c7.582-1.736,14.422-5.493,21.38-9.224c8.557-4.588,17.199-8.704,26.377-11.907
		c18.925-6.604,38.607-10.963,58.163-15.248c18.628-4.082,37.379-7.871,55.553-13.728c16.877-5.439,33.342-12.165,49.402-19.667
		c16.619-7.763,32.839-16.343,48.956-25.122c0.369-2.875,2.131-5.6,5.148-6.308c3.39-0.796,6.989-1.749,10.619-2.335
		c10.361-5.698,20.719-11.397,31.153-16.931c32.212-17.084,66.083-30.286,100.889-41.124c12.225-3.807,24.509-7.477,36.808-11.083
		c1.881-2.419,3.038-5.003,2.985-7.686c-1.139,0.19-2.276,0.38-3.415,0.57c0.998-1.15,1.947-2.332,2.862-3.523
		c-0.124-0.339-0.265-0.68-0.433-1.021c-0.918-1.866-2.116-3.503-3.523-4.927c-4.23,3.356-8.468,7.232-11.686,11.621
		c-5.764,0.989-11.52,2.025-17.252,3.209c-35.722,7.377-66.705,25.269-98.733,41.831c-32.511,16.812-64.219,35.051-97.564,50.224
		c-33.29,15.149-69.702,29.007-106.705,29.68c-23.426,0.427-46.096,0.467-68.411,8.632c-5.61,2.052-11.88,4.376-18.136,7.146
		c21.756-32.506,44.943-65.653,74.255-91.683c16.671-14.805,35.607-26.263,55.45-36.3c5.274-2.667,10.2-5.878,15.403-8.664
		c5.378-2.88,11.188-5.109,16.768-7.585c11.579-5.138,23.159-10.276,34.738-15.415c46.771-20.754,93.768-41.301,141.1-60.741
		c22.724-9.333,45.524-17.992,69.389-23.956c23.386-5.845,47.21-9.006,71.093-11.961c23.878-2.955,47.853-4.99,71.714-8.088
		c11.945-1.551,23.198-4.044,34.858-6.867c11.607-2.81,23.434-4.639,35.016-7.66c28.627-7.465,56.785-16.786,85.194-25.125
		c-0.848-1.538-1.541-3.238-2.079-5.016C1013.854,595.96,995.168,601.522,976.3,606.328z"/>
	<path d="M828.785,731.691c-8.366,5.078-17.021,9.508-26.143,13.071c-9.104,3.557-17.963,5.39-27.473,7.369
		c-2.379,0.495-4.763,0.964-7.148,1.416c0.225,1.723,0.209,3.412-0.004,5.063c1.738-0.501,3.477-1.007,5.215-1.507
		c10.024-2.883,20.083-7.159,29.746-11.123c9.134-3.747,17.938-8.229,26.048-13.876C829.275,731.93,829.052,731.529,828.785,731.691
		z"/>
	<path d="M767.911,730.568c-2.995,2.347-5.819,4.865-8.638,7.39c0.965,0.884,1.863,1.84,2.714,2.846
		c2.535-2.962,5.08-5.917,7.424-9.078C770.114,730.777,768.683,729.963,767.911,730.568z"/>
	<path style="fill:#E57393;" d="M797.927,577.549c-1.408-11.619-13.063-18.285-23.427-21.006
		c-10.341-2.715-28.35-6.006-36.838,2.337c-8.123,7.983-4.984,20.599,1.558,28.538c6.982,8.476,21.188,17.136,32.531,16.073
		c2.335-0.218,3.897-3.646,1.325-4.894c-8.314-4.036-16.435-6.087-22.878-13.317c-2.418-2.713-4.964-6.006-5.674-9.671
		c-0.87-4.492,1.249-5.15,5.294-5.431c7.224-0.501,15.262,0.037,22.299,1.763c3.354,0.823,6.722,1.972,9.898,3.307
		c3.553,1.493,6.454,4.006,9.893,5.754C794.304,582.221,798.319,580.793,797.927,577.549z"/>
	<path style="fill:#E57393;" d="M831.995,595.154c-3.368,1.05-3.614,5.175-0.928,7.092c3.575,2.55,17.029,4.573,15.117,11.17
		c-1.3,4.482-11.376,3.406-14.559,3.144c-6.111-0.503-13.978-1.743-18.313-6.537c-4.138-4.574-4.018-9.385-4.037-15.033
		c-0.011-3.175-3.557-5.232-6.312-3.622c-10.052,5.878-7.082,21.192-0.718,28.547c2.164,2.501,4.713,4.522,7.512,6.131
		c8.284,4.762,18.772,5.882,28.066,4.922c7.522-0.777,15.669-3.917,19.286-10.246c1.314-2.3,2.047-5.01,1.909-8.198
		C858.488,600.156,843.229,591.65,831.995,595.154z"/>
	<path style="fill:#E57393;" d="M916.929,552.679c-6.293-4.446-14.317-5.049-21.774-5.39c-8.956-0.41-18.65-0.845-26.593,3.861
		c-1.906,1.13-2.209,4.416,0,5.463c11.539,5.473,24.68,1.646,36.566,5.487c13.485,4.359,3.152,19.47-4.657,23.836
		c-11.056,6.18-24.451,3.557-36.013,0.337c-6.574-1.831-12.994-4.18-19.624-5.804c-6.104-1.495-12.906-3.657-19.153-2.319
		c-2.609,0.559-3.036,3.825-1.475,5.587c5.517,6.226,16.431,9.366,24.126,12.047c8.855,3.086,17.82,6.168,27.131,7.536
		c15.062,2.212,31.638-0.899,42.128-12.795C926.87,580.003,929.87,561.822,916.929,552.679z"/>
	<path style="fill:#E57393;" d="M756.97,541.627c2.273,1.912,5.646,0.119,4.989-2.904c-2.548-11.716-10.405-21.833-7.669-34.513
		c2.569-11.91,12-17.778,23.655-14.348c10.444,3.073,18.722,11.292,23.302,20.997c5.896,12.493,4.412,24.721,5.221,37.969
		c0.209,3.424,4.428,4.558,6.341,1.718c6.393-9.49,7.397-22.483,4.922-34.256c2.804-6.781,6.921-12.894,13.071-17.413
		c7.552-5.548,24.466-11.579,31.809-2.192c6.953,8.891-3.907,26.929-8.044,35c-6.301,12.292-13.922,23.16-24.074,32.598
		c-2.704,2.514,0.827,7.2,3.979,5.156c14.59-9.462,27.997-22.148,36.021-37.742c7.498-14.57,16.305-37.167-0.607-48.793
		c-13.387-9.202-32.761-3.411-44.393,5.976c-4.795,3.871-9.103,8.833-12.188,14.39c-0.35-0.716-0.701-1.43-1.077-2.114
		c-7.393-13.413-20.984-24.077-36.342-26.229c-15.556-2.18-28.632,7.755-32.576,22.663
		C739.482,512.06,745.405,531.896,756.97,541.627z"/>
	<path style="fill:#E57393;" d="M1048.746,562.49c-10.43-10.417-22.457-18.912-33.412-28.822c-2.446-2.213-5.362-4.803-6.064-8.188
		c-0.787-3.793,1.907-5.372,5.26-3.889c6.159,2.724,8.35,10.094,15.232,11.788c2.253,0.554,3.903-1.781,2.899-3.771
		c-3.839-7.603-10.968-17.356-20.051-18.555c-8.91-1.177-15.658,6.832-15.673,15.299c-0.02,10.731,10.116,18.974,17.729,25.078
		c9.568,7.673,18.818,13.656,30.653,16.946C1048.711,569.32,1051.232,564.973,1048.746,562.49z"/>
	<path style="fill:#E57393;" d="M1038.708,532.755c4.879,5.574,9.504,12.068,16.543,14.907c1.182,0.477,2.786-0.753,2.646-2.015
		c-1.032-9.255-8.216-17.311-13.188-24.873c-4.352-6.618-11.276-15.267-7.874-23.669c3.841-9.487,12.717-5.147,16.007,2.312
		c4.092,9.274,0.312,20.199,4.107,29.507c0.627,1.537,3.117,1.965,3.569,0c2.812-12.228,5.507-28.135-1.276-39.53
		c-6.052-10.167-19.082-14.434-28.671-6.271c-9.745,8.295-9.384,21.982-4.231,32.667
		C1029.405,522.151,1034.094,527.483,1038.708,532.755z"/>
	<path style="fill:#E57393;" d="M1070.884,549.412c1.791-11.625,5.198-34.721,20.466-36.049c6.185-0.538,12.779,4.407,10.589,11.001
		c-2.537,7.64-11.642,10.356-17.481,14.756c-1.842,1.387-1.387,4.528,1.235,4.561c10.632,0.132,22.519-5.302,26.484-15.767
		c3.903-10.301-2.078-20.704-12.024-24.484c-10.219-3.884-20.929,0.777-27.597,8.877c-8.846,10.746-8.492,23.147-7.887,36.264
		C1064.824,551.928,1070.313,553.114,1070.884,549.412z"/>
	<path style="fill:#E57393;" d="M1109.743,572.786c-1.226-1.436-2.491-2.786-3.732-4.031c-8.918-8.943-20.589-16.387-33.41-11.694
		c-2.322,0.85-3.235,3.129-2.825,5.072c-3.654-4.949-8.39-8.801-13.959-8.458c-1.985,0.122-3.409,2.202-2.32,4.042
		c3.203,5.41,8.043,8.476,10.148,14.821c0.717,2.159,1.683,5.589,2.294,9.11c0.31,1.783,0.524,3.583,0.57,5.261
		c0.057,2.126-0.156,4.05-0.814,5.451c-2.466,5.247-12.459,2.171-17.096-0.693c-0.6-0.371-1.121-0.738-1.514-1.083
		c-1.189-1.046-2.073-2.134-2.729-3.256c-2.639-4.519-1.422-9.621-0.033-15.044c0.813-3.175-2.759-6.228-5.699-4.382
		c-7.419,4.657-8.5,14.57-6.031,22.731c0.538,1.778,1.231,3.478,2.079,5.016c0.303,0.549,0.621,1.081,0.958,1.587
		c6.823,10.239,22.057,13.781,33.268,9.473c5.42-2.083,8.297-6.22,9.522-11.097c1.518,2.882,3.682,5.508,6.472,7.647
		c8.896,6.82,24.052,7.553,30.786-2.784c4.923-7.556,2.501-15.617-2.035-22.527C1112.455,576.138,1111.127,574.407,1109.743,572.786
		z M1091.765,594.348c-4.411-2.388-6.614-6.928-7.026-11.706c-0.154-1.801-0.058-3.633,0.277-5.399
		c0.088-0.469,0.19-0.934,0.312-1.391c0.942-3.554-3.827-5.385-5.782-2.438c-0.9,1.356-1.614,2.769-2.18,4.211
		c-0.154-0.521-0.313-1.037-0.48-1.538c-1.098-3.282-2.936-7.532-5.404-11.45c0.599,0.374,1.34,0.609,2.229,0.631
		c6.879,0.166,13.594,3.98,18.692,8.386c0.639,0.551,1.297,1.124,1.962,1.712c1.597,1.414,3.233,2.937,4.755,4.562
		c2.429,2.595,4.555,5.451,5.705,8.556C1107.842,596.62,1096.773,597.058,1091.765,594.348z"/>
	<path style="fill:#E57393;" d="M1307.398,528.404c-1.965-1.358-5.033-2.307-7.991-3.399c2.562,0.051,5.183-1.607,5.901-4.244
		c0.632-2.32,4.511-14.9,9.546-10.654c2.856,2.409-0.4,8.459-1.256,10.987c-1.304,3.853,3.653,5.882,6.285,3.659
		c7.084-5.985,7.77-19.889-0.813-24.89c-9.694-5.65-16.975,1.336-21.39,9.446c-3.069-2.188-6.562-3.651-10.57-3.849
		c-7.327-0.361-13.222,4.562-13.557,12.13c-0.74,16.726,15.092,21.163,28.236,24.114
		C1310.017,543.552,1314.172,533.086,1307.398,528.404z M1292,515.637c-0.273,0.825-0.548,1.65-0.821,2.476
		c-0.013-0.122-0.022-0.24-0.043-0.369C1291.341,517.012,1291.629,516.31,1292,515.637z M1291.706,520.199
		c-0.092-0.149-0.144-0.288-0.201-0.428c1.142,1.187,3.557,2.925,4.121,3.547l0.201,0.191
		C1294.052,522.63,1292.554,521.584,1291.706,520.199z"/>
	<path style="fill:#E57393;" d="M1336.064,569.781c-13.803-13.882-34.344,1.818-40.06,16.27c-1.213,3.066,2.35,6.058,5.213,5.213
		c7.966-2.349,13.218-10.114,21.104-12.117c2.374-0.603,8.745-1.191,8.017,2.888c-0.604,3.384-7.073,4.242-9.639,3.554
		c-6.215-1.669-9.913,7.047-4.369,10.365c3.247,1.943,7.052,4.869,7.046,9.063c-0.002,1.972-3.678,6.698-4.822,2.962
		c-1.915-6.252-11.765-5.289-11.641,1.575c0.171,9.461-11.685,7.251-15.803,2.198c-5.428-6.66-4.212-15.923-4.736-23.966
		c-0.131-2.015-3.232-3.379-4.227-1.145c-5.563,12.498-3.467,29.084,8.971,36.834c8.008,4.989,17.598,3.03,23.134-3.114
		c5.848,2.88,13.689,1.597,18.05-4.546c5.313-7.486,3.583-15.751-1.317-22.092c3.076-1.03,5.873-2.58,7.895-5.708
		C1342.85,581.868,1340.947,574.693,1336.064,569.781z"/>
	<path style="fill:#E57393;" d="M1216.328,606.4c1.598,9.114,12.861,12.119,20.751,12.34c8.27,0.232,21.823-0.89,26.039-9.344
		c8.581-17.21-19.015-30.679-32.507-25.72c-2.325,0.854-2.658,4.346,0,5.065c5.516,1.494,10.991,1.659,15.905,5.013
		c1.03,0.703,6.264,4.488,5.698,6.254c-0.308,0.961-4.068,1.34-4.98,1.534c-4.581,0.976-9.2,1.89-13.91,1.606
		c-4.47-0.27-8.704-1.719-13.14-1.812C1217.384,601.279,1215.894,603.927,1216.328,606.4z"/>
	<path style="fill:#E57393;" d="M1175.685,634.901c0.79-1.539,0.393-3.403-1.135-4.329c-6.853-4.152-16.178,0.232-23.553,0.646
		c-10.444,0.585-5.554-10.471-0.146-14.311c7.219-5.127,17.542-4.222,25.896-3.726c7.21,0.428,17.385,1.927,23.354-2.843
		c1.47-1.175,1.088-3.499,0-4.728c-2.063-2.331-5.234-3.569-8.559-4.339c0.354-0.203,0.709-0.403,1.046-0.642
		c2.216-1.565,2.796-5.265,0-6.701c-2.379-1.221-8.665-1.139-10.191-3.135c-1.072-1.401-0.13-1.511,1.762-2.245
		c1.617-0.628,3.657-0.931,5.359-1.124c7.842-0.89,13.766,0.817,16.175,8.761c0.917,3.026,5.354,4.801,7.646,2.019
		c5.983-7.266,2.584-17.515-4.896-22.321c-0.246-0.158-0.502-0.293-0.752-0.441c-8.234-4.849-18.684-3.956-27.28-0.491
		c-0.307,0.124-0.608,0.266-0.912,0.403c-7.361,3.328-13.542,10.56-9.761,18.971c0.778,1.731,1.936,3.229,3.323,4.491
		c-3.721-0.267-7.45-0.334-11.105-0.031c-11.927,0.989-23.847,6.472-29.188,17.788c-4.682,9.919-2.068,23.804,9.491,27.424
		c5.68,1.779,11.864,0.482,17.521-0.702C1165.418,642.115,1172.844,640.436,1175.685,634.901z"/>
	<path style="fill:#E57393;" d="M1250.344,622.356c-2.076-0.793-4.399,1.631-3.672,3.672c2.538,7.12,8.834,12.472,9.745,20.354
		c0.905,7.837-3.866,13.381-11.714,12.862c-7.998-0.529-14.685-5.684-19.005-12.152c-4.526-6.777-5.241-14.567-8.671-21.721
		c-1.108-2.313-4.713-2.123-5.876,0c-4.211,7.685-2.73,17.781,1.163,26.05c-0.955,3.903-2.497,7.609-5.186,10.824
		c-3.485,4.167-12.227,10.325-17.9,6.54c-5.741-3.831-1.425-16.9-0.262-22.201c2.053-9.365,4.787-17.817,9.78-26.079
		c1.944-3.218-2.502-6.574-5.156-3.979c-9.979,9.757-17.794,21.663-20.465,35.496c-2.365,12.249-2.024,27.94,12.706,31.663
		c13.572,3.431,28.488-8.07,33.825-21.642c7.854,7.946,19.57,12.87,30.716,11.071
		C1276.936,668.831,1271.542,630.464,1250.344,622.356z"/>
	<path style="fill:#E57393;" d="M616.274,751.78c6.934,3.014,13.927,9.224,19.058,14.693c5.485,5.847,8.006,12.427,11.724,19.299
		c1.38,2.552,5.556,2.659,6.907,0c5.764-11.343-1.854-24.188-9.602-32.473c-7.798-8.338-21.157-20.727-33.409-15.61
		c-21.738,9.077-8.755,46.502,6.769,55.078c2.289,1.265,4.914-1.282,3.593-3.594c-4.256-7.454-9.466-13.26-11.047-22.076
		C609.505,762.851,608.616,748.451,616.274,751.78z"/>
	<path style="fill:#E57393;" d="M671.787,819.692c-2.677-0.819-5.796,1.981-4.772,4.773c1.598,4.356,11.235,13.373,6.581,17.963
		c-4.072,4.015-13.468-4.601-16.345-7.276c-4.083-3.796-8.724-8.588-9.149-14.465c-0.447-6.164,2.46-9.406,5.448-14.183
		c1.84-2.942-0.656-5.87-3.579-6.237c-10.915-1.371-17.219,13.245-16.598,21.985c0.913,12.846,10.64,22.552,20.967,29.049
		c9.22,5.799,23.939,9.243,30.434-2.33C690.804,838.224,683.084,823.148,671.787,819.692z"/>
	<path style="fill:#E57393;" d="M750.938,815.734c-7.355-5.53-14.779-10.867-24.13-11.691c-2.418-0.213-3.909,2.837-2.732,4.761
		c6.715,10.97,20.057,15.131,27.405,25.421c8.236,11.533-10.202,17.573-18.73,16.467c-12.022-1.558-21.182-10.829-28.68-19.627
		c-4.364-5.121-8.29-10.603-12.723-15.664c-4.35-4.968-8.958-10.743-15.152-13.301c-1.859-0.769-4.493,1.211-4.231,3.223
		c1.189,9.121,8.581,17.991,13.981,25.183c4.958,6.602,9.906,13.313,15.817,19.109c11.21,10.992,26.393,18.007,42.281,14.887
		c14.425-2.833,27.976-17.132,21.815-32.443C763.005,824.962,756.873,820.197,750.938,815.734z"/>
	<path style="fill:#E57393;" d="M764.296,743.87c-0.701-1.086-1.487-2.095-2.309-3.067c-0.851-1.005-1.749-1.961-2.714-2.846
		c-12.74-11.668-34.896-12.807-50.843-4.798c2.02-15.453-2.523-32.1-13.719-43.219c-11.439-11.361-27.937-11.248-40.218-1.27
		c-11.94,9.701-18.367,29.905-14.185,44.817c0.859,3.063,4.713,2.585,5.756,0c4.676-11.591,3.781-25.157,14.446-33.837
		c9.653-7.856,20.379-5.687,27.417,4.137c6.732,9.397,8.092,21.391,5.531,32.447c-2.816,12.164-10.339,20.672-16.522,31.079
		c-1.401,2.358,0.981,6.126,3.842,4.999c10.799-4.256,19.351-14.627,24.012-25.772c5.676-3.712,11.965-6.321,18.971-6.864
		c8.302-0.644,18.326,1.512,24.419,7.673c1.407,1.424,2.605,3.061,3.523,4.927c0.168,0.341,0.309,0.682,0.433,1.021
		c0.364,0.996,0.534,1.981,0.553,2.954c0.053,2.683-1.104,5.266-2.985,7.686c-5.259,6.766-16.078,12.257-21.305,15.104
		c-12.899,7.026-25.879,12.24-40.478,14.443c-3.763,0.568-2.694,6.366,0.872,6.449c19.607,0.458,39.254-3.613,56.104-13.877
		c10.291-6.27,21.632-15.929,23.119-27.446c0.213-1.651,0.229-3.34,0.004-5.063C767.614,750.423,766.439,747.189,764.296,743.87z"/>
	<path style="fill:#E57393;" d="M401.765,574.653c0.116-0.643,0.196-1.287,0.211-1.929c0.031-1.386-0.921-2.244-2.043-2.468
		c-0.828-0.166-1.745,0.003-2.44,0.611c-3.166,2.765-5.005,6.404-8.957,8.354c-1.072,0.529-2.343,0.696-3.5,1.012
		c0.176-0.693,0.353-1.387,0.563-2.071c1.036-3.591,2.16-6.75,3.991-10.001c1.506-2.675,4.161-5.41,4.75-8.473
		c0.367-1.909-0.292-3.404-1.838-4.517c-6.75-4.856-15.274,3.417-18.39,8.825c-3.553,6.167-7.665,16.179-2.945,22.591
		C379.951,598.522,399.571,586.842,401.765,574.653z"/>
	<path style="fill:#E57393;" d="M414.76,527.228c0.955-1.935,1.759-3.748,2.382-5.27c3.625-8.856,3.585-19.259-2.559-27.026
		c-5.874-7.425-17.356-10-24.316-2.477c-4.676,5.055-9.674,18.728-5.51,25.47c-1.95-2.768-4.214-5.313-6.853-7.532
		c-8.348-7.017-20.465-13.132-29.164-3.062c-6.661,7.71-4.851,21.283,1.586,30.113c-7.282,2.797-13.697,8.407-16.644,15.628
		c-8.559,20.974,20.91,33.809,35.385,20.29c1.544-1.442,0.901-4.595-1.317-4.988c-5.345-0.949-11.5,1.019-16.606-1.23
		c-5.553-2.445-6.234-7.139-2.577-11.633c3.2-3.932,8.214-5.745,13.13-6.196c5.546-0.51,10.999,1.674,16.411,1.049
		c2.632-0.304,4.146-2.637,2.938-5.12c-3.121-6.414-11.165-9.31-18.699-9.663c-1.229-1.273-2.324-2.663-3.158-4.261
		c-1.522-2.919-3.834-12.246,0.877-14.024c3.85-1.453,11.025,5.981,13.71,8.117c5.174,4.118,9.643,8.434,13.342,13.963
		c1.53,2.288,4.719,1.799,5.774-0.182c-0.108,1.451,0.017,2.925,0.45,4.43c0.538,1.869,2.308,2.632,4.112,2.334
		c1.834-0.303,3.612-1.176,5.308-2.429l0.066,0.161c0.778,1.507,2.794,2.228,4.382,1.783c1.583-0.443,2.569-1.118,3.693-2.306
		c0.105-0.111,0.484-0.491,0.935-0.947c-0.134,0.643-0.26,1.271-0.436,1.693c-0.79,1.896-2.002,4.954-3.893,6.048
		c-2.146,1.241-4.473,0.797-6.724,1.013c-2.333,0.223-4.478,1.843-4.417,4.417c0.026,1.123,0.256,2.128,0.626,3.037
		c0.87,2.137,2.583,3.686,4.677,4.681c3.577,1.7,8.241,1.789,11.656,0.382c7.979-3.288,11.825-11.425,12.911-19.545
		C427.26,536.304,423.796,527.035,414.76,527.228z M393.182,537.227c-0.02-0.126-0.03-0.249-0.064-0.38
		c-1.659-6.418-4.159-12.711-7.851-18.182c0.257,0.327,0.518,0.651,0.83,0.934c0.815,0.738,1.981,1.175,3.078,0.813
		c5.528-1.822,6.727-7.795,8.476-12.783c0.937-2.672,1.664-7.194,5.121-4.515c1.809,1.402,2.427,4.456,2.511,6.545
		C405.679,519.483,395.177,527.948,393.182,537.227z"/>
	<path style="fill:#E57393;" d="M579.522,520.243c2.391-9.135-2.444-15.966-9.417-19.995c3.102-2.525,5.557-5.512,5.772-10.279
		c0.321-7.104-4.606-12.072-10.841-14.467c-17.04-6.546-30.081,15.121-30.158,29.756c-0.021,4.029,4.495,5.121,7.235,2.997
		c6.469-5.014,8.448-14.175,15.109-18.725c1.702-1.163,5.177-2.992,7.165-1.685c4.303,2.829-3.252,8.121-6.056,8.477
		c-5.675,0.72-8.447,9.945-1.507,11.139c3.933,0.677,9.034,1.924,10.452,6.235c0.936,2.844-1.346,7.048-4.014,3.649
		c-3.568-4.545-12.132,0.399-9.905,5.766c3.803,9.162-7.849,11.852-14.096,8.126c-7.316-4.363-9.529-13.526-12.878-20.797
		c-1.009-2.191-4.119-0.905-4.227,1.145c-0.72,13.629,7.761,28.528,22.171,30.833c8.827,1.412,17.222-3.793,20.165-11.396
		C570.906,531.627,577.549,527.781,579.522,520.243z"/>
	<path style="fill:#E57393;" d="M530.426,456.525c-1.964-1.358-5.033-2.307-7.991-3.399c2.562,0.051,5.182-1.607,5.9-4.244
		c0.632-2.32,4.511-14.9,9.546-10.654c2.857,2.409-0.4,8.459-1.256,10.988c-1.304,3.853,3.654,5.882,6.286,3.659
		c7.084-5.984,7.77-19.889-0.813-24.89c-9.695-5.649-16.975,1.336-21.39,9.446c-3.069-2.188-6.561-3.651-10.57-3.849
		c-7.327-0.36-13.222,4.562-13.557,12.13c-0.739,16.727,15.093,21.164,28.236,24.114
		C533.045,471.674,537.199,461.207,530.426,456.525z M515.027,443.758c-0.274,0.825-0.547,1.65-0.821,2.476
		c-0.013-0.122-0.022-0.24-0.042-0.369C514.368,445.133,514.656,444.431,515.027,443.758z M514.733,448.32
		c-0.091-0.149-0.143-0.288-0.202-0.428c1.142,1.187,3.557,2.925,4.121,3.547l0.202,0.191
		C517.08,450.752,515.582,449.705,514.733,448.32z"/>
	<path style="fill:#E57393;" d="M411.102,622.469c-2.402,1.266-4.438,2.791-6.444,4.48c0.669-2,0.342-4.324-1.352-5.891
		c-2.413-2.231-9.129-7.927-6.485-12.115c2.911-4.612,8.292,2.532,10.367,4.677c2.708,2.8,7.095-0.115,6.286-3.659
		c-2.197-9.615-14.999-16.68-23.445-10.147c-8.237,6.371-5.573,15.329-0.646,22.561c-2.983,1.493-5.649,3.533-7.491,6.395
		c-3.983,6.193-3.676,13.366,2.547,18.007c13.994,10.436,26.898-2.724,35.483-12.879
		C425.171,627.689,418.683,618.473,411.102,622.469z M393.678,631.974l0.051,0.129C393.323,631.847,393.123,631.629,393.678,631.974
		z M396.427,632.689c-0.316,0.024-0.588,0.001-0.859-0.03c0.133-0.11,0.271-0.24,0.414-0.397c1.267-0.115,2.766-0.86,4.091-1.313
		C398.946,631.838,397.708,632.589,396.427,632.689z"/>
	<path style="fill:#E57393;" d="M985.146,568.704c-9.694-5.65-16.975,1.336-21.39,9.446c-3.069-2.188-6.562-3.651-10.57-3.849
		c-7.327-0.361-13.222,4.562-13.557,12.13c-0.657,14.864,11.771,20.021,23.771,23.056c1.504,0.38,3.001,0.729,4.465,1.058
		c4.12,0.925,7.218-1.239,8.434-4.218c1.212-2.969,0.555-6.747-2.826-9.083c-1.964-1.358-5.032-2.307-7.99-3.399
		c2.562,0.051,5.182-1.607,5.9-4.244c0.632-2.32,4.511-14.9,9.546-10.654c2.856,2.409-0.4,8.459-1.256,10.988
		c-1.304,3.853,3.654,5.882,6.285,3.659C993.043,587.609,993.729,573.705,985.146,568.704z M958.075,584.478
		c-0.273,0.825-0.547,1.65-0.821,2.476c-0.013-0.122-0.021-0.24-0.042-0.369C957.417,585.853,957.705,585.151,958.075,584.478z
		 M957.781,589.04c-0.091-0.149-0.143-0.288-0.201-0.428c1.142,1.187,3.557,2.925,4.121,3.547l0.202,0.191
		C960.128,591.471,958.631,590.424,957.781,589.04z"/>
	<path style="fill:#E57393;" d="M594.581,833.724c-4.375-1.551-9.077-1.4-13.728-0.649c-3.63,0.586-7.229,1.539-10.619,2.335
		c-3.017,0.708-4.779,3.433-5.148,6.308c-0.447,3.485,1.159,7.191,5.148,7.805c2.991,0.46,5.685,0.574,8.588,0.468
		c-1.689,1.513-2.602,4.146-2.223,6.295c0.553,3.132,2.067,13.381-3.619,12.992c-3.991-0.273-3.774-6.881-4.09-9.665
		c-0.368-3.237-5.274-5.697-7.008-1.898c-3.927,8.604,0.511,21.526,10.814,22.715c5.826,0.672,10.779-2.761,13.602-7.638
		c1.788-3.089,2.36-6.433,2.378-9.84c2.634,0.458,5.326,0.48,8.06-0.198c6.945-1.723,11.927-7.174,10.642-14.638
		C606.251,841.56,600.779,835.92,594.581,833.724z M588.311,850.828c-1.226-0.301-2.415-0.763-3.583-1.248
		c1.682-0.048,3.354,0.133,4.518,1.055c0.136,0.107,0.298,0.308,0.467,0.526C589.245,851.05,588.778,850.939,588.311,850.828z"/>
</g>
<g>
</g>
<g>
</g>
<g>
</g>
<g>
</g>
<g>
</g>
<g>
</g>
</svg>
