<?xml version="1.0" encoding="UTF-8"?>
<!-- Generated by Pixelmator Pro 3.7.1 -->
<svg width="327" height="182" viewBox="0 0 327 182" xmlns="http://www.w3.org/2000/svg">
    <path id="Path-copy-2" fill="#85c5d6" stroke="none" d="M 237.13916 70.63623 C 238.573486 66.692078 239.356201 62.591614 239.356201 58.374084 C 239.356201 28.106262 200.344971 3.569092 152.222656 3.569092 C 104.099976 3.569092 65.088745 28.106262 65.088745 58.374084 C 65.088745 59.957947 65.219604 61.521606 65.429199 63.071289 C 29.203369 69.716614 2.726196 90.745911 2.726196 115.677124 C 2.726196 145.944946 41.737427 170.482117 89.859985 170.482117 C 117.811279 170.482117 142.669434 162.194519 158.614258 149.32373 C 172.72583 167.625 202.54541 180.245056 237.054932 180.245056 C 285.177734 180.245056 324.188721 155.707886 324.188721 125.440063 C 324.188721 95.189636 285.2229 70.664917 237.13916 70.63623 Z"/>
    <path id="Path-copy" fill="#383838" stroke="none" d="M 237.054932 182.328369 C 203.711182 182.328369 173.790039 170.845398 158.278809 152.233704 C 141.278809 165.177124 116.492065 172.566711 89.860352 172.566711 C 40.66626 172.566711 0.643433 147.045837 0.643433 115.677856 C 0.643433 90.881287 26.241699 68.737488 63.143433 61.385071 C 63.050049 60.335022 63.005005 59.342041 63.005005 58.373718 C 63.005005 27.005859 103.027954 1.485046 152.221924 1.485046 C 201.416748 1.485046 241.439209 27.005859 241.439209 58.373718 C 241.439209 61.775452 240.953125 65.197449 239.990723 68.582886 C 287.824219 69.575867 326.271973 94.710022 326.271973 125.439148 C 326.271973 156.807556 286.249268 182.328369 237.054932 182.328369 Z M 158.614502 147.241272 C 158.695801 147.241272 158.777588 147.244995 158.858643 147.257446 C 159.41626 147.322571 159.922852 147.607117 160.264648 148.050781 C 174.365967 166.340881 204.508789 178.161682 237.054932 178.161682 C 283.952637 178.161682 322.105469 154.512512 322.105469 125.439148 C 322.105469 96.398743 283.98877 72.749573 237.13623 72.721191 C 236.45874 72.721191 235.822021 72.387512 235.431152 71.834167 C 235.042725 71.276672 234.949219 70.564636 235.181152 69.925781 C 236.568604 66.10498 237.272705 62.219177 237.272705 58.373718 C 237.272705 29.300781 199.119629 5.651672 152.221924 5.651672 C 105.324585 5.651672 67.171753 29.300781 67.171753 58.373718 C 67.171753 59.737122 67.277466 61.18158 67.493286 62.792908 C 67.641724 63.895386 66.897095 64.916687 65.804565 65.120422 C 29.891357 71.712097 4.810059 92.500793 4.810059 115.677856 C 4.810059 144.750793 42.963379 168.400024 89.860352 168.400024 C 116.429077 168.400024 141.011963 160.855835 157.306152 147.705017 C 157.678711 147.403809 158.140381 147.241272 158.614502 147.241272 Z"/>
</svg>
