<?xml version="1.0" encoding="UTF-8"?>
<!-- Generated by Pixelmator Pro 3.7.1 -->
<svg width="364" height="362" viewBox="0 0 364 362" xmlns="http://www.w3.org/2000/svg">
    <g id="Path">
        <g id="path1">
            <path id="path2" fill="#de4351" stroke="#000000" stroke-width="16" stroke-linecap="round" stroke-linejoin="round" d="M 306.921814 80.148224 L 222.236603 164.833267 L 342 164.833267 L 342 198.166412 L 222.236145 198.166412 L 306.921814 282.851929 L 283.351929 306.423309 L 198.666412 221.737625 L 198.666412 341.5 L 165.333267 341.5 L 165.333267 221.736496 L 80.647781 306.421814 L 57.077431 282.851929 L 141.763168 198.166412 L 22 198.166412 L 22 164.833267 L 141.762177 164.833267 L 57.077579 80.148499 L 80.647781 56.578308 L 165.333267 141.263641 L 165.333267 21.5 L 198.666412 21.5 L 198.666412 141.263306 L 283.351929 56.578003 L 306.921814 80.148224 Z"/>
            <g id="path3">
                <path id="path4" fill="#ffffff" fill-rule="evenodd" stroke="none" d="M 312.578705 74.491394 L 289.00882 50.921204 C 285.884644 47.796967 280.819305 47.796936 277.695068 50.921143 L 206.666412 121.949631 L 206.666412 21.5 C 206.666412 17.081726 203.084686 13.5 198.666412 13.5 L 165.333267 13.5 C 160.914993 13.5 157.333267 17.081726 157.333267 21.5 L 157.333267 121.949951 L 86.304634 50.921448 C 83.180435 47.797272 78.11512 47.797272 74.990929 50.921448 L 51.420727 74.491638 C 48.296532 77.615845 48.296532 82.681152 51.420719 85.805359 L 122.448502 156.833267 L 22 156.833267 C 17.581722 156.833267 14 160.414993 14 164.833267 L 14 198.166412 C 14 202.584686 17.581722 206.166412 22 206.166412 L 122.449425 206.166412 L 51.420586 277.195068 C 48.29636 280.319275 48.296383 285.384644 51.420631 288.50885 L 74.990982 312.078735 C 78.115181 315.20285 83.180458 315.20285 86.304626 312.078674 L 157.333267 241.050171 L 157.333267 341.5 C 157.333267 345.918274 160.914993 349.5 165.333267 349.5 L 198.666412 349.5 C 203.084686 349.5 206.666412 345.918274 206.666412 341.5 L 206.666412 241.051361 L 277.695068 312.08017 C 280.819336 315.204437 285.884796 315.204346 289.008972 312.079987 L 312.578857 288.508606 C 315.702881 285.384369 315.702789 280.319183 312.578674 277.195068 L 241.549881 206.166412 L 342 206.166412 C 346.418274 206.166412 350 202.584686 350 198.166412 L 350 164.833267 C 350 160.414993 346.418274 156.833267 342 156.833267 L 241.550339 156.833267 L 312.578674 85.805084 C 315.70285 82.680908 315.702881 77.615601 312.578705 74.491394 Z M 222.236603 164.833267 L 306.921814 80.148224 L 283.351929 56.578003 L 198.666412 141.263306 L 198.666412 21.5 L 165.333267 21.5 L 165.333267 141.263641 L 80.647781 56.578308 L 57.077579 80.148499 L 141.762177 164.833267 L 22 164.833267 L 22 198.166412 L 141.763168 198.166412 L 57.077431 282.851929 L 80.647781 306.421814 L 165.333267 221.736496 L 165.333267 341.5 L 198.666412 341.5 L 198.666412 221.737625 L 283.351929 306.423309 L 306.921814 282.851929 L 222.236145 198.166412 L 342 198.166412 L 342 164.833267 L 222.236603 164.833267 Z"/>
                <path id="path5" fill="#de4351" fill-rule="evenodd" stroke="none" d="M 317.528473 69.541679 L 293.958588 45.971489 C 288.100769 40.113556 278.603271 40.113503 272.745331 45.971371 L 213.666412 105.050163 L 213.666412 21.5 C 213.666412 13.215733 206.950684 6.5 198.666412 6.5 L 165.333267 6.5 C 157.048996 6.5 150.333267 13.215733 150.333267 21.5 L 150.333267 105.050484 L 91.254379 45.971695 C 85.3965 40.113861 75.899048 40.113861 70.041191 45.971687 L 46.470982 69.541893 C 40.613121 75.399773 40.613117 84.897217 46.470955 90.755089 L 105.549034 149.833267 L 22 149.833267 C 13.71573 149.833267 7 156.548996 7 164.833267 L 7 198.166412 C 7 206.450684 13.71573 213.166412 22 213.166412 L 105.549904 213.166412 L 46.470844 272.2453 C 40.612926 278.10321 40.612965 287.600769 46.470917 293.458618 L 70.041283 317.028534 C 75.899185 322.886261 85.396568 322.88623 91.254379 317.028412 L 150.333267 257.949646 L 150.333267 341.5 C 150.333267 349.784271 157.048996 356.5 165.333267 356.5 L 198.666412 356.5 C 206.950684 356.5 213.666412 349.784271 213.666412 341.5 L 213.666412 257.950867 L 272.745331 317.029907 C 278.603302 322.887909 288.101044 322.887756 293.958862 317.029602 L 317.528748 293.458191 C 323.386292 287.60025 323.386139 278.103058 317.528412 272.245331 L 258.449402 213.166412 L 342 213.166412 C 350.284271 213.166412 357 206.450684 357 198.166412 L 357 164.833267 C 357 156.548996 350.284271 149.833267 342 149.833267 L 258.44986 149.833267 L 317.528412 90.754837 C 323.386261 84.896996 323.386292 75.399551 317.528473 69.541679 Z M 289.00882 50.921204 L 312.578705 74.491394 C 315.702881 77.615601 315.70285 82.680908 312.578674 85.805084 L 241.550339 156.833267 L 342 156.833267 C 346.418274 156.833267 350 160.414993 350 164.833267 L 350 198.166412 C 350 202.584686 346.418274 206.166412 342 206.166412 L 241.549881 206.166412 L 312.578674 277.195068 C 315.702789 280.319183 315.702881 285.384369 312.578857 288.508606 L 289.008972 312.079987 C 285.884796 315.204346 280.819336 315.204437 277.695068 312.08017 L 206.666412 241.051361 L 206.666412 341.5 C 206.666412 345.918274 203.084686 349.5 198.666412 349.5 L 165.333267 349.5 C 160.914993 349.5 157.333267 345.918274 157.333267 341.5 L 157.333267 241.050171 L 86.304626 312.078674 C 83.180458 315.20285 78.115181 315.20285 74.990982 312.078735 L 51.420631 288.50885 C 48.296383 285.384644 48.29636 280.319275 51.420586 277.195068 L 122.449425 206.166412 L 22 206.166412 C 17.581722 206.166412 14 202.584686 14 198.166412 L 14 164.833267 C 14 160.414993 17.581722 156.833267 22 156.833267 L 122.448502 156.833267 L 51.420719 85.805359 C 48.296532 82.681152 48.296532 77.615845 51.420727 74.491638 L 74.990929 50.921448 C 78.11512 47.797272 83.180435 47.797272 86.304634 50.921448 L 157.333267 121.949951 L 157.333267 21.5 C 157.333267 17.081726 160.914993 13.5 165.333267 13.5 L 198.666412 13.5 C 203.084686 13.5 206.666412 17.081726 206.666412 21.5 L 206.666412 121.949631 L 277.695068 50.921143 C 280.819305 47.796936 285.884644 47.796967 289.00882 50.921204 Z M 306.921814 80.148224 L 222.236603 164.833267 L 342 164.833267 L 342 198.166412 L 222.236145 198.166412 L 306.921814 282.851929 L 283.351929 306.423309 L 198.666412 221.737625 L 198.666412 341.5 L 165.333267 341.5 L 165.333267 221.736496 L 80.647781 306.421814 L 57.077431 282.851929 L 141.763168 198.166412 L 22 198.166412 L 22 164.833267 L 141.762177 164.833267 L 57.077579 80.148499 L 80.647781 56.578308 L 165.333267 141.263641 L 165.333267 21.5 L 198.666412 21.5 L 198.666412 141.263306 L 283.351929 56.578003 L 306.921814 80.148224 Z M 217.286865 159.883514 C 212.877106 164.293274 216.000259 171.833267 222.236603 171.833267 L 335 171.833267 L 335 191.166412 L 222.236145 191.166412 C 215.999802 191.166412 212.876648 198.706406 217.286407 203.116165 L 297.022491 282.852081 L 283.351776 296.523682 L 203.616165 216.787888 C 199.206406 212.378128 191.666412 215.501282 191.666412 221.737625 L 191.666412 334.5 L 172.333267 334.5 L 172.333267 221.736496 C 172.333267 215.500168 164.793274 212.376999 160.38353 216.786743 L 80.647743 296.522369 L 66.97699 282.851898 L 146.712906 203.116165 C 151.122665 198.706421 147.999512 191.166412 141.763168 191.166412 L 29 191.166412 L 29 171.833267 L 141.762177 171.833267 C 147.998505 171.833267 151.121674 164.293274 146.711929 159.88353 L 66.977074 80.148499 L 80.647781 66.477798 L 160.38353 146.213394 C 164.793274 150.623138 172.333267 147.499969 172.333267 141.263641 L 172.333267 28.5 L 191.666412 28.5 L 191.666412 141.263306 C 191.666412 147.499634 199.20639 150.622803 203.61615 146.213058 L 283.351898 66.477516 L 297.022369 80.148178 L 217.286865 159.883514 Z"/>
            </g>
        </g>
        <path id="path6" fill="#000000" fill-rule="evenodd" stroke="none" d="M 309.043121 82.269531 L 311.164429 80.148254 L 309.043152 78.026917 L 285.473267 54.456696 L 283.351959 52.335358 L 281.230621 54.456665 L 201.666412 134.020676 L 201.666412 18.5 L 162.333267 18.5 L 162.333267 134.020996 L 82.769096 54.45697 L 80.647781 52.335663 L 78.526459 54.45697 L 54.956261 78.027161 L 52.834942 80.148499 L 54.956257 82.269806 L 134.519531 161.833267 L 19 161.833267 L 19 201.166412 L 134.520508 201.166412 L 54.956112 280.730591 L 52.834766 282.851959 L 54.956131 284.973267 L 78.526482 308.543152 L 80.647797 310.664429 L 82.769096 308.543121 L 162.333267 228.979126 L 162.333267 344.5 L 201.666412 344.5 L 201.666412 228.980286 L 281.230621 308.544617 L 283.35199 310.666016 L 285.473328 308.544556 L 309.043213 284.973175 L 311.164398 282.851868 L 309.043121 280.730621 L 229.47879 201.166412 L 345 201.166412 L 345 161.833267 L 229.479263 161.833267 L 309.043121 82.269531 Z M 222.236603 164.833267 L 306.921814 80.148224 L 283.351929 56.578003 L 198.666412 141.263306 L 198.666412 21.5 L 165.333267 21.5 L 165.333267 141.263641 L 80.647781 56.578308 L 57.077579 80.148499 L 141.762177 164.833267 L 22 164.833267 L 22 198.166412 L 141.763168 198.166412 L 57.077431 282.851929 L 80.647781 306.421814 L 165.333267 221.736496 L 165.333267 341.5 L 198.666412 341.5 L 198.666412 221.737625 L 283.351929 306.423309 L 306.921814 282.851929 L 222.236145 198.166412 L 342 198.166412 L 342 164.833267 L 222.236603 164.833267 Z"/>
    </g>
</svg>
