<?xml version="1.0" encoding="UTF-8"?>
<!-- Generated by Pixelmator Pro 3.7.1 -->
<svg width="450" height="279" viewBox="0 0 450 279" xmlns="http://www.w3.org/2000/svg">
    <g id="Layer-2"/>
    <g id="Layer-1">
        <g id="Group">
            <g id="g1">
                <path id="Path" fill="#f85baa" stroke="none" d="M 117.560303 61.76416 C 160.47998 2.665894 243.182129 -10.449585 302.280518 32.470459 C 361.378174 75.390015 374.493652 158.091675 331.574219 217.189941 C 288.654541 276.28833 205.952393 289.403687 146.854248 246.484131 C 87.755859 203.564209 74.640381 120.862549 117.560303 61.76416 Z"/>
                <g id="path1">
                    <path id="path2" fill="#383838" stroke="none" d="M 224.281494 273.8396 C 196.152588 273.8396 168.824951 265.015869 145.627686 248.170044 C 116.595459 227.084595 97.511475 195.95459 91.89209 160.517456 C 86.272949 125.078369 94.789551 89.574585 115.875 60.540039 C 136.960449 31.507446 168.088867 12.423706 203.525391 6.80249 C 238.962646 1.179199 274.46875 9.69751 303.505371 30.783325 C 332.537598 51.868774 351.621338 82.998779 357.240234 118.437866 C 362.860107 153.875 354.343506 189.381226 333.257813 218.415405 C 312.172119 247.447876 281.044189 266.531616 245.606934 272.150879 C 238.482422 273.282104 231.357666 273.8396 224.281494 273.8396 Z M 224.737549 9.35791 C 184.442139 9.35791 144.683838 27.961304 119.244141 62.989624 C 98.813721 91.120361 90.561768 125.526245 96.005859 159.864624 C 101.450439 194.202881 119.944336 224.366211 148.077148 244.797119 C 176.206299 265.227539 210.61792 273.481201 244.952148 268.037109 C 279.294678 262.59082 309.458496 244.099121 329.888672 215.96582 C 350.319092 187.834961 358.571045 153.429199 353.126709 119.088745 C 347.682373 84.750366 329.188721 54.587036 301.055908 34.156616 C 278.008789 17.418701 251.255127 9.35791 224.737549 9.35791 Z"/>
                    <path id="path3" fill="#000000" fill-rule="evenodd" stroke="none" d="M 224.281494 274.8396 C 231.442001 274.8396 238.618851 274.27298 245.763748 273.138519 C 281.462433 267.477783 312.825195 248.250351 334.066925 219.003052 C 355.308167 189.754684 363.889374 153.980835 358.227905 118.281235 C 352.567474 82.58033 333.339905 51.215565 304.093018 29.974207 C 274.840271 8.731445 239.066101 0.15027 203.368668 5.814847 C 167.669647 11.477702 136.306793 30.705742 115.06588 59.9524 C 93.824661 89.201431 85.243729 124.972885 90.904427 160.674057 C 96.565392 196.373413 115.793442 227.738022 145.040039 248.979156 C 168.320068 265.885101 195.833023 274.8396 224.281494 274.8396 Z M 145.627686 248.170044 C 168.824951 265.015869 196.152588 273.8396 224.281494 273.8396 C 231.357666 273.8396 238.482422 273.282104 245.606934 272.150879 C 281.044189 266.531616 312.172119 247.447876 333.257813 218.415405 C 354.343506 189.381226 362.860107 153.875 357.240234 118.437866 C 351.621338 82.998779 332.537598 51.868774 303.505371 30.783325 C 274.46875 9.69751 238.962646 1.179199 203.525391 6.80249 C 168.088867 12.423706 136.960449 31.507446 115.875 60.540039 C 94.789551 89.574585 86.272949 125.078369 91.89209 160.517456 C 97.511475 195.95459 116.595459 227.084595 145.627686 248.170044 Z M 119.244141 62.989624 C 144.683838 27.961304 184.442139 9.35791 224.737549 9.35791 C 251.255127 9.35791 278.008789 17.418701 301.055908 34.156616 C 329.188721 54.587036 347.682373 84.750366 353.126709 119.088745 C 358.571045 153.429199 350.319092 187.834961 329.888672 215.96582 C 309.458496 244.099121 279.294678 262.59082 244.952148 268.037109 C 210.61792 273.481201 176.206299 265.227539 148.077148 244.797119 C 119.944336 224.366211 101.450439 194.202881 96.005859 159.864624 C 90.561768 125.526245 98.813721 91.120361 119.244141 62.989624 Z M 224.737549 10.35791 C 251.78038 10.35791 278.168243 18.770395 300.468292 34.965748 C 328.387115 55.240765 346.736359 85.169662 352.139038 119.245338 C 357.541992 153.324799 349.353577 187.462677 329.079559 215.378189 C 308.805481 243.296524 278.876556 261.644623 244.795517 267.049438 C 210.721802 272.45224 176.578171 264.261688 148.66481 243.988007 C 120.745857 223.712418 102.396431 193.783463 96.993523 159.708023 C 91.590767 125.630379 99.779411 91.492424 120.053261 63.577263 C 144.638245 29.725822 183.583603 10.35791 224.737549 10.35791 Z"/>
                </g>
            </g>
            <path id="path4" fill="#fec810" stroke="none" d="M 165.984131 242.473755 C 205.814941 258.535034 287.488281 257.705444 228.891357 210.788696 C 170.294189 163.87207 142.468018 232.990845 165.984131 242.473755 Z"/>
            <path id="path5" fill="#fec810" stroke="none" d="M 126.862549 184.139526 C 148.747559 184.738281 214.172119 130.575806 155.779297 106.29248 C 125.061523 93.518311 94.172852 183.24585 126.862549 184.139526 Z"/>
            <path id="path6" fill="#fec810" stroke="none" d="M 275.057098 221.606873 C 299.796661 235.449829 386.542725 142.976776 306.610931 84.050232 C 226.679871 25.123703 202.53569 123.880951 207.654861 151.261932 C 212.774536 178.642426 258.449738 212.314804 275.057098 221.606873 Z"/>
            <path id="path7" fill="#fec810" stroke="none" d="M 190.746338 88.912476 C 213.759766 92.800415 245.700195 33.907104 214.996338 33.41333 C 184.292725 32.919556 181.501953 87.351196 190.746338 88.912476 Z"/>
            <path id="path8" fill="#fec810" stroke="none" d="M 146.179443 57.687866 C 112.618164 71.436279 159.33252 106.691284 162.628662 86.911621 C 165.925293 67.131714 158.129639 52.79248 146.179443 57.687866 Z"/>
            <g id="g2">
                <g id="g3">
                    <path id="path9" fill="#ffffff" stroke="#000000" stroke-width="3" d="M 392.662598 141.5354 L 443.140869 141.5354 L 392.662598 141.5354 Z"/>
                    <path id="path10" fill="#ffffff" stroke="none" d=""/>
                </g>
                <g id="g4">
                    <path id="path11" fill="#383838" stroke="none" d="M 443.141113 143.61792 L 392.661377 143.61792 C 391.509521 143.61792 390.577881 142.686279 390.577881 141.534546 C 390.577881 140.383301 391.509521 139.451294 392.661377 139.451294 L 443.141113 139.451294 C 444.292969 139.451294 445.224609 140.383301 445.224609 141.534546 C 445.224609 142.686279 444.292969 143.61792 443.141113 143.61792 Z"/>
                    <path id="path12" fill="#000000" fill-rule="evenodd" stroke="none" d="M 443.141113 146.61792 C 445.949768 146.61792 448.224609 144.343185 448.224609 141.534546 C 448.224609 138.726303 445.949677 136.451294 443.141113 136.451294 L 392.661377 136.451294 C 389.852814 136.451294 387.577881 138.726303 387.577881 141.534546 C 387.577881 144.343185 389.852722 146.61792 392.661377 146.61792 L 443.141113 146.61792 Z M 392.661377 143.61792 L 443.141113 143.61792 C 444.292969 143.61792 445.224609 142.686279 445.224609 141.534546 C 445.224609 140.383301 444.292969 139.451294 443.141113 139.451294 L 392.661377 139.451294 C 391.509521 139.451294 390.577881 140.383301 390.577881 141.534546 C 390.577881 142.686279 391.509521 143.61792 392.661377 143.61792 Z"/>
                </g>
            </g>
            <g id="g5">
                <g id="g6">
                    <path id="path13" fill="#ffffff" stroke="#000000" stroke-width="3" d="M 384.509277 190.300049 L 430.397461 208.651611 L 384.509277 190.300049 Z"/>
                    <path id="path14" fill="#ffffff" stroke="none" d=""/>
                </g>
                <g id="g7">
                    <path id="path15" fill="#383838" stroke="none" d="M 430.397461 210.734131 C 430.140869 210.734131 429.876709 210.6875 429.624268 210.585815 L 383.738037 192.234619 C 382.667725 191.807495 382.151367 190.594604 382.578369 189.526733 C 383.005615 188.456665 384.222168 187.933716 385.28418 188.36499 L 431.17041 206.716187 C 432.240234 207.143311 432.757568 208.355835 432.330078 209.424194 C 432.004639 210.23999 431.223389 210.734131 430.397461 210.734131 Z"/>
                    <path id="path16" fill="#000000" fill-rule="evenodd" stroke="none" d="M 430.397461 213.734131 C 432.459625 213.734131 434.33905 212.484756 435.116547 210.535782 C 436.158569 207.931625 434.892578 204.972 432.282776 203.930038 L 386.398193 185.579498 C 383.805817 184.526703 380.834961 185.802719 379.792236 188.414322 C 378.750519 191.019485 380.015747 193.979248 382.626099 195.02095 L 428.510254 213.371307 C 429.110626 213.613144 429.754395 213.734131 430.397461 213.734131 Z M 429.624268 210.585815 C 429.876709 210.6875 430.140869 210.734131 430.397461 210.734131 C 431.223389 210.734131 432.004639 210.23999 432.330078 209.424194 C 432.757568 208.355835 432.240234 207.143311 431.17041 206.716187 L 385.28418 188.36499 C 384.222168 187.933716 383.005615 188.456665 382.578369 189.526733 C 382.151367 190.594604 382.667725 191.807495 383.738037 192.234619 L 429.624268 210.585815 Z"/>
                </g>
            </g>
            <g id="g8">
                <g id="g9">
                    <path id="path17" fill="#ffffff" stroke="#000000" stroke-width="3" d="M 384.509277 91.044556 L 430.397461 72.692871 L 384.509277 91.044556 Z"/>
                    <path id="path18" fill="#ffffff" stroke="none" d=""/>
                </g>
                <g id="g10">
                    <path id="path19" fill="#383838" stroke="none" d="M 384.51123 93.127441 C 383.685059 93.127441 382.903809 92.633301 382.578369 91.817505 C 382.151367 90.749146 382.667725 89.536621 383.738037 89.109619 L 429.624268 70.758301 C 430.69043 70.322876 431.902832 70.849976 432.330078 71.920044 C 432.757568 72.987915 432.240234 74.200806 431.17041 74.62793 L 385.28418 92.979126 C 385.032227 93.080811 384.767334 93.127441 384.51123 93.127441 Z"/>
                    <path id="path20" fill="#000000" fill-rule="evenodd" stroke="none" d="M 384.51123 96.127441 C 385.154388 96.127441 385.799469 96.006271 386.406952 95.761101 L 432.284424 77.413429 C 434.892609 76.372116 436.158752 73.411911 435.115204 70.805107 C 434.072754 68.194206 431.1026 66.914001 428.48999 67.980995 L 382.624023 86.32412 C 380.015839 87.364662 378.750702 90.323975 379.792633 92.930908 C 380.569427 94.878143 382.448914 96.127441 384.51123 96.127441 Z M 382.578369 91.817505 C 382.903809 92.633301 383.685059 93.127441 384.51123 93.127441 C 384.767334 93.127441 385.032227 93.080811 385.28418 92.979126 L 431.17041 74.62793 C 432.240234 74.200806 432.757568 72.987915 432.330078 71.920044 C 431.902832 70.849976 430.69043 70.322876 429.624268 70.758301 L 383.738037 89.109619 C 382.667725 89.536621 382.151367 90.749146 382.578369 91.817505 Z"/>
                </g>
            </g>
            <g id="g11">
                <g id="g12">
                    <path id="path21" fill="#ffffff" stroke="#000000" stroke-width="3" d="M 58.52002 144.14502 L 8.041748 144.14502 L 58.52002 144.14502 Z"/>
                    <path id="path22" fill="#ffffff" stroke="none" d=""/>
                </g>
                <g id="g13">
                    <path id="path23" fill="#383838" stroke="none" d="M 58.518311 146.229614 L 8.042236 146.229614 C 6.890869 146.229614 5.95874 145.297485 5.95874 144.14624 C 5.95874 142.994629 6.890869 142.062866 8.042236 142.062866 L 58.518311 142.062866 C 59.669434 142.062866 60.601563 142.994629 60.601563 144.14624 C 60.601563 145.297485 59.669434 146.229614 58.518311 146.229614 Z"/>
                    <path id="path24" fill="#000000" fill-rule="evenodd" stroke="none" d="M 58.518311 149.229614 C 61.326332 149.229614 63.601563 146.9543 63.601563 144.14624 C 63.601563 141.33786 61.326378 139.062866 58.518311 139.062866 L 8.042236 139.062866 C 5.234016 139.062866 2.95874 141.337769 2.95874 144.14624 C 2.95874 146.954391 5.234061 149.229614 8.042236 149.229614 L 58.518311 149.229614 Z M 8.042236 146.229614 L 58.518311 146.229614 C 59.669434 146.229614 60.601563 145.297485 60.601563 144.14624 C 60.601563 142.994629 59.669434 142.062866 58.518311 142.062866 L 8.042236 142.062866 C 6.890869 142.062866 5.95874 142.994629 5.95874 144.14624 C 5.95874 145.297485 6.890869 146.229614 8.042236 146.229614 Z"/>
                </g>
            </g>
            <g id="g14">
                <g id="g15">
                    <path id="path25" fill="#ffffff" stroke="#000000" stroke-width="3" d="M 66.673096 192.909546 L 20.784912 211.261719 L 66.673096 192.909546 Z"/>
                    <path id="path26" fill="#ffffff" stroke="none" d=""/>
                </g>
                <g id="g16">
                    <path id="path27" fill="#383838" stroke="none" d="M 20.786377 213.345825 C 19.960449 213.345825 19.179199 212.851196 18.85327 212.0354 C 18.42627 210.967529 18.943115 209.755005 20.013428 209.327515 L 65.899658 190.974121 C 66.95752 190.545044 68.177734 191.067871 68.605225 192.135864 C 69.032471 193.204224 68.515869 194.416626 67.445801 194.84375 L 21.55957 213.197144 C 21.307129 213.298706 21.04248 213.345825 20.786377 213.345825 Z"/>
                    <path id="path28" fill="#000000" fill-rule="evenodd" stroke="none" d="M 20.786377 216.345825 C 21.428856 216.345825 22.072866 216.224319 22.67931 215.980347 L 68.559914 197.629196 C 71.168083 196.588135 72.433266 193.628815 71.390739 191.021912 C 70.34687 188.414017 67.374458 187.13855 64.772057 188.194107 L 18.899313 206.542068 C 16.29113 207.583786 15.025436 210.542664 16.067705 213.149246 C 16.845621 215.096344 18.724529 216.345825 20.786377 216.345825 Z M 18.85327 212.0354 C 19.179199 212.851196 19.960449 213.345825 20.786377 213.345825 C 21.04248 213.345825 21.307129 213.298706 21.55957 213.197144 L 67.445801 194.84375 C 68.515869 194.416626 69.032471 193.204224 68.605225 192.135864 C 68.177734 191.067871 66.95752 190.545044 65.899658 190.974121 L 20.013428 209.327515 C 18.943115 209.755005 18.42627 210.967529 18.85327 212.0354 Z"/>
                </g>
            </g>
            <g id="g17">
                <g id="g18">
                    <path id="path29" fill="#ffffff" stroke="#000000" stroke-width="3" d="M 66.673096 93.654175 L 20.784912 75.30249 L 66.673096 93.654175 Z"/>
                    <path id="path30" fill="#ffffff" stroke="none" d=""/>
                </g>
                <g id="g19">
                    <path id="path31" fill="#383838" stroke="none" d="M 66.672607 95.737061 C 66.41626 95.737061 66.151611 95.69043 65.899658 95.588745 L 20.013428 77.237549 C 18.943115 76.809937 18.42627 75.597534 18.85327 74.529541 C 19.280762 73.461304 20.497314 72.938354 21.55957 73.367554 L 67.445801 91.71875 C 68.515869 92.14624 69.032471 93.358765 68.605225 94.426636 C 68.279541 95.242554 67.498291 95.737061 66.672607 95.737061 Z"/>
                    <path id="path32" fill="#000000" fill-rule="evenodd" stroke="none" d="M 66.672607 98.737061 C 68.734566 98.737061 70.613693 97.487297 71.391457 95.538795 C 72.433388 92.934563 71.168282 89.975334 68.558769 88.932838 L 22.673571 70.582054 C 20.078344 69.533447 17.111336 70.807831 16.068016 73.414925 C 15.025511 76.022392 16.291073 78.980957 18.900406 80.023438 L 64.78566 98.374245 C 65.384407 98.615906 66.029251 98.737061 66.672607 98.737061 Z M 65.899658 95.588745 C 66.151611 95.69043 66.41626 95.737061 66.672607 95.737061 C 67.498291 95.737061 68.279541 95.242554 68.605225 94.426636 C 69.032471 93.358765 68.515869 92.14624 67.445801 91.71875 L 21.55957 73.367554 C 20.497314 72.938354 19.280762 73.461304 18.85327 74.529541 C 18.42627 75.597534 18.943115 76.809937 20.013428 77.237549 L 65.899658 95.588745 Z"/>
                </g>
            </g>
        </g>
        <g id="g20"/>
    </g>
</svg>
