<?xml version="1.0" encoding="UTF-8"?>
<!-- Generated by Pixelmator Pro 3.7.1 -->
<svg width="938" height="862" viewBox="0 0 938 862" xmlns="http://www.w3.org/2000/svg">
    <path id="Path-copy-27" fill="#ffd713" stroke="none" d="M 933.665527 430.260071 L 757.803711 606.121704 C 598.018555 765.907104 338.955811 765.907104 179.170654 606.121704 L 3.308594 430.260071 L 179.170654 254.398682 C 338.955811 94.613342 598.018555 94.613342 757.803711 254.398682 L 933.665527 430.260071 Z"/>
    <path id="Path-copy-26" fill="#383838" stroke="none" d="M 468.487793 727.852051 C 363.177734 727.852051 257.86792 687.76416 177.696289 607.59668 L 1.837891 431.734192 C 1.023682 430.920349 1.023682 429.602112 1.837891 428.787964 L 177.696289 252.925476 C 255.369629 175.252136 358.641357 132.474609 468.484131 132.474609 C 578.331299 132.474609 681.602539 175.252136 759.275879 252.925476 L 935.138672 428.787964 C 935.952148 429.602112 935.952148 430.920349 935.138672 431.734192 L 759.275879 607.59668 C 679.104004 687.76416 573.794189 727.852051 468.487793 727.852051 Z M 6.256592 430.261169 L 180.64209 604.650879 C 339.35791 763.366699 597.614258 763.366699 756.330078 604.650879 L 930.719727 430.261169 L 756.330078 255.871277 C 597.609863 97.151672 339.354248 97.159607 180.64209 255.871277 L 6.256592 430.261169 Z"/>
    <path id="Path-copy-25" fill="#f85baa" stroke="none" d="M 211.218262 430.260071 C 211.218262 288.1745 326.401611 172.991272 468.487061 172.991272 C 610.572754 172.991272 725.755859 288.1745 725.755859 430.260071 C 725.755859 572.345825 610.572754 687.529175 468.487061 687.529175 C 326.401611 687.529175 211.218262 572.345825 211.218262 430.260071 Z"/>
    <path id="Path-copy-24" fill="#383838" stroke="none" d="M 468.487793 689.611694 C 325.47876 689.611694 209.133301 573.266296 209.133301 430.261169 C 209.133301 287.251648 325.47876 170.906311 468.487793 170.906311 C 611.493164 170.906311 727.838867 287.251648 727.838867 430.261169 C 727.838867 573.266296 611.493164 689.611694 468.487793 689.611694 Z M 468.487793 175.072937 C 327.777344 175.072937 213.299805 289.550354 213.299805 430.261169 C 213.299805 570.97168 327.777344 685.444946 468.487793 685.444946 C 609.19873 685.444946 723.671875 570.97168 723.671875 430.261169 C 723.671875 289.550354 609.19873 175.072937 468.487793 175.072937 Z"/>
    <path id="Path-copy-23" fill="#383838" stroke="none" d="M 646.835938 430.260071 C 646.835938 526.953735 568.450684 605.339478 471.75708 605.339478 C 375.063477 605.339478 296.67749 526.953735 296.67749 430.260071 C 296.67749 333.56665 375.063477 255.180847 471.75708 255.180847 C 568.450684 255.180847 646.835938 333.56665 646.835938 430.260071 Z"/>
    <path id="Path-copy-22" fill="#de4351" stroke="none" d="M 303.219238 380.685791 C 230.708496 391.986328 155.774902 409.939148 155.774902 430.864563 C 155.774902 465.279236 310.770752 511.272125 468.486572 511.272125 C 626.203125 511.272125 781.199707 465.279236 781.199707 430.864563 C 781.199707 410.345032 709.939941 391.435486 639.805176 380.081238 L 645.123535 403.648315 C 670.085938 411.292847 682.748047 420.763 682.748047 430.864563 C 682.748047 456.685486 586.819824 477.617096 468.486572 477.617096 C 350.153564 477.617096 254.22583 456.685486 254.22583 430.864563 C 254.22583 419.927551 269.754639 410.338806 298.589844 402.375 L 303.219238 380.685791 Z"/>
    <path id="Path-copy-21" fill="#383838" stroke="none" d="M 468.487793 513.354187 C 306.346191 513.354187 153.693359 466.882019 153.693359 430.863281 C 153.693359 406.912964 234.829346 389.237549 302.895996 378.625427 L 305.88623 378.161682 L 300.364502 404.048401 L 299.144043 404.38623 C 271.12085 412.121277 256.30957 421.280884 256.30957 430.863281 C 256.30957 452.437073 341.567627 475.532867 468.487793 475.532867 C 595.408691 475.532867 680.666504 452.437073 680.666504 430.863281 C 680.666504 421.736633 667.828613 412.776672 644.513184 405.643799 L 643.35791 405.289551 L 637.096191 377.530884 L 640.13916 378.027039 C 683.176758 384.993347 783.283203 404.085022 783.283203 430.863281 C 783.283203 466.882019 630.629883 513.354187 468.487793 513.354187 Z M 300.547852 383.211243 C 211.131348 397.359192 157.860107 415.128296 157.860107 430.863281 C 157.860107 463.618683 314.390869 509.187531 468.487793 509.187531 C 622.585449 509.187531 779.116211 463.618683 779.116211 430.863281 C 779.116211 415.185364 725.612793 396.32959 642.516113 382.637512 L 646.890137 402.014099 C 671.71875 409.793701 684.833496 419.758667 684.833496 430.863281 C 684.833496 461.433746 574.835693 479.699554 468.487793 479.699554 C 362.140381 479.699554 252.142822 461.433746 252.142822 430.863281 C 252.142822 419.030457 266.758789 409.15918 296.81665 400.707947 L 300.547852 383.211243 Z"/>
    <path id="Path-copy-20" fill="#ffffff" stroke="none" d="M 471.75708 134.60083 L 471.75708 2.92334 L 471.75708 134.60083 Z"/>
    <path id="Path-copy-19" fill="#383838" stroke="none" d="M 471.755615 136.685852 C 470.604248 136.685852 469.672119 135.75415 469.672119 134.602539 L 469.672119 2.92334 C 469.672119 1.772095 470.604248 0.840027 471.755615 0.840027 C 472.906982 0.840027 473.838867 1.772095 473.838867 2.92334 L 473.838867 134.602539 C 473.838867 135.75415 472.906982 136.685852 471.755615 136.685852 Z"/>
    <path id="Path-copy-18" fill="#ffffff" stroke="none" d="M 598.963867 155.869202 L 646.835938 36.165833 L 598.963867 155.869202 Z"/>
    <path id="Path-copy-17" fill="#383838" stroke="none" d="M 598.964844 157.950806 C 598.708496 157.950806 598.444336 157.901672 598.192383 157.799988 C 597.121582 157.372925 596.60498 156.160461 597.031738 155.094177 L 644.904297 35.39209 C 645.331055 34.324158 646.547852 33.801208 647.609863 34.230408 C 648.679688 34.657532 649.197266 35.869995 648.769531 36.938293 L 600.897949 156.640381 C 600.571777 157.454163 599.790527 157.950806 598.964844 157.950806 Z"/>
    <path id="Path-copy-16" fill="#ffffff" stroke="none" d="M 711.402344 214.440369 L 807.172852 118.669983 L 711.402344 214.440369 Z"/>
    <path id="Path-copy-15" fill="#383838" stroke="none" d="M 711.404297 216.524231 C 710.871094 216.524231 710.337891 216.320862 709.930664 215.913757 C 709.117188 215.100037 709.117188 213.781677 709.930664 212.967896 L 805.699219 117.195435 C 806.513184 116.381653 807.831543 116.381653 808.64502 117.195435 C 809.458984 118.009155 809.458984 119.327515 808.64502 120.141235 L 712.877441 215.913757 C 712.470215 216.320862 711.937012 216.524231 711.404297 216.524231 Z"/>
    <path id="Path-copy-14" fill="#ffffff" stroke="none" d="M 340.047119 155.869202 L 292.174561 36.165833 L 340.047119 155.869202 Z"/>
    <path id="Path-copy-13" fill="#383838" stroke="none" d="M 340.045654 157.950806 C 339.219482 157.950806 338.438232 157.454163 338.113037 156.640381 L 290.241211 36.938293 C 289.813721 35.869995 290.330322 34.657532 291.400635 34.230408 C 292.45874 33.799133 293.679199 34.322083 294.106689 35.39209 L 341.978271 155.094177 C 342.405762 156.160461 341.88916 157.372925 340.818848 157.799988 C 340.56665 157.901672 340.302002 157.950806 340.045654 157.950806 Z"/>
    <path id="Path-copy-12" fill="#ffffff" stroke="none" d="M 227.608887 214.440369 L 131.838379 118.669983 L 227.608887 214.440369 Z"/>
    <path id="Path-copy-11" fill="#383838" stroke="none" d="M 227.606689 216.524231 C 227.07373 216.524231 226.541016 216.320862 226.133789 215.913757 L 130.365234 120.141235 C 129.551758 119.327515 129.551758 118.009155 130.365234 117.195435 C 131.179199 116.381653 132.498047 116.381653 133.311768 117.195435 L 229.07959 212.967896 C 229.893799 213.781677 229.893799 215.100037 229.07959 215.913757 C 228.672852 216.320862 228.140137 216.524231 227.606689 216.524231 Z"/>
    <path id="Path-copy-10" fill="#ffffff" stroke="none" d="M 470.73877 727.430786 L 470.73877 859.108337 L 470.73877 727.430786 Z"/>
    <path id="Path-copy-9" fill="#383838" stroke="none" d="M 470.738281 861.193787 C 469.58667 861.193787 468.655029 860.262146 468.655029 859.110474 L 468.655029 727.429199 C 468.655029 726.277527 469.58667 725.345825 470.738281 725.345825 C 471.890137 725.345825 472.821533 726.277527 472.821533 727.429199 L 472.821533 859.110474 C 472.821533 860.262146 471.890137 861.193787 470.738281 861.193787 Z"/>
    <path id="Path-copy-8" fill="#ffffff" stroke="none" d="M 597.945313 706.162842 L 645.818359 825.865784 L 597.945313 706.162842 Z"/>
    <path id="Path-copy-7" fill="#383838" stroke="none" d="M 645.819824 827.950012 C 644.993652 827.950012 644.212402 827.453308 643.887207 826.639526 L 596.010742 706.9375 C 595.583496 705.871277 596.100586 704.658691 597.17041 704.231567 C 598.232422 703.804077 599.449219 704.324951 599.876953 705.391235 L 647.752441 825.093262 C 648.179688 826.159668 647.663086 827.37207 646.593262 827.799194 C 646.340332 827.901306 646.075684 827.950012 645.819824 827.950012 Z"/>
    <path id="Path-copy-6" fill="#ffffff" stroke="none" d="M 710.383789 647.591614 L 806.153809 743.362122 L 710.383789 647.591614 Z"/>
    <path id="Path-copy-5" fill="#383838" stroke="none" d="M 806.154785 745.446594 C 805.62207 745.446594 805.088867 745.243286 804.682129 744.836243 L 708.909668 649.064209 C 708.095703 648.25 708.095703 646.931641 708.909668 646.117859 C 709.723145 645.304199 711.041504 645.304199 711.855957 646.117859 L 807.62793 741.890442 C 808.441895 742.704224 808.441895 744.022461 807.62793 744.836243 C 807.221191 745.243286 806.687988 745.446594 806.154785 745.446594 Z"/>
    <path id="Path-copy-4" fill="#ffffff" stroke="none" d="M 339.028809 706.162842 L 291.15625 825.865784 L 339.028809 706.162842 Z"/>
    <path id="Path-copy-3" fill="#383838" stroke="none" d="M 291.156494 827.950012 C 290.900391 827.950012 290.635742 827.901306 290.383301 827.799194 C 289.313232 827.37207 288.796631 826.159668 289.223877 825.093262 L 337.095947 705.391235 C 337.522949 704.324951 338.735596 703.804077 339.801514 704.231567 C 340.871826 704.658691 341.388184 705.871277 340.961182 706.9375 L 293.089111 826.639526 C 292.763916 827.453308 291.982666 827.950012 291.156494 827.950012 Z"/>
    <path id="Path-copy-2" fill="#ffffff" stroke="none" d="M 226.590576 647.591614 L 130.820557 743.362122 L 226.590576 647.591614 Z"/>
    <path id="Path-copy" fill="#383838" stroke="none" d="M 130.821289 745.446594 C 130.28833 745.446594 129.755371 745.243286 129.348389 744.836243 C 128.534424 744.022461 128.534424 742.704224 129.348389 741.890442 L 225.116699 646.117859 C 225.93042 645.304199 227.248779 645.304199 228.0625 646.117859 C 228.876221 646.931641 228.876221 648.25 228.0625 649.064209 L 132.294189 744.836243 C 131.887695 745.243286 131.354004 745.446594 130.821289 745.446594 Z"/>
</svg>
