<svg width="406" height="406" viewBox="0 0 406 406" fill="none" xmlns="http://www.w3.org/2000/svg">
<g clip-path="url(#clip0_1793_25)">
<path d="M203 5C312.352 5 401 93.6476 401 203C401 312.352 312.352 401 203 401C93.6476 401 5 312.352 5 203C5 93.6476 93.6476 5 203 5Z" fill="#5C59ED" stroke="#3B0F46" stroke-width="10"/>
<path d="M237.968 43.7954C238.325 43.6312 238.819 43.5656 239.356 43.688C239.894 43.8104 240.31 44.083 240.561 44.3853C240.769 44.637 240.979 45.0385 240.945 45.77V45.771L238.266 104.201C238.137 106.553 238.703 108.891 239.895 110.924C241.099 112.98 242.888 114.63 245.033 115.665C247.178 116.699 249.583 117.073 251.941 116.737C254.276 116.404 256.459 115.389 258.221 113.823L258.222 113.824L302.339 75.2466C302.892 74.7634 303.339 74.6761 303.668 74.6821C304.062 74.6894 304.534 74.8444 304.964 75.187C305.393 75.5296 305.649 75.9555 305.743 76.3374C305.822 76.6563 305.837 77.1118 305.488 77.7593L277.602 129.352H277.603C276.465 131.418 275.959 133.773 276.152 136.125C276.348 138.501 277.246 140.763 278.731 142.625C280.217 144.487 282.223 145.865 284.494 146.583C286.743 147.295 289.152 147.326 291.418 146.676L291.419 146.677L347.719 131.038C348.425 130.841 348.863 130.956 349.154 131.103C349.504 131.279 349.861 131.622 350.099 132.116C350.336 132.61 350.382 133.104 350.301 133.488C350.233 133.808 350.048 134.226 349.449 134.66L349.444 134.663L302.175 168.953C300.256 170.32 298.782 172.222 297.937 174.422C297.083 176.645 296.91 179.071 297.439 181.392C297.969 183.714 299.176 185.826 300.909 187.458C302.625 189.075 304.779 190.148 307.101 190.548V190.55L364.788 200.989V200.99C365.512 201.121 365.859 201.416 366.059 201.676C366.298 201.988 366.471 202.452 366.471 203C366.471 203.548 366.298 204.012 366.059 204.324C365.884 204.551 365.597 204.806 365.043 204.954L364.788 205.01L307.11 215.45V215.451C304.788 215.851 302.635 216.925 300.919 218.542C299.186 220.174 297.979 222.286 297.449 224.607C296.92 226.929 297.093 229.356 297.946 231.578C298.792 233.778 300.267 235.68 302.187 237.047V237.048L349.503 271.335V271.336C350.095 271.767 350.28 272.182 350.348 272.505C350.429 272.893 350.383 273.391 350.144 273.888C349.904 274.385 349.547 274.728 349.201 274.902C348.915 275.046 348.485 275.159 347.788 274.964L347.778 274.962L291.545 259.341H291.546C291.535 259.338 291.524 259.335 291.513 259.332L291.479 259.323H291.478C289.211 258.673 286.804 258.704 284.555 259.416C282.283 260.134 280.276 261.512 278.791 263.375C277.306 265.236 276.408 267.499 276.213 269.874C276.02 272.224 276.524 274.579 277.66 276.643V276.644L305.478 328.199V328.2C305.826 328.847 305.813 329.304 305.733 329.625C305.639 330.008 305.382 330.435 304.952 330.778C304.523 331.12 304.052 331.275 303.66 331.282C303.334 331.288 302.887 331.201 302.333 330.716H302.332L258.212 292.136C256.451 290.57 254.267 289.556 251.932 289.223C249.574 288.887 247.169 289.259 245.023 290.294C242.878 291.329 241.089 292.98 239.885 295.035C238.693 297.068 238.127 299.406 238.256 301.758V301.759L240.936 360.189C240.969 360.921 240.759 361.323 240.551 361.575C240.3 361.877 239.884 362.15 239.347 362.272C238.809 362.394 238.315 362.329 237.958 362.165C237.661 362.028 237.298 361.756 237.012 361.083V361.082L214.111 307.272H214.109C213.213 305.089 211.695 303.217 209.739 301.892C207.753 300.547 205.408 299.828 203.01 299.828C200.611 299.828 198.268 300.547 196.282 301.892C194.327 303.216 192.807 305.088 191.91 307.272H191.909L169.01 361.082L169.009 361.083C168.723 361.757 168.36 362.028 168.062 362.165C167.705 362.329 167.212 362.394 166.674 362.272C166.136 362.15 165.72 361.877 165.47 361.575C165.287 361.354 165.104 361.019 165.083 360.449L165.085 360.189L167.766 301.759L167.764 301.758C167.892 299.406 167.328 297.068 166.137 295.035C164.932 292.98 163.144 291.33 160.998 290.294C158.852 289.259 156.447 288.887 154.089 289.223C151.878 289.539 149.802 290.464 148.093 291.891L147.809 292.136L103.708 330.716C103.156 331.197 102.711 331.284 102.383 331.278C101.989 331.271 101.517 331.115 101.088 330.773C100.659 330.43 100.402 330.005 100.308 329.623C100.229 329.304 100.215 328.847 100.563 328.2L100.562 328.199L128.381 276.644L128.38 276.643C129.516 274.579 130.021 272.224 129.828 269.874C129.633 267.499 128.735 265.236 127.25 263.375C125.765 261.512 123.758 260.134 121.486 259.416C119.215 258.697 116.78 258.672 114.494 259.341L58.2627 274.962C57.5567 275.158 57.1183 275.044 56.8271 274.897C56.4777 274.721 56.1205 274.377 55.8828 273.883C55.6452 273.389 55.5998 272.896 55.6807 272.512C55.7481 272.192 55.9329 271.774 56.5322 271.34L56.5342 271.338L103.854 237.048L103.854 237.047C105.773 235.68 107.249 233.779 108.095 231.578C108.948 229.356 109.121 226.929 108.592 224.607C108.062 222.286 106.855 220.174 105.122 218.542C103.406 216.925 101.252 215.851 98.9297 215.451L98.9307 215.45L41.2422 205.01H41.2432C40.5196 204.879 40.1724 204.584 39.9727 204.324C39.7334 204.012 39.5605 203.548 39.5605 203C39.5606 202.452 39.7335 201.988 39.9727 201.676C40.1724 201.416 40.5187 201.12 41.2422 200.989L98.9307 190.55L98.9297 190.548C101.252 190.148 103.406 189.075 105.122 187.458C106.855 185.826 108.062 183.714 108.592 181.392C109.121 179.07 108.948 176.644 108.095 174.422C107.249 172.221 105.773 170.319 103.854 168.952L103.854 168.951L56.5342 134.661C55.9447 134.231 55.7608 133.816 55.6934 133.494C55.6125 133.106 55.6586 132.609 55.8975 132.112C56.1367 131.614 56.4943 131.271 56.8398 131.097C57.126 130.953 57.5561 130.84 58.2529 131.035L58.2627 131.038L114.562 146.677V146.676C116.829 147.326 119.237 147.295 121.486 146.583C123.758 145.865 125.765 144.487 127.25 142.625C128.735 140.763 129.633 138.5 129.828 136.125C130.021 133.775 129.516 131.421 128.38 129.356H128.381L100.562 77.7993H100.563C100.215 77.1523 100.228 76.696 100.308 76.3755C100.402 75.9919 100.659 75.565 101.089 75.2222C101.518 74.8794 101.989 74.7254 102.381 74.7183C102.707 74.7123 103.154 74.7982 103.708 75.2827L103.709 75.2837L147.829 113.863C149.59 115.429 151.774 116.444 154.108 116.777C156.466 117.113 158.872 116.74 161.018 115.705C163.163 114.669 164.952 113.019 166.156 110.964C167.348 108.931 167.913 106.592 167.784 104.24H167.785L165.096 45.77C165.062 45.0384 165.272 44.637 165.48 44.3853C165.731 44.083 166.147 43.8104 166.685 43.688C167.222 43.5656 167.715 43.6313 168.072 43.7954C168.37 43.9322 168.733 44.2032 169.02 44.8765V44.8774L191.92 98.688V98.687C192.816 100.87 194.335 102.743 196.291 104.068C198.277 105.413 200.622 106.131 203.021 106.131C205.419 106.131 207.763 105.413 209.749 104.068C211.705 102.743 213.224 100.87 214.12 98.687L214.121 98.688L237.021 44.8774V44.8765C237.308 44.2035 237.67 43.9323 237.968 43.7954Z" fill="#FED33D" stroke="#3B0F46" stroke-width="10"/>
</g>
<defs>
<clipPath id="clip0_1793_25">
<rect width="406" height="406" fill="white"/>
</clipPath>
</defs>
</svg>
