<?xml version="1.0" encoding="UTF-8"?>
<!-- Generated by Pixelmator Pro 3.7.1 -->
<svg width="364" height="362" viewBox="0 0 364 362" xmlns="http://www.w3.org/2000/svg">
    <g id="Path">
        <g id="path1">
            <path id="path2" fill="#ff86db" stroke="#000000" stroke-width="15.809524" stroke-linecap="round" stroke-linejoin="round" d="M 335.502045 137.045609 L 225.781738 181.375366 L 334.712128 227.613556 L 321.842865 257.93161 L 212.912079 211.693237 L 257.242279 321.414063 L 226.703949 333.753479 L 182.373947 224.032547 L 136.136139 332.962006 L 105.8181 320.092743 L 152.056351 211.162277 L 42.33569 255.492172 L 29.99721 224.954239 L 139.71817 180.624252 L 30.788004 134.386139 L 43.657249 104.068115 L 152.586517 150.305832 L 108.256996 40.586121 L 138.795166 28.247894 L 183.125275 137.968475 L 229.363556 29.037872 L 259.68161 41.907135 L 213.443436 150.837418 L 323.164124 106.507553 L 335.502045 137.045609 Z"/>
            <g id="path3" opacity="0.779227">
                <path id="path4" fill="#ffffff" fill-rule="evenodd" stroke="none" d="M 342.831238 134.084473 L 330.493286 103.546448 C 328.85791 99.498627 324.250763 97.542969 320.202942 99.178375 L 228.176422 136.359375 L 266.957977 44.995758 C 268.663788 40.977142 266.788879 36.336548 262.770233 34.630768 L 232.452194 21.761505 C 228.433578 20.055695 223.792999 21.930634 222.087189 25.949249 L 183.305511 117.313141 L 146.124329 25.286713 C 144.488907 21.238953 139.88176 19.283325 135.833984 20.918732 L 105.29583 33.256927 C 101.248032 34.892365 99.292419 39.499481 100.927826 43.547272 L 138.108459 135.572845 L 46.745888 96.791718 C 42.727257 95.085938 38.086685 96.960846 36.380878 100.979462 L 23.511633 131.297516 C 21.805828 135.316132 23.680738 139.956711 27.699368 141.662521 L 119.06279 180.443985 L 27.036045 217.625061 C 22.988224 219.260483 21.03261 223.867676 22.668066 227.915497 L 35.006546 258.45343 C 36.641991 262.50116 41.249096 264.456757 45.296852 262.82135 L 137.323349 225.64032 L 98.541733 317.00412 C 96.835922 321.022736 98.710838 325.66333 102.729462 327.36911 L 133.047516 340.238373 C 137.066132 341.944183 141.706711 340.069244 143.412521 336.050629 L 182.19368 244.687927 L 219.374771 336.71463 C 221.010223 340.762512 225.617538 342.718109 229.665375 341.08255 L 260.203705 328.743134 C 264.251343 327.107605 266.206818 322.500549 264.571472 318.452881 L 227.390182 226.426239 L 318.754242 265.207977 C 322.772858 266.913788 327.413452 265.038879 329.119232 261.020233 L 341.988495 230.702194 C 343.694305 226.683578 341.819366 222.042999 337.800751 220.337189 L 246.437119 181.555634 L 338.463226 144.374786 C 342.510986 142.73938 344.466614 138.132263 342.831238 134.084473 Z M 225.781738 181.375366 L 335.502045 137.045609 L 323.164124 106.507553 L 213.443436 150.837418 L 259.68161 41.907135 L 229.363556 29.037872 L 183.125275 137.968475 L 138.795166 28.247894 L 108.256996 40.586121 L 152.586517 150.305832 L 43.657249 104.068115 L 30.788004 134.386139 L 139.71817 180.624252 L 29.99721 224.954239 L 42.33569 255.492172 L 152.056351 211.162277 L 105.8181 320.092743 L 136.136139 332.962006 L 182.373947 224.032547 L 226.703949 333.753479 L 257.242279 321.414063 L 212.912079 211.693237 L 321.842865 257.93161 L 334.712128 227.613556 L 225.781738 181.375366 Z"/>
                <path id="path5" fill="#ff86db" fill-rule="evenodd" stroke="none" d="M 349.244263 131.493484 L 336.906311 100.95546 C 333.839996 93.365814 325.201599 89.698959 317.611938 92.765343 L 241.06778 123.691086 L 273.324799 47.698315 C 276.523193 40.163391 273.007721 31.462269 265.472748 28.263924 L 235.154755 15.394681 C 227.619843 12.196285 218.918762 15.71177 215.720367 23.246679 L 183.463226 99.239723 L 152.537354 22.695679 C 149.470917 15.106099 140.832535 11.439322 133.24295 14.50571 L 102.704803 26.843904 C 95.115189 29.910347 91.448418 38.548691 94.514801 46.13829 L 125.440163 122.68148 L 49.448444 90.424896 C 41.913486 87.226547 33.21244 90.741997 30.014057 98.276894 L 17.144808 128.594955 C 13.94642 136.129868 17.461882 144.830948 24.996805 148.029343 L 100.989334 180.28624 L 24.445024 211.212036 C 16.855362 214.278458 13.188591 222.916931 16.25506 230.506561 L 28.59355 261.044525 C 31.660017 268.634033 40.298347 272.300751 47.88789 269.234375 L 124.431984 238.308624 L 92.174904 314.301575 C 88.976509 321.836487 92.491989 330.537598 100.026939 333.735962 L 130.344955 346.605194 C 137.879868 349.803589 146.580948 346.288116 149.779343 338.753204 L 182.03595 262.761383 L 212.961746 339.305664 C 216.028214 346.895416 224.666901 350.562164 232.256577 347.495514 L 262.794952 335.156067 C 270.384247 332.089447 274.050781 323.451263 270.984497 315.861877 L 240.058533 239.317627 L 316.051697 271.574799 C 323.586609 274.773193 332.28772 271.257721 335.486084 263.722748 L 348.355316 233.404755 C 351.553711 225.869843 348.038239 217.168762 340.503326 213.970367 L 264.510559 181.713364 L 341.05426 150.787811 C 348.643829 147.72142 352.310608 139.083084 349.244263 131.493484 Z M 330.493286 103.546448 L 342.831238 134.084473 C 344.466614 138.132263 342.510986 142.73938 338.463226 144.374786 L 246.437119 181.555634 L 337.800751 220.337189 C 341.819366 222.042999 343.694305 226.683578 341.988495 230.702194 L 329.119232 261.020233 C 327.413452 265.038879 322.772858 266.913788 318.754242 265.207977 L 227.390182 226.426239 L 264.571472 318.452881 C 266.206818 322.500549 264.251343 327.107605 260.203705 328.743134 L 229.665375 341.08255 C 225.617538 342.718109 221.010223 340.762512 219.374771 336.71463 L 182.19368 244.687927 L 143.412521 336.050629 C 141.706711 340.069244 137.066132 341.944183 133.047516 340.238373 L 102.729462 327.36911 C 98.710838 325.66333 96.835922 321.022736 98.541733 317.00412 L 137.323349 225.64032 L 45.296852 262.82135 C 41.249096 264.456757 36.641991 262.50116 35.006546 258.45343 L 22.668066 227.915497 C 21.03261 223.867676 22.988224 219.260483 27.036045 217.625061 L 119.06279 180.443985 L 27.699368 141.662521 C 23.680738 139.956711 21.805828 135.316132 23.511633 131.297516 L 36.380878 100.979462 C 38.086685 96.960846 42.727257 95.085938 46.745888 96.791718 L 138.108459 135.572845 L 100.927826 43.547272 C 99.292419 39.499481 101.248032 34.892365 105.29583 33.256927 L 135.833984 20.918732 C 139.88176 19.283325 144.488907 21.238953 146.124329 25.286713 L 183.305511 117.313141 L 222.087189 25.949249 C 223.792999 21.930634 228.433578 20.055695 232.452194 21.761505 L 262.770233 34.630768 C 266.788879 36.336548 268.663788 40.977142 266.957977 44.995758 L 228.176422 136.359375 L 320.202942 99.178375 C 324.250763 97.542969 328.85791 99.498627 330.493286 103.546448 Z M 335.502045 137.045609 L 225.781738 181.375366 L 334.712128 227.613556 L 321.842865 257.93161 L 212.912079 211.693237 L 257.242279 321.414063 L 226.703949 333.753479 L 182.373947 224.032547 L 136.136139 332.962006 L 105.8181 320.092743 L 152.056351 211.162277 L 42.33569 255.492172 L 29.99721 224.954239 L 139.71817 180.624252 L 30.788004 134.386139 L 43.657249 104.068115 L 152.586517 150.305832 L 108.256996 40.586121 L 138.795166 28.247894 L 183.125275 137.968475 L 229.363556 29.037872 L 259.68161 41.907135 L 213.443436 150.837418 L 323.164124 106.507553 L 335.502045 137.045609 Z M 223.19072 174.962341 C 217.47731 177.270691 217.406937 185.334473 223.079178 187.742188 L 325.642761 231.277817 L 318.178589 248.862244 L 215.614639 205.326416 C 209.942398 202.918686 204.190689 208.570877 206.499054 214.284271 L 248.238297 317.592285 L 230.525879 324.749237 L 188.786972 221.441528 C 186.478622 215.728134 178.414841 215.657745 176.007126 221.329987 L 132.471878 323.892639 L 114.887474 316.428467 L 158.423172 213.864838 C 160.830902 208.192596 155.178726 202.440903 149.465332 204.749252 L 46.157619 246.488159 L 39.001328 228.776215 L 142.309189 187.037277 C 148.022583 184.728928 148.092972 176.665146 142.420731 174.257431 L 39.857388 130.721878 L 47.321518 113.137497 L 149.883957 156.672653 C 155.556198 159.080383 161.307892 153.428207 158.999542 147.714813 L 117.26104 44.408115 L 134.973175 37.251945 L 176.71225 140.559509 C 179.020615 146.272903 187.084381 146.343262 189.492096 140.671036 L 233.027817 38.107254 L 250.612228 45.5714 L 207.076614 148.134857 C 204.668884 153.807098 210.32106 159.558792 216.034454 157.250443 L 319.342072 115.51162 L 326.498016 133.223587 L 223.19072 174.962341 Z"/>
            </g>
        </g>
        <path id="path6" fill="#000000" fill-rule="evenodd" stroke="none" d="M 336.612488 139.794037 L 339.360901 138.683624 L 338.250488 135.935181 L 325.912567 105.397125 L 324.802155 102.648682 L 322.053711 103.759094 L 218.968307 145.408142 L 263.568481 40.336731 L 227.793167 25.151001 L 183.192871 130.222717 L 141.543594 27.137451 L 140.433167 24.389008 L 137.684723 25.499451 L 107.146568 37.837646 L 104.398125 38.94812 L 105.50856 41.696533 L 147.157242 144.78096 L 42.086849 100.181213 L 26.901127 135.956543 L 131.972397 180.556656 L 28.886778 222.20578 L 26.138298 223.316254 L 27.248785 226.064697 L 39.587261 256.602631 L 40.697716 259.351044 L 43.446129 258.240601 L 146.531479 216.591553 L 101.931221 321.663147 L 137.706543 336.848877 L 182.306351 231.77832 L 223.955536 334.863892 L 225.065979 337.612427 L 227.814499 336.501862 L 258.352814 324.162445 L 261.101135 323.051971 L 259.990692 320.303619 L 218.34137 217.218109 L 323.413269 261.818481 L 338.598999 226.043167 L 233.527527 181.442963 L 336.612488 139.794037 Z M 225.781738 181.375366 L 335.502045 137.045609 L 323.164124 106.507553 L 213.443436 150.837418 L 259.68161 41.907135 L 229.363556 29.037872 L 183.125275 137.968475 L 138.795166 28.247894 L 108.256996 40.586121 L 152.586517 150.305832 L 43.657249 104.068115 L 30.788004 134.386139 L 139.71817 180.624252 L 29.99721 224.954239 L 42.33569 255.492172 L 152.056351 211.162277 L 105.8181 320.092743 L 136.136139 332.962006 L 182.373947 224.032547 L 226.703949 333.753479 L 257.242279 321.414063 L 212.912079 211.693237 L 321.842865 257.93161 L 334.712128 227.613556 L 225.781738 181.375366 Z"/>
    </g>
</svg>
