<?xml version="1.0" encoding="UTF-8"?>
<!-- Generated by Pixelmator Pro 3.7.1 -->
<svg width="373" height="180" viewBox="0 0 373 180" xmlns="http://www.w3.org/2000/svg">
    <path id="Path-copy-2" fill="#85c5d6" stroke="none" d="M 138.081238 64.704956 C 137.00415 60.648804 136.590027 56.494995 136.965454 52.294189 C 139.661255 22.146729 180.702515 1.181274 228.633789 5.467041 C 276.56543 9.75293 313.23584 37.667114 310.540039 67.815063 C 310.39917 69.392456 310.129517 70.938354 309.782959 72.462891 C 345.272949 82.30835 369.771729 105.611694 367.55127 130.443726 C 364.855469 160.591675 323.814087 181.557129 275.882935 177.270874 C 248.042603 174.781616 224.02124 164.312866 209.286255 150.073364 C 193.60083 167.045044 162.775757 176.959106 128.40332 173.885864 C 80.47168 169.599976 -0.2854 156.429565 3.834167 110.358276 C 8.122498 62.397949 90.185852 60.451294 138.081238 64.704956 Z"/>
    <path id="Path-copy" fill="#383838" stroke="none" d="M 288.322021 179.914185 C 284.157593 179.914185 279.94165 179.727051 275.697998 179.346191 C 249.172119 176.974121 225.140381 167.405884 209.36084 153.003784 C 192.252441 170.158691 161.421631 178.93335 128.21875 175.960815 C 68.322937 170.604126 -2.233765 154.842896 1.759949 110.17334 C 6.526672 56.842896 101.715027 59.676636 135.418762 62.388794 C 134.765808 58.942505 134.588745 55.49585 134.889587 52.108276 C 136.258789 36.788696 146.913696 23.293701 164.888306 14.112061 C 182.545898 5.091309 205.263428 1.284546 228.818726 3.39209 C 252.386719 5.5 274.055908 13.273804 289.83374 25.2854 C 305.894165 37.510864 313.985107 52.680054 312.615845 68 C 312.52832 68.970459 312.394165 69.959106 312.209229 70.990845 C 348.309204 81.59668 371.834229 105.929199 369.626587 130.628296 C 368.257568 145.949951 357.602905 159.442871 339.62793 168.626709 C 325.150391 176.022095 307.279541 179.914185 288.322021 179.914185 Z M 209.2854 147.990845 C 209.824585 147.990845 210.343262 148.199951 210.734131 148.57666 C 225.79126 163.125366 249.605469 172.829956 276.067871 175.196289 C 298.86084 177.230469 320.76416 173.58252 337.732056 164.915894 C 354.38623 156.407471 364.239624 144.10083 365.476563 130.257935 C 367.539551 107.172485 344.40918 84.231201 309.226563 74.47168 C 308.15625 74.174561 307.507446 73.088379 307.751709 72.003784 C 308.107544 70.431274 308.341675 68.998779 308.465454 67.627441 C 309.702515 53.787109 302.191284 39.927856 287.310791 28.599609 C 272.147461 17.057861 251.24292 9.581299 228.448364 7.54248 C 205.639526 5.497925 183.752563 9.154175 166.784546 17.822876 C 150.130371 26.329224 140.2771 38.637939 139.039978 52.47876 C 138.698303 56.315796 139.05249 60.250366 140.095825 64.169189 C 140.269165 64.826294 140.112488 65.526245 139.674988 66.045044 C 139.239563 66.567871 138.602539 66.852539 137.896667 66.779175 C 108.095398 64.132446 10.47583 59.469116 5.9104 110.543335 C 2.22168 151.782959 70.587097 166.622559 128.588745 171.810791 C 161.015015 174.709961 192.07959 165.623779 207.755371 148.660034 C 208.135864 148.249146 208.667114 148.00708 209.226563 147.990845 C 209.246704 147.990845 209.265015 147.990845 209.2854 147.990845 Z"/>
</svg>
