<?xml version="1.0" encoding="UTF-8"?>
<!-- Generated by Pixelmator Pro 3.7.1 -->
<svg width="364" height="362" viewBox="0 0 364 362" xmlns="http://www.w3.org/2000/svg">
    <g id="Path">
        <g id="path1">
            <path id="path2" fill="#efb219" stroke="#000000" stroke-width="15.809524" stroke-linecap="round" stroke-linejoin="round" d="M 323.025421 106.247177 L 224.919434 172.420364 L 341.082886 195.000244 L 334.79834 227.331436 L 218.634445 204.751465 L 284.808167 302.857849 L 257.502686 321.276886 L 191.329132 223.170364 L 168.749451 339.332825 L 136.418259 333.048279 L 158.998169 216.884735 L 60.891872 283.058105 L 42.473824 255.752823 L 140.580399 189.579285 L 24.417173 166.999451 L 30.701719 134.668259 L 146.863983 157.24791 L 80.691162 59.142456 L 107.996735 40.724609 L 174.170303 138.830795 L 196.750244 22.667114 L 229.081436 28.95166 L 206.501556 145.115021 L 304.60788 78.94165 L 323.025421 106.247177 Z"/>
            <g id="path3">
                <path id="path4" fill="#ffffff" fill-rule="evenodd" stroke="none" d="M 329.578796 101.826935 L 311.161255 74.521423 C 308.720032 70.902069 303.806946 69.947052 300.187592 72.388306 L 217.902451 127.890182 L 236.840958 30.459961 C 237.673965 26.1745 234.875198 22.025146 230.589737 21.192139 L 198.258545 14.907593 C 193.973083 14.074585 189.82373 16.873352 188.990707 21.158813 L 170.052139 118.589355 L 114.550079 36.304321 C 112.10881 32.685028 107.195755 31.730042 103.576447 34.171265 L 76.270874 52.589111 C 72.651558 55.030365 71.696556 59.94342 74.13781 63.562744 L 129.63916 145.847031 L 32.210018 126.908722 C 27.924549 126.075714 23.775202 128.874496 22.94219 133.159958 L 16.657644 165.49115 C 15.824635 169.776611 18.623404 173.925964 22.908875 174.758972 L 120.338905 193.697449 L 38.053547 249.199463 C 34.434204 251.640747 33.479214 256.553833 35.920521 260.173187 L 54.338566 287.478485 C 56.779842 291.097717 61.692863 292.052704 65.312149 289.61145 L 147.59729 234.109558 L 128.658722 331.539978 C 127.825714 335.825439 130.624496 339.974792 134.909958 340.8078 L 167.24115 347.092346 C 171.526611 347.925354 175.675964 345.126587 176.508972 340.841125 L 195.447311 243.411865 L 250.949326 325.697174 C 253.39064 329.316589 258.303864 330.271515 261.923187 327.830109 L 289.228668 309.411072 C 292.847839 306.969727 293.802704 302.056763 291.361511 298.437561 L 235.859344 216.152359 L 333.290039 235.090973 C 337.5755 235.923981 341.724854 233.125198 342.557861 228.839737 L 348.842407 196.508545 C 349.675415 192.223083 346.876648 188.07373 342.591187 187.240707 L 245.160934 168.302185 L 327.445709 112.800537 C 331.065002 110.359299 332.02002 105.446259 329.578796 101.826935 Z M 224.919434 172.420364 L 323.025421 106.247177 L 304.60788 78.94165 L 206.501556 145.115021 L 229.081436 28.95166 L 196.750244 22.667114 L 174.170303 138.830795 L 107.996735 40.724609 L 80.691162 59.142456 L 146.863983 157.24791 L 30.701719 134.668259 L 24.417173 166.999451 L 140.580399 189.579285 L 42.473824 255.752823 L 60.891872 283.058105 L 158.998169 216.884735 L 136.418259 333.048279 L 168.749451 339.332825 L 191.329132 223.170364 L 257.502686 321.276886 L 284.808167 302.857849 L 218.634445 204.751465 L 334.79834 227.331436 L 341.082886 195.000244 L 224.919434 172.420364 Z"/>
                <path id="path5" fill="#efb219" fill-rule="evenodd" stroke="none" d="M 335.312988 97.959221 L 316.895447 70.653709 C 312.318176 63.867443 303.10614 62.076767 296.319885 66.654106 L 227.878204 112.818466 L 243.630539 31.779722 C 245.192444 23.744474 239.944748 15.964441 231.9095 14.40255 L 199.578308 8.118005 C 191.54306 6.556115 183.763046 11.803795 182.201126 19.839029 L 166.448746 100.878098 L 120.284256 32.436565 C 115.706871 25.650387 106.494926 23.859776 99.708733 28.437065 L 72.403122 46.854935 C 65.616913 51.432281 63.826283 60.64426 68.403625 67.430481 L 114.567429 135.871262 L 33.529781 120.119133 C 25.494524 118.557243 17.7145 123.804947 16.152603 131.840195 L 9.868056 164.171387 C 8.306161 172.206635 13.55386 179.986679 21.589117 181.548569 L 102.627609 197.300842 L 34.185802 243.465286 C 27.399538 248.042694 25.60894 257.25473 30.186359 264.040955 L 48.604427 291.346283 C 53.18185 298.132385 62.393768 299.922974 69.179916 295.345612 L 137.621521 249.181274 L 121.869133 330.220215 C 120.307243 338.255463 125.554955 346.035492 133.590195 347.597382 L 165.921387 353.881927 C 173.956635 355.443817 181.736664 350.196136 183.298553 342.160889 L 199.050705 261.123169 L 245.215149 329.564911 C 249.792587 336.351288 259.004852 338.141815 265.791107 333.564178 L 293.096588 315.145111 C 299.882538 310.567627 301.672943 301.355835 297.095673 294.569794 L 250.931107 226.128128 L 331.970276 241.880554 C 340.005524 243.442459 347.785553 238.194748 349.347443 230.1595 L 355.631989 197.828308 C 357.193878 189.79306 351.946198 182.013046 343.91098 180.451126 L 262.872223 164.698792 L 331.313446 118.534721 C 338.09964 113.95739 339.890289 104.745445 335.312988 97.959221 Z M 311.161255 74.521423 L 329.578796 101.826935 C 332.02002 105.446259 331.065002 110.359299 327.445709 112.800537 L 245.160934 168.302185 L 342.591187 187.240707 C 346.876648 188.07373 349.675415 192.223083 348.842407 196.508545 L 342.557861 228.839737 C 341.724854 233.125198 337.5755 235.923981 333.290039 235.090973 L 235.859344 216.152359 L 291.361511 298.437561 C 293.802704 302.056763 292.847839 306.969727 289.228668 309.411072 L 261.923187 327.830109 C 258.303864 330.271515 253.39064 329.316589 250.949326 325.697174 L 195.447311 243.411865 L 176.508972 340.841125 C 175.675964 345.126587 171.526611 347.925354 167.24115 347.092346 L 134.909958 340.8078 C 130.624496 339.974792 127.825714 335.825439 128.658722 331.539978 L 147.59729 234.109558 L 65.312149 289.61145 C 61.692863 292.052704 56.779842 291.097717 54.338566 287.478485 L 35.920521 260.173187 C 33.479214 256.553833 34.434204 251.640747 38.053547 249.199463 L 120.338905 193.697449 L 22.908875 174.758972 C 18.623404 173.925964 15.824635 169.776611 16.657644 165.49115 L 22.94219 133.159958 C 23.775202 128.874496 27.924549 126.075714 32.210018 126.908722 L 129.63916 145.847031 L 74.13781 63.562744 C 71.696556 59.94342 72.651558 55.030365 76.270874 52.589111 L 103.576447 34.171265 C 107.195755 31.730042 112.10881 32.685028 114.550079 36.304321 L 170.052139 118.589355 L 188.990707 21.158813 C 189.82373 16.873352 193.973083 14.074585 198.258545 14.907593 L 230.589737 21.192139 C 234.875198 22.025146 237.673965 26.1745 236.840958 30.459961 L 217.902451 127.890182 L 300.187592 72.388306 C 303.806946 69.947052 308.720032 70.902069 311.161255 74.521423 Z M 323.025421 106.247177 L 224.919434 172.420364 L 341.082886 195.000244 L 334.79834 227.331436 L 218.634445 204.751465 L 284.808167 302.857849 L 257.502686 321.276886 L 191.329132 223.170364 L 168.749451 339.332825 L 136.418259 333.048279 L 158.998169 216.884735 L 60.891872 283.058105 L 42.473824 255.752823 L 140.580399 189.579285 L 24.417173 166.999451 L 30.701719 134.668259 L 146.863983 157.24791 L 80.691162 59.142456 L 107.996735 40.724609 L 174.170303 138.830795 L 196.750244 22.667114 L 229.081436 28.95166 L 206.501556 145.115021 L 304.60788 78.94165 L 323.025421 106.247177 Z M 221.051682 166.686188 C 215.943069 170.131973 217.550797 178.034164 223.59967 179.209946 L 332.973541 200.470062 L 329.328522 219.222092 L 219.954208 197.961884 C 213.905334 196.786087 209.454468 203.51062 212.900269 208.619217 L 275.20636 300.991608 L 259.369019 311.674774 L 197.063309 219.302612 C 193.617523 214.194 185.715332 215.801727 184.539551 221.850601 L 163.279633 331.22348 L 144.527603 327.578461 L 165.78775 218.204498 C 166.963531 212.155624 160.239029 207.704758 155.130432 211.150558 L 62.758236 273.456207 L 52.075813 257.619202 L 144.448135 195.313461 C 149.556763 191.867676 147.949036 183.965485 141.900162 182.789703 L 32.526524 161.529633 L 36.171547 142.777603 L 145.54422 164.037491 C 151.593094 165.213272 156.043961 158.48877 152.59816 153.380157 L 90.293083 61.008888 L 106.13031 50.326538 L 168.436127 142.698547 C 171.881927 147.807144 179.784103 146.199432 180.959885 140.150558 L 202.220062 30.776464 L 220.972092 34.42149 L 199.711975 143.795258 C 198.536179 149.844131 205.260696 154.294998 210.369293 150.849197 L 302.741425 88.543594 L 313.423553 104.380722 L 221.051682 166.686188 Z"/>
            </g>
        </g>
        <path id="path6" fill="#000000" fill-rule="evenodd" stroke="none" d="M 324.683014 108.704666 L 327.140503 107.047104 L 325.482941 104.5896 L 307.065399 77.284058 L 305.407806 74.826538 L 302.950287 76.484131 L 210.776901 138.655701 L 232.55687 26.607452 L 194.406036 19.191681 L 172.625992 131.24025 L 110.454231 39.066986 L 108.796631 36.609497 L 106.339127 38.26709 L 79.033554 56.684937 L 76.57605 58.34256 L 78.233658 60.800049 L 140.404663 152.97258 L 28.35751 131.192825 L 20.941738 169.343658 L 132.989838 191.123596 L 40.816223 253.295303 L 38.358685 254.952942 L 40.016338 257.410461 L 58.434383 284.715759 L 60.091995 287.173218 L 62.549477 285.515625 L 154.722839 223.34404 L 132.942825 335.392487 L 171.093658 342.808258 L 192.873444 230.760941 L 255.045197 322.934479 L 256.70282 325.39209 L 259.16037 323.734344 L 286.465881 305.315308 L 288.923248 303.657684 L 287.265656 301.200256 L 225.093781 209.026794 L 337.142548 230.80687 L 344.558319 192.656036 L 232.51001 170.876053 L 324.683014 108.704666 Z M 224.919434 172.420364 L 323.025421 106.247177 L 304.60788 78.94165 L 206.501556 145.115021 L 229.081436 28.95166 L 196.750244 22.667114 L 174.170303 138.830795 L 107.996735 40.724609 L 80.691162 59.142456 L 146.863983 157.24791 L 30.701719 134.668259 L 24.417173 166.999451 L 140.580399 189.579285 L 42.473824 255.752823 L 60.891872 283.058105 L 158.998169 216.884735 L 136.418259 333.048279 L 168.749451 339.332825 L 191.329132 223.170364 L 257.502686 321.276886 L 284.808167 302.857849 L 218.634445 204.751465 L 334.79834 227.331436 L 341.082886 195.000244 L 224.919434 172.420364 Z"/>
    </g>
</svg>
