<svg width="814" height="548" viewBox="0 0 814 548" fill="none" xmlns="http://www.w3.org/2000/svg">
<g clip-path="url(#clip0_1793_33)">
<path d="M430.266 83.171C453.629 72.0929 482.966 81.5855 505.207 98.384C516.304 106.766 526.244 116.625 536.465 126.766C546.603 136.825 557.022 147.165 568.763 156.003L568.783 156.02C587.13 169.679 608.117 179.374 630.411 184.491C652.704 189.607 675.818 190.034 698.285 185.742L698.316 185.736C703.146 184.782 707.446 183.756 711.837 183.24C716.125 182.737 719.996 182.802 723.571 183.869C732.741 186.606 737.466 195.211 737.522 206.466C737.578 217.744 732.771 230.089 724.685 237.598C716.072 245.597 705.493 251.038 694.048 256.48C682.812 261.823 670.595 267.22 659.968 275.042C644.957 286.09 635.749 306.322 627.867 325.789C623.818 335.788 620.124 345.614 616.069 354.778C612.028 363.91 607.815 371.935 602.957 378.139L602.956 378.14C583.122 403.477 549.56 419.156 511.972 430.726C493.267 436.483 473.792 441.16 454.828 445.531C437.111 449.615 419.764 453.448 404.132 457.623L401.03 458.462C380.381 464.122 358.471 469.37 337.573 470.119C317.05 470.855 297.943 467.236 282.104 455.781L281.353 455.23C273.344 449.271 266.744 441.582 259.555 433.455C252.511 425.493 244.925 417.146 235.349 410.989L235.344 410.986L233.874 410.058C203.99 391.483 174.366 391.12 131.95 393.625L127.737 393.88C92.0493 396.08 74.6266 351.032 102.345 329.372C102.805 329.035 103.016 328.871 103.405 328.594L103.417 328.587C111.143 323.064 119.791 318.901 128.9 314.479C137.87 310.124 147.282 305.519 155.737 299.238C173.201 286.263 184.285 268.241 193.001 249.124C197.362 239.561 201.178 229.611 204.888 219.803C208.618 209.946 212.233 200.254 216.256 190.965C224.165 172.704 236.846 154.441 252.117 142.163C267.358 129.909 284.656 123.971 302.38 128.923L302.379 128.922C308.61 130.664 314.401 133.649 321.081 136.704C327.529 139.653 334.654 142.577 342.546 143.214C362.878 144.876 377.594 132.057 390.39 118.73C397.063 111.78 403.026 104.892 409.697 98.407C416.244 92.0431 422.918 86.6541 430.265 83.1713L430.266 83.171Z" fill="#FA543C" stroke="#26103D" stroke-width="10"/>
<path d="M89.4051 395.163C141.963 391.264 193.374 375.232 238.257 347.446C258.862 334.701 278.269 318.115 302.721 313.692C326.246 309.438 350.779 316.38 374.251 317.885C399.634 319.511 425.98 315.576 445.662 298.283C454.752 290.296 461.347 279.833 470.962 272.373C479.235 266.125 488.519 261.343 498.41 258.236C546.12 242.697 597.526 256.748 646.497 253.175C671.532 251.355 698.177 248.787 719.54 234.561C731.772 226.325 743.118 216.843 753.396 206.268C765.174 194.214 746.584 175.728 734.752 187.831C732.204 190.436 729.548 192.934 726.86 195.395C721.608 200.281 716.074 204.856 710.288 209.096C706.922 211.542 703.43 213.809 699.826 215.89C693.803 218.973 696.338 217.729 694.578 218.63C700.512 215.491 697.42 216.843 699.673 215.968C698.568 216.4 692.178 219.59 691.046 219.927C679.527 223.362 667.021 224.971 655.072 226.169C605.379 231.179 554.989 218.598 505.744 229.085C482.51 234.042 460 244.662 443.549 262.108C435.709 270.416 429.149 279.783 418.843 285.258C409.184 290.401 397.867 291.849 387.064 292.006C362.85 292.374 339.069 285.919 314.868 286.464C288.651 287.041 266.512 297.607 244.997 311.772C221.58 327.192 197.903 341.348 171.479 351.072C145.146 360.797 117.589 366.815 89.5999 368.955C82.5471 369.475 76.4384 374.493 76.3939 381.968C76.3512 388.606 82.334 395.7 89.4079 395.174L89.4051 395.163Z" fill="#FFADE3" stroke="#26103D" stroke-width="10"/>
</g>
<defs>
<clipPath id="clip0_1793_33">
<rect width="743.766" height="368.023" fill="white" transform="translate(0 192.431) rotate(-14.9944)"/>
</clipPath>
</defs>
</svg>
