<?xml version="1.0" encoding="UTF-8"?>
<!-- Generated by Pixelmator Pro 3.7.1 -->
<svg width="305" height="329" viewBox="0 0 305 329" xmlns="http://www.w3.org/2000/svg">
    <path id="path15-copy" fill="#f98181" stroke="none" d="M 144.552704 106.041931 L 154.141647 9.066925 L 163.730591 106.041931 C 166.347397 132.506821 187.134048 153.5233 213.564194 156.427444 L 296.352936 165.525375 L 213.564194 174.623001 C 187.134048 177.52713 166.347397 198.544907 163.730591 225.008514 L 154.141647 321.983185 L 144.552704 225.008514 C 141.936554 198.544907 121.149261 177.52713 94.719109 174.623001 L 11.929739 165.525375 L 94.719109 156.427444 C 121.149261 153.5233 141.936554 132.506821 144.552704 106.041931 Z"/>
    <path id="path16-copy" fill="#383838" stroke="#efb219" stroke-width="3" stroke-linecap="round" stroke-linejoin="round" d="M 154.142288 327.468872 C 151.326965 327.468872 148.960083 325.332642 148.6819 322.527466 L 139.087814 225.551178 C 136.753052 201.807281 117.832161 182.680283 94.11454 180.072388 L 11.331594 170.974442 C 8.558028 170.669861 6.448782 168.318344 6.448782 165.523132 C 6.448782 162.728882 8.558028 160.377365 11.331594 160.072464 L 94.11454 150.974838 C 117.832161 148.372406 136.753052 129.249603 139.087814 105.50119 L 139.087814 105.50119 L 148.6819 8.525238 C 148.960083 5.720062 151.326965 3.58252 154.142288 3.58252 L 154.142288 3.58252 C 156.958908 3.58252 159.32579 5.720062 159.603973 8.525238 L 169.18779 105.50119 C 171.532822 129.244141 190.454361 148.372406 214.161697 150.974838 L 296.954926 160.072464 C 299.727844 160.377365 301.837738 162.728882 301.837738 165.523132 C 301.837738 168.318344 299.727844 170.669861 296.954926 170.974442 L 214.161697 180.072388 C 190.454361 182.680283 171.532822 201.807281 169.176865 225.551178 L 159.603973 322.527466 C 159.32579 325.332642 156.958908 327.468872 154.142288 327.468872 Z M 62.128906 165.523132 L 95.3134 169.17041 C 124.150261 172.33992 147.150238 195.601257 150.009888 224.46875 L 154.142288 266.269409 L 158.265701 224.46875 C 161.134354 195.601257 184.13562 172.33992 212.961548 169.17041 L 246.155685 165.523132 L 212.961548 161.876495 C 184.13562 158.712769 161.134354 135.455612 158.265701 106.582657 L 154.142288 64.783264 L 150.009888 106.582657 C 147.150238 135.455612 124.150261 158.712769 95.3134 161.876495 L 62.128906 165.523132 Z"/>
</svg>
