<?xml version="1.0" encoding="UTF-8"?>
<!-- Generated by Pixelmator Pro 3.7.1 -->
<svg width="898" height="895" viewBox="0 0 898 895" xmlns="http://www.w3.org/2000/svg">
    <path id="Path" fill="none" stroke="#000000" stroke-width="3" d="M 449.11499 894.948975 C 463.518005 894.948975 477.526001 883.249023 490.471985 861.348022 C 503.377014 839.513 515.033997 807.851013 524.836975 768.640015 C 544.439026 690.231018 556.573975 581.856995 556.573975 462.113037 C 556.573975 342.369995 544.439026 233.997009 524.836975 155.588013 C 515.033997 116.375977 503.377014 84.713989 490.471985 62.880005 C 477.526001 40.978394 463.518005 29.278381 449.11499 29.27832 C 434.712006 29.27832 420.70401 40.978394 407.759003 62.880005 C 394.852997 84.713989 383.196991 116.375977 373.394012 155.588013 C 353.790985 233.997009 341.656006 342.369995 341.656006 462.113037 C 341.656006 581.856995 353.790985 690.231018 373.394012 768.640015 C 383.196991 807.851013 394.852997 839.513 407.759003 861.348022 C 420.70401 883.249023 434.712006 894.948975 449.11499 894.948975 Z"/>
    <path id="path1" fill="none" stroke="#000000" stroke-width="3" d="M 143.054001 768.174988 C 132.869995 757.98999 131.238007 739.812012 137.570999 715.171997 C 143.884003 690.606995 158.029999 659.976013 178.824997 625.317017 C 220.40799 556.013 288.459015 470.799988 373.130005 386.129028 C 457.802002 301.458008 543.013977 233.406982 612.317993 191.823975 C 646.97699 171.028992 677.607971 156.882996 702.172974 150.570007 C 726.812988 144.237 744.991028 145.869019 755.176025 156.052979 C 765.359985 166.238037 766.992004 184.416016 760.658997 209.057007 C 754.346008 233.622009 740.200012 264.252014 719.405029 298.911011 C 677.822021 368.214966 609.770996 453.427979 525.099976 538.098999 C 440.428986 622.77002 355.216003 690.820984 285.911987 732.403992 C 251.252991 753.198975 220.622009 767.344971 196.057007 773.658997 C 171.417007 779.992004 153.238998 778.359985 143.054001 768.174988 Z"/>
    <path id="path2" fill="none" stroke="#000000" stroke-width="3" d="M 74.268997 678.53302 C 67.067993 666.059021 70.195999 648.078003 82.690994 625.916016 C 95.147003 603.822021 116.738998 577.896973 145.796005 549.801025 C 203.898987 493.620972 291.686005 428.924011 395.386993 369.052979 C 499.086975 309.18103 599.008972 265.502991 676.713989 243.275024 C 715.573975 232.158997 748.822021 226.422974 774.184021 226.682007 C 799.624023 226.942017 816.760986 233.223999 823.961975 245.697021 C 831.164001 258.171021 828.034973 276.151978 815.541016 298.313965 C 803.083984 320.407959 781.492981 346.333008 752.435974 374.428955 C 694.333008 430.609009 606.546021 495.304993 502.846008 555.177002 C 399.144989 615.049011 299.221985 658.726013 221.516998 680.955017 C 182.658005 692.070984 149.408997 697.807007 124.046997 697.547974 C 98.608002 697.286987 81.470993 691.005981 74.268997 678.53302 Z"/>
    <path id="path3" fill="none" stroke="#000000" stroke-width="3" d="M 823.965027 678.53302 C 831.166992 666.059021 828.038025 648.078003 815.54303 625.916016 C 803.086975 603.822021 781.495972 577.896973 752.439026 549.801025 C 694.335999 493.620972 606.547974 428.924011 502.848022 369.052979 C 399.147003 309.18103 299.225006 265.502991 221.519989 243.275024 C 182.660004 232.158997 149.412003 226.422974 124.050003 226.682007 C 98.610001 226.942017 81.473999 233.223999 74.272003 245.697021 C 67.070007 258.171021 70.199005 276.151978 82.694 298.313965 C 95.149994 320.407959 116.742004 346.333008 145.798996 374.428955 C 203.901001 430.609009 291.687988 495.304993 395.389008 555.177002 C 499.088989 615.049011 599.012024 658.726013 676.71698 680.955017 C 715.577026 692.070984 748.825012 697.807007 774.187012 697.547974 C 799.627014 697.286987 816.763 691.005981 823.965027 678.53302 Z"/>
    <path id="path4" fill="none" stroke="#000000" stroke-width="3" d="M 867.198975 574.140015 C 870.927002 560.228027 863.250977 543.669006 845.445984 525.495972 C 827.695984 507.379028 800.130005 487.924988 764.791992 468.307007 C 694.127991 429.078979 592.586975 389.307983 476.924011 358.31604 C 361.260986 327.325012 253.438995 310.997009 172.628998 309.638 C 132.216003 308.958008 98.615997 312.02301 74.186005 318.837036 C 49.68 325.672974 34.753098 336.174988 31.0252 350.088013 C 27.297401 364 34.973198 380.55896 52.778 398.731995 C 70.528 416.848999 98.093994 436.302979 133.432999 455.921021 C 204.096008 495.148987 305.635986 534.919006 421.299011 565.911011 C 536.961975 596.903015 644.784973 613.231018 725.594971 614.590027 C 766.007996 615.27002 799.607971 612.205017 824.039001 605.390015 C 848.544006 598.554993 863.471008 588.052002 867.198975 574.140015 Z"/>
    <path id="path5" fill="none" stroke="#000000" stroke-width="3" d="M 31.027496 574.140015 C 27.299698 560.228027 34.975601 543.669006 52.779999 525.495972 C 70.531006 507.379028 98.095993 487.924988 133.434998 468.307007 C 204.098999 429.078979 305.639008 389.307983 421.302002 358.31604 C 536.965027 327.325012 644.786987 310.997009 725.596985 309.638 C 766.01001 308.958008 799.609985 312.02301 824.041016 318.837036 C 848.546997 325.672974 863.473022 336.174988 867.200989 350.088013 C 870.929016 364 863.252991 380.55896 845.448975 398.731995 C 827.697998 416.848999 800.132019 436.302979 764.794006 455.921021 C 694.130005 495.148987 592.590027 534.919006 476.927002 565.911011 C 361.264008 596.903015 253.441986 613.231018 172.630997 614.590027 C 132.218002 615.27002 98.619003 612.205017 74.188004 605.390015 C 49.681999 598.554993 34.755302 588.052002 31.027496 574.140015 Z"/>
    <path id="path6" fill="none" stroke="#000000" stroke-width="3" d="M 755.171997 768.174988 C 765.356995 757.98999 766.989014 739.812012 760.656006 715.171997 C 754.34198 690.606995 740.197021 659.976013 719.401001 625.317017 C 677.81897 556.013 609.767029 470.799988 525.096008 386.129028 C 440.424988 301.458008 355.212006 233.406982 285.90799 191.823975 C 251.25 171.028992 220.618988 156.882996 196.053986 150.570007 C 171.414001 144.237 153.235001 145.869019 143.050995 156.052979 C 132.865997 166.238037 131.233994 184.416016 137.567001 209.057007 C 143.880997 233.622009 158.026993 264.252014 178.822006 298.911011 C 220.403992 368.214966 288.454987 453.427979 373.126007 538.098999 C 457.797974 622.77002 543.010986 690.820984 612.315002 732.403992 C 646.973999 753.198975 677.604004 767.344971 702.169006 773.658997 C 726.809021 779.992004 744.987976 778.359985 755.171997 768.174988 Z"/>
    <path id="path7" fill="none" stroke="#000000" stroke-width="3" d="M 665.530029 836.960999 C 678.002991 829.758972 684.284973 812.622986 684.544983 787.182983 C 684.804016 761.820984 679.067993 728.572998 667.952026 689.713013 C 645.723999 612.007996 602.046021 512.085022 542.174011 408.38501 C 482.302002 304.68396 417.605988 216.896973 361.425995 158.794983 C 333.329987 129.738037 307.404999 108.145996 285.311005 95.690002 C 263.148987 83.195007 245.167999 80.067017 232.694 87.268005 C 220.221008 94.469971 213.940002 111.606018 213.678986 137.046021 C 213.420013 162.40802 219.156006 195.656006 230.272003 234.515991 C 252.501007 312.221008 296.178009 412.143005 356.049988 515.843994 C 415.92099 619.544006 480.617981 707.33197 536.797974 765.434998 C 564.893982 794.492004 590.81897 816.083008 612.913025 828.539978 C 635.075012 841.033997 653.05603 844.163025 665.530029 836.960999 Z"/>
    <path id="path8" fill="none" stroke="#000000" stroke-width="3" d="M 232.696991 836.960999 C 220.222992 829.758972 213.941986 812.622986 213.682007 787.182983 C 213.421997 761.820984 219.15799 728.572998 230.274994 689.713013 C 252.502991 612.007996 296.181 512.085022 356.053009 408.38501 C 415.924011 304.68396 480.619995 216.896973 536.801025 158.794983 C 564.895996 129.738037 590.822021 108.145996 612.916016 95.690002 C 635.077026 83.195007 653.059021 80.067017 665.531982 87.268005 C 678.005981 94.469971 684.286987 111.606018 684.546997 137.046021 C 684.807007 162.40802 679.070984 195.656006 667.953979 234.515991 C 645.726013 312.221008 602.047974 412.143005 542.177002 515.843994 C 482.304993 619.544006 417.609009 707.33197 361.428009 765.434998 C 333.333008 794.492004 307.407013 816.083008 285.312988 828.539978 C 263.152008 841.033997 245.170013 844.163025 232.696991 836.960999 Z"/>
    <path id="path9" fill="none" stroke="#000000" stroke-width="3" d="M 561.14502 880.200989 C 575.057983 876.473022 585.559998 861.546021 592.395996 837.041016 C 599.210022 812.609985 602.275024 779.01001 601.594971 738.596985 C 600.236023 657.786987 583.90802 549.963989 552.916016 434.301025 C 521.924988 318.638 482.153992 217.098022 442.925995 146.434998 C 423.308014 111.096008 403.854004 83.530029 385.737 65.780029 C 367.563995 47.975281 351.005005 40.2995 337.092987 44.027222 C 323.181 47.755127 312.678009 62.682007 305.84201 87.187988 C 299.028015 111.617981 295.963013 145.218018 296.643005 185.630981 C 298.002014 266.44104 314.329987 374.263 345.321991 489.926025 C 376.312988 605.588989 416.084015 707.130005 455.312012 777.794006 C 474.929993 813.132019 494.383972 840.697998 512.500977 858.447998 C 530.674011 876.252991 547.232971 883.929016 561.14502 880.200989 Z"/>
    <path id="path10" fill="none" stroke="#000000" stroke-width="3" d="M 337.088989 880.200989 C 323.177002 876.473022 312.674011 861.546021 305.838989 837.041016 C 299.023987 812.609985 295.959015 779.01001 296.639008 738.596985 C 297.997986 657.786987 314.325989 549.963989 345.317993 434.301025 C 376.309998 318.638 416.080994 217.098022 455.309021 146.434998 C 474.926025 111.096008 494.380005 83.530029 512.497009 65.780029 C 530.669983 47.975281 547.229004 40.2995 561.140991 44.027222 C 575.054016 47.755127 585.55603 62.682007 592.392029 87.187988 C 599.20697 111.617981 602.270996 145.218018 601.59198 185.630981 C 600.231995 266.44104 583.905029 374.263 552.913025 489.926025 C 521.921021 605.588989 482.150024 707.130005 442.921997 777.794006 C 423.303986 813.132019 403.850006 840.697998 385.733002 858.447998 C 367.561005 876.252991 351.002014 883.929016 337.088989 880.200989 Z"/>
    <path id="path11" fill="none" stroke="#000000" stroke-width="3" d="M 881.960999 462.117004 C 881.960999 447.713989 870.260986 433.705994 848.359009 420.760986 C 826.525024 407.85498 794.862976 396.197998 755.651001 386.39502 C 677.242981 366.792969 568.867981 354.657959 449.125 354.657959 C 329.381989 354.657959 221.007996 366.792969 142.600006 386.39502 C 103.388 396.197998 71.725998 407.85498 49.891998 420.760986 C 27.989998 433.705994 16.290001 447.713989 16.289902 462.117004 C 16.289902 476.52002 27.989998 490.528015 49.891998 503.473999 C 71.725998 516.379028 103.388 528.036011 142.600006 537.838989 C 221.007996 557.440979 329.381989 569.575989 449.125 569.575989 C 568.867981 569.575989 677.242981 557.440979 755.651001 537.838989 C 794.862976 528.036011 826.525024 516.379028 848.359009 503.473999 C 870.260986 490.528015 881.960999 476.52002 881.960999 462.117004 Z"/>
</svg>
