<svg width="606" height="606" viewBox="0 0 606 606" fill="none" xmlns="http://www.w3.org/2000/svg">
<g clip-path="url(#clip0_1793_49)" filter="url(#filter0_dd_1793_49)">
<path d="M303.003 16.0967C303.192 18.3345 303.375 20.7768 303.552 23.3955C304.488 37.2651 305.242 55.7826 305.995 74.374C306.747 92.9365 307.497 111.573 308.424 125.596C308.887 132.596 309.398 138.52 309.985 142.734C310.276 144.822 310.602 146.611 310.985 147.935C311.171 148.577 311.418 149.28 311.771 149.888C312.007 150.293 312.874 151.698 314.66 151.838C316.447 151.977 317.521 150.723 317.816 150.359C318.26 149.814 318.613 149.158 318.896 148.553C319.481 147.305 320.08 145.588 320.692 143.571C321.928 139.499 323.354 133.725 324.898 126.881C327.993 113.171 331.628 94.8767 335.251 76.6543C338.88 58.4033 342.496 40.2246 345.565 26.665C346.104 24.2867 346.624 22.0597 347.122 20.0059C346.965 22.1128 346.777 24.3914 346.559 26.8193C345.315 40.6659 343.173 59.0767 341.021 77.5605C338.873 96.0154 336.716 114.543 335.452 128.542C334.821 135.531 334.406 141.465 334.333 145.721C334.297 147.828 334.342 149.647 334.516 151.015C334.6 151.678 334.736 152.412 334.991 153.068C335.163 153.508 335.801 155.024 337.539 155.44C339.277 155.856 340.534 154.793 340.886 154.479C341.411 154.009 341.864 153.417 342.239 152.863C343.013 151.722 343.876 150.121 344.798 148.225C346.659 144.397 348.974 138.919 351.574 132.401C356.783 119.347 363.243 101.85 369.68 84.4219C376.126 66.9666 382.548 49.5806 387.706 36.6709C388.601 34.4303 389.456 32.3336 390.263 30.4004C389.78 32.4373 389.241 34.6352 388.649 36.9727C385.239 50.4486 380.223 68.2897 375.186 86.2021C370.156 104.087 365.106 122.043 361.653 135.667C359.929 142.469 358.586 148.262 357.844 152.454C357.476 154.53 357.234 156.333 357.19 157.712C357.169 158.381 357.187 159.127 357.337 159.815C357.434 160.264 357.807 161.776 359.328 162.492L359.479 162.559C361.129 163.243 362.536 162.394 362.936 162.138C363.529 161.757 364.07 161.243 364.528 160.756C365.473 159.751 366.578 158.305 367.787 156.578C370.228 153.091 373.377 148.046 376.972 142.02C384.171 129.949 393.307 113.687 402.407 97.4902C411.522 81.2679 420.602 65.1105 427.729 53.1748C428.983 51.0735 430.174 49.1116 431.288 47.3086C430.481 49.2693 429.591 51.3854 428.625 53.6348C423.139 66.4088 415.378 83.241 407.586 100.141C399.806 117.014 391.993 133.954 386.438 146.869C383.665 153.317 381.426 158.829 380.032 162.854C379.342 164.847 378.819 166.591 378.559 167.946C378.432 168.604 378.332 169.343 378.371 170.046C378.397 170.518 378.532 172.153 380.045 173.091C381.567 174.034 383.096 173.417 383.531 173.227C384.177 172.944 384.792 172.521 385.321 172.111C386.412 171.268 387.73 170.014 389.194 168.498C392.151 165.438 396.05 160.95 400.544 155.562C409.545 144.769 421.116 130.138 432.643 115.565C444.187 100.97 455.688 86.434 464.599 75.7607C466.186 73.859 467.685 72.0871 469.083 70.4648C467.97 72.2927 466.748 74.2642 465.428 76.3584C458.014 88.1184 447.72 103.532 437.384 119.007C427.064 134.458 416.702 149.969 409.2 161.859C405.455 167.795 402.383 172.89 400.38 176.649C399.388 178.511 398.599 180.153 398.132 181.453C397.905 182.084 397.691 182.8 397.621 183.502C397.573 183.978 397.458 185.608 398.805 186.768C400.158 187.932 401.758 187.567 402.223 187.446C402.907 187.269 403.582 186.947 404.169 186.625C405.379 185.962 406.877 184.929 408.561 183.66C411.96 181.099 416.513 177.273 421.792 172.65C432.366 163.392 446.074 150.741 459.729 138.141C473.406 125.521 487.03 112.952 497.494 103.797C499.38 102.147 501.156 100.614 502.805 99.2168C501.408 100.865 499.877 102.641 498.228 104.526C489.073 114.989 476.505 128.612 463.886 142.288C451.286 155.943 438.636 169.651 429.377 180.226C424.754 185.505 420.928 190.058 418.365 193.458C417.096 195.142 416.063 196.64 415.399 197.851C415.077 198.438 414.755 199.113 414.577 199.797C414.456 200.262 414.09 201.859 415.249 203.212C416.407 204.564 418.041 204.449 418.518 204.401C419.22 204.332 419.936 204.118 420.566 203.892C421.866 203.424 423.507 202.636 425.368 201.645C429.126 199.642 434.219 196.57 440.153 192.825C452.04 185.323 467.55 174.96 482.999 164.639C498.473 154.301 513.886 144.006 525.648 136.592C527.787 135.244 529.797 133.996 531.657 132.864C530.012 134.283 528.212 135.808 526.276 137.424C515.605 146.332 501.067 157.829 486.47 169.371C471.895 180.895 457.261 192.463 446.466 201.465C441.076 205.959 436.587 209.86 433.525 212.819C432.009 214.285 430.754 215.604 429.91 216.696C429.501 217.226 429.077 217.843 428.795 218.49C428.603 218.93 427.992 220.452 428.927 221.97C429.86 223.484 431.49 223.626 431.969 223.653C432.673 223.694 433.414 223.595 434.072 223.47C435.429 223.211 437.173 222.689 439.166 222C443.19 220.609 448.702 218.369 455.148 215.597C468.06 210.043 484.997 202.229 501.866 194.447C518.763 186.653 535.592 178.892 548.364 173.406C550.644 172.427 552.786 171.525 554.77 170.71C552.946 171.837 550.959 173.041 548.829 174.312C536.893 181.43 520.735 190.498 504.511 199.604C488.313 208.694 472.049 217.823 459.977 225.026C453.95 228.622 448.904 231.777 445.416 234.227C443.688 235.44 442.24 236.552 441.234 237.505C440.746 237.968 440.231 238.514 439.852 239.113C439.587 239.532 438.771 240.921 439.435 242.548C440.103 244.187 441.672 244.602 442.158 244.712C442.852 244.869 443.604 244.892 444.275 244.874C445.659 244.837 447.467 244.599 449.544 244.234C453.738 243.499 459.533 242.158 466.335 240.435C479.959 236.983 497.913 231.923 515.795 226.883C533.706 221.835 551.545 216.806 565.021 213.389C567.416 212.781 569.666 212.227 571.745 211.734C569.773 212.557 567.629 213.432 565.333 214.348C552.421 219.5 535.032 225.911 517.572 232.346C500.14 238.77 482.639 245.22 469.585 250.422C463.068 253.019 457.589 255.332 453.763 257.194C451.868 258.116 450.266 258.98 449.125 259.758C448.571 260.135 447.977 260.59 447.508 261.12C447.187 261.483 446.139 262.744 446.563 264.477C446.985 266.197 448.483 266.835 448.931 267.011C449.588 267.268 450.323 267.405 450.988 267.49C452.359 267.666 454.181 267.712 456.291 267.677C460.551 267.605 466.486 267.189 473.476 266.557C487.476 265.29 506.002 263.125 524.453 260.97C542.934 258.811 561.34 256.664 575.183 255.42C577.699 255.194 580.054 254.998 582.225 254.838C580.109 255.352 577.805 255.891 575.339 256.448C561.779 259.512 543.6 263.117 525.348 266.734C507.124 270.346 488.827 273.972 475.116 277.064C468.271 278.608 462.496 280.035 458.423 281.275C456.406 281.89 454.687 282.493 453.438 283.083C452.831 283.369 452.173 283.726 451.626 284.176C451.251 284.484 450.023 285.56 450.162 287.331C450.302 289.1 451.681 289.97 452.099 290.217C452.708 290.576 453.414 290.827 454.058 291.016C455.384 291.405 457.175 291.734 459.264 292.028C463.48 292.623 469.407 293.139 476.408 293.604C490.432 294.537 509.068 295.286 527.63 296.033C546.221 296.782 564.738 297.529 578.607 298.459C581.225 298.634 583.666 298.815 585.902 299.003C583.665 299.192 581.223 299.375 578.604 299.552C564.735 300.487 546.217 301.242 527.625 301.995C509.063 302.747 490.427 303.497 476.404 304.424C469.403 304.887 463.479 305.398 459.265 305.985C457.177 306.276 455.389 306.602 454.065 306.985C453.423 307.171 452.72 307.418 452.112 307.771C451.72 308 450.388 308.82 450.179 310.495L450.162 310.66C450.023 312.446 451.276 313.521 451.64 313.816C452.185 314.26 452.842 314.613 453.447 314.896C454.695 315.481 456.412 316.08 458.429 316.692C462.501 317.928 468.275 319.354 475.119 320.898C488.829 323.993 507.123 327.628 525.346 331.251C543.597 334.88 561.775 338.496 575.335 341.565C577.712 342.104 579.939 342.623 581.992 343.121C579.886 342.964 577.608 342.777 575.181 342.559C561.334 341.315 542.923 339.173 524.439 337.021C505.985 334.873 487.457 332.716 473.458 331.452C466.469 330.821 460.535 330.407 456.279 330.334C454.172 330.298 452.353 330.342 450.985 330.516C450.322 330.6 449.588 330.736 448.932 330.991C448.505 331.157 447.069 331.762 446.602 333.38L446.56 333.54C446.144 335.278 447.207 336.534 447.521 336.886C447.991 337.411 448.583 337.864 449.137 338.239C450.278 339.013 451.879 339.876 453.775 340.798C457.603 342.659 463.081 344.974 469.599 347.574C482.653 352.783 500.15 359.243 517.578 365.68C535.033 372.126 552.419 378.548 565.329 383.706C567.57 384.601 569.666 385.456 571.6 386.263C569.563 385.78 567.365 385.241 565.027 384.649C551.551 381.239 533.71 376.223 515.798 371.186C497.913 366.156 479.957 361.106 466.333 357.653C459.531 355.929 453.738 354.586 449.546 353.844C447.47 353.476 445.667 353.234 444.288 353.19C443.619 353.169 442.873 353.187 442.185 353.337C441.736 353.434 440.224 353.807 439.508 355.328L439.441 355.479C438.757 357.129 439.606 358.536 439.862 358.936C440.243 359.529 440.757 360.07 441.244 360.528C442.249 361.473 443.695 362.578 445.422 363.787C448.909 366.228 453.954 369.377 459.98 372.972C472.051 380.171 488.313 389.307 504.51 398.407C520.732 407.522 536.89 416.602 548.825 423.729C550.928 424.984 552.891 426.174 554.694 427.289C552.733 426.482 550.616 425.592 548.365 424.625C535.591 419.139 518.759 411.378 501.859 403.586C484.986 395.806 468.046 387.993 455.131 382.438C448.683 379.665 443.171 377.426 439.146 376.032C437.153 375.342 435.41 374.819 434.055 374.559C433.397 374.432 432.657 374.332 431.954 374.371C431.482 374.397 429.847 374.532 428.909 376.045C427.966 377.567 428.583 379.096 428.773 379.531C429.056 380.177 429.479 380.792 429.889 381.321C430.732 382.412 431.986 383.73 433.502 385.194C436.562 388.151 441.05 392.05 446.438 396.544C457.231 405.545 471.862 417.116 486.435 428.643C501.03 440.187 515.566 451.688 526.239 460.599C528.141 462.186 529.912 463.685 531.534 465.083C529.707 463.97 527.736 462.748 525.642 461.428C513.882 454.014 498.468 443.72 482.993 433.384C467.542 423.064 452.031 412.702 440.141 405.2C434.205 401.455 429.11 398.383 425.351 396.38C423.489 395.388 421.847 394.599 420.547 394.132C419.916 393.905 419.2 393.691 418.498 393.621C418.052 393.576 416.591 393.472 415.455 394.568L415.232 394.805C414.068 396.157 414.433 397.757 414.554 398.223C414.731 398.907 415.053 399.582 415.375 400.169C416.038 401.379 417.071 402.878 418.34 404.562C420.901 407.961 424.727 412.513 429.35 417.792C438.608 428.366 451.259 442.074 463.859 455.729C476.479 469.406 489.048 483.03 498.203 493.494C499.853 495.379 501.385 497.155 502.782 498.804C501.134 497.407 499.357 495.877 497.473 494.228C487.01 485.073 473.387 472.505 459.711 459.886C446.056 447.287 432.349 434.636 421.774 425.377C416.495 420.754 411.942 416.928 408.542 414.365C406.858 413.096 405.359 412.063 404.148 411.399C403.561 411.078 402.886 410.755 402.203 410.577C401.739 410.456 400.141 410.09 398.788 411.249C397.436 412.407 397.55 414.041 397.598 414.518C397.667 415.22 397.881 415.936 398.107 416.566C398.575 417.866 399.364 419.507 400.355 421.368C402.358 425.126 405.43 430.219 409.175 436.153C416.677 448.04 427.04 463.55 437.361 478.999C447.699 494.473 457.994 509.886 465.408 521.648C466.756 523.787 468.003 525.797 469.135 527.657C467.716 526.012 466.192 524.212 464.576 522.276C455.668 511.605 444.171 497.067 432.629 482.47C421.105 467.895 409.537 453.261 400.535 442.466C396.041 437.076 392.14 432.587 389.181 429.525C387.715 428.009 386.396 426.754 385.304 425.91C384.774 425.501 384.157 425.077 383.51 424.795C383.07 424.603 381.548 423.992 380.03 424.927C378.516 425.86 378.374 427.49 378.347 427.969C378.306 428.673 378.405 429.414 378.53 430.072C378.789 431.429 379.311 433.173 380 435.166C381.391 439.19 383.631 444.702 386.403 451.148C391.957 464.061 399.772 480.997 407.554 497.866C415.348 514.763 423.108 531.592 428.594 544.364C429.573 546.644 430.474 548.787 431.289 550.77C430.163 548.946 428.959 546.959 427.688 544.829C420.57 532.893 411.502 516.736 402.396 500.512C393.306 484.313 384.177 468.049 376.974 455.977C373.378 449.95 370.223 444.904 367.773 441.416C366.56 439.688 365.448 438.241 364.495 437.234C364.032 436.746 363.486 436.231 362.887 435.852C362.495 435.603 361.249 434.871 359.754 435.327L359.452 435.435C357.813 436.103 357.398 437.672 357.288 438.158C357.131 438.852 357.108 439.604 357.126 440.275C357.163 441.659 357.401 443.467 357.766 445.544C358.501 449.738 359.842 455.533 361.565 462.335C365.017 475.959 370.077 493.913 375.117 511.795C380.165 529.706 385.194 547.546 388.611 561.021C389.219 563.417 389.772 565.666 390.265 567.745C389.442 565.773 388.568 563.628 387.652 561.333C382.5 548.421 376.089 531.032 369.654 513.572C363.23 496.14 356.78 478.639 351.578 465.585C348.981 459.068 346.668 453.589 344.806 449.763C343.884 447.868 343.02 446.266 342.242 445.125C341.865 444.571 341.409 443.977 340.879 443.508C340.527 443.196 339.334 442.203 337.685 442.527L337.523 442.563C335.803 442.985 335.165 444.483 334.989 444.931C334.732 445.588 334.595 446.323 334.51 446.988C334.334 448.359 334.288 450.181 334.323 452.291C334.395 456.551 334.81 462.486 335.442 469.476C336.709 483.476 338.875 502.002 341.03 520.453C343.189 538.933 345.336 557.339 346.58 571.182C346.806 573.698 347.001 576.053 347.161 578.224C346.647 576.108 346.109 573.805 345.552 571.339C342.488 557.779 338.883 539.6 335.266 521.348C331.654 503.124 328.028 484.827 324.936 471.116C323.392 464.271 321.965 458.497 320.725 454.424C320.11 452.406 319.507 450.687 318.917 449.438C318.631 448.831 318.274 448.173 317.824 447.626C317.535 447.274 316.572 446.174 314.993 446.152L314.669 446.163C312.9 446.303 312.03 447.68 311.783 448.099C311.424 448.708 311.173 449.414 310.984 450.058C310.595 451.384 310.266 453.175 309.972 455.264C309.377 459.48 308.861 465.407 308.396 472.408C307.463 486.432 306.714 505.069 305.967 523.631C305.218 542.222 304.471 560.738 303.541 574.607C303.366 577.225 303.184 579.666 302.996 581.902C302.807 579.665 302.625 577.223 302.448 574.604C301.512 560.735 300.758 542.217 300.005 523.626C299.253 505.064 298.503 486.427 297.576 472.404C297.113 465.404 296.602 459.48 296.015 455.266C295.724 453.178 295.398 451.389 295.015 450.065C294.829 449.423 294.582 448.72 294.229 448.112C294 447.72 293.18 446.389 291.505 446.18L291.34 446.162L291.175 446.153C289.487 446.1 288.47 447.289 288.184 447.641C287.74 448.186 287.387 448.842 287.104 449.447C286.519 450.695 285.92 452.412 285.308 454.429C284.072 458.501 282.646 464.275 281.102 471.119C278.007 484.829 274.372 503.123 270.749 521.346C267.12 539.597 263.504 557.775 260.435 571.335C259.896 573.713 259.376 575.939 258.878 577.992C259.035 575.886 259.223 573.608 259.441 571.181C260.685 557.334 262.827 538.923 264.979 520.439C267.127 501.985 269.284 483.457 270.548 469.458C271.179 462.469 271.594 456.535 271.667 452.279C271.703 450.172 271.658 448.353 271.484 446.985C271.4 446.322 271.264 445.588 271.009 444.932C270.843 444.505 270.238 443.069 268.62 442.602L268.461 442.56L268.299 442.524C266.645 442.209 265.455 443.217 265.114 443.521C264.589 443.991 264.136 444.583 263.761 445.137C262.987 446.278 262.124 447.879 261.202 449.775C259.341 453.603 257.026 459.081 254.426 465.599C249.217 478.653 242.757 496.15 236.32 513.578C229.874 531.033 223.452 548.419 218.294 561.329C217.399 563.569 216.543 565.666 215.736 567.599C216.219 565.562 216.76 563.365 217.352 561.027C220.762 547.551 225.777 529.71 230.814 511.798C235.844 493.914 240.894 475.958 244.347 462.334C246.071 455.532 247.414 449.738 248.156 445.546C248.524 443.47 248.766 441.667 248.81 440.288C248.831 439.619 248.813 438.873 248.663 438.185C248.562 437.721 248.169 436.126 246.521 435.441C244.871 434.757 243.464 435.606 243.064 435.862C242.472 436.243 241.93 436.757 241.472 437.244C240.527 438.249 239.422 439.695 238.213 441.422C235.772 444.909 232.623 449.954 229.028 455.98C221.829 468.051 212.693 484.313 203.593 500.51C194.478 516.732 185.398 532.889 178.271 544.825C177.017 546.926 175.825 548.887 174.711 550.69C175.518 548.73 176.409 546.614 177.375 544.365C182.861 531.591 190.622 514.759 198.414 497.859C206.194 480.986 214.007 464.046 219.562 451.131C222.335 444.683 224.574 439.171 225.968 435.146C226.658 433.153 227.181 431.41 227.441 430.055C227.568 429.397 227.668 428.657 227.629 427.954C227.604 427.496 227.476 425.949 226.093 425L225.955 424.909L225.812 424.825C224.339 424.004 222.891 424.589 222.469 424.773C221.823 425.056 221.208 425.479 220.679 425.889C219.588 426.732 218.27 427.986 216.806 429.502C213.849 432.562 209.95 437.05 205.456 442.438C196.455 453.231 184.884 467.862 173.357 482.435C161.813 497.03 150.313 511.566 141.402 522.239C139.815 524.141 138.314 525.912 136.916 527.534C138.029 525.706 139.252 523.736 140.572 521.642C147.986 509.882 158.28 494.468 168.616 478.993C178.936 463.542 189.298 448.031 196.8 436.141C200.545 430.205 203.617 425.11 205.62 421.351C206.612 419.489 207.401 417.847 207.868 416.547C208.095 415.916 208.309 415.2 208.379 414.498C208.424 414.052 208.528 412.591 207.432 411.455L207.196 411.232L207.068 411.128C205.744 410.09 204.228 410.437 203.777 410.554C203.093 410.731 202.418 411.053 201.831 411.375C200.621 412.038 199.123 413.071 197.439 414.34C194.04 416.901 189.487 420.727 184.208 425.35C173.634 434.608 159.926 447.259 146.271 459.859C132.594 472.479 118.97 485.048 108.506 494.203C106.62 495.853 104.844 497.385 103.194 498.782C104.591 497.134 106.123 495.359 107.772 493.474C116.927 483.011 129.495 469.388 142.114 455.712C154.714 442.057 167.364 428.349 176.623 417.774C181.246 412.495 185.072 407.942 187.635 404.542C188.904 402.858 189.937 401.36 190.601 400.149C190.923 399.562 191.245 398.887 191.423 398.203C191.54 397.753 191.887 396.24 190.854 394.916L190.751 394.788L190.641 394.666C189.492 393.444 187.945 393.553 187.482 393.599C186.78 393.668 186.064 393.882 185.434 394.108C184.134 394.576 182.493 395.364 180.632 396.355C176.874 398.358 171.781 401.43 165.847 405.175C153.96 412.677 138.45 423.04 123.001 433.361C107.527 443.699 92.1137 453.994 80.3516 461.408C78.2128 462.756 76.2026 464.003 74.3418 465.135C75.9871 463.716 77.788 462.192 79.7236 460.576C90.3951 451.668 104.933 440.171 119.53 428.629C134.105 417.105 148.739 405.537 159.534 396.535C164.924 392.041 169.413 388.14 172.475 385.181C173.991 383.715 175.246 382.396 176.09 381.304C176.499 380.774 176.923 380.157 177.205 379.51C177.391 379.083 177.97 377.642 177.156 376.173L177.073 376.03L176.891 375.763C175.941 374.499 174.48 374.373 174.031 374.347C173.327 374.306 172.586 374.405 171.928 374.53C170.571 374.789 168.827 375.311 166.834 376C162.81 377.391 157.298 379.631 150.852 382.403C137.939 387.957 121.003 395.772 104.134 403.554C87.2375 411.348 70.4079 419.108 57.6357 424.594C55.3375 425.581 53.179 426.488 51.1826 427.309C53.019 426.172 55.0229 424.958 57.1719 423.675C69.1076 416.549 85.2657 407.474 101.489 398.363C117.687 389.267 133.951 380.135 146.022 372.937C152.049 369.343 157.095 366.193 160.582 363.75C162.309 362.54 163.755 361.434 164.76 360.486C165.248 360.027 165.762 359.484 166.143 358.889C166.402 358.483 167.24 357.079 166.56 355.437C165.878 353.793 164.291 353.394 163.821 353.291C163.131 353.139 162.384 353.12 161.714 353.141C160.333 353.182 158.529 353.425 156.452 353.792C152.259 354.533 146.465 355.878 139.664 357.604C126.041 361.059 108.088 366.116 90.2061 371.15C72.2956 376.193 54.4561 381.213 40.9805 384.623C38.5649 385.234 36.2988 385.79 34.2051 386.285C36.1908 385.456 38.3523 384.576 40.667 383.652C53.5785 378.5 70.9683 372.089 88.4277 365.654C105.86 359.23 123.362 352.78 136.416 347.578C142.933 344.981 148.411 342.668 152.237 340.806C154.132 339.884 155.734 339.02 156.875 338.242C157.429 337.865 158.023 337.41 158.492 336.88C158.803 336.529 159.797 335.334 159.473 333.685L159.437 333.523L159.346 333.214C158.832 331.725 157.489 331.154 157.069 330.989C156.412 330.732 155.677 330.595 155.012 330.51C153.641 330.334 151.819 330.288 149.709 330.323C145.449 330.395 139.514 330.811 132.524 331.443C118.524 332.71 99.9982 334.875 81.5469 337.03C63.0664 339.189 44.6604 341.336 30.8174 342.58C28.3008 342.806 25.9449 343.001 23.7744 343.161C25.8907 342.647 28.1948 342.109 30.6611 341.552C44.2205 338.488 62.3998 334.883 80.6523 331.266C98.8761 327.654 117.173 324.028 130.884 320.936C137.729 319.392 143.504 317.965 147.577 316.725C149.594 316.11 151.313 315.507 152.562 314.917C153.169 314.631 153.827 314.274 154.374 313.824C154.726 313.535 155.827 312.572 155.849 310.993L155.838 310.669L155.798 310.348C155.53 308.793 154.293 308.014 153.901 307.783C153.292 307.424 152.586 307.173 151.942 306.984C150.616 306.595 148.825 306.266 146.736 305.972C142.52 305.377 136.593 304.861 129.592 304.396C115.568 303.463 96.9318 302.714 78.3701 301.967C59.7787 301.218 41.2617 300.471 27.3926 299.541C24.775 299.366 22.3337 299.184 20.0967 298.996C22.3345 298.807 24.7768 298.625 27.3955 298.448C41.2653 297.513 59.7834 296.758 78.375 296.005C96.9373 295.253 115.573 294.503 129.596 293.576C136.597 293.113 142.521 292.602 146.735 292.015C148.823 291.724 150.611 291.398 151.935 291.015C152.577 290.829 153.28 290.582 153.888 290.229C154.293 289.993 155.698 289.126 155.838 287.34C155.977 285.554 154.724 284.479 154.36 284.184C153.815 283.74 153.158 283.387 152.553 283.104C151.305 282.519 149.588 281.92 147.571 281.308C143.499 280.072 137.726 278.646 130.882 277.102C117.172 274.007 98.8769 270.372 80.6543 266.749C62.4033 263.12 44.2247 259.504 30.665 256.435C28.2871 255.896 26.0604 255.376 24.0068 254.878C26.1135 255.035 28.3917 255.223 30.8193 255.441C44.6659 256.685 63.0766 258.827 81.5605 260.979C100.015 263.127 118.543 265.284 132.542 266.548C139.531 267.179 145.465 267.593 149.721 267.666C151.828 267.702 153.647 267.658 155.015 267.484C155.678 267.4 156.412 267.264 157.068 267.009C157.508 266.837 159.025 266.198 159.44 264.46C159.856 262.722 158.793 261.466 158.479 261.114C158.009 260.589 157.417 260.136 156.863 259.761C155.722 258.987 154.121 258.124 152.225 257.202C148.397 255.341 142.919 253.026 136.401 250.426C123.347 245.217 105.85 238.757 88.4219 232.32C70.9666 225.874 53.5806 219.452 40.6709 214.294C38.4299 213.399 36.333 212.543 34.3994 211.736C36.4367 212.219 38.6347 212.76 40.9727 213.352C54.4486 216.762 72.2898 221.777 90.2021 226.814C108.087 231.844 126.043 236.894 139.667 240.347C146.469 242.071 152.262 243.414 156.454 244.156C158.53 244.524 160.333 244.766 161.712 244.81C162.381 244.831 163.127 244.813 163.815 244.663C164.264 244.566 165.776 244.193 166.492 242.672L166.559 242.521C167.243 240.871 166.394 239.464 166.138 239.064C165.757 238.472 165.243 237.93 164.756 237.472C163.751 236.527 162.305 235.422 160.578 234.213C157.091 231.772 152.046 228.623 146.02 225.028C133.949 217.829 117.687 208.693 101.49 199.593C85.268 190.478 69.1105 181.398 57.1748 174.271C55.0712 173.015 53.1074 171.824 51.3027 170.708C53.2653 171.515 55.3828 172.408 57.6348 173.375C70.4088 178.861 87.241 186.622 104.141 194.414C121.014 202.194 137.954 210.007 150.869 215.562C157.317 218.335 162.829 220.574 166.854 221.968C168.847 222.658 170.591 223.181 171.946 223.441C172.604 223.568 173.343 223.668 174.046 223.629C174.518 223.603 176.153 223.468 177.091 221.955C178.034 220.433 177.417 218.904 177.227 218.469C176.944 217.823 176.521 217.208 176.111 216.679C175.268 215.588 174.014 214.27 172.498 212.806C169.438 209.849 164.95 205.95 159.562 201.456C148.769 192.455 134.138 180.884 119.565 169.357C104.97 157.813 90.4339 146.313 79.7607 137.402C77.8588 135.815 76.0872 134.314 74.4648 132.916C76.2928 134.029 78.264 135.252 80.3584 136.572C92.1184 143.986 107.532 154.28 123.007 164.616C138.458 174.936 153.969 185.298 165.859 192.8C171.795 196.545 176.89 199.617 180.649 201.62C182.511 202.612 184.153 203.401 185.453 203.868C186.084 204.095 186.8 204.309 187.502 204.379C187.978 204.427 189.608 204.542 190.768 203.195C191.932 201.843 191.567 200.242 191.446 199.777C191.269 199.093 190.947 198.418 190.625 197.831C189.962 196.621 188.929 195.122 187.66 193.438C185.099 190.039 181.273 185.487 176.65 180.208C167.392 169.634 154.741 155.926 142.141 142.271C129.521 128.594 116.952 114.97 107.797 104.506C106.147 102.62 104.614 100.844 103.217 99.1943C104.866 100.591 106.642 102.123 108.527 103.772C118.99 112.927 132.613 125.495 146.289 138.114C159.944 150.713 173.651 163.364 184.226 172.623C189.505 177.246 194.058 181.072 197.458 183.635C199.142 184.904 200.641 185.937 201.852 186.601C202.439 186.922 203.114 187.245 203.797 187.423C204.261 187.544 205.859 187.91 207.212 186.751C208.564 185.593 208.45 183.959 208.402 183.482C208.333 182.78 208.119 182.064 207.893 181.434C207.425 180.134 206.636 178.493 205.645 176.632C203.642 172.874 200.57 167.781 196.825 161.847C189.323 149.96 178.96 134.45 168.639 119.001C158.301 103.527 148.006 88.1137 140.592 76.3516C139.243 74.2126 137.996 72.2027 136.864 70.3418C138.283 71.9873 139.808 73.7879 141.424 75.7236C150.332 86.3951 161.829 100.933 173.371 115.53C184.895 130.105 196.463 144.739 205.465 155.534C209.959 160.924 213.86 165.413 216.819 168.475C218.285 169.991 219.604 171.246 220.696 172.09C221.226 172.499 221.843 172.923 222.49 173.205C222.93 173.397 224.452 174.008 225.97 173.073C227.484 172.14 227.626 170.51 227.653 170.031C227.694 169.327 227.595 168.586 227.47 167.928C227.211 166.571 226.689 164.827 226 162.834C224.609 158.81 222.369 153.298 219.597 146.852C214.043 133.94 206.229 117.003 198.447 100.134C190.653 83.2374 182.892 66.408 177.406 53.6357C176.419 51.3374 175.511 49.1791 174.69 47.1826C175.827 49.0191 177.042 51.0228 178.325 53.1719C185.451 65.1076 194.526 81.2657 203.637 97.4893C212.733 113.687 221.865 129.951 229.063 142.022C232.657 148.049 235.807 153.094 238.25 156.581C239.46 158.308 240.566 159.755 241.514 160.76C241.973 161.248 242.516 161.762 243.111 162.143C243.517 162.402 244.921 163.24 246.563 162.56C248.207 161.878 248.606 160.291 248.709 159.821C248.861 159.131 248.88 158.384 248.859 157.714C248.818 156.333 248.575 154.529 248.208 152.452C247.467 148.259 246.123 142.465 244.397 135.664C240.942 122.041 235.884 104.088 230.85 86.2061C225.807 68.2957 220.787 50.4561 217.377 36.9805C216.766 34.565 216.21 32.2988 215.715 30.2051C216.544 32.1907 217.424 34.3524 218.348 36.667C223.5 49.5786 229.911 66.9683 236.346 84.4277C242.77 101.86 249.22 119.361 254.422 132.415C257.019 138.932 259.332 144.411 261.194 148.237C262.116 150.132 262.98 151.734 263.758 152.875C264.135 153.429 264.591 154.023 265.121 154.492C265.484 154.814 266.744 155.861 268.477 155.437C270.197 155.015 270.835 153.517 271.011 153.069C271.268 152.412 271.405 151.677 271.49 151.012C271.666 149.641 271.712 147.819 271.677 145.709C271.605 141.449 271.19 135.514 270.558 128.524C269.291 114.524 267.125 95.9981 264.97 77.5469C262.811 59.0666 260.664 40.6613 259.42 26.8184C259.194 24.3019 258.998 21.9458 258.838 19.7754C259.352 21.8915 259.891 24.195 260.448 26.6611C263.512 40.2205 267.117 58.3998 270.734 76.6523C274.346 94.8762 277.972 113.173 281.064 126.884C282.608 133.729 284.035 139.503 285.275 143.576C285.89 145.594 286.493 147.313 287.083 148.562C287.369 149.169 287.726 149.827 288.176 150.374C288.484 150.749 289.56 151.976 291.331 151.837C293.1 151.697 293.97 150.32 294.217 149.901C294.576 149.292 294.827 148.586 295.016 147.942C295.405 146.616 295.734 144.825 296.028 142.736C296.623 138.52 297.139 132.593 297.604 125.592C298.537 111.568 299.286 92.931 300.033 74.3691C300.782 55.7779 301.529 37.2616 302.459 23.3926C302.634 20.775 302.815 18.3336 303.003 16.0967Z" fill="#FED33D" stroke="#26103D" stroke-width="6"/>
</g>
<defs>
<filter id="filter0_dd_1793_49" x="0" y="0" width="606" height="606" filterUnits="userSpaceOnUse" color-interpolation-filters="sRGB">
<feFlood flood-opacity="0" result="BackgroundImageFix"/>
<feColorMatrix in="SourceAlpha" type="matrix" values="0 0 0 0 0 0 0 0 0 0 0 0 0 0 0 0 0 0 127 0" result="hardAlpha"/>
<feOffset dy="4"/>
<feGaussianBlur stdDeviation="2"/>
<feComposite in2="hardAlpha" operator="out"/>
<feColorMatrix type="matrix" values="0 0 0 0 0 0 0 0 0 0 0 0 0 0 0 0 0 0 0.25 0"/>
<feBlend mode="normal" in2="BackgroundImageFix" result="effect1_dropShadow_1793_49"/>
<feColorMatrix in="SourceAlpha" type="matrix" values="0 0 0 0 0 0 0 0 0 0 0 0 0 0 0 0 0 0 127 0" result="hardAlpha"/>
<feOffset dy="4"/>
<feGaussianBlur stdDeviation="2"/>
<feComposite in2="hardAlpha" operator="out"/>
<feColorMatrix type="matrix" values="0 0 0 0 0 0 0 0 0 0 0 0 0 0 0 0 0 0 0.25 0"/>
<feBlend mode="normal" in2="effect1_dropShadow_1793_49" result="effect2_dropShadow_1793_49"/>
<feBlend mode="normal" in="SourceGraphic" in2="effect2_dropShadow_1793_49" result="shape"/>
</filter>
<clipPath id="clip0_1793_49">
<rect width="598" height="598" fill="white" transform="translate(4)"/>
</clipPath>
</defs>
</svg>
