<?xml version="1.0" encoding="UTF-8"?>
<!-- Generated by Pixelmator Pro 3.7.1 -->
<svg width="842" height="864" viewBox="0 0 842 864" xmlns="http://www.w3.org/2000/svg">
    <path id="Path" fill="none" stroke="#000000" stroke-width="2" d="M 813 433 C 813 538.82135 770.962646 640.308594 696.13562 715.13562 C 621.308594 789.962646 519.82135 832 414 832 C 308.178619 832 206.691406 789.962646 131.864395 715.13562 C 57.037384 640.308594 15 538.82135 15 433 C 15 327.178589 57.037384 225.691406 131.864395 150.86438 C 206.691406 76.037354 308.178619 34 414 34 C 519.82135 34 621.308594 76.037354 696.13562 150.86438 C 770.962646 225.691406 813 327.178589 813 433 Z"/>
    <path id="path1" fill="none" stroke="#000000" stroke-width="2" d="M 803 443 C 803 546.169189 762.016174 645.112915 689.064514 718.064514 C 616.112915 791.016174 517.169189 832 414 832 C 310.83078 832 211.887115 791.016174 138.935455 718.064514 C 65.98381 645.112915 25 546.169189 25 443 C 25 339.830811 65.98381 240.887085 138.935455 167.935425 C 211.887115 94.983826 310.83078 54 414 54 C 517.169189 54 616.112915 94.983826 689.064514 167.935425 C 762.016174 240.887085 803 339.830811 803 443 Z"/>
    <path id="path2" fill="none" stroke="#000000" stroke-width="2" d="M 793 453 C 793 553.517029 753.069763 649.917175 681.993469 720.993469 C 610.917175 792.069763 514.517029 832 414 832 C 313.482941 832 217.082825 792.069763 146.006531 720.993469 C 74.930237 649.917175 35 553.517029 35 453 C 35 352.48291 74.930237 256.082825 146.006531 185.006531 C 217.082825 113.930237 313.482941 74 414 74 C 514.517029 74 610.917175 113.930237 681.993469 185.006531 C 753.069763 256.082825 793 352.48291 793 453 Z"/>
    <path id="path3" fill="none" stroke="#000000" stroke-width="2" d="M 783 463 C 783 560.864868 744.123352 654.721497 674.922424 723.922424 C 605.721497 793.123352 511.864868 832 414 832 C 316.135101 832 222.278534 793.123352 153.077591 723.922424 C 83.876678 654.721497 45 560.864868 45 463 C 45 365.135132 83.876678 271.278564 153.077591 202.077637 C 222.278534 132.876709 316.135101 94 414 94 C 511.864868 94 605.721497 132.876709 674.922424 202.077637 C 744.123352 271.278564 783 365.135132 783 463 Z"/>
    <path id="path4" fill="none" stroke="#000000" stroke-width="2" d="M 773 473 C 773 671.270203 612.270203 832 414 832 C 215.729767 832 55 671.270203 55 473 C 55 274.729736 215.729767 114 414 114 C 612.270203 114 773 274.729736 773 473 Z"/>
    <path id="path5" fill="none" stroke="#000000" stroke-width="2" d="M 763 483 C 763 675.747375 606.747375 832 414 832 C 221.252625 832 65 675.747375 65 483 C 65 290.252625 221.252625 134 414 134 C 606.747375 134 763 290.252625 763 483 Z"/>
    <path id="path6" fill="none" stroke="#000000" stroke-width="2" d="M 753 493 C 753 680.224548 601.224548 832 414 832 C 226.775482 832 75 680.224548 75 493 C 75 305.775513 226.775482 154 414 154 C 601.224548 154 753 305.775513 753 493 Z"/>
    <path id="path7" fill="none" stroke="#000000" stroke-width="2" d="M 743 503 C 743 684.70166 595.70166 832 414 832 C 232.298309 832 85 684.70166 85 503 C 85 321.29834 232.298309 174 414 174 C 595.70166 174 743 321.29834 743 503 Z"/>
    <path id="path8" fill="none" stroke="#000000" stroke-width="2" d="M 733 513 C 733 689.178833 590.178833 832 414 832 C 237.821167 832 95 689.178833 95 513 C 95 336.821167 237.821167 194 414 194 C 590.178833 194 733 336.821167 733 513 Z"/>
    <path id="path9" fill="none" stroke="#000000" stroke-width="2" d="M 723 523 C 723 693.656006 584.656006 832 414 832 C 243.344025 832 105 693.656006 105 523 C 105 352.343994 243.344025 214 414 214 C 584.656006 214 723 352.343994 723 523 Z"/>
    <path id="path10" fill="none" stroke="#000000" stroke-width="2" d="M 713 533 C 713 698.133118 579.133118 832 414 832 C 248.866852 832 115 698.133118 115 533 C 115 367.866821 248.866852 234 414 234 C 579.133118 234 713 367.866821 713 533 Z"/>
    <path id="path11" fill="none" stroke="#000000" stroke-width="2" d="M 703 543 C 703 702.610291 573.610291 832 414 832 C 254.389709 832 125 702.610291 125 543 C 125 383.389709 254.389709 254 414 254 C 573.610291 254 703 383.389709 703 543 Z"/>
    <path id="path12" fill="none" stroke="#000000" stroke-width="2" d="M 693 553 C 693 707.087463 568.087463 832 414 832 C 259.912567 832 135 707.087463 135 553 C 135 398.912598 259.912567 274 414 274 C 568.087463 274 693 398.912598 693 553 Z"/>
    <path id="path13" fill="none" stroke="#000000" stroke-width="2" d="M 683 563 C 683 711.564575 562.564575 832 414 832 C 265.435394 832 145 711.564575 145 563 C 145 414.435425 265.435394 294 414 294 C 562.564575 294 683 414.435425 683 563 Z"/>
    <path id="path14" fill="none" stroke="#000000" stroke-width="2" d="M 673 573 C 673 716.041748 557.041748 832 414 832 C 270.958252 832 155 716.041748 155 573 C 155 429.958252 270.958252 314 414 314 C 557.041748 314 673 429.958252 673 573 Z"/>
    <path id="path15" fill="none" stroke="#000000" stroke-width="2" d="M 663 583 C 663 720.518921 551.518921 832 414 832 C 276.48111 832 165 720.518921 165 583 C 165 445.481079 276.48111 334 414 334 C 551.518921 334 663 445.481079 663 583 Z"/>
    <path id="path16" fill="none" stroke="#000000" stroke-width="2" d="M 653 593 C 653 724.996033 545.996033 832 414 832 C 282.003937 832 175 724.996033 175 593 C 175 461.003967 282.003937 354 414 354 C 545.996033 354 653 461.003967 653 593 Z"/>
    <path id="path17" fill="none" stroke="#000000" stroke-width="2" d="M 643 603 C 643 729.473206 540.473206 832 414 832 C 287.526794 832 185 729.473206 185 603 C 185 476.526794 287.526794 374 414 374 C 540.473206 374 643 476.526794 643 603 Z"/>
    <path id="path18" fill="none" stroke="#000000" stroke-width="2" d="M 633 613 C 633 733.950378 534.950378 832 414 832 C 293.049652 832 195 733.950378 195 613 C 195 492.049622 293.049652 394 414 394 C 534.950378 394 633 492.049622 633 613 Z"/>
    <path id="path19" fill="none" stroke="#000000" stroke-width="2" d="M 623 623 C 623 738.42749 529.42749 832 414 832 C 298.572479 832 205 738.42749 205 623 C 205 507.57251 298.572479 414 414 414 C 529.42749 414 623 507.57251 623 623 Z"/>
    <path id="path20" fill="none" stroke="#000000" stroke-width="2" d="M 613 633 C 613 742.904663 523.904663 832 414 832 C 304.095337 832 215 742.904663 215 633 C 215 523.095337 304.095337 434 414 434 C 523.904663 434 613 523.095337 613 633 Z"/>
    <path id="path21" fill="none" stroke="#000000" stroke-width="2" d="M 603 643 C 603 747.381836 518.381836 832 414 832 C 309.618195 832 225 747.381836 225 643 C 225 538.618164 309.618195 454 414 454 C 518.381836 454 603 538.618164 603 643 Z"/>
    <path id="path22" fill="none" stroke="#000000" stroke-width="2" d="M 593 653 C 593 751.858948 512.858948 832 414 832 C 315.141022 832 235 751.858948 235 653 C 235 554.141052 315.141022 474 414 474 C 512.858948 474 593 554.141052 593 653 Z"/>
    <path id="path23" fill="none" stroke="#000000" stroke-width="2" d="M 583 663 C 583 756.336121 507.336121 832 414 832 C 320.663879 832 245 756.336121 245 663 C 245 569.663879 320.663879 494 414 494 C 507.336121 494 583 569.663879 583 663 Z"/>
    <path id="path24" fill="none" stroke="#000000" stroke-width="2" d="M 573 673 C 573 760.813293 501.813293 832 414 832 C 326.186737 832 255 760.813293 255 673 C 255 585.186707 326.186737 514 414 514 C 501.813293 514 573 585.186707 573 673 Z"/>
    <path id="path25" fill="none" stroke="#000000" stroke-width="2" d="M 563 683 C 563 765.290405 496.290405 832 414 832 C 331.709564 832 265 765.290405 265 683 C 265 600.709595 331.709564 534 414 534 C 496.290405 534 563 600.709595 563 683 Z"/>
    <path id="path26" fill="none" stroke="#000000" stroke-width="2" d="M 553 693 C 553 769.767578 490.767578 832 414 832 C 337.232422 832 275 769.767578 275 693 C 275 616.232422 337.232422 554 414 554 C 490.767578 554 553 616.232422 553 693 Z"/>
    <path id="path27" fill="none" stroke="#000000" stroke-width="2" d="M 543 703 C 543 774.244751 485.244751 832 414 832 C 342.75528 832 285 774.244751 285 703 C 285 631.755249 342.75528 574 414 574 C 485.244751 574 543 631.755249 543 703 Z"/>
    <path id="path28" fill="none" stroke="#000000" stroke-width="2" d="M 533 713 C 533 778.721863 479.721863 832 414 832 C 348.278107 832 295 778.721863 295 713 C 295 647.278137 348.278107 594 414 594 C 479.721863 594 533 647.278137 533 713 Z"/>
    <path id="path29" fill="none" stroke="#000000" stroke-width="2" d="M 523 723 C 523 783.199036 474.199036 832 414 832 C 353.800964 832 305 783.199036 305 723 C 305 662.800964 353.800964 614 414 614 C 474.199036 614 523 662.800964 523 723 Z"/>
    <path id="path30" fill="none" stroke="#000000" stroke-width="2" d="M 513 733 C 513 787.676208 468.676208 832 414 832 C 359.323822 832 315 787.676208 315 733 C 315 678.323792 359.323822 634 414 634 C 468.676208 634 513 678.323792 513 733 Z"/>
    <path id="path31" fill="#e94a58" stroke="#000000" stroke-width="2" d="M 503 723 C 503 772.15332 463.15332 812 414 812 C 364.846649 812 325 772.15332 325 723 C 325 673.84668 364.846649 634 414 634 C 463.15332 634 503 673.84668 503 723 Z"/>
    <path id="path32" fill="#ffd713" stroke="#000000" stroke-width="2" d="M 493 715 C 493 758.630493 457.630493 794 414 794 C 370.369507 794 335 758.630493 335 715 C 335 671.369507 370.369507 636 414 636 C 457.630493 636 493 671.369507 493 715 Z"/>
    <path id="path33" fill="#f85baa" stroke="#000000" stroke-width="2" d="M 483 707 C 483 745.107666 452.107666 776 414 776 C 375.892365 776 345 745.107666 345 707 C 345 668.892334 375.892365 638 414 638 C 452.107666 638 483 668.892334 483 707 Z"/>
    <path id="path34" fill="#dc3a49" stroke="#000000" stroke-width="2" d="M 473 699 C 473 731.584778 446.584778 758 414 758 C 381.415192 758 355 731.584778 355 699 C 355 666.415222 381.415192 640 414 640 C 446.584778 640 473 666.415222 473 699 Z"/>
    <path id="path35" fill="#bfa629" stroke="#000000" stroke-width="2" d="M 463 691 C 463 718.061951 441.061951 740 414 740 C 386.938049 740 365 718.061951 365 691 C 365 663.938049 386.938049 642 414 642 C 441.061951 642 463 663.938049 463 691 Z"/>
    <path id="path36" fill="#a14f8b" stroke="#000000" stroke-width="2" d="M 453 683 C 453 704.539124 435.539124 722 414 722 C 392.460907 722 375 704.539124 375 683 C 375 661.460876 392.460907 644 414 644 C 435.539124 644 453 661.460876 453 683 Z"/>
    <path id="path37" fill="#1a1d7d" stroke="#000000" stroke-width="2" d="M 443 673 C 443 689.016235 430.016235 702 414 702 C 397.983734 702 385 689.016235 385 673 C 385 656.983765 397.983734 644 414 644 C 430.016235 644 443 656.983765 443 673 Z"/>
    <path id="path38" fill="#000000" stroke="#000000" stroke-width="2" d="M 433 663 C 433 673.493408 424.493408 682 414 682 C 403.506592 682 395 673.493408 395 663 C 395 652.506592 403.506592 644 414 644 C 424.493408 644 433 652.506592 433 663 Z"/>
</svg>
