<?xml version="1.0" encoding="UTF-8"?>
<!-- Generated by Pixelmator Pro 3.7.1 -->
<svg width="694" height="264" viewBox="0 0 694 264" xmlns="http://www.w3.org/2000/svg">
    <path id="Path-copy-2" fill="#85c5d6" stroke="none" d="M 189.194336 71.202515 C 226.039063 69.756226 260.578613 72.515411 289.942139 78.473694 C 292.00293 39.275391 351.338135 5.819092 425.520264 2.907867 C 502.014648 -0.094574 565.322266 30.517883 566.922119 71.282867 C 567.14209 76.89212 566.143311 82.394958 564.125 87.733368 C 565.730957 87.629089 567.338867 87.53006 568.962402 87.466217 C 633.773438 84.922455 687.610352 115.906677 689.209961 156.671692 C 690.809814 197.43631 639.567627 232.544998 574.756104 235.088776 C 541.769287 236.383347 511.644287 228.979538 489.783203 216.034103 C 471.541748 241.10289 432.336182 259.387115 386.24707 261.196289 C 331.257324 263.354523 284.185303 241.371201 270.199219 209.761719 C 247.234619 214.591263 221.808594 217.771698 194.988281 218.824554 C 90.438477 222.927902 4.387207 193.207977 2.787109 152.443359 C 1.187256 111.678741 84.644531 75.305847 189.194336 71.202515 Z"/>
    <path id="Path-copy" fill="#383838" stroke="none" d="M 378.856201 263.426636 C 327.981689 263.426636 283.755615 242.935471 269.001221 212.137131 C 245.65332 216.946198 220.791748 219.896606 195.071289 220.909546 C 144.233154 222.866608 96.141602 217.048309 59.602051 204.430054 C 22.431641 191.592453 1.512451 173.159958 0.702881 152.525879 C -0.936523 110.676239 83.584717 73.261688 189.114746 69.119171 L 189.114746 69.119171 C 223.977539 67.760376 258.12085 70.120392 288.05249 75.975464 C 292.381592 36.49411 351.90332 3.709961 425.438232 0.825043 C 462.796387 -0.611206 498.20874 5.748291 525.2146 18.805847 C 552.647949 32.070831 568.199707 50.678802 569.005371 71.202515 C 569.188232 75.930817 568.549561 80.715851 567.101318 85.468719 C 567.691406 85.435791 568.28125 85.407562 568.875 85.383392 C 634.80127 82.799194 689.651855 114.741302 691.29541 156.59082 C 692.935547 198.436646 640.693359 234.585358 574.836182 237.17337 C 543.313721 238.39827 513.345459 231.883789 490.339111 218.769119 C 470.580078 244.522141 430.960205 261.526672 386.327148 263.280396 C 383.824707 263.37793 381.330322 263.426636 378.856201 263.426636 Z M 270.19751 207.677124 C 271.007568 207.677124 271.76416 208.15332 272.102051 208.918289 C 286.103271 240.562866 333.0354 261.209137 386.164551 259.113739 C 430.418701 257.376282 469.477295 240.40036 488.097168 214.810471 C 488.732178 213.939575 489.915771 213.699631 490.84375 214.240433 C 513.373779 227.578781 543.134521 234.247879 574.67334 233.006714 C 638.235596 230.508331 688.682861 196.304108 687.128662 156.753708 C 685.574707 117.202942 632.559326 87.043304 569.041992 89.550049 C 567.438721 89.61084 565.8479 89.708374 564.264893 89.814148 C 563.467529 89.862854 562.877441 89.545868 562.454346 88.976196 C 562.03125 88.406281 561.929199 87.661652 562.17749 86.998291 C 564.146973 81.789948 565.042236 76.529236 564.838623 71.365387 C 564.098389 52.456696 549.380615 35.122986 523.399902 22.557495 C 496.991943 9.789185 462.279053 3.526733 425.601318 4.991699 C 352.717041 7.848267 294.041992 40.1763 292.019775 78.583679 C 291.987061 79.189972 291.694092 79.751617 291.217773 80.12204 C 290.733643 80.492065 290.123291 80.638794 289.525391 80.516724 C 259.361572 74.392853 224.685791 71.882019 189.2771 73.285828 L 189.195801 71.202515 L 189.2771 73.285828 C 86.04248 77.334625 3.31543 112.808411 4.869629 152.362869 C 5.606445 171.162079 25.528076 188.251663 60.960938 200.491241 C 97.024658 212.942551 144.579102 218.724609 194.908691 216.742874 C 220.991211 215.717484 246.178223 212.682129 269.770264 207.722137 C 269.913086 207.69339 270.054932 207.677124 270.19751 207.677124 Z"/>
</svg>
