<svg width="674" height="585" viewBox="0 0 674 585" fill="none" xmlns="http://www.w3.org/2000/svg">
<g clip-path="url(#clip0_1793_46)">
<path d="M316.9 236.245C405.88 189.425 518.121 231.528 572.561 330.875L572.561 330.876C573.228 332.099 573.652 333.449 573.808 334.841C573.964 336.233 573.849 337.633 573.475 338.956C573.101 340.279 572.478 341.496 571.648 342.536C570.819 343.575 569.798 344.42 568.65 345.02L568.643 345.024L560.237 349.451C558.088 350.58 555.587 350.807 553.233 350.055C550.875 349.3 548.843 347.617 547.576 345.327L547.575 345.328C501.991 263.012 408.535 227.093 333.138 265.435L331.36 266.355C258.066 304.926 228.649 400.663 259.773 486.623L259.775 486.63C261.542 491.462 261.55 496.774 259.825 501.536C258.104 506.286 254.783 510.153 250.518 512.418L250.24 512.556L250.212 512.571C249.068 513.175 247.814 513.526 246.525 513.602C245.236 513.678 243.934 513.476 242.7 513.003C241.466 512.529 240.326 511.792 239.353 510.834C238.382 509.878 237.6 508.723 237.058 507.439C193.288 402.473 227.914 283.07 316.9 236.245Z" fill="#3F9672" stroke="#26103D" stroke-width="5"/>
<path d="M287.757 190.72C341.436 162.499 403.382 159.78 462.318 183.149L462.319 183.15C517.296 204.978 563.417 247.075 593.359 302.521L594.063 303.833C594.654 304.947 595.022 306.173 595.148 307.437C595.273 308.702 595.153 309.976 594.797 311.181C594.44 312.387 593.856 313.499 593.083 314.453C592.31 315.407 591.362 316.186 590.297 316.744L590.295 316.745L580.341 321.977L579.95 322.171C578.007 323.079 575.802 323.234 573.733 322.582C571.66 321.928 569.873 320.51 568.706 318.584L568.481 318.192C513.215 215.522 396.117 171.453 302.23 220.822C208.345 270.191 172.357 394.737 218.234 502.337C219.179 504.574 219.259 507.094 218.477 509.368C217.695 511.64 216.116 513.492 214.078 514.559L214.075 514.561L204.121 519.793L204.119 519.794C203.056 520.355 201.893 520.685 200.701 520.764C199.508 520.844 198.307 520.672 197.17 520.253C196.033 519.834 194.984 519.176 194.088 518.317C193.193 517.459 192.471 516.42 191.967 515.262C166.727 456.688 161.692 392.327 177.852 332.725L177.853 332.725C195.025 269.333 234.076 218.942 287.757 190.72Z" fill="#FED33D" stroke="#26103D" stroke-width="5"/>
<path d="M260.232 144.795C321.941 112.344 393.183 109.216 460.891 136.092L460.892 136.091C524.513 161.341 577.818 210.237 612.206 274.627L612.207 274.629C612.923 275.966 613.371 277.439 613.526 278.959C613.682 280.478 613.541 282.01 613.116 283.462C612.69 284.914 611.99 286.255 611.061 287.407C610.132 288.558 608.991 289.498 607.708 290.173L607.707 290.173L601.742 293.315L601.28 293.545C598.956 294.628 596.321 294.809 593.853 294.026C591.382 293.242 589.256 291.547 587.872 289.25L587.605 288.783C557.072 231.856 509.814 188.543 453.312 166.138C393.011 142.219 329.406 144.949 274.224 173.962C219.042 202.974 179.013 254.735 161.441 319.6C144.977 380.37 150.057 445.859 175.564 505.431C176.691 508.086 176.791 511.08 175.865 513.788C174.938 516.495 173.059 518.709 170.629 519.987L164.662 523.122C163.379 523.796 161.977 524.192 160.54 524.285C159.102 524.379 157.656 524.168 156.289 523.66C154.921 523.152 153.662 522.357 152.588 521.322C151.514 520.286 150.65 519.031 150.05 517.633L150.049 517.633C121.115 450.374 115.348 376.48 133.899 308.022C153.637 235.18 198.523 177.246 260.232 144.795Z" fill="#3F9672" stroke="#26103D" stroke-width="5"/>
</g>
<defs>
<clipPath id="clip0_1793_46">
<rect width="565.945" height="378.455" fill="white" transform="translate(0 242.748) rotate(-25.3993)"/>
</clipPath>
</defs>
</svg>
