<?xml version="1.0" encoding="UTF-8"?>
<!-- Generated by Pixelmator Pro 3.7.1 -->
<svg width="243" height="274" viewBox="0 0 243 274" xmlns="http://www.w3.org/2000/svg">
    <path id="Path-copy-16" fill="#ffade3" stroke="#26103d" stroke-width="3.784225" d="M 173.665558 9.083954 C 174.53566 9.140839 175.368805 9.39801 176.088104 9.840637 C 176.845108 10.283264 177.450562 10.896606 177.904465 11.626678 C 178.320679 12.310944 178.586075 13.079468 178.661469 13.877533 L 178.699173 14.0401 C 178.964569 17.971344 178.093719 22.269089 176.958221 26.453781 L 176.731262 27.289536 C 173.400162 39.34407 165.640884 55.309891 157.163055 71.382126 C 156.32991 72.61174 155.535202 73.845047 154.740494 75.086502 C 145.05101 90.079849 136.496292 105.887527 132.825134 117.653885 L 136.34549 119.015778 C 141.87146 107.219131 151.030884 91.033096 159.812561 74.458389 C 160.001816 74.075607 160.22876 73.697266 160.418015 73.315231 C 169.388199 59.838943 179.077682 47.300385 186.686142 39.328552 C 190.698105 35.137222 197.586533 39.415756 195.656326 44.784988 L 195.656326 44.871445 L 195.618622 45.04953 C 191.492813 56.376938 183.355042 72.490555 174.83876 88.593079 C 167.344147 102.76915 159.50946 116.938583 154.021194 127.600189 C 153.226486 129.098785 152.544891 130.479889 151.939438 131.716904 L 155.345947 133.366241 C 155.989105 132.08786 156.6707 130.740738 157.389999 129.333038 C 161.818176 121.055283 169.502045 108.997055 177.185165 98.676086 C 181.689484 92.610764 186.156097 87.223053 189.903397 83.587418 C 191.795898 81.759979 193.423019 80.451294 194.747772 79.709381 C 196.148666 78.903931 196.677979 79.047287 196.716415 79.07019 L 196.716415 79.07019 C 198.343536 79.819489 199.516739 81.283356 200.198334 83.670914 C 200.879929 86.096161 201.030746 89.330551 200.652237 93.254395 C 199.857529 101.093201 197.018784 111.142227 193.158356 121.777985 C 185.663742 142.355606 174.460251 164.663116 167.571838 176.383652 L 166.927933 177.484695 C 151.257843 203.741913 134.301437 229.113861 110.493568 247.217468 L 110.493568 247.221161 C 90.963058 262.108856 66.852089 259.752319 46.526875 247.247772 C 26.163218 234.728424 9.926109 212.209579 6.443456 187.49234 L 6.443456 187.488647 C 5.534905 181.086349 5.27025 169.755249 6.557302 157.561035 C 7.882055 145.344666 10.720814 132.488373 15.905984 122.91597 C 18.593195 117.914734 22.45435 109.549789 26.95866 100.094879 C 31.500673 90.598602 36.723545 79.91777 42.249516 70.145111 C 47.776222 60.345856 53.566849 51.583359 59.168961 45.843903 C 64.884178 39.961105 69.729286 37.951889 73.665108 39.654434 L 73.665108 39.654434 C 75.406807 40.407425 76.542313 41.572021 77.223167 43.093521 C 77.942467 44.663803 78.245567 46.706268 78.131721 49.195801 C 77.904762 54.201462 76.01226 60.467041 73.475861 67.012695 C 70.902496 73.527298 67.760643 80.118027 65.148834 85.782104 C 63.824081 88.600464 62.650875 91.200104 61.742325 93.413269 C 60.909916 95.452042 60.266762 97.306076 60.001366 98.766983 L 59.963665 99.054443 C 58.26041 110.461655 73.400452 115.83754 79.41877 106.095184 C 80.138069 104.910645 80.818932 103.715012 81.462822 102.538605 C 85.81559 94.514313 89.940659 86.289017 94.028763 78.071121 C 98.154579 69.84584 102.241943 61.63237 106.519302 53.584442 C 115.110985 37.486343 124.498108 22.152328 136.307053 8.962769 L 136.307053 8.962769 C 141.416809 3.253601 150.841644 8.070099 149.214523 15.553497 L 149.176086 15.754486 L 149.176086 15.776642 C 146.413467 28.224304 138.881149 44.810852 130.591827 61.412903 C 124.87661 72.8349 118.820587 84.272415 113.862373 94.188431 C 111.250565 99.390656 109.244217 103.617477 108.071007 106.356033 L 111.553665 107.87384 C 113.067665 104.41185 114.92173 100.575195 116.96579 96.458496 C 122.567902 85.27887 131.084167 69.248032 139.902802 53.914017 C 146.261917 42.911743 152.734146 32.314423 158.373962 24.160812 C 161.175018 20.078827 163.786819 16.643433 166.019394 14.085938 C 168.328842 11.448608 170.069794 9.988434 171.167587 9.526581 L 171.167587 9.522888 L 171.167587 9.519196 C 171.962296 9.174835 172.794708 9.027039 173.665558 9.083954 Z"/>
    <path id="Path-copy-15" fill="#ffffff" stroke="#26103d" stroke-width="2.270535" d="M 64.694931 151.946472 C 73.514297 151.019836 84.64164 151.446945 94.180313 156.694992 C 103.755951 161.942291 110.077362 171.094971 114.013924 179.032059 C 115.981834 182.989899 117.344292 186.614456 118.215134 189.25177 C 118.63134 190.567856 118.934433 191.634903 119.161392 192.368683 C 119.161392 192.410797 119.161392 192.452179 119.199089 192.489868 C 119.123688 192.501694 119.085243 192.516479 119.047546 192.52829 C 118.328247 192.751465 117.268883 193.064789 115.906425 193.401733 C 113.218475 194.083054 109.433464 194.881134 105.042999 195.342972 C 96.224365 196.273315 85.133987 195.846191 75.557617 190.594452 C 65.981979 185.342712 59.660568 176.194489 55.724747 168.253693 C 53.756096 164.299561 52.393642 160.671295 51.522793 158.038406 C 51.10659 156.721588 50.804234 155.654541 50.576542 154.920761 C 50.576542 154.878632 50.576542 154.83725 50.576542 154.799576 C 50.614983 154.788483 50.652683 154.77298 50.690388 154.761887 C 51.409687 154.538727 52.469048 154.228363 53.832241 153.887695 C 56.519451 153.20639 60.304462 152.412018 64.694931 151.946472 Z"/>
    <path id="Path-copy-14" fill="#19154a" stroke="#26103d" stroke-width="2.270535" d="M 83.619987 159.279114 C 86.534149 159.021942 89.449051 159.638245 92.022415 161.049637 C 93.72567 161.984406 95.239677 163.248016 96.451324 164.768799 C 97.662231 166.285858 98.570778 168.030518 99.10083 169.899338 C 99.668579 171.768158 99.820129 173.724152 99.592438 175.66095 C 99.403183 177.594788 98.797729 179.471008 97.851479 181.177979 C 96.451324 183.746582 94.293419 185.842255 91.720055 187.193054 C 89.108253 188.547562 86.155647 189.096603 83.241486 188.778854 C 80.327324 188.456665 77.601669 187.280258 75.330666 185.395935 C 73.097359 183.511597 71.470245 181.003586 70.6371 178.188919 C 69.842392 175.373505 69.880096 172.381485 70.750946 169.585297 C 71.6595 166.789093 73.32505 164.318756 75.633759 162.483948 C 77.904762 160.648376 80.705818 159.532562 83.619987 159.279114 Z"/>
    <path id="Path-copy-13" fill="#ff603a" stroke="#26103d" stroke-width="2.270535" d="M 63.673271 149.218994 C 72.189545 147.311768 83.960785 147.345764 96.942932 155.215607 C 109.963516 163.112061 115.527924 172.630508 117.912041 180.118317 C 119.085243 183.875153 119.463745 187.136902 119.539894 189.452026 C 119.577591 190.205032 119.577591 190.859741 119.539894 191.396225 L 51.409687 153.974899 C 51.977436 153.645325 52.696739 153.252197 53.529144 152.831741 C 55.913998 151.625031 59.395912 150.175949 63.673271 149.218994 Z"/>
    <path id="Path-copy-12" fill="#26103d" stroke="#26103d" stroke-width="1.006369" d="M 105.573051 193.110596 C 105.648453 193.125366 105.686897 193.163788 105.724602 193.21257 C 105.762299 193.273163 105.800003 193.364044 105.800003 193.477112 L 105.800003 193.477112 C 105.497643 196.886642 105.156845 200.295441 104.853752 203.704224 L 104.853752 203.704224 C 104.853752 203.718994 104.853752 203.764816 104.778343 203.813599 C 104.702202 203.866791 104.589096 203.878616 104.551392 203.866791 L 104.551392 203.866791 C 104.47525 203.85202 104.437546 203.818024 104.399841 203.764816 C 104.362144 203.707916 104.3237 203.613342 104.362144 203.500275 L 104.362144 203.500275 L 105.269951 193.273163 L 105.269951 193.273163 C 105.269951 193.258392 105.269951 193.21257 105.3461 193.163788 C 105.459206 193.110596 105.535347 193.09877 105.573051 193.110596 L 105.573051 193.110596 Z"/>
    <path id="Path-copy-11" fill="#26103d" stroke="#26103d" stroke-width="1.006369" d="M 110.379723 193.840683 C 110.455864 193.886505 110.455864 193.954468 110.493568 194.026154 L 110.493568 194.033539 L 110.493568 194.044632 L 111.250565 201.441559 C 111.250565 201.47554 111.250565 201.509537 111.250565 201.543518 C 111.212868 201.573822 111.212868 201.608551 111.175163 201.634415 C 111.175163 201.661011 111.136719 201.683929 111.099022 201.6987 C 111.061317 201.714233 111.023613 201.721619 110.985916 201.725311 C 110.947472 201.729004 110.947472 201.721619 110.909767 201.710541 C 110.87207 201.70314 110.834366 201.683929 110.796661 201.661011 C 110.796661 201.634415 110.758217 201.608551 110.758217 201.577515 C 110.72052 201.543518 110.72052 201.509537 110.72052 201.47554 L 110.72052 201.464447 L 110.72052 201.457062 L 109.925812 194.06015 C 109.925812 193.988464 109.963516 193.920486 110.001221 193.867279 C 110.039658 193.810379 110.115067 193.78009 110.190468 193.772705 C 110.266609 193.769012 110.342018 193.791901 110.379723 193.840683 Z"/>
    <path id="Path-copy-10" fill="#26103d" stroke="#26103d" stroke-width="1.006369" d="M 97.056778 195.184097 C 97.094475 195.191483 97.170624 195.236572 97.246025 195.316376 C 97.28373 195.391739 97.28373 195.437561 97.28373 195.444946 C 96.26207 198.645355 95.845871 202.001678 96.035118 205.353577 L 96.035118 205.353577 C 96.035118 205.459976 95.996674 205.512451 95.996674 205.54274 C 95.958977 205.581177 95.883568 205.615158 95.769722 205.622543 C 95.694321 205.626251 95.618172 205.603333 95.580475 205.569336 C 95.54277 205.546432 95.505066 205.505051 95.505066 205.399384 C 95.315819 202.141342 95.694321 198.876648 96.640572 195.751617 L 96.715973 195.448639 C 96.753677 195.334839 96.829819 195.25946 96.867523 195.218079 C 96.905228 195.18779 96.981369 195.168579 97.056778 195.184097 Z"/>
    <path id="Path-copy-9" fill="#26103d" stroke="#26103d" stroke-width="1.006369" d="M 90.886909 194.771759 C 90.963058 194.809448 91.000755 194.873734 91.03846 194.934326 C 91.076164 194.975708 91.076164 195.032608 91.03846 195.111679 L 91.03846 195.14566 C 89.865257 197.802216 89.183655 200.658264 89.070549 203.56012 L 89.070549 203.56012 C 89.070549 203.68132 89.032845 203.768524 88.956703 203.821716 C 88.956703 203.855713 88.918999 203.881577 88.881302 203.893402 L 88.805153 203.90448 C 88.767456 203.90448 88.692047 203.886017 88.615906 203.821716 C 88.540497 203.775909 88.540497 203.73822 88.540497 203.715302 L 88.540497 203.704224 C 88.654343 200.654572 89.335205 197.654419 90.584557 194.861908 C 90.622253 194.763641 90.659958 194.745148 90.697662 194.737762 C 90.736099 194.725952 90.811508 194.729645 90.886909 194.771759 Z"/>
    <path id="Path-copy-8" fill="#26103d" stroke="#26103d" stroke-width="1.006369" d="M 81.841324 193.795593 C 81.879028 193.806686 81.95443 193.848068 82.030579 193.920486 C 82.068275 193.992157 82.068275 194.049072 82.068275 194.075668 L 82.068275 194.079361 L 79.986519 201.865707 L 79.986519 201.865707 C 79.948822 201.963989 79.910378 202.035675 79.834976 202.073364 C 79.797272 202.111038 79.72113 202.126556 79.645721 202.111038 L 79.645721 202.111038 C 79.608017 202.103653 79.531876 202.062271 79.494171 201.986908 C 79.41877 201.91449 79.41877 201.857574 79.41877 201.827286 L 79.41877 201.827286 L 81.500526 194.090454 L 81.500526 194.079361 L 81.538231 194.015076 C 81.538231 193.942657 81.575928 193.882065 81.652077 193.840683 C 81.689774 193.799301 81.765182 193.783783 81.841324 193.795593 Z"/>
    <path id="Path-copy-7" fill="#26103d" stroke="#26103d" stroke-width="1.006369" d="M 76.466164 191.090302 C 76.503868 191.109512 76.580009 191.173065 76.617714 191.267639 C 76.655418 191.362228 76.617714 191.396225 76.617714 191.400665 C 75.141411 193.594604 73.665108 195.792999 72.189545 197.995071 C 72.151108 198.104431 72.037994 198.165039 72.000298 198.187943 C 71.961853 198.206421 71.886452 198.210846 71.811043 198.172424 C 71.811043 198.165039 71.772606 198.146561 71.734901 198.111832 C 71.697197 198.077835 71.697197 198.036453 71.6595 197.995071 C 71.6595 197.949249 71.6595 197.915268 71.6595 197.89679 C 71.6595 197.877579 71.6595 197.870193 71.6595 197.866486 C 73.135796 195.668121 74.611359 193.469727 76.087662 191.267639 L 76.087662 191.267639 C 76.163811 191.158279 76.239212 191.097687 76.276917 191.074768 C 76.353058 191.056305 76.390762 191.052612 76.466164 191.090302 Z"/>
    <path id="Path-copy-6" fill="#26103d" stroke="#26103d" stroke-width="1.006369" d="M 70.031647 186.130447 C 70.107788 186.164429 70.145493 186.209503 70.183197 186.250885 L 70.183197 186.288574 C 70.220894 186.360992 70.220894 186.4216 70.183197 186.477753 C 70.145493 186.542786 70.069351 186.607071 69.993942 186.648453 L 69.993942 186.648453 C 67.94989 187.530029 66.246635 189.0737 65.187279 191.029694 L 65.148834 191.04892 L 65.148834 191.06369 C 65.148834 191.097687 65.11113 191.127991 65.11113 191.154587 C 65.073433 191.17749 65.035728 191.195969 64.998024 191.207062 C 64.959579 191.222565 64.921883 191.226257 64.884178 191.222565 C 64.846474 191.222565 64.808777 191.211487 64.770332 191.195969 C 64.770332 191.181183 64.732628 191.158279 64.694931 191.131683 C 64.694931 191.101379 64.657227 191.071075 64.657227 191.037094 C 64.657227 190.999405 64.619522 190.965424 64.657227 190.927734 C 64.657227 190.889313 64.657227 190.855316 64.657227 190.82132 L 64.657227 190.82132 C 65.830429 188.710129 67.64753 187.049698 69.880096 186.107544 L 69.918541 186.099411 C 69.918541 186.096451 69.956245 186.096451 70.031647 186.130447 Z"/>
    <path id="Path-copy-5" fill="#26103d" stroke="#26103d" stroke-width="1.006369" d="M 65.073433 180.12941 C 65.148834 180.159698 65.187279 180.216614 65.224976 180.280884 C 65.224976 180.334106 65.224976 180.41687 65.187279 180.496674 C 65.148834 180.575745 65.11113 180.602325 65.073433 180.610474 C 62.310074 181.328735 59.812115 182.759338 57.768063 184.756729 L 57.768063 184.767822 L 57.768063 184.775208 C 57.692657 184.8284 57.617252 184.862396 57.541107 184.866837 C 57.503407 184.869781 57.428001 184.843933 57.35186 184.798111 C 57.314156 184.76413 57.276455 184.692444 57.276455 184.605255 C 57.276455 184.518051 57.314156 184.465576 57.314156 184.442673 L 57.314156 184.442673 C 59.131256 182.63446 61.326118 181.272568 63.748676 180.447159 L 63.748676 180.470062 L 64.884178 180.110931 C 64.921883 180.088028 64.998024 180.095413 65.073433 180.12941 Z"/>
    <path id="Path-copy-4" fill="#26103d" stroke="#26103d" stroke-width="1.006369" d="M 62.159267 173.254929 C 62.272373 173.300751 62.310074 173.368729 62.310074 173.413803 C 62.348518 173.489914 62.348518 173.546082 62.310074 173.602966 C 62.272373 173.663574 62.196968 173.731552 62.120823 173.773682 L 62.120823 173.773682 L 54.437695 177.152161 C 54.399994 177.159546 54.361553 177.166946 54.286148 177.125565 C 54.210743 177.079742 54.134598 177.011765 54.134598 176.96669 L 54.134598 176.96669 L 54.096897 176.913483 C 54.096897 176.864716 54.134598 176.818893 54.134598 176.777527 C 54.172302 176.716919 54.248444 176.648941 54.323849 176.603119 L 54.323849 176.603119 L 62.045422 173.228333 L 62.045422 173.228333 C 62.045422 173.220932 62.083122 173.213547 62.159267 173.254929 Z"/>
    <path id="Path-copy-3" fill="#26103d" stroke="#26103d" stroke-width="1.006369" d="M 59.055115 167.428284 C 59.092815 167.436401 59.131256 167.458588 59.206661 167.531006 L 59.206661 167.534698 C 59.206661 167.56868 59.244366 167.655151 59.206661 167.757858 C 59.206661 167.852448 59.168961 167.875351 59.168961 167.879044 L 59.168961 167.879044 C 56.405605 169.274933 53.302193 169.925201 50.19804 169.767059 C 50.08493 169.758942 49.971085 169.721252 49.933384 169.679871 C 49.895683 169.645874 49.857979 169.60376 49.857979 169.517303 L 49.857979 169.517303 L 49.857979 169.475189 C 49.857979 169.426422 49.895683 169.362122 49.933384 169.301529 C 50.008789 169.229111 50.04723 169.225418 50.04723 169.225418 C 53.036797 169.410889 56.064808 168.809387 58.752754 167.485184 L 58.752754 167.485184 C 58.865864 167.428284 58.97971 167.417206 59.055115 167.428284 Z"/>
    <path id="Path-copy-2" fill="#26103d" stroke="#26103d" stroke-width="1.006369" d="M 56.2925 160.799866 C 56.367905 160.833862 56.367905 160.883377 56.367905 160.966141 L 56.367905 160.966141 C 56.405605 161.011963 56.367905 161.099152 56.2925 161.17453 C 56.254059 161.249893 56.216354 161.254333 56.178654 161.254333 L 46.64072 160.875977 C 46.526875 160.871552 46.451469 160.833862 46.375324 160.79248 C 46.337624 160.754791 46.299919 160.708984 46.299919 160.626221 L 46.299919 160.626221 L 46.299919 160.584106 C 46.337624 160.535339 46.337624 160.471039 46.375324 160.414139 C 46.451469 160.342468 46.48917 160.338028 46.526875 160.338028 L 56.027103 160.712677 L 56.027103 160.71637 C 56.178654 160.720795 56.254059 160.758484 56.2925 160.799866 Z"/>
    <path id="Path-copy" fill="#fed33d" stroke="#26103d" stroke-width="3.02738" d="M 210.455566 213.764328 C 210.493271 213.764328 210.531708 213.779114 210.531708 213.802017 C 210.569412 213.821228 210.607117 213.844147 210.607117 213.869995 L 210.607117 213.900299 C 212.726578 222.288147 215.11142 228.035736 219.237244 232.193817 C 223.400757 236.347473 229.153671 238.723953 237.556107 240.827011 L 237.556107 240.827011 C 237.594543 240.835144 237.594543 240.849915 237.632248 240.869125 L 237.632248 240.891296 C 237.669952 240.925293 237.669952 240.963715 237.669952 241.001404 C 237.669952 241.042786 237.669952 241.080475 237.632248 241.110764 C 237.632248 241.145493 237.594543 241.167664 237.556107 241.175049 C 229.153671 243.282547 223.400757 245.659027 219.237244 249.812683 C 215.11142 253.967072 212.726578 259.718353 210.607117 268.105469 C 210.607117 268.14389 210.569412 268.177887 210.531708 268.204468 C 210.531708 268.226654 210.493271 268.242157 210.455566 268.242157 C 210.380157 268.242157 210.342468 268.226654 210.342468 268.204468 C 210.304016 268.185272 210.266312 268.162354 210.266312 268.13205 L 210.266312 268.105469 C 208.146866 259.718353 205.762009 253.967072 201.598495 249.812683 C 197.473419 245.659027 191.682053 243.282547 183.317337 241.175049 C 183.279633 241.167664 183.24118 241.145493 183.203491 241.110764 C 183.165787 241.080475 183.165787 241.042786 183.165787 241.001404 C 183.165787 240.974792 183.165787 240.944504 183.203491 240.917908 L 183.203491 240.891296 C 183.203491 240.869125 183.24118 240.849915 183.279633 240.838837 L 183.317337 240.827011 C 191.682053 238.723953 197.473419 236.347473 201.598495 232.193817 C 205.762009 228.039429 208.146866 222.288147 210.266312 213.900299 C 210.266312 213.86261 210.304016 213.828613 210.342468 213.802017 C 210.342468 213.779114 210.380157 213.764328 210.455566 213.764328 Z"/>
</svg>
