<svg width="604" height="603" viewBox="0 0 604 603" fill="none" xmlns="http://www.w3.org/2000/svg">
<g clip-path="url(#clip0_1793_34)">
<path d="M244.345 23.6484C362.054 -25.6931 491.319 29.0059 566.725 116.896C609.302 193.328 609.971 297.007 567.333 384.389C527.536 465.717 453.758 531.957 359.287 570.913L357.061 571.825C306.165 592.402 259.219 600.894 217.49 597.152H217.489C182.27 593.999 152.04 578.089 127.582 558.574C125.848 557.183 124.202 555.785 122.498 554.337L122.483 554.324L122.469 554.312L121.309 553.334C115.542 548.437 110.104 543.29 104.934 538.173C98.6729 531.794 92.9527 525.32 87.875 519.161L84.5654 515.146L83.8145 515.816C14.3554 435.476 -10.933 338.638 14.917 256.338L14.916 256.337C40.3601 175.692 105.405 106.835 174.278 61.3711L174.286 61.3662L174.293 61.3613C196.43 46.6438 219.88 34.0178 244.344 23.6475L244.345 23.6484ZM137.769 273.526C113.745 264.785 84.4434 267.368 58.9199 279.835L58.8828 279.853C48.2029 285.178 37.0925 292.844 30.5957 304.087L30.5938 304.089C29.3723 306.205 28.2233 308.736 27.6611 311.391C27.103 314.027 27.0357 317.24 28.5967 320.251L28.623 320.303L28.6514 320.354C30.9677 324.578 35.1641 325.947 38.5146 326.321C41.857 326.694 45.4191 326.223 48.1357 325.773L48.1562 325.771L48.1768 325.767C57.4368 324.155 66.1675 322.061 74.6562 320.876C73.9044 321.988 73.0842 323.339 72.5039 324.748L72.498 324.763L72.4922 324.776C70.2815 330.242 69.2843 336.124 69.5674 342.013C69.8985 353.912 73.7138 364.778 78.0371 374.415V374.416C103.519 432.779 154.642 477.303 218.949 490.709L218.958 490.711C257.171 498.606 299.546 495.809 339.624 481.397C359.909 474.183 379.06 464.095 396.493 451.439L396.492 451.438C398.081 450.307 399.469 449.211 400.619 448.302C401.72 447.433 402.52 446.807 403.194 446.344C403.197 446.349 403.2 446.355 403.203 446.36L403.242 446.445L403.285 446.528C405.122 450.131 405.701 453.469 407.129 458.162C408.463 462.544 410.42 467.362 414.997 471.616C416.367 473.084 418.134 474.125 420.087 474.608L420.189 474.634L420.294 474.655C423.04 475.213 425.464 474.341 427.139 473.43C428.842 472.503 430.309 471.246 431.421 470.172L431.42 470.171C443.532 458.674 450.968 443.101 452.317 426.451C455.554 415.852 452.559 405.322 447.312 396.922C441.982 388.39 433.959 381.405 426.149 377.864L426.126 377.854L426.103 377.844C423.19 376.559 416.751 373.781 410.102 372.052C406.787 371.19 403.189 370.526 399.819 370.518C396.554 370.51 392.722 371.117 389.746 373.62L389.732 373.631L389.72 373.643C385.995 376.821 384.736 381.021 384.768 385.068C384.797 388.928 385.981 392.863 387.316 396.296C388.664 399.76 390.376 403.212 391.702 405.993C393.16 409.05 393.981 410.975 394.198 412.095L394.228 412.248L394.268 412.398C394.493 413.264 394.531 414.168 394.384 415.051C394.192 415.867 393.38 417.042 391.377 419.111L391.354 419.135L391.33 419.159C369.325 442.509 340.239 450.213 310.69 460.335C284.603 469.147 256.46 469.788 230.001 462.175L229.993 462.172L229.984 462.17L228.674 461.792C173.293 445.568 131.222 401.913 110.659 348.98L110.655 348.97L110.377 348.241C108.946 344.405 106.917 337.681 105.743 330.845C105.118 327.206 104.761 323.679 104.821 320.621C104.884 317.473 105.385 315.3 106.074 314.023L106.084 314.004C107.429 311.488 110.707 309.79 115.546 308.016L115.614 307.99C126.519 303.812 137.371 299.802 148.249 296.084L150.835 295.2L151.487 292.547C152.812 287.162 150.783 282.72 147.775 279.611C145.106 276.852 141.563 274.975 138.396 273.761L137.769 273.526ZM453.439 108.678C447.853 107.608 442.713 109.587 438.572 112.507C430.489 118.208 424.226 128.816 421.526 136.946C420.192 140.886 419.123 144.995 418.072 148.674C416.993 152.449 415.884 155.961 414.383 159.271C410.329 168.083 403.259 174.644 394.753 180.861C390.478 183.986 386.058 186.876 381.488 189.989C376.992 193.052 372.438 196.276 368.27 199.865L368.243 199.888L368.219 199.909C350.237 215.814 337.538 236.852 331.822 260.198C330.395 266.026 328.453 275.636 328.346 285.019C328.292 289.711 328.693 294.57 329.974 298.962C331.255 303.357 333.519 307.615 337.423 310.593L337.503 310.653L337.584 310.711C342.153 313.915 347.786 315.208 353.289 314.323C360.728 313.529 366.431 309.355 370.744 303.946C375.028 298.575 378.193 291.701 380.673 284.755C383.167 277.768 385.083 270.371 386.713 263.809C388.381 257.092 389.699 251.488 391.06 247.557L391.073 247.518C393.723 239.651 397.156 234.47 401.562 230.277C406.091 225.969 411.829 222.52 419.535 218.342L419.541 218.339L419.548 218.335C446.523 203.609 456.5 177.957 466.907 153.162L466.906 153.161C470.537 144.578 475.272 131.429 467.953 119.96L467.941 119.942L467.56 119.36C463.592 113.42 458.868 109.718 453.439 108.678ZM331.097 57.5312C326.826 54.2083 321.259 52.8468 314.64 53.6348C301.921 55.1456 295.844 66.6685 292.263 76.6816C290.389 81.9196 288.941 87.4987 287.635 92.3447C286.28 97.3697 285.117 101.436 283.787 104.292L283.785 104.298C279.67 113.165 272.56 119.782 264.063 126.029C259.794 129.168 255.385 132.07 250.841 135.183C246.368 138.246 241.845 141.462 237.717 145.029L237.698 145.045L237.681 145.061C219.657 160.934 206.946 181.987 201.275 205.356C199.851 211.173 197.88 220.799 197.744 230.198C197.676 234.899 198.061 239.767 199.332 244.168C200.604 248.573 202.864 252.843 206.778 255.825L206.864 255.89L206.952 255.951C211.51 259.124 217.117 260.398 222.593 259.512C230.035 258.719 235.738 254.543 240.052 249.133C244.334 243.762 247.498 236.886 249.976 229.94C252.468 222.953 254.382 215.556 256.011 208.994C257.678 202.278 258.995 196.674 260.355 192.743L260.359 192.73C263.077 184.808 266.522 179.616 270.915 175.413C275.43 171.094 281.126 167.635 288.806 163.395C315.935 148.712 325.856 123.021 336.208 98.3691C339.428 90.7895 341.145 79.5506 338.81 70.207C337.622 65.4556 335.276 60.7837 331.097 57.5312Z" fill="#5C59ED" stroke="#26103D" stroke-width="10"/>
<path d="M33.1518 317.964C35.5301 322.301 42.103 321.737 47.4362 320.855C58.8664 318.759 70.8441 315.68 82.159 315.073C82.7932 320.393 78.9732 322.156 77.1282 326.637C75.1875 331.435 74.313 336.6 74.5636 341.771C74.8519 352.757 78.383 362.962 82.6207 372.401C107.499 429.383 157.357 472.747 219.971 485.8C257.26 493.504 298.699 490.787 337.934 476.679C357.774 469.624 376.505 459.758 393.557 447.379C399.51 443.144 402.566 439.313 405.42 441.351C406.416 442.112 407.212 443.104 407.74 444.242C411.949 452.496 411.055 461.241 418.55 468.078C419.274 468.898 420.23 469.478 421.29 469.741C423.567 470.203 426.018 468.425 427.949 466.56C439.318 455.783 446.249 441.127 447.378 425.48C453.245 407.57 437.793 388.62 424.085 382.404C418.32 379.86 399.582 371.867 392.966 377.432C383.597 385.425 397.651 403.638 399.107 411.126C399.521 412.717 399.585 414.379 399.294 415.997C398.79 418.44 396.887 420.594 394.97 422.574C371.908 447.046 341.321 455.112 312.292 465.057C285.24 474.195 256.057 474.86 228.619 466.965C170.863 450.559 127.203 405.359 106 350.777C102.901 342.856 96.7171 320.812 101.675 311.633C104.039 307.21 109.214 304.998 113.826 303.307C124.766 299.115 135.679 295.082 146.633 291.338C148.276 284.66 141.977 280.353 136.068 278.213C113.51 270.003 85.6189 272.345 61.1153 284.313C50.7949 289.459 40.7053 296.571 34.9254 306.574C32.9218 310.274 31.4653 314.712 33.1518 317.964Z" fill="#FFADE3"/>
<path d="M206.119 206.546C203.337 217.907 198.638 243.348 209.794 251.848C213.338 254.315 217.708 255.286 221.96 254.551C245.022 252.209 249.793 207.934 255.616 191.108C261.511 173.921 271.01 167.503 286.375 159.018C311.729 145.315 321.084 121.436 331.592 96.4141C337.357 82.841 337.56 55.9404 315.218 58.6001C296.221 60.8551 294.491 93.1185 288.308 106.402C279.011 126.437 256.596 135.312 240.971 148.813C223.716 164.01 211.547 184.168 206.119 206.546Z" fill="#FFADE3"/>
<path d="M336.709 261.373C333.927 272.735 329.343 298.103 340.484 306.603C344.03 309.068 348.399 310.038 352.65 309.306C375.713 306.964 380.499 262.689 386.322 245.863C392.087 228.749 401.701 222.259 417.139 213.889C442.32 200.143 451.731 176.306 462.282 151.169C466.001 142.381 469.489 131.626 463.723 122.592C449.309 100.216 431.206 123.517 426.247 138.492C423.682 146.067 422.24 153.974 418.911 161.302C409.729 181.265 387.301 190.01 371.518 203.597C354.309 218.844 342.163 239.004 336.709 261.373Z" fill="#FFADE3"/>
</g>
<defs>
<clipPath id="clip0_1793_34">
<rect width="604" height="603" fill="white"/>
</clipPath>
</defs>
</svg>
