<?xml version="1.0" encoding="UTF-8"?>
<!-- Generated by Pixelmator Pro 3.7.1 -->
<svg width="212" height="221" viewBox="0 0 212 221" xmlns="http://www.w3.org/2000/svg">
    <path id="Path-copy-4" fill="#383838" stroke="none" d="M 105.833252 5.160889 C 163.97583 5.160889 211.109619 52.294556 211.109619 110.437073 C 211.109619 168.580017 163.97583 215.713745 105.833252 215.713745 C 47.690674 215.713745 0.557129 168.580017 0.557129 110.437073 C 0.557129 52.294556 47.690674 5.160889 105.833252 5.160889 Z"/>
    <path id="Path-copy-3" fill="#ffd713" stroke="none" d="M 8.150879 160.440002 L 8.126709 156.273315 C 8.207764 156.273315 16.512451 156.077881 24.5979 148.078369 C 32.202881 140.550415 41.175049 124.419128 40.735596 90.31665 C 40.161865 45.838379 33.63916 38.011719 30.860107 36.71167 C 29.541748 36.092896 28.491699 36.898804 28.38208 36.992065 L 25.660156 33.834595 C 26.787109 32.852173 29.48877 31.537842 32.503662 32.882446 C 40.283936 36.347534 44.45459 55.652954 44.9021 90.263733 C 45.26416 118.510803 39.543213 138.837524 27.889648 150.678345 C 18.421387 160.297546 8.565918 160.437927 8.150879 160.440002 Z"/>
    <path id="Path-copy-2" fill="#ffd713" stroke="none" d="M 94.8125 220.482056 L 92.953369 216.755005 C 93.421387 216.519165 139.848145 192.039978 137.647217 99.062927 C 135.466064 6.859131 90.039551 4.883789 89.584229 4.875488 L 89.640869 0.70874 C 91.679443 0.735474 139.53125 2.444092 141.813721 98.965393 C 144.080566 194.806702 96.82666 219.481201 94.8125 220.482056 Z"/>
    <path id="Path-copy" fill="#ffd713" stroke="none" d="M 197.998779 172.069153 L 193.978271 170.97876 C 194.125 170.429199 208.561523 115.464966 182.479492 67.379517 C 156.380859 19.271606 126.298584 5.636719 125.997559 5.50415 L 127.665771 1.685425 C 128.943359 2.24292 159.294189 15.906616 186.141602 65.394165 C 213.038086 114.977051 198.15332 171.503784 197.998779 172.069153 Z"/>
</svg>
