<svg width="227" height="220" viewBox="0 0 227 220" fill="none" xmlns="http://www.w3.org/2000/svg">
<g clip-path="url(#clip0_1793_42)">
<path d="M164.415 3.26807C167.144 2.21531 169.522 2.25374 171.446 3.54736H171.447C173.26 4.76589 174.22 6.79559 174.498 9.55908C174.76 12.1716 174.372 15.1554 173.722 17.981L173.588 18.5444C167.047 45.2809 154.948 70.3411 138.078 92.0942L141.794 95.4214C161.133 76.6706 181.84 57.7293 207.475 54.894L207.474 54.8931C212.858 54.2982 218.005 54.7779 221.247 57.731C224.899 61.0592 225.452 67.3907 223.047 72.5269C220.791 77.3441 216.574 81.1064 211.785 84.52L210.82 85.1978C191.03 98.8549 167.621 106.313 143.575 106.622L143.39 111.612C168.116 113.772 191.691 123.029 211.276 138.27V138.271C214.747 140.981 218.106 144.573 220.025 148.291C221.875 151.874 222.235 155.211 220.646 158.109L220.485 158.388C218.371 161.924 213.679 163.582 208.438 164.252L208.432 164.253C181.001 167.837 153.691 151.872 137.468 128.627C135.437 125.2 133.379 121.821 131.337 118.492L126.986 120.949C128.819 124.485 130.899 127.923 133.194 131.231C145.847 152.604 156.827 174.923 156.157 198.806V198.807C156.054 202.518 155.456 206.374 154.124 209.619C152.798 212.849 150.82 215.307 148.024 216.603L148.022 216.604C143.714 218.605 138.004 217.201 133.896 213.716C130.038 210.445 127.471 205.781 125.264 200.681L124.826 199.656C115.926 178.271 112.937 154.946 116.086 132.107C116.614 129.133 117.122 126.169 117.623 123.226L112.711 122.296C112.087 125.284 111.567 128.286 111.149 131.295C107.226 153.338 102.268 175.083 90.1387 193.127C87.7287 196.705 84.4911 200.166 80.9854 202.31C77.6064 204.376 74.2466 205.079 71.0928 203.928L70.7881 203.811C67.3216 202.408 65.306 199.258 64.4287 194.934C63.5476 190.591 63.92 185.438 64.9492 180.902C70.6581 155.978 83.6674 133.32 102.316 115.822L99.4053 111.806C73.1285 126.189 41.2374 130.063 12.3125 122.33L12.3096 122.329L11.5244 122.114C9.70434 121.597 7.96755 120.98 6.49512 120.151C4.82842 119.213 3.64737 118.087 3.00781 116.676L3.00684 116.675L2.86816 116.343C2.23017 114.668 2.40411 112.761 3.2998 110.727C4.26198 108.542 5.97976 106.42 7.92773 104.785L7.92871 104.786C19.9521 94.6925 37.6717 94.6304 54.3711 96.8696C70.7358 99.0633 86.8667 102.741 102.564 107.858L104.207 103.136C77.6548 93.3102 51.0842 80.8766 35.1445 58.5708L34.3936 57.5015C32.9596 55.4187 31.7346 53.047 31.2207 50.8208C30.7114 48.6148 30.9527 46.8469 31.9902 45.4995L31.9912 45.4976C32.8745 44.3484 34.248 43.6458 36.1143 43.3364C37.9992 43.024 40.1769 43.1544 42.3027 43.4985L42.3135 43.5005C72.9725 48.3178 96.8085 72.1903 118.902 95.5688L124.137 101.107L123.201 93.5444L123.093 92.6714L122.986 91.811L122.37 91.2017L121.424 90.2573C101.616 70.3284 85.8728 44.0386 89.9658 17.3013C90.4108 14.4006 91.1765 12.3564 92.5938 11.4624L92.5947 11.4634C93.7069 10.7687 95.1026 10.7725 96.9072 11.6567C98.7312 12.5505 100.576 14.1853 102.009 15.936C118.789 36.4373 122.496 64.4984 125.573 91.8062L130.55 91.729C133.017 61.4717 136.566 29.7745 156.714 8.68018L156.715 8.6792C158.894 6.39609 161.666 4.32886 164.415 3.26807Z" fill="#5C59ED" stroke="#3B0F46" stroke-width="5"/>
<path d="M113.5 80.1055C130.017 80.1055 143.405 93.4905 143.405 110C143.405 126.51 130.017 139.895 113.5 139.895C96.9835 139.894 83.5957 126.509 83.5957 110C83.5957 93.4906 96.9835 80.1057 113.5 80.1055Z" fill="#FFADE3" stroke="#3B0F46" stroke-width="5"/>
</g>
<defs>
<clipPath id="clip0_1793_42">
<rect width="227" height="220" fill="white"/>
</clipPath>
</defs>
</svg>
