<svg width="942" height="849" viewBox="0 0 942 849" fill="none" xmlns="http://www.w3.org/2000/svg">
<g filter="url(#filter0_d_1793_29)">
<g clip-path="url(#clip0_1793_29)">
<path d="M230.881 463.96C298.146 275.917 453.479 134.594 618.683 20.4877C624.271 16.6278 631.555 24.1191 627.896 29.8414C601.127 71.7113 581.998 118.111 571.506 166.885C681.334 118.03 797.022 83.6696 915.656 64.6482C921.538 63.7052 924.956 70.9956 920.528 74.9806C844.528 143.383 772.156 215.72 703.713 291.695C777.216 293.816 850.133 305.195 920.744 325.543C926.286 327.14 926.47 334.833 921.049 336.8C726.704 407.296 540.201 497.811 364.551 606.892L230.881 463.96Z" fill="#098AF5"/>
<path d="M622.126 24.4404C622.378 24.4849 622.785 24.6614 623.185 25.0693C623.582 25.4753 623.799 25.9347 623.862 26.293C623.914 26.5842 623.88 26.8406 623.684 27.1484C596.594 69.5199 577.235 116.476 566.618 165.834L564.549 175.452L573.538 171.454C682.97 122.774 798.242 88.5378 916.448 69.585C916.799 69.5289 916.963 69.6021 917.05 69.6514C917.174 69.722 917.326 69.8653 917.434 70.0947C917.542 70.3242 917.561 70.5456 917.533 70.709C917.512 70.8318 917.452 71.0215 917.184 71.2637C841.053 139.783 768.559 212.243 699.998 288.348L692.762 296.381L703.568 296.692C776.651 298.802 849.151 310.116 919.359 330.348C919.68 330.44 919.796 330.568 919.852 330.645C919.93 330.752 920.004 330.929 920.01 331.161C920.016 331.393 919.952 331.592 919.864 331.729C919.796 331.834 919.667 331.982 919.344 332.1C725.959 402.248 540.326 492.183 365.401 600.481L236.623 462.779C303.896 277.672 457.411 137.955 621.524 24.6016C621.798 24.4123 621.96 24.4111 622.126 24.4404Z" stroke="#26103D" stroke-width="10"/>
<path d="M182.872 340.273C182.8 338.333 185.256 337.439 186.448 338.972L259.707 433.118C264.512 439.293 273.846 439.292 278.649 433.117L351.885 338.976C353.077 337.443 355.534 338.338 355.462 340.278L351.039 459.465C350.749 467.284 357.9 473.285 365.551 471.642L482.172 446.594C484.07 446.186 485.377 448.45 484.075 449.891L404.072 538.354C398.824 544.158 400.444 553.351 407.36 557.011L512.815 612.804C514.531 613.712 514.077 616.285 512.154 616.552L393.989 632.899C386.238 633.972 381.57 642.057 384.518 649.306L429.442 759.79C430.174 761.589 428.171 763.27 426.526 762.237L325.5 698.82C318.873 694.66 310.101 697.853 307.699 705.3L271.08 818.818C270.484 820.666 267.87 820.666 267.273 818.818L230.635 705.297C228.232 697.852 219.461 694.66 212.835 698.819L111.808 762.237C110.163 763.27 108.16 761.589 108.892 759.79L153.816 649.306C156.764 642.057 152.096 633.972 144.345 632.899L26.1797 616.552C24.2566 616.286 23.8025 613.712 25.5186 612.804L130.974 557.011C137.89 553.351 139.51 544.158 134.262 538.354L54.2588 449.891C52.9566 448.45 54.2638 446.186 56.1621 446.594L172.783 471.642C180.434 473.285 187.585 467.284 187.295 459.465L182.872 340.273Z" fill="#FFADE3" stroke="#26103D" stroke-width="10"/>
</g>
</g>
<defs>
<filter id="filter0_d_1793_29" x="0" y="0" width="942" height="849" filterUnits="userSpaceOnUse" color-interpolation-filters="sRGB">
<feFlood flood-opacity="0" result="BackgroundImageFix"/>
<feColorMatrix in="SourceAlpha" type="matrix" values="0 0 0 0 0 0 0 0 0 0 0 0 0 0 0 0 0 0 127 0" result="hardAlpha"/>
<feOffset dy="4"/>
<feGaussianBlur stdDeviation="2"/>
<feComposite in2="hardAlpha" operator="out"/>
<feColorMatrix type="matrix" values="0 0 0 0 0 0 0 0 0 0 0 0 0 0 0 0 0 0 0.25 0"/>
<feBlend mode="normal" in2="BackgroundImageFix" result="effect1_dropShadow_1793_29"/>
<feBlend mode="normal" in="SourceGraphic" in2="effect1_dropShadow_1793_29" result="shape"/>
</filter>
<clipPath id="clip0_1793_29">
<rect width="934" height="841" fill="white" transform="translate(4)"/>
</clipPath>
</defs>
</svg>
