<svg width="533" height="533" viewBox="0 0 533 533" fill="none" xmlns="http://www.w3.org/2000/svg">
<g clip-path="url(#clip0_1793_51)">
<path d="M266.5 5C410.922 5 528 122.078 528 266.5C528 410.922 410.922 528 266.5 528C122.078 528 5 410.922 5 266.5C5 122.078 122.078 5 266.5 5Z" fill="#FFADE3" stroke="#26103D" stroke-width="10"/>
<path d="M348.31 137.32C395.217 137.32 433.259 176.46 433.259 221.459C433.259 222.543 433.223 223.641 433.174 224.798L433.16 225.127L433.188 225.45C433.189 225.461 433.192 225.487 433.194 225.526C433.2 225.603 433.209 225.733 433.218 225.915C433.236 226.279 433.257 226.85 433.265 227.615C433.279 229.145 433.236 231.452 432.994 234.436C432.511 240.404 431.233 249.077 428.037 259.667C421.656 280.813 407.585 309.738 376.667 340.092L376.649 340.109L376.632 340.126C348.702 368.086 317.483 394.754 266.538 436.211C215.594 394.773 184.377 368.105 156.448 340.127L156.411 340.09L154.973 338.668C125.03 308.834 111.285 280.482 104.997 259.666C101.799 249.076 100.52 240.402 100.035 234.435C99.793 231.452 99.7494 229.145 99.7637 227.615C99.7708 226.85 99.7931 226.279 99.8115 225.915C99.8207 225.733 99.8286 225.602 99.834 225.525C99.8363 225.492 99.8388 225.469 99.8398 225.456L99.876 225.042L99.8447 224.629C99.7716 223.671 99.7695 222.682 99.7695 221.459C99.7697 176.46 137.812 137.32 184.719 137.32C218.864 137.32 248.524 159.357 262.006 187.641L266.52 197.11L271.033 187.641C284.516 159.357 314.165 137.32 348.31 137.32Z" fill="#FA543C" stroke="#26103D" stroke-width="10"/>
</g>
<defs>
<clipPath id="clip0_1793_51">
<rect width="533" height="533" fill="white"/>
</clipPath>
</defs>
</svg>
