<?xml version="1.0" encoding="UTF-8"?>
<!-- Generated by Pixelmator Pro 3.7.1 -->
<svg width="1338" height="896" viewBox="0 0 1338 896" xmlns="http://www.w3.org/2000/svg">
    <clipPath id="clipPath1">
        <path d="M 0 0 L 1338 0 L 1338 896 L 0 896 Z"/>
    </clipPath>
    <g id="Group" clip-path="url(#clipPath1)">
        <path id="Path" fill="#ff86db" stroke="#26103d" stroke-width="10" d="M 757.620972 213.197998 C 910.148987 168.768005 1118.48999 168.354004 1283.949951 196.97699 L 1283.949951 196.978027 C 1296.319946 199.145996 1307.530029 205.585999 1315.619995 215.166992 C 1323.459961 224.448975 1327.880005 236.106018 1328.189941 248.213989 L 1328.209961 249.386963 C 1328.319946 281.615967 1329.819946 314.30603 1330.310059 346.273987 L 1330.310059 346.280029 C 1330.430054 353.532959 1329.069946 360.734009 1326.319946 367.447021 C 1323.560059 374.160034 1319.469971 380.245972 1314.290039 385.334991 C 1309.109985 390.424011 1302.939941 394.410004 1296.170044 397.050995 C 1289.400024 399.691986 1282.160034 400.932007 1274.890015 400.696014 L 1274.880005 400.696014 C 996.708984 391.973999 675.130005 463.462006 431.803986 603.469971 L 428.946014 605.119019 C 394.756989 624.905029 351.743011 602.200989 348.622986 563.187012 L 348.557007 562.262024 L 346.713989 532.952026 L 346.713989 532.940979 L 346.653992 531.872009 C 346.158997 520.820007 349.127991 509.877014 355.160004 500.571014 L 355.158997 500.570007 C 446.588989 359.914001 595.697021 260.359985 757.620972 213.197998 Z"/>
        <path id="path1" fill="#ff6262" stroke="#26103d" stroke-width="10" d="M 764.828979 120.294983 C 858.606995 80.375366 959.129028 50.460999 1059.75 59.476807 L 1059.75 59.476807 C 1138.02002 66.481689 1257.52002 93.954407 1328.420044 127.031982 C 1328.72998 127.177979 1328.930054 127.296997 1329.050049 127.380005 C 1329.040039 127.61499 1328.97998 128.122009 1328.76001 129.122986 C 1328.180054 131.72998 1326.300049 137.60498 1330.150024 143.462036 L 1330.150024 143.466003 C 1332.75 147.401001 1333.359985 152.182983 1332.829956 157.995972 C 1332.280029 164.046021 1330.670044 169.919006 1329.420044 176.666016 C 1325.869995 195.567017 1327.380005 214.403015 1329.050049 232.525024 L 1329.050049 232.526001 C 1329.619995 238.799011 1328.73999 245.120972 1326.459961 250.997009 C 1324.180054 256.874023 1320.579956 262.145996 1315.920044 266.403992 C 1311.26001 270.661011 1305.680054 273.786987 1299.609985 275.537964 C 1293.540039 277.289001 1287.150024 277.618042 1280.939941 276.497009 L 1280.920044 276.494995 L 1277.469971 275.890015 C 983.984985 225.031006 636.820007 331.087036 430.399994 545.625977 C 407.52301 569.403015 367.28299 557.674988 360.752014 525.356018 L 359.812012 520.664001 L 359.809998 520.653015 L 359.808014 520.640991 L 359.68399 520.015015 C 358.459015 513.533997 358.850006 506.846985 360.825989 500.54599 C 417.893005 320.263 588.263 195.432007 764.828003 120.294983 L 764.828979 120.294983 Z"/>
        <path id="path2" fill="#fec810" stroke="#26103d" stroke-width="10" d="M 975.289001 10.706482 C 1087.650024 2.286499 1201.52002 0.545105 1310.869995 24.145996 L 1310.869995 24.146973 C 1315.890015 25.232971 1320.369995 28.02948 1323.540039 32.053223 C 1326.719971 36.076721 1328.390015 41.076111 1328.26001 46.191895 L 1328.26001 46.199707 C 1327.890015 62.904114 1328.410034 79.57251 1329.030029 96.118713 C 1329.660034 112.707031 1330.400024 129.13501 1330.5 145.56897 L 1330.5 145.578003 C 1330.530029 149.03302 1329.73999 152.447021 1328.189941 155.539978 L 1328.189941 155.541016 C 1326.640015 158.632996 1324.380005 161.317993 1321.589966 163.374023 C 1318.810059 165.429016 1315.569946 166.797974 1312.150024 167.367981 C 1308.72998 167.937012 1305.219971 167.690002 1301.910034 166.64801 L 1301.910034 166.64801 C 1127.030029 111.598022 923.606995 117.492981 754.000977 183.979004 C 592.286987 247.377991 452.830994 365.296021 362.569 513.294006 C 352.774994 529.343994 328.653015 526.510986 322.865997 508.675995 L 322.86499 508.671997 L 303.621002 449.531006 L 303.618011 449.520996 L 303.45401 449 C 302.667999 446.381012 302.382996 443.635986 302.61499 440.910004 C 302.863007 438.001007 303.694 435.17099 305.059998 432.588989 C 347.925995 352.174988 421.850006 282.234009 487.312012 216.64801 L 493.618988 210.313965 C 625.482971 77.572998 787.692017 24.747498 975.289001 10.706482 Z"/>
        <linearGradient id="linearGradient1" x1="80.710937" y1="901.4375" x2="-90.625" y2="181.90625" gradientUnits="userSpaceOnUse">
            <stop offset="0" stop-color="#3478f6" stop-opacity="1"/>
            <stop offset="1" stop-color="#48175a" stop-opacity="1"/>
        </linearGradient>
        <path id="path3" fill="url(#linearGradient1)" stroke="#070707" stroke-width="10" d="M 344.221008 279.079956 C 346.502991 278.096008 349.01001 277.747009 351.476013 278.070007 C 353.94101 278.393005 356.270996 279.375977 358.221008 280.912964 C 360.048004 282.354004 361.47699 284.230957 362.376007 286.367004 L 362.548004 286.797974 C 377.697998 326.89801 397.416992 378.679993 414.341003 421.38501 C 422.802002 442.734009 430.579987 461.854004 436.747986 476.122986 C 439.82901 483.25 442.531006 489.221985 444.730011 493.675995 C 445.828003 495.897003 446.82901 497.802002 447.712006 499.307007 C 448.506012 500.661011 449.468994 502.164001 450.533997 503.173004 L 450.539001 503.177002 C 451.378998 503.970001 452.477997 504.677002 453.488007 505.269012 C 454.57901 505.908997 455.903015 506.605011 457.404999 507.345001 C 460.414001 508.82901 464.345001 510.591003 468.980011 512.564026 C 478.263 516.515015 490.592987 521.403992 504.5 526.742981 C 532.325012 537.424988 566.635986 549.973022 595.88501 560.538025 L 595.885986 560.539001 C 598.426025 561.455017 600.638 563.096008 602.247986 565.255981 C 603.857971 567.414978 604.796021 569.997986 604.945984 572.682983 C 605.096008 575.367981 604.452026 578.039001 603.093018 580.362976 C 601.732971 582.687012 599.718994 584.562988 597.299011 585.755981 L 597.297974 585.757019 C 568.15802 600.116028 534.023987 617.132996 506.691986 631.392029 C 493.033997 638.518005 481.022003 644.981995 472.166992 650.094971 C 467.747986 652.646973 464.044006 654.901978 461.290985 656.76001 C 459.920013 657.685974 458.709991 658.562988 457.739014 659.367981 C 456.919006 660.047974 455.756012 661.08197 455.032013 662.351013 L 455.028015 662.359009 C 454.562988 663.177979 454.328003 664.041016 454.200012 664.565002 C 454.049011 665.187012 453.925995 665.877991 453.821014 666.591003 C 453.610992 668.020996 453.433014 669.830017 453.278015 671.93103 C 452.967987 676.148987 452.729004 681.853027 452.546997 688.698975 C 452.183014 702.40802 452.042999 720.937988 452.050995 741.844971 C 452.06601 783.674011 452.67099 835.174988 453.257996 877.013977 L 453.257996 877.018005 C 453.296997 879.677002 452.561005 882.291016 451.139008 884.541016 C 449.716003 886.791016 447.667999 888.58197 445.242004 889.69397 C 442.967987 890.737 440.45401 891.140015 437.971985 890.86499 L 437.476013 890.801025 L 436.981995 890.718994 C 434.527008 890.265015 432.238007 889.151978 430.36499 887.497986 C 384.488007 846.763977 343.328003 801.028992 307.656006 751.148987 L 307.654999 751.148987 C 304.230011 746.320007 299.127014 742.940002 293.34201 741.666992 C 287.548004 740.392029 281.485992 741.320984 276.34201 744.27301 L 276.335999 744.276978 C 215.203003 779.479004 150.970993 809.026978 84.444298 832.552002 C 82.010201 833.406006 79.384102 833.559998 76.866203 832.995972 C 74.346001 832.43103 72.037102 831.171021 70.203102 829.359009 C 68.369202 827.547974 67.083702 825.258972 66.493202 822.755005 C 65.902603 820.25 66.030296 817.630981 66.861298 815.195984 L 66.863297 815.189026 L 117.773003 665.361023 C 119.012001 661.715027 119.345001 657.822998 118.741997 654.018982 C 118.139999 650.215027 116.620003 646.616028 114.315002 643.530029 L 114.309998 643.52301 L 7.74121 501.403992 L 7.7334 501.394012 L 7.44336 500.994995 C 6.03235 498.976013 5.18988 496.614014 5.00684 494.154999 C 4.81161 491.53299 5.3747 488.90799 6.63086 486.593994 C 7.88698 484.281006 9.78344 482.375 12.0957 481.102997 C 14.4082 479.832001 17.039101 479.25 19.674801 479.427002 L 19.6807 479.427002 L 176.641998 489.764008 C 180.666 490.042999 184.695999 489.292999 188.350998 487.584015 C 192.011002 485.872009 195.173996 483.255005 197.539001 479.980011 L 197.546997 479.968994 L 338.515015 283.653015 C 339.96701 281.644043 341.938995 280.062988 344.221008 279.079956 Z"/>
        <path id="path4" fill="#fed33d" stroke="#26103d" stroke-width="9" d="M 730.041016 621.5 C 730.179993 621.5 730.315979 621.546021 730.426025 621.630981 C 730.507996 621.695007 730.572998 621.778015 730.61499 621.870972 L 730.648987 621.968994 C 737.02002 647.346008 744.184998 664.72699 756.726013 677.283997 C 769.268005 689.843018 786.638 697.025024 812.030029 703.393982 L 812.030029 703.39502 C 812.164978 703.429993 812.284973 703.508972 812.369019 703.617981 C 812.453979 703.728027 812.5 703.862 812.5 704 C 812.5 704.138 812.453979 704.271973 812.369019 704.382019 C 812.30603 704.463989 812.223022 704.528992 812.129028 704.570984 L 812.030029 704.60498 C 786.637024 710.973999 769.268005 718.156982 756.726013 730.716003 C 744.184998 743.27301 737.02002 760.653992 730.648987 786.031006 C 730.61499 786.164978 730.536011 786.283997 730.426025 786.369019 C 730.315979 786.453979 730.18103 786.5 730.041016 786.5 C 729.901001 786.5 729.765991 786.453979 729.656006 786.369019 C 729.573975 786.30603 729.51001 786.223022 729.468018 786.129028 L 729.434021 786.031006 C 723.062012 760.650024 715.875 743.268982 703.312012 730.713013 C 690.75 718.156006 673.361023 710.973022 647.968018 704.604004 C 647.833984 704.56897 647.715027 704.491028 647.630981 704.382019 C 647.546021 704.271973 647.5 704.138 647.5 704 C 647.5 703.862 647.546021 703.728027 647.630981 703.617981 C 647.716003 703.508972 647.833984 703.429993 647.968994 703.39502 C 673.361023 697.026001 690.75 689.843018 703.312012 677.286987 C 715.875 664.731018 723.062012 647.349976 729.434021 621.968994 C 729.468018 621.835022 729.546021 621.716003 729.656006 621.630981 C 729.765991 621.546021 729.901978 621.5 730.041016 621.5 Z"/>
    </g>
</svg>
