<?xml version="1.0" encoding="UTF-8"?>
<!-- Generated by Pixelmator Pro 3.7.1 -->
<svg width="298" height="181" viewBox="0 0 298 181" xmlns="http://www.w3.org/2000/svg">
    <path id="Path-copy-4" fill="#e8ad43" stroke="none" d="M 237.896973 91.138794 C 237.896973 139.611694 198.602539 178.90625 150.129395 178.90625 C 101.657227 178.90625 62.362549 139.611694 62.362061 91.138794 C 62.362061 42.66626 101.657227 3.371704 150.129395 3.371704 C 198.602539 3.371704 237.896973 42.66626 237.896973 91.138794 Z"/>
    <path id="Path-copy-3" fill="#383838" stroke="none" d="M 150.130615 180.990356 C 100.586182 180.990356 60.278564 140.682983 60.278564 91.138794 C 60.278564 41.594238 100.586182 1.288696 150.130615 1.288696 C 199.675049 1.288696 239.982422 41.594238 239.982422 91.138794 C 239.982422 140.682983 199.675049 180.990356 150.130615 180.990356 Z M 150.130615 5.455444 C 102.885498 5.455444 64.445313 43.893311 64.445313 91.138794 C 64.445313 138.385864 102.885498 176.82373 150.130615 176.82373 C 197.375732 176.82373 235.815674 138.385864 235.815674 91.138794 C 235.815674 43.893311 197.375732 5.455444 150.130615 5.455444 Z"/>
    <path id="Path-copy-2" fill="#ff61e3" stroke="none" d="M 63.870117 65.6875 C 26.74292 71.473755 2.272949 80.665894 2.272949 91.380005 C 2.272949 109.001221 67.736572 123.2854 148.490479 123.2854 C 229.244141 123.2854 294.708252 109.001221 294.708252 91.380005 C 294.708252 80.873779 272.119385 71.19165 236.209229 65.37793 L 238.931641 77.444946 C 251.713379 81.359131 258.196533 86.207886 258.196533 91.380005 C 258.196533 104.60083 209.07959 115.318359 148.490479 115.318359 C 87.901123 115.318359 38.78418 104.60083 38.78418 91.380005 C 38.78418 85.780029 46.735352 80.870483 61.5 76.792969 L 63.870117 65.6875 Z"/>
    <path id="Path-copy" fill="#d108ad" stroke="none" d="M 148.490723 125.369141 C 76.595459 125.369141 0.1875 113.457153 0.1875 91.380859 C 0.1875 75.824951 39.884521 67.31665 63.549805 63.62793 C 64.225342 63.52417 64.91748 63.758301 65.385498 64.254517 C 65.856934 64.75293 66.05249 65.450806 65.909912 66.122559 L 63.537842 77.22876 C 63.375 77.987427 62.80127 78.59375 62.052979 78.80127 C 43.620117 83.891724 40.869385 88.86792 40.869385 91.380859 C 40.869385 101.717896 85.067139 113.235474 148.490723 113.235474 C 211.914551 113.235474 256.112061 101.717896 256.112061 91.380859 C 256.112061 87.252441 249.625732 82.898804 238.322021 79.436279 C 237.606445 79.216309 237.064941 78.632446 236.9021 77.9021 L 234.179932 65.835327 C 234.025391 65.162109 234.220947 64.454102 234.692871 63.949585 C 235.164551 63.447021 235.856201 63.205078 236.544189 63.320923 C 254.65918 66.254517 296.789795 74.860352 296.789795 91.380859 C 296.789795 113.457153 220.38208 125.369141 148.490723 125.369141 Z M 61.198242 68.224121 C 19.36084 75.069946 4.354248 84.62207 4.354248 91.380859 C 4.354248 105.48584 63.549805 121.202515 148.490723 121.202515 C 233.431396 121.202515 292.623291 105.48584 292.623291 91.380859 C 292.623291 84.73999 278.483398 74.724121 238.924561 67.941284 L 240.702393 75.814575 C 253.695068 79.973389 260.278564 85.205811 260.278564 91.380859 C 260.278564 108.28125 202.681641 117.4021 148.490723 117.4021 C 94.299561 117.4021 36.702881 108.28125 36.702881 91.380859 C 36.702881 84.886719 44.23877 79.566284 59.725586 75.12915 L 61.198242 68.224121 Z"/>
</svg>
