<svg width="699" height="839" viewBox="0 0 699 839" fill="none" xmlns="http://www.w3.org/2000/svg">
<g clip-path="url(#clip0_1793_31)">
<path d="M292.932 5.73511C318.203 2.53485 349.638 9.82658 392.499 24.6472C435.006 39.3453 502.559 69.9069 563.163 107.7C593.457 126.592 621.886 147.211 644.546 168.466C666.92 189.453 683.311 210.727 690.595 231.247L690.935 232.223C695.446 245.445 688.408 260.861 670.438 277.948C652.764 294.753 626.023 311.651 595.532 327.266C534.597 358.473 460.057 383.868 416.97 392.896C373.071 402.095 274.689 427.579 184.395 432.72C139.228 435.292 96.6988 432.719 64.3125 420.811C32.2012 409.005 10.4891 388.25 5.41504 354.164H5.41602C3.36525 340.339 8.65492 317.144 25.0527 287.55C41.3306 258.172 68.2045 223.133 108.203 185.859C189.046 110.524 210.04 80.9964 229.965 50.6677C248.725 22.1406 268.231 8.8631 292.932 5.73511Z" fill="#FA543C" stroke="#26103D" stroke-width="10"/>
<path d="M570.644 186.886C596.437 182.522 620.222 181.45 640.157 186.441C659.863 191.375 675.878 202.235 686.542 222.178C697.105 241.934 695.871 260.077 686.634 277.09C677.217 294.432 659.358 310.767 636.374 325.83C590.463 355.918 526.104 379.662 475.343 395.994C429.331 410.791 336.422 431.199 246.282 440.146C201.221 444.619 157.05 446.207 119.886 442.858C82.4533 439.485 53.185 431.183 36.9043 416.787C3.4833 387.235 -1.10743 350.357 12.8428 317.847C26.9297 285.019 60.1114 256.385 102.672 244.957C145.763 233.387 199.89 233.025 255.479 233.448C310.708 233.868 367.364 235.065 414.297 226.159C437.738 221.711 464.081 214.014 490.788 206.421C517.617 198.793 544.895 191.244 570.644 186.886Z" fill="#F8DCD8" stroke="#26103D" stroke-width="10"/>
<path d="M604.989 212.611C623.184 212.229 636.874 215.895 645.045 224.633C654.192 234.414 658.877 243.748 660.173 252.608C661.462 261.424 659.477 270.324 654.277 279.434C643.715 297.939 620.281 316.617 586.894 334.999L586.89 335.001C566.895 346.032 516.231 364.334 458.806 381.196C401.499 398.022 338.205 413.196 293.179 418.156C258.051 422.028 212.147 425.679 169.311 425.61C147.892 425.575 127.325 424.61 109.302 422.301C91.7713 420.055 76.9578 416.574 66.1562 411.631L65.124 411.149C40.7129 399.465 28.3427 368.155 38.2285 337.12C42.9928 322.164 59.9039 300.848 87.3604 283.955C114.618 267.185 151.785 255.102 196.392 258.084C287.856 264.199 371.151 265.466 425.106 257.515C438.928 255.478 457.614 249.816 478.04 243.317C498.641 236.761 521.241 229.273 543.394 223.306C565.575 217.331 586.938 212.989 604.989 212.611Z" fill="#F8DCD8" stroke="#26103D" stroke-width="10"/>
<path d="M375.369 316.094C381.404 314.288 389.062 313.867 396.938 314.544C404.775 315.217 412.473 316.946 418.459 319.161C421.456 320.27 423.895 321.455 425.669 322.604C427.552 323.825 428.206 324.698 428.345 324.982L428.348 324.987C432.3 333.077 434.499 346.23 435.722 363.7C436.932 381 437.15 401.713 437.565 424.545C438.393 469.995 439.991 523.463 452.107 571.927L452.109 571.933C462.293 612.491 485.34 659.151 504.995 699.548C514.883 719.87 523.908 738.59 530.212 754.418C533.361 762.324 535.782 769.391 537.289 775.484C538.811 781.639 539.312 786.467 538.895 790.021C538.361 794.539 535.49 799.151 529.726 803.762C523.971 808.365 515.784 812.587 505.697 816.322C485.551 823.782 458.865 828.923 431.788 831.662C404.74 834.399 377.63 834.706 356.729 832.656C346.253 831.629 337.551 830.028 331.262 827.945C328.115 826.903 325.757 825.8 324.127 824.712C322.467 823.604 321.91 822.748 321.745 822.327C302.477 773.139 300.872 702.069 304.818 637.636C308.762 573.253 318.11 516.908 320.295 496.417C327.845 426.33 359.81 336.052 364.155 324.726L364.156 324.723C365.641 320.847 369.319 317.904 375.369 316.094Z" fill="#FA543C" stroke="#26103D" stroke-width="10"/>
<path d="M339.342 27.3584C340.273 27.3584 342.155 28.0712 344.866 30.9287C347.419 33.6189 349.998 37.4737 352.326 41.833C354.636 46.1578 356.589 50.7732 357.954 54.834C359.05 58.0948 359.664 60.7034 359.887 62.417C356.612 61.4416 349.925 58.6836 342.903 58.6836C336.149 58.6836 329.707 59.258 324.245 58.6904C321.583 58.4138 319.996 57.9136 319.189 57.4121C318.741 57.1332 318.699 57.0455 318.699 56.5586C318.699 55.1418 319.266 52.5225 320.637 49.0771C321.958 45.7544 323.86 42.0805 326.115 38.6787C328.385 35.2557 330.898 32.2826 333.383 30.2217C335.939 28.1011 337.958 27.3586 339.342 27.3584Z" fill="#F8DCD8" stroke="#26103D" stroke-width="10"/>
<path d="M201.61 173.051C203.342 173.051 204.408 173.392 205.078 173.763C205.726 174.121 206.27 174.655 206.743 175.495C207.804 177.379 208.357 180.527 208.282 185.045C208.21 189.437 207.576 194.342 206.911 199.331C206.271 204.133 205.571 209.198 205.571 213.309C205.571 214.042 205.526 214.55 205.474 214.892C205.397 214.886 205.313 214.878 205.22 214.867C204.399 214.772 203.3 214.52 201.819 214.082C196.276 212.444 186.4 208.309 175.854 208.309C165.61 208.309 154.985 209.215 146.215 208.304C141.898 207.855 138.873 207.014 137.044 205.877C135.573 204.962 134.924 203.944 134.924 202.108C134.924 201.741 135.098 200.861 136.204 199.399C137.291 197.963 139.019 196.317 141.414 194.533C146.198 190.971 152.968 187.357 160.547 184.106C168.086 180.873 176.22 178.086 183.608 176.115C191.086 174.12 197.468 173.051 201.61 173.051Z" fill="#F8DCD8" stroke="#26103D" stroke-width="10"/>
<path d="M365.492 111.459C366.64 111.555 368.647 111.948 371.575 112.798C374.851 113.748 378.876 115.144 383.398 116.896C392.437 120.399 403.238 125.235 413.615 130.516C424.018 135.809 433.838 141.471 440.99 146.603C444.582 149.18 447.333 151.506 449.134 153.474C451.15 155.677 451.16 156.555 451.16 156.309C451.16 160.106 448.515 163.168 442.006 165.453C435.656 167.682 427.409 168.409 420.545 168.409C416.659 168.409 411.628 168.982 406.664 169.542C401.549 170.119 396.315 170.708 391.555 170.873C386.67 171.042 382.939 170.727 380.593 169.875C379.486 169.473 379.016 169.066 378.831 168.842C378.713 168.699 378.532 168.436 378.532 167.709C378.532 163.306 376.858 156.985 374.997 150.732C372.981 143.96 370.742 137.274 368.752 130.374C366.793 123.579 365.461 117.802 365.344 113.868C365.316 112.93 365.363 112.21 365.449 111.682C365.462 111.6 365.478 111.527 365.492 111.459Z" fill="#F8DCD8" stroke="#26103D" stroke-width="10"/>
<path d="M246.742 65.8335C248.431 65.8335 250.467 66.5639 252.772 68.355C255.067 70.1371 257.34 72.7561 259.367 75.9116C263.496 82.3389 265.961 89.9596 265.961 95.0337C265.961 99.6736 263.136 106.025 258.395 111.418C253.601 116.871 248.089 119.958 243.894 119.958C240.129 119.958 235.743 117.017 231.95 111.257C228.266 105.662 226.1 98.7658 226.1 93.6089C226.1 88.72 228.781 81.5427 233.235 75.4468C235.411 72.4695 237.845 69.9845 240.283 68.2837C242.741 66.5697 244.932 65.8336 246.742 65.8335Z" fill="#F8DCD8" stroke="#26103D" stroke-width="10"/>
<path d="M313.7 172.709C314.803 172.709 316.146 173.242 317.771 175.285C319.432 177.372 320.949 180.537 322.211 184.465C324.725 192.287 325.796 201.734 325.796 207.609C325.796 209.602 325.206 210.881 324.354 211.855C323.411 212.931 321.873 213.931 319.586 214.751C314.913 216.425 308.543 216.859 302.304 216.859C297.585 216.859 293.06 214.984 289.723 211.646C286.386 208.308 284.51 203.78 284.51 199.059C284.51 197.241 285.335 194.651 287.312 191.51C289.239 188.448 292.007 185.269 295.224 182.38C298.436 179.495 301.968 177.015 305.335 175.281C308.781 173.506 311.672 172.709 313.7 172.709Z" fill="#F8DCD8" stroke="#26103D" stroke-width="10"/>
<path d="M439.064 57.2834C441.093 57.2834 443.985 58.081 447.431 59.8557C450.797 61.5896 454.329 64.0696 457.541 66.9543C460.758 69.8435 463.525 73.0231 465.452 76.0842C467.429 79.2254 468.255 81.8158 468.255 83.634C468.255 87.94 465.754 92.3313 461.334 95.843C456.926 99.3449 451.234 101.434 446.188 101.434C441.103 101.434 435.006 99.3169 430.202 95.7454C425.349 92.1371 422.696 87.7519 422.695 83.634C422.695 78.3144 424.604 71.3599 427.941 65.8127C431.382 60.0939 435.408 57.2835 439.064 57.2834Z" fill="#F8DCD8" stroke="#26103D" stroke-width="10"/>
<path d="M548.761 118.559C553.479 118.559 558.006 120.433 561.343 123.771C564.68 127.11 566.555 131.637 566.555 136.358C566.555 141.079 564.68 145.607 561.343 148.945H561.342C558.005 152.283 553.479 154.159 548.761 154.159C541.846 154.159 534.145 154.801 527.597 153.938C524.386 153.514 522.225 152.795 520.973 151.935C520.03 151.287 519.57 150.592 519.57 149.184C519.57 147.295 520.445 144.39 522.494 140.764C524.481 137.249 527.312 133.514 530.566 130.093C533.823 126.669 537.379 123.689 540.742 121.602C544.221 119.443 546.978 118.559 548.761 118.559Z" fill="#F8DCD8" stroke="#26103D" stroke-width="10"/>
</g>
<defs>
<clipPath id="clip0_1793_31">
<rect width="699" height="839" fill="white"/>
</clipPath>
</defs>
</svg>
