<?xml version="1.0" encoding="utf-8"?>
<!-- Generator: Adobe Illustrator 26.2.1, SVG Export Plug-In . SVG Version: 6.00 Build 0)  -->
<svg version="1.1" xmlns="http://www.w3.org/2000/svg" xmlns:xlink="http://www.w3.org/1999/xlink" x="0px" y="0px"
	 viewBox="0 0 714 714" style="enable-background:new 0 0 714 714;" xml:space="preserve">
<style type="text/css">
	.st0{fill:#FFC0D2;}
	.st1{fill:#CEF4F0;}
	.st2{fill:#C6B9ED;}
	.st3{fill:#FE8494;}
	.st4{fill:#FA5375;}
	.st5{fill:#BC404A;}
	.st6{fill:#FB5B76;}
	.st7{fill:#FF8F9E;}
	.st8{fill:#FF4366;}
	.st9{fill:#FD7A58;}
	.st10{fill:#FF3F4A;}
	.st11{fill:#D42C52;}
	.st12{fill:#D1CAEF;}
	.st13{fill:#FFF4E9;}
	.st14{fill:#FCCDA2;}
	.st15{fill:#FFE1CA;}
	.st16{fill:#93B9F2;}
	.st17{fill:#CCE3FF;}
	.st18{fill:#749CD6;}
	.st19{fill:#FFD7E0;}
	.st20{fill:#F2ADBD;}
	.st21{fill:#FFE3E8;}
	.st22{fill:#F792A8;}
	.st23{fill:#FFF8FA;}
	.st24{fill:#FFD7E2;}
	.st25{fill:#F9C5D3;}
	.st26{fill:#E8AABD;}
	.st27{fill:#E89CB0;}
	.st28{fill:#A49FE6;}
	.st29{fill:#9090E0;}
	.st30{fill:#E6B1E3;}
	.st31{fill:#E0A6E0;}
	.st32{fill:#EF7897;}
	.st33{fill:#FFE1C0;}
	.st34{fill:#F95FB0;}
	.st35{fill:#D3C9CC;}
	.st36{fill:#CCBEC4;}
	.st37{fill:#2D2628;}
	.st38{fill:#EF4BA9;}
	.st39{fill:#FC97D5;}
	.st40{fill:#231C1F;}
	.st41{fill:#FFC3E0;}
	.st42{fill:#FFEBD3;}
	.st43{fill:#8888D1;}
	.st44{fill:#FFB864;}
	.st45{fill:#F7A64D;}
	.st46{fill:#EA9139;}
	.st47{fill:#FFCD97;}
	.st48{fill:#7AA6E5;}
	.st49{fill:#FFDBE4;}
	.st50{fill:#BBBBF2;}
	.st51{fill:#FFDBB3;}
	.st52{fill:#D390D3;}
</style>
<g id="Vintage_Postal_Stamp_-_Blush_Palette">
</g>
<g id="Vintage_Postal_Stamp_-_Diamond_Ring">
</g>
<g id="Vintage_Postal_Stamp_-_Perfume">
</g>
<g id="Vintage_Postal_Stamp_-_Make-up_Brush">
</g>
<g id="Vintage_Postal_Stamp_-_Pouch">
</g>
<g id="Vintage_Postal_Stamp_-_Lipstick">
</g>
<g id="Spring_Daisy_Icon">
	<g>
		<path class="st34" d="M569.114563,322.1892395c-14.4464722-10.9292603-33.062561-16.2018433-51.2078857-18.6766968
			c-17.2457886-2.3521729-34.8291931-2.5743713-51.9871826-0.7478638
			c6.7497864-8.2138367,13.0531616-16.7819519,18.9760437-25.5334473
			c11.0015259-16.255249,21.3231201-33.3006744,30.1065979-50.6882629
			c7.3098145-14.4705048,12.7115479-31.572937,3.5482788-44.743103
			c-9.8005981-14.0862274-28.9470825-16.2742767-45.953064-11.2824097
			c-17.3813782,5.1021271-32.6997681,16.9219513-45.4898071,30.0289764
			c-12.7712097,13.0877686-23.8799438,27.8721466-32.8651733,43.5909729
			c-4.6026917,8.0517883-8.6845398,16.3733673-12.1892395,24.8734589
			c-0.8588257-14.5374603-3.2693787-28.9954681-6.6056519-43.1478882
			c-4.0454712-17.1613159-9.1315918-34.376358-15.5325623-50.8155518
			c-5.327179-13.6810913-13.8729248-27.7702026-29.7113953-30.0590515
			c-16.9400635-2.4480743-31.817688,8.4962311-40.0444641,22.5228577
			c-8.4084778,14.3363342-10.5523376,31.5177765-10.0137024,47.8737488
			c0.4354248,13.2210693,2.4284973,26.4320374,5.8563232,39.2253876c-2.4534912-2.5930328-4.9493713-5.1417084-7.4794617-7.6476746
			c-12.9673157-12.8443909-26.8426514-25.1771088-41.395401-36.1251221
			c-12.1111603-9.111145-27.1651306-16.8515015-41.8022308-10.3518372
			c-15.6551666,6.9516754-22.1144257,24.5144806-21.2462463,41.2039642
			c0.8873138,17.0580444,8.6440277,33.2425537,18.2043762,47.264801
			c9.5463104,14.0016479,21.0883484,26.7151489,34.0055389,37.5895081c3.0579071,2.5742188,6.1985626,5.0499573,9.4092712,7.4282227
			c-17.6200104,2.1512146-34.9479218,6.5890198-51.7105713,12.249176
			c-17.2927399,5.8390503-34.5346832,12.7189941-50.8422546,20.8248901
			c-13.5714722,6.7460632-27.2357178,16.7370911-27.9822464,32.7350464
			c-0.7983932,17.1106567,12.0095596,30.753479,27.3194046,37.4541931
			c15.6480865,6.8487244,33.5925598,7.1646423,50.411911,4.899292c16.7947388-2.2619934,33.3318634-6.8853149,48.8407745-13.5621033
			c7.4259644-3.196991,14.6498108-6.8651428,21.5995789-10.9677734
			c-8.9647522,10.088501-17.0467529,20.9715271-24.4338226,32.2119751
			c-10.0238495,15.2528992-19.366684,31.2945557-27.2180634,47.7260742
			c-6.5339966,13.6748352-11.1420441,29.9628601-1.8740692,43.0242004
			c9.9124756,13.9697266,28.4062958,16.8253174,44.5938263,12.6713867
			c16.5449982-4.2457275,30.8743744-15.052002,42.7270966-27.1983643
			c11.8355103-12.128479,22.0132141-25.9583435,30.1160889-40.7722473c1.6705933-3.0541992,3.2541504-6.1558533,4.7566833-9.295166
			c-0.3745728,4.7175598-0.5804749,9.4514771-0.6062622,14.1864319c-0.09198,16.8848877,2.1080322,33.9146118,6.5825195,50.2595825
			c4.4810486,16.3689575,11.7778625,32.7659912,24.1922302,44.49823
			c12.1462097,11.4788208,29.7068481,17.9439087,45.1477051,10.5285034
			c14.4369812-6.9331665,18.3002319-23.4136963,19.2124023-38.5418701
			c1.0957336-18.1780396,0.6981506-36.7377319-0.6776733-54.9376831
			c-1.0161743-13.4432373-2.8173828-26.9106445-5.7817078-40.1091614c2.9907837,3.6739197,6.1151428,7.243042,9.3707581,10.6881409
			c11.5974121,12.2722778,24.9518738,23.0661316,39.4781799,31.7936096
			c14.5473938,8.7403259,31.1501465,15.5559998,48.2310181,15.4634094
			c16.7118225-0.0905151,33.8752747-7.5463867,39.917572-23.5745544
			c5.6495361-14.9858398-2.9415894-29.5710144-12.7324219-41.139679
			c-11.7647705-13.9008179-24.8729858-27.045929-38.4399109-39.2553101
			c-7.81073-7.0291138-15.9766846-13.7393494-24.5300903-19.9081116c6.4552612,0.0663147,12.9034424-0.055603,19.3221741-0.3293457
			c19.6104126-0.8363647,39.4508667-2.6894226,58.6508789-5.9820557
			c15.9786987-2.7403259,32.9364014-8.5805664,38.064209-23.7833252
			C592.8881226,349.569519,583.2489014,332.8823547,569.114563,322.1892395z M365.4672241,396.0305481
			c-4.2208862-0.3938904-8.3148804,0.5547791-12.0943298,2.3721313c-5.8972168,2.8357544-10.348175,7.5716553-13.8461914,13.1893311
			c0.1371765-7.9914551-1.2724609-15.7188721-5.7827759-22.0821228c-2.4251404-3.4213562-5.5464172-6.2352905-9.4293518-7.9364014
			c-0.2872925-0.125824-0.5823364-0.2271729-0.8806152-0.3057251c-4.0270081-1.9069214-8.6629944-2.7150879-13.1036682-2.5141296
			c-4.9029846,0.2217407-9.6261292,1.5266113-14.102478,3.5047607c4.0406494-5.4578857,6.9124756-11.4705811,7.432373-18.0934143
			c4.5553894,0.0814514,9.0173035-0.6305847,13.2269592-2.4973145c3.8337097-1.7000427,7.2096558-4.2026367,9.6455078-7.6720886
			c0.1802063-0.2567139,0.3379517-0.5258789,0.473938-0.8026733c2.6661682-3.5700684,4.375824-7.9543762,5.0577698-12.3468933
			c0.3883667-2.5010986,0.4798279-5.0122681,0.3387756-7.5136719c4.1584473,2.8899231,8.7436218,4.9652405,13.836853,5.7038269
			c4.1470642,0.6013489,8.3388062,0.3128967,12.2564697-1.2487183c0.289856-0.1155701,0.5673828-0.2528687,0.8307495-0.4076538
			c3.4804993-1.2734375,6.6949463-3.3614197,9.371582-5.8898926c0.5643005,3.7915649,1.6766052,7.3836365,3.5092468,10.6464539
			c-0.6494751,1.2301025-1.2133789,2.5085144-1.6656494,3.8470154c-1.3449402,3.9802551-1.7148438,8.1680908-0.6342468,12.3195801
			c0.0800781,0.3071594,0.1859741,0.6061401,0.3136597,0.8943787c0.9985352,4.3895264,3.3358459,8.6268921,6.4095154,12.1123047
			c1.9302368,2.1889038,4.1255493,4.1213379,6.5065918,5.8389282c-1.6972046,2.0655518-3.0036316,4.4252625-3.958313,6.9613037
			c-1.8685913,4.9641418-2.1853027,10.1748657-1.5207214,15.4210205c-3.4596558-1.8714294-7.3660889-3.0916748-11.2733459-3.3409729
			C366.0866089,396.1140747,365.7795105,396.0597229,365.4672241,396.0305481z"/>
		<circle class="st41" cx="353.5393677" cy="374.4124451" r="62.4182854"/>
	</g>
</g>
<g id="Spring_Shovel_Icon">
</g>
<g id="Spring_Beehive_Icon">
</g>
<g id="Spring_Pinwheel_Icon">
</g>
</svg>
